<svg xmlns="http://www.w3.org/2000/svg" width="48" height="48" viewBox="0 0 48 48">
    <g fill="none" fill-rule="evenodd">
        <path fill="#FFF" d="M14 0h20c7.732 0 14 6.268 14 14v20c0 7.732-6.268 14-14 14H14C6.268 48 0 41.732 0 34V14C0 6.268 6.268 0 14 0z"/>
        <path fill="#8B572A" fill-rule="nonzero" d="M11 11.429C11 9.535 12.648 8 14.682 8h18.636C35.352 8 37 9.535 37 11.429V36.57C37 38.465 35.352 40 33.318 40H14.682C12.648 40 11 38.465 11 36.571V11.43zM16 13v2h16v-2H16zm0 5v2h16v-2H16zm0 5v2h11v-2H16z"/>
    </g>
</svg>
