<svg xmlns="http://www.w3.org/2000/svg" width="48" height="48" viewBox="0 0 48 48">
    <g fill="none" fill-rule="evenodd">
        <path fill="#FFF" d="M14 0h20c7.732 0 14 6.268 14 14v20c0 7.732-6.268 14-14 14H14C6.268 48 0 41.732 0 34V14C0 6.268 6.268 0 14 0z"/>
        <path fill="#F58000" fill-rule="nonzero" d="M10 20H8v-2a8 8 0 0 1 8-8h2v2h-2a6 6 0 0 0-6 6v2zm0 8v2a6 6 0 0 0 6 6h2v2h-2a8 8 0 0 1-8-8v-2h2zm20 8h2a6 6 0 0 0 6-6v-2h2v2a8 8 0 0 1-8 8h-2v-2zm8-16v-2a6 6 0 0 0-6-6h-2v-2h2a8 8 0 0 1 8 8v2h-2z"/>
        <path fill="#CF4A00" fill-rule="nonzero" d="M24 32a8 8 0 1 1 0-16 8 8 0 0 1 0 16zm0-3a5 5 0 1 0 0-10 5 5 0 0 0 0 10z"/>
    </g>
</svg>
