<?xml version="1.0" encoding="utf-8"?>
<!-- Generator: Adobe Illustrator 16.0.0, SVG Export Plug-In . SVG Version: 6.00 Build 0)  -->
<!DOCTYPE svg PUBLIC "-//W3C//DTD SVG 1.1//EN" "http://www.w3.org/Graphics/SVG/1.1/DTD/svg11.dtd">
<svg version="1.1" id="레이어_1" xmlns="http://www.w3.org/2000/svg" xmlns:xlink="http://www.w3.org/1999/xlink" x="0px"
	 y="0px" width="256px" height="256px" viewBox="0 0 256 256" enable-background="new 0 0 256 256" xml:space="preserve">
<path fill="#4AA4C8" d="M256,236c0,11.047-8.953,20-20,20H20c-11.046,0-20-8.953-20-20V20C0,8.955,8.954,0,20,0h216
	c11.047,0,20,8.955,20,20V236z"/>
<g>
	<path fill="none" stroke="#FFFFFF" stroke-width="10" stroke-miterlimit="10" d="M39.689,210.25h164.083
		c6.924,0,12.537-5.613,12.537-12.539V82.408c0-6.924-5.613-12.537-12.537-12.537h-78.26L112.868,45.75H43.286
		c-1.731,0-3.134,1.404-3.134,3.135v33.523v83.826v13.477"/>
	
		<line fill="none" stroke="#FFFFFF" stroke-width="10" stroke-miterlimit="10" x1="165.871" y1="152.977" x2="165.871" y2="69.727"/>
	<circle fill="none" stroke="#FFFFFF" stroke-width="10" stroke-miterlimit="10" cx="165.871" cy="166.021" r="13.334"/>
	<line fill="none" stroke="#FFFFFF" stroke-width="10" stroke-miterlimit="10" x1="148.205" y1="86.053" x2="165.871" y2="86.053"/>
	<line fill="none" stroke="#FFFFFF" stroke-width="10" stroke-miterlimit="10" x1="165.871" y1="95.496" x2="183.537" y2="95.496"/>
	
		<line fill="none" stroke="#FFFFFF" stroke-width="10" stroke-miterlimit="10" x1="148.205" y1="126.275" x2="165.871" y2="126.275"/>
	
		<line fill="none" stroke="#FFFFFF" stroke-width="10" stroke-miterlimit="10" x1="165.871" y1="135.719" x2="183.537" y2="135.719"/>
	
		<line fill="none" stroke="#FFFFFF" stroke-width="10" stroke-miterlimit="10" x1="165.871" y1="116.219" x2="183.537" y2="116.219"/>
	
		<line fill="none" stroke="#FFFFFF" stroke-width="10" stroke-miterlimit="10" x1="148.205" y1="106.219" x2="165.871" y2="106.219"/>
</g>
</svg>
