<svg xmlns="http://www.w3.org/2000/svg" width="48" height="48" viewBox="0 0 48 48">
    <g fill="none" fill-rule="evenodd">
        <path fill="#FFF" d="M14 0h20c7.732 0 14 6.268 14 14v20c0 7.732-6.268 14-14 14H14C6.268 48 0 41.732 0 34V14C0 6.268 6.268 0 14 0z"/>
        <path fill="#434343" d="M17 2h7v2h-7V2zm0 8h7v2h-7v-2zm6-6h7v2h-7V4zm0 8h7v2h-7v-2zm-6-6h7v2h-7V6zm0 8h7v2h-7v-2zm6-6h7v2h-7V8zm0 8h7v2h-7v-2zm-6 2h7v2h-7v-2zM20 22h7a3 3 0 0 1 3 3v12a3 3 0 0 1-3 3h-7a3 3 0 0 1-3-3V25a3 3 0 0 1 3-3zm0 13a1 1 0 0 0-1 1v1a1 1 0 0 0 1 1h7a1 1 0 0 0 1-1v-1a1 1 0 0 0-1-1h-7z"/>
    </g>
</svg>
