<svg xmlns="http://www.w3.org/2000/svg" width="48" height="48" viewBox="0 0 48 48">
    <g fill="none" fill-rule="evenodd">
        <path fill="#FFF" d="M14 0h20c7.732 0 14 6.268 14 14v20c0 7.732-6.268 14-14 14H14C6.268 48 0 41.732 0 34V14C0 6.268 6.268 0 14 0z"/>
        <path fill="#3986E1" d="M13.714 14.714V9H16v5.714h5.714V17H16v5.714h-2.286V17H8v-2.286z"/>
        <path fill="#BD10E0" d="M26.286 14.714H40V17H26.286z"/>
        <path fill="#8B572A" d="M26.286 30.714H40V33H26.286v-2.286zm0 4.572H40v2.285H26.286v-2.285z"/>
        <path fill="#9013FE" d="M14.857 32.527l4.04-4.041 1.617 1.616-4.04 4.04 4.04 4.041-1.616 1.617-4.04-4.04-4.041 4.04L9.2 38.183l4.04-4.04-4.04-4.04 1.617-1.617z"/>
    </g>
</svg>
