<svg xmlns="http://www.w3.org/2000/svg" width="48" height="48" viewBox="0 0 48 48">
    <g fill="none" fill-rule="evenodd">
        <path fill="#FFF" d="M14 0h20c7.732 0 14 6.268 14 14v20c0 7.732-6.268 14-14 14H14C6.268 48 0 41.732 0 34V14C0 6.268 6.268 0 14 0z"/>
        <path fill="#236FC9" fill-rule="nonzero" d="M10 36V12a5 5 0 0 1 5-5h18a5 5 0 0 1 5 5v24a5 5 0 0 1-5 5H15a5 5 0 0 1-5-5zm5-3a3 3 0 0 0 0 6h18a3 3 0 0 0 0-6H15z"/>
        <circle cx="33" cy="36" r="2" fill="#50E3C2"/>
    </g>
</svg>
