<svg xmlns="http://www.w3.org/2000/svg" width="256" height="256" viewBox="0 0 256 256">
  <g fill="none" fill-rule="evenodd">
    <path fill="#64A9DD" fill-rule="nonzero" d="M256,236 C256,247.045 247.046,256 236,256 L20,256 C8.954,256 0,247.045 0,236 L0,20 C0,8.954 8.954,0 20,0 L236,0 C247.046,0 256,8.954 256,20 L256,236 Z"/>
    <path fill="#FFF" d="M256,105.761441 L256,116.935962 L112.104809,200.013889 L109.685454,195.823444 C104.340763,186.566167 92.5035292,183.39439 83.2462527,188.739081 C73.9889761,194.083772 70.8171989,205.921006 76.16189,215.178283 L78.5812448,219.368728 L15.8725486,255.573611 C12.0176192,254.764782 8.57108572,252.845871 5.88266759,250.16675 L65.709277,215.625841 C60.8388208,202.582756 65.9493641,187.550923 78.407543,180.35819 C90.8657219,173.165457 106.438943,176.255513 115.299357,186.994995 L256,105.761441 Z M256,75.2209864 L256,85.8875749 L246.068789,91.6213626 L243.759404,87.6213912 C233.555903,69.9484093 210.27532,64.2870827 191.760767,74.9764649 C173.246214,85.6658472 166.508775,108.658087 176.712276,126.331069 L179.021661,130.33104 L111.680122,169.210695 C108.11675,167.25305 104.233178,165.89386 100.197011,165.173884 L166.228905,127.050352 C156.661291,105.62336 165.41308,79.5217205 187.141999,66.9765235 C208.870917,54.4313265 235.851495,59.9028744 249.624007,78.9021677 L256,75.2209864 L256,75.2209864 Z M1.42108547e-14,233.689242 L1.42108547e-14,223.022655 L55.8482797,190.778636 C54.4537159,194.634043 53.6890229,198.676906 53.6027062,202.741695 L1.42108547e-14,233.689242 Z M0,206.336747 L1.42108547e-14,196.044425 L55.8053477,163.825192 C36.8638433,125.996108 52.9853181,77.9685975 93.2369291,54.7293191 C124.668154,36.5824928 161.832409,38.735314 187.700208,57.366664 C185.298641,58.3786959 182.92858,59.5535928 180.605496,60.8948259 C179.760615,61.3826183 178.931681,61.8867926 178.118921,62.4066206 C155.358757,48.0848652 124.227935,47.1289759 97.6936354,62.4485608 C60.664529,83.8273253 46.6091903,128.806416 66.3001576,162.912172 L68.5285107,166.771793 L0,206.336747 L0,206.336747 Z M256,48.2427385 L256,58.535078 L245.856335,64.3915254 C243.264808,62.2925027 240.476044,60.4601598 237.533662,58.904284 L256,48.2427385 L256,48.2427385 Z"/>
  </g>
</svg>
