<svg xmlns="http://www.w3.org/2000/svg" width="48" height="48" viewBox="0 0 48 48">
    <g fill="none" fill-rule="evenodd">
        <path fill="#FFF" d="M14 0h20c7.732 0 14 6.268 14 14v20c0 7.732-6.268 14-14 14H14C6.268 48 0 41.732 0 34V14C0 6.268 6.268 0 14 0z"/>
        <path fill="#9013FE" fill-rule="nonzero" d="M21.5 22.5H25a2.5 2.5 0 1 0 0-5h-3.5v5zm6.807 1.25A4.988 4.988 0 0 1 30 27.5V33H19V15h6a5 5 0 0 1 3.307 8.75zM25 25h-3.5v8h6v-5.5A2.5 2.5 0 0 0 25 25zm9.5-7.5v5H38a2.5 2.5 0 1 0 0-5h-3.5zm0 7.5v8H32V15h6a5 5 0 0 1 0 10h-3.5zm-25-2.5H17V25H9.5v4a1.5 1.5 0 0 0 1.5 1.5h6v-13h-6A1.5 1.5 0 0 0 9.5 19v3.5zM11 15h6v18h-6a4 4 0 0 1-4-4V19a4 4 0 0 1 4-4z"/>
    </g>
</svg>
