<?xml version="1.0" encoding="utf-8"?>
<!-- Generator: Adobe Illustrator 16.0.0, SVG Export Plug-In . SVG Version: 6.00 Build 0)  -->
<!DOCTYPE svg PUBLIC "-//W3C//DTD SVG 1.1//EN" "http://www.w3.org/Graphics/SVG/1.1/DTD/svg11.dtd">
<svg version="1.1" id="레이어_1" xmlns="http://www.w3.org/2000/svg" xmlns:xlink="http://www.w3.org/1999/xlink" x="0px"
	 y="0px" width="256px" height="256px" viewBox="0 0 256 256" enable-background="new 0 0 256 256" xml:space="preserve">
<path fill="#47B292" d="M256,236c0,11.047-8.955,20-20,20H20c-11.047,0-20-8.953-20-20V20C0,8.956,8.953,0,20,0h216
	c11.045,0,20,8.955,20,20V236z"/>
<g>
	<path fill="none" stroke="#FFFFFF" stroke-width="10" stroke-miterlimit="10" d="M30.933,177.045V120.59
		c0-9.666,7.837-17.504,17.504-17.504h88.934"/>
	<path fill="none" stroke="#FFFFFF" stroke-width="10" stroke-miterlimit="10" d="M136.09,103.086
		c9.667,0,17.504,7.838,17.504,17.504v55.432c0,9.67-7.837,17.506-17.504,17.506H48.438c-9.667,0-17.505-7.836-17.505-17.506"/>
	<line fill="none" stroke="#FFFFFF" stroke-width="10" stroke-miterlimit="10" x1="118.645" y1="215.93" x2="65.882" y2="215.93"/>
	<line fill="none" stroke="#FFFFFF" stroke-width="10" stroke-miterlimit="10" x1="81.289" y1="193.528" x2="81.289" y2="216.51"/>
	<line fill="none" stroke="#FFFFFF" stroke-width="10" stroke-miterlimit="10" x1="103.24" y1="193.528" x2="103.24" y2="216.51"/>
	<path fill="none" stroke="#FFFFFF" stroke-width="10" stroke-miterlimit="10" d="M102.406,84.424V56.993
		c0-9.666,7.837-17.504,17.504-17.504h87.934"/>
	<path fill="none" stroke="#FFFFFF" stroke-width="10" stroke-miterlimit="10" d="M207.563,39.489
		c9.667,0,17.504,7.838,17.504,17.504v55.432c0,9.67-7.837,17.586-17.504,17.586h-50.962"/>
	
		<line fill="none" stroke="#FFFFFF" stroke-width="10" stroke-miterlimit="10" x1="194.263" y1="152.333" x2="170.263" y2="152.333"/>
	
		<line fill="none" stroke="#FFFFFF" stroke-width="10" stroke-miterlimit="10" x1="175.263" y1="129.946" x2="175.263" y2="152.928"/>
	<line fill="none" stroke="#FFFFFF" stroke-width="10" stroke-miterlimit="10" x1="74.434" y1="130.01" x2="74.434" y2="153.01"/>
	
		<line fill="none" stroke="#FFFFFF" stroke-width="10" stroke-miterlimit="10" x1="69.433" y1="152.442" x2="112.933" y2="152.442"/>
	<polyline fill="none" stroke="#FFFFFF" stroke-width="10" stroke-miterlimit="10" points="99.399,137.907 113.933,152.442 
		99.399,166.975 	"/>
	<line fill="none" stroke="#FFFFFF" stroke-width="10" stroke-miterlimit="10" x1="181.567" y1="98.975" x2="181.567" y2="75.975"/>
	<line fill="none" stroke="#FFFFFF" stroke-width="10" stroke-miterlimit="10" x1="186.567" y1="76.545" x2="143.067" y2="76.545"/>
	<polyline fill="none" stroke="#FFFFFF" stroke-width="10" stroke-miterlimit="10" points="156.601,91.079 142.067,76.543 
		156.601,62.01 	"/>
</g>
</svg>
