<svg xmlns="http://www.w3.org/2000/svg" width="48" height="48" viewBox="0 0 48 48">
    <g fill="none" fill-rule="evenodd">
        <path fill="#FFF" d="M14 0h20c7.732 0 14 6.268 14 14v20c0 7.732-6.268 14-14 14H14C6.268 48 0 41.732 0 34V14C0 6.268 6.268 0 14 0z"/>
        <g fill="#3986E1">
            <path d="M21.221 40.622a.902.902 0 0 0 .065-.336c0-3.594-2.57-5.429-7.238-5.429-4.67 0-7.238 1.835-7.238 5.429 0 .118.022.232.064.336A7.212 7.212 0 0 1 5 35.762v-3.62a7.238 7.238 0 0 1 7.238-7.237h3.62a7.238 7.238 0 0 1 7.237 7.238v3.619c0 1.87-.71 3.575-1.874 4.86zm-.504.504A7.212 7.212 0 0 1 15.857 43h-3.619c-1.87 0-3.575-.71-4.86-1.874a.905.905 0 0 0 1.24-.84c.001-2.438 1.654-3.62 5.43-3.62 3.775 0 5.428 1.182 5.428 3.62a.905.905 0 0 0 1.24.84zm-6.67-7.174a3.619 3.619 0 1 0 0-7.238 3.619 3.619 0 0 0 0 7.238zm0-1.81a1.81 1.81 0 1 1 0-3.618 1.81 1.81 0 0 1 0 3.619zM41.126 40.622a.902.902 0 0 0 .064-.336c0-3.594-2.568-5.429-7.238-5.429-4.669 0-7.238 1.835-7.238 5.429 0 .118.023.232.065.336a7.212 7.212 0 0 1-1.874-4.86v-3.62a7.238 7.238 0 0 1 7.238-7.237h3.619A7.238 7.238 0 0 1 43 32.143v3.619c0 1.87-.71 3.575-1.874 4.86zm-.504.504A7.212 7.212 0 0 1 35.762 43h-3.62c-1.87 0-3.574-.71-4.859-1.874a.905.905 0 0 0 1.24-.84c0-2.438 1.654-3.62 5.43-3.62 3.775 0 5.428 1.182 5.428 3.62a.905.905 0 0 0 1.24.84zm-6.67-7.174a3.619 3.619 0 1 0 0-7.238 3.619 3.619 0 0 0 0 7.238zm0-1.81a1.81 1.81 0 1 1 0-3.618 1.81 1.81 0 0 1 0 3.619zM21.221 20.717a.902.902 0 0 0 .065-.336c0-3.594-2.57-5.429-7.238-5.429-4.67 0-7.238 1.835-7.238 5.429 0 .119.022.232.064.336A7.212 7.212 0 0 1 5 15.857v-3.619A7.238 7.238 0 0 1 12.238 5h3.62a7.238 7.238 0 0 1 7.237 7.238v3.62c0 1.87-.71 3.574-1.874 4.859zm-.504.504a7.212 7.212 0 0 1-4.86 1.874h-3.619c-1.87 0-3.575-.71-4.86-1.874a.905.905 0 0 0 1.24-.84c.001-2.438 1.654-3.62 5.43-3.62 3.775 0 5.428 1.182 5.428 3.62a.905.905 0 0 0 1.24.84zm-6.67-7.173a3.619 3.619 0 1 0 0-7.238 3.619 3.619 0 0 0 0 7.238zm0-1.81a1.81 1.81 0 1 1 0-3.619 1.81 1.81 0 0 1 0 3.62zM41.126 20.717a.902.902 0 0 0 .064-.336c0-3.594-2.568-5.429-7.238-5.429-4.669 0-7.238 1.835-7.238 5.429 0 .119.023.232.065.336a7.212 7.212 0 0 1-1.874-4.86v-3.619A7.238 7.238 0 0 1 32.143 5h3.619A7.238 7.238 0 0 1 43 12.238v3.62c0 1.87-.71 3.574-1.874 4.859zm-.504.504a7.212 7.212 0 0 1-4.86 1.874h-3.62c-1.87 0-3.574-.71-4.859-1.874a.905.905 0 0 0 1.24-.84c0-2.438 1.654-3.62 5.43-3.62 3.775 0 5.428 1.182 5.428 3.62a.905.905 0 0 0 1.24.84zm-6.67-7.173a3.619 3.619 0 1 0 0-7.238 3.619 3.619 0 0 0 0 7.238zm0-1.81a1.81 1.81 0 1 1 0-3.619 1.81 1.81 0 0 1 0 3.62z"/>
        </g>
    </g>
</svg>
