<svg xmlns="http://www.w3.org/2000/svg" width="48" height="48" viewBox="0 0 48 48">
    <g fill="none" fill-rule="evenodd">
        <path fill="#FFF" d="M14 0h20c7.732 0 14 6.268 14 14v20c0 7.732-6.268 14-14 14H14C6.268 48 0 41.732 0 34V14C0 6.268 6.268 0 14 0z"/>
        <g fill="#9013FE" transform="translate(11 5)">
            <path d="M9 4v3a2 2 0 0 0 2 2h4a2 2 0 0 0 2-2V4h6a3 3 0 0 1 3 3v27a3 3 0 0 1-3 3H3a3 3 0 0 1-3-3V7a3 3 0 0 1 3-3h6zm4 16a3 3 0 1 1 0-6 3 3 0 0 1 0 6zm0 2a5 5 0 1 0 0-10 5 5 0 0 0 0 10zm-8 9.429C5 27.78 7.494 26 13 26s8 1.781 8 5.429a1 1 0 1 0 2 0C23 26.504 19.494 24 13 24S3 26.504 3 31.429a1 1 0 1 0 2 0z"/>
            <rect width="4" height="7" x="11" rx="1"/>
        </g>
    </g>
</svg>
