<svg xmlns="http://www.w3.org/2000/svg" width="48" height="48" viewBox="0 0 48 48">
    <g fill="none" fill-rule="evenodd">
        <path fill="#FFF" d="M14 0h20c7.732 0 14 6.268 14 14v20c0 7.732-6.268 14-14 14H14C6.268 48 0 41.732 0 34V14C0 6.268 6.268 0 14 0z"/>
        <path fill="#0E85D2" d="M17.602 29C14.236 26.89 12 23.162 12 18.917 12 12.335 17.373 7 24 7s12 5.335 12 11.917c0 4.245-2.236 7.972-5.602 10.083H17.602zm2.648 1h7.5c.69 0 1.25.672 1.25 1.5s-.56 1.5-1.25 1.5h-7.5c-.69 0-1.25-.672-1.25-1.5s.56-1.5 1.25-1.5zm0 4h7.5c.69 0 1.25.672 1.25 1.5s-.56 1.5-1.25 1.5h-7.5c-.69 0-1.25-.672-1.25-1.5s.56-1.5 1.25-1.5zm.75 4h6v1.5a1.5 1.5 0 0 1-1.5 1.5h-3a1.5 1.5 0 0 1-1.5-1.5V38z"/>
    </g>
</svg>
