<svg xmlns="http://www.w3.org/2000/svg" width="48" height="48" viewBox="0 0 48 48">
    <g fill="none" fill-rule="evenodd">
        <path fill="#FFF" d="M14 0h20c7.732 0 14 6.268 14 14v20c0 7.732-6.268 14-14 14H14C6.268 48 0 41.732 0 34V14C0 6.268 6.268 0 14 0z"/>
        <path fill="#9B9B9B" d="M23.1 37H6v-2h3V13h10v22h3V6h11v17h-5a5 5 0 0 0-5 5v8c0 .342.034.677.1 1z"/>
        <path fill="#3986E1" d="M39.929 39.371A.997.997 0 0 0 40 39c0-3.972-2.84-6-8-6s-8 2.028-8 6c0 .131.025.256.071.371A7.97 7.97 0 0 1 22 34v-4a8 8 0 0 1 8-8h4a8 8 0 0 1 8 8v4a7.97 7.97 0 0 1-2.071 5.371zm-.558.558A7.97 7.97 0 0 1 34 42h-4a7.97 7.97 0 0 1-5.371-2.071A1 1 0 0 0 26 39c0-2.695 1.827-4 6-4s6 1.305 6 4a1 1 0 0 0 1.371.929zM32 32a4 4 0 1 0 0-8 4 4 0 0 0 0 8zm0-2a2 2 0 1 1 0-4 2 2 0 0 1 0 4z"/>
    </g>
</svg>
