<svg xmlns="http://www.w3.org/2000/svg" width="48" height="48" viewBox="0 0 48 48">
    <g fill="none" fill-rule="evenodd">
        <path fill="#FFF" d="M14 0h20c7.732 0 14 6.268 14 14v20c0 7.732-6.268 14-14 14H14C6.268 48 0 41.732 0 34V14C0 6.268 6.268 0 14 0z"/>
        <path fill="#3986E1" d="M20.667 35L14 40v-5h-1a4 4 0 0 1-4-4V15a4 4 0 0 1 4-4h22a4 4 0 0 1 4 4v16a4 4 0 0 1-4 4H20.667zM16 18a1 1 0 0 0-1 1v8a1 1 0 0 0 1 1h11a1 1 0 0 0 1-1v-8a1 1 0 0 0-1-1H16zm14 3.286v3.428L34 27v-8l-4 2.286z"/>
    </g>
</svg>
