<svg xmlns="http://www.w3.org/2000/svg" width="48" height="48" viewBox="0 0 48 48">
    <g fill="none" fill-rule="evenodd">
        <path fill="#FFF" d="M14 0h20c7.732 0 14 6.268 14 14v20c0 7.732-6.268 14-14 14H14C6.268 48 0 41.732 0 34V14C0 6.268 6.268 0 14 0z"/>
        <path fill="#0E85D2" fill-rule="nonzero" d="M11.167 15c-.645 0-1.167.485-1.167 1.083v19.834c0 .598.522 1.083 1.167 1.083h25.666c.645 0 1.167-.485 1.167-1.083V16.083c0-.598-.522-1.083-1.167-1.083H11.167zm.262-6H36.57C38.465 9 40 10.44 40 12.214v23.572C40 37.56 38.465 39 36.571 39H11.43C9.535 39 8 37.56 8 35.786V12.214C8 10.44 9.535 9 11.429 9zM36 13a1 1 0 1 0 0-2 1 1 0 0 0 0 2zm-4 0a1 1 0 1 0 0-2 1 1 0 0 0 0 2zm-4 0a1 1 0 1 0 0-2 1 1 0 0 0 0 2z"/>
    </g>
</svg>
