<svg xmlns="http://www.w3.org/2000/svg" xmlns:xlink="http://www.w3.org/1999/xlink" width="48" height="48" viewBox="0 0 48 48">
    <defs>
        <linearGradient id="b" x1="100%" x2="0%" y1="100%" y2="0%">
            <stop offset="0%" stop-color="#0AC8F1"/>
            <stop offset="100%" stop-color="#0081FF"/>
        </linearGradient>
        <path id="a" d="M48.5 28H.5V14c0-7.732 6.268-14 14-14h20c7.732 0 14 6.268 14 14v14zm-14 20h-20 20z"/>
    </defs>
    <g fill="none" fill-rule="evenodd">
        <path fill="#FFF" d="M14 0h20c7.732 0 14 6.268 14 14v20c0 7.732-6.268 14-14 14H14C6.268 48 0 41.732 0 34V14C0 6.268 6.268 0 14 0z"/>
        <g transform="translate(-.5)">
            <mask id="c" fill="#fff">
                <use xlink:href="#a"/>
            </mask>
            <use fill="url(#b)" xlink:href="#a"/>
            <path fill="#FFF" d="M47 20.134a6 6 0 1 0-12 0v2H20.326a7.018 7.018 0 0 0-1.427-2H33a8 8 0 1 1 16 0h14.101a7.018 7.018 0 0 0-1.427 2H47v-2zm-28.1 4H49v2H17v-1a3 3 0 0 0-6 0v1H0v-2h9.1a5.002 5.002 0 0 1 9.8 0zm19.175-13.565a9.94 9.94 0 0 0-1.915.812A11.974 11.974 0 0 0 27 7.134c-6.29 0-11.45 4.84-11.959 11h-2.006c.513-7.265 6.57-13 13.965-13 4.506 0 8.514 2.128 11.075 5.435z" mask="url(#c)"/>
        </g>
        <g fill="#074792">
            <path d="M25 33.477l3.864 3.864 1.207-1.207L24 30.063l-6.071 6.071 1.207 1.207L23 33.477v9.657h2z"/>
        </g>
    </g>
</svg>
