<?xml version="1.0" encoding="utf-8"?>
<!-- Generator: Adobe Illustrator 16.0.0, SVG Export Plug-In . SVG Version: 6.00 Build 0)  -->
<!DOCTYPE svg PUBLIC "-//W3C//DTD SVG 1.1//EN" "http://www.w3.org/Graphics/SVG/1.1/DTD/svg11.dtd">
<svg version="1.1" id="레이어_1" xmlns="http://www.w3.org/2000/svg" xmlns:xlink="http://www.w3.org/1999/xlink" x="0px"
	 y="0px" width="256px" height="256px" viewBox="0 0 256 256" enable-background="new 0 0 256 256" xml:space="preserve">
<path fill="#AF7DB4" d="M256,236c0,11.047-8.953,20-20,20H20c-11.046,0-20-8.953-20-20V20C0,8.955,8.954,0,20,0h216
	c11.047,0,20,8.955,20,20V236z"/>
<g>
	<path fill="none" stroke="#FFFFFF" stroke-width="10" stroke-miterlimit="10" d="M61.333,66.537h111.793h14.32
		c3.988,0,7.22,3.031,7.22,6.771v137.74c0,3.74-3.232,6.771-7.22,6.771H97.41"/>
	<path fill="none" stroke="#FFFFFF" stroke-width="10" stroke-miterlimit="10" d="M172.404,71.117V36.924c0,0,0-5.756-11.191-2.709
		S62.997,65.008,62.997,65.008"/>
	<line fill="none" stroke="#FFFFFF" stroke-width="10" stroke-miterlimit="10" x1="66.387" y1="60.263" x2="66.387" y2="222.673"/>
	<path fill="none" stroke="#FFFFFF" stroke-width="10" stroke-linecap="round" stroke-linejoin="round" stroke-miterlimit="10" d="
		M162.422,159.084l-19.936-12.996v-5.535c5.21-4.814,8.382-14.682,5.438-26.955c-2.798-11.657-14.875-12.678-16.085-12.751v-0.006
		c0,0-0.021,0.001-0.053,0.003c-0.032-0.002-0.053-0.003-0.053-0.003v0.006c-1.21,0.073-13.288,1.094-16.085,12.751
		c-2.945,12.273,0.227,22.141,5.438,26.955v5.535l-19.936,12.996c0,0-4.078,2.166-4.078,6.739c0,4.572,0,12.273,0,12.273h34.661
		h0.105H166.5c0,0,0-7.701,0-12.273C166.5,161.25,162.422,159.084,162.422,159.084z"/>
</g>
</svg>
