<?xml version="1.0" encoding="utf-8"?>
<!-- Generator: Adobe Illustrator 16.0.0, SVG Export Plug-In . SVG Version: 6.00 Build 0)  -->
<!DOCTYPE svg PUBLIC "-//W3C//DTD SVG 1.1//EN" "http://www.w3.org/Graphics/SVG/1.1/DTD/svg11.dtd">
<svg version="1.1" id="레이어_1" xmlns="http://www.w3.org/2000/svg" xmlns:xlink="http://www.w3.org/1999/xlink" x="0px"
	 y="0px" width="256px" height="256px" viewBox="0 0 256 256" enable-background="new 0 0 256 256" xml:space="preserve">
<path fill="#578CC7" d="M256,236c0,11.047-8.953,20-20,20H20c-11.046,0-20-8.953-20-20V20C0,8.955,8.954,0,20,0h216
	c11.047,0,20,8.955,20,20V236z"/>
<g>
	<path fill="none" stroke="#FFFFFF" stroke-width="10" stroke-miterlimit="10" d="M182.61,53.46c5.96,0,10.792,4.832,10.792,10.792
		l10.735,91.729c0,5.96-4.831,10.792-10.792,10.792H79.157"/>
	<path fill="none" stroke="#FFFFFF" stroke-width="10" stroke-miterlimit="10" d="M204.14,156.101l-5.964,43.458
		c0,1.646-1.335,2.982-2.981,2.982H60.806c-1.646,0-2.982-1.336-2.982-2.982c0,0-5.995-41.493-5.765-43.579l10.138-91.729
		c0-5.959,4.832-10.792,10.792-10.792h84.463"/>
	<circle fill="#FFFFFF" cx="179.354" cy="184.674" r="7.259"/>
	<path fill="none" stroke="#FFFFFF" stroke-width="10" stroke-miterlimit="10" d="M83.968,166.772"/>
</g>
<path fill="none" stroke="#FFFFFF" stroke-width="10" stroke-linejoin="round" stroke-miterlimit="10" d="M114.716,87.772"/>
</svg>
