<?xml version="1.0" encoding="utf-8"?>
<!-- Generator: Adobe Illustrator 16.0.0, SVG Export Plug-In . SVG Version: 6.00 Build 0)  -->
<!DOCTYPE svg PUBLIC "-//W3C//DTD SVG 1.1//EN" "http://www.w3.org/Graphics/SVG/1.1/DTD/svg11.dtd">
<svg version="1.1" id="레이어_1" xmlns="http://www.w3.org/2000/svg" xmlns:xlink="http://www.w3.org/1999/xlink" x="0px"
	 y="0px" width="256px" height="256px" viewBox="0 0 256 256" enable-background="new 0 0 256 256" xml:space="preserve">
<path fill="#DD6671" d="M256,236c0,11.047-8.955,20-20,20H20c-11.046,0-20-8.953-20-20V20C0,8.956,8.954,0,20,0h216
	c11.045,0,20,8.955,20,20V236z"/>
<g>
	<path fill="none" stroke="#FFFFFF" stroke-width="10" stroke-miterlimit="10" d="M164.504,126.739
		c-0.597-1.87-1.854-3.534-3.685-4.594l-42.421-24.548c-3.905-2.259-8.898-0.918-11.152,2.995c-0.31,0.539-0.545,1.098-0.722,1.666
		c-0.593,1.134-0.933,2.421-0.933,3.791v48.389c-0.143,1.614,0.193,3.286,1.08,4.796c0.084,0.143,0.179,0.274,0.27,0.409
		c0.026,0.039,0.051,0.079,0.077,0.118c0.096,0.138,0.197,0.271,0.3,0.401c0.085,0.109,0.172,0.218,0.263,0.322
		c0.056,0.064,0.113,0.127,0.172,0.189c0.154,0.168,0.314,0.328,0.481,0.482v0.001c1.335,1.231,3.077,2.02,5.004,2.142
		c0.074,0.005,0.149,0.007,0.223,0.011c0.099,0.003,0.195,0.015,0.294,0.015c0.04,0,0.078-0.005,0.117-0.006
		c1.42,0.004,2.86-0.342,4.178-1.09l43.284-24.548C165.238,135.467,166.618,130.618,164.504,126.739z"/>
	<path fill="none" stroke="#FFFFFF" stroke-width="10" stroke-miterlimit="10" d="M156.564,209.667
		c-13.082,4.588-27.458,6.09-42.11,3.767c-47.183-7.481-79.369-51.796-71.887-98.979c7.481-47.183,51.795-79.368,98.978-71.887
		c47.184,7.481,79.369,51.795,71.886,98.979c-1.553,9.805-4.699,18.961-9.129,27.249"/>
	<circle fill="none" stroke="#FFFFFF" stroke-width="10" stroke-miterlimit="10" cx="193.969" cy="182.468" r="15.333"/>
</g>
</svg>
