<svg xmlns="http://www.w3.org/2000/svg" width="48" height="48" viewBox="0 0 48 48">
    <g fill="none" fill-rule="evenodd">
        <path fill="#FFF" d="M14 0h20c7.732 0 14 6.268 14 14v20c0 7.732-6.268 14-14 14H14C6.268 48 0 41.732 0 34V14C0 6.268 6.268 0 14 0z"/>
        <path fill="#9013FE" fill-rule="nonzero" d="M10.286 10h27.428C38.977 10 40 11.045 40 12.333v23.334C40 36.955 38.977 38 37.714 38H10.286C9.023 38 8 36.955 8 35.667V12.333C8 11.045 9.023 10 10.286 10z"/>
        <path fill="#FFF" d="M18.005 36.28H11l9.457-12.96 3.503 4.8-5.955 8.16zM38 25.203V36.28H20.45L33.364 19 38 25.203z"/>
    </g>
</svg>
