<svg xmlns="http://www.w3.org/2000/svg" width="48" height="48" viewBox="0 0 48 48">
    <g fill="none" fill-rule="evenodd">
        <path fill="#FFF" d="M14 0h20c7.732 0 14 6.268 14 14v20c0 7.732-6.268 14-14 14H14C6.268 48 0 41.732 0 34V14C0 6.268 6.268 0 14 0z"/>
        <path fill="#0E85D2" fill-rule="nonzero" d="M24 41c-9.389 0-17-7.611-17-17S14.611 7 24 7s17 7.611 17 17-7.611 17-17 17zm-1.333-9v3h2.666v-3h-2.666zm-2-11.333v-1.334a2.667 2.667 0 0 1 2.666-2.666h1.334a2.667 2.667 0 0 1 2.666 2.666v1.133a4.239 4.239 0 0 1-1.775 3.449 6.905 6.905 0 0 0-2.891 5.62V30h2.666v-.466c0-1.369.661-2.653 1.775-3.449A6.905 6.905 0 0 0 30 20.465v-1.132A5.333 5.333 0 0 0 24.667 14h-1.334A5.333 5.333 0 0 0 18 19.333v1.334h2.667z"/>
    </g>
</svg>
