<svg width="60" height="60" viewBox="0 0 60 60" fill="none" xmlns="http://www.w3.org/2000/svg">
<path d="M0 7C0 5.89543 0.895431 5 2 5H17.0775C18.2926 5 19.4419 5.55236 20.201 6.50122L21.799 8.49878C22.5581 9.44764 23.7074 10 24.9225 10H58C59.1046 10 60 10.8954 60 12V53C60 54.1046 59.1046 55 58 55H2C0.895432 55 0 54.1046 0 53V7Z" fill="url(#paint0_linear_676_11946)"/>
<path d="M0 15H60V53C60 54.1046 59.1046 55 58 55H2C0.895432 55 0 54.1046 0 53V15Z" fill="url(#paint1_linear_676_11946)"/>
<path opacity="0.4" d="M0 15H60V16H0V15Z" fill="url(#paint2_linear_676_11946)" fill-opacity="0.9"/>
<path d="M0.5 7C0.5 6.17157 1.17157 5.5 2 5.5H17.0775C18.1407 5.5 19.1463 5.98331 19.8105 6.81357L21.4086 8.81113C22.2626 9.8786 23.5555 10.5 24.9225 10.5H58C58.8284 10.5 59.5 11.1716 59.5 12V53C59.5 53.8284 58.8284 54.5 58 54.5H2C1.17157 54.5 0.5 53.8284 0.5 53V7Z" stroke="black" stroke-opacity="0.03"/>
<g filter="url(#filter0_f_676_11946)">
<circle cx="29" cy="35" r="12" fill="white" fill-opacity="0.2"/>
</g>
<mask id="path-6-inside-1_676_11946" fill="white">
<path fill-rule="evenodd" clip-rule="evenodd" d="M29 47C35.6274 47 41 41.6274 41 35C41 28.3726 35.6274 23 29 23C22.3726 23 17 28.3726 17 35C17 41.6274 22.3726 47 29 47ZM30 29C30 28.4477 29.5523 28 29 28C28.4477 28 28 28.4477 28 29V38.5858L25.2071 35.7929C24.8166 35.4024 24.1834 35.4024 23.7929 35.7929C23.4024 36.1834 23.4024 36.8166 23.7929 37.2071L28.2929 41.7071C28.6834 42.0976 29.3166 42.0976 29.7071 41.7071L34.2071 37.2071C34.5976 36.8166 34.5976 36.1834 34.2071 35.7929C33.8166 35.4024 33.1834 35.4024 32.7929 35.7929L30 38.5858V29Z"/>
</mask>
<path fill-rule="evenodd" clip-rule="evenodd" d="M29 47C35.6274 47 41 41.6274 41 35C41 28.3726 35.6274 23 29 23C22.3726 23 17 28.3726 17 35C17 41.6274 22.3726 47 29 47ZM30 29C30 28.4477 29.5523 28 29 28C28.4477 28 28 28.4477 28 29V38.5858L25.2071 35.7929C24.8166 35.4024 24.1834 35.4024 23.7929 35.7929C23.4024 36.1834 23.4024 36.8166 23.7929 37.2071L28.2929 41.7071C28.6834 42.0976 29.3166 42.0976 29.7071 41.7071L34.2071 37.2071C34.5976 36.8166 34.5976 36.1834 34.2071 35.7929C33.8166 35.4024 33.1834 35.4024 32.7929 35.7929L30 38.5858V29Z" fill="#1374E7" fill-opacity="0.9"/>
<path d="M28 38.5858L27.6464 38.9393L28.5 39.7929V38.5858H28ZM25.2071 35.7929L24.8536 36.1464L24.8536 36.1464L25.2071 35.7929ZM23.7929 35.7929L24.1464 36.1464L24.1464 36.1464L23.7929 35.7929ZM23.7929 37.2071L24.1464 36.8536L23.7929 37.2071ZM28.2929 41.7071L27.9393 42.0607L28.2929 41.7071ZM34.2071 35.7929L34.5607 35.4393L34.2071 35.7929ZM30 38.5858H29.5V39.7929L30.3536 38.9393L30 38.5858ZM40.5 35C40.5 41.3513 35.3513 46.5 29 46.5V47.5C35.9036 47.5 41.5 41.9036 41.5 35H40.5ZM29 23.5C35.3513 23.5 40.5 28.6487 40.5 35H41.5C41.5 28.0964 35.9036 22.5 29 22.5V23.5ZM17.5 35C17.5 28.6487 22.6487 23.5 29 23.5V22.5C22.0964 22.5 16.5 28.0964 16.5 35H17.5ZM29 46.5C22.6487 46.5 17.5 41.3513 17.5 35H16.5C16.5 41.9036 22.0964 47.5 29 47.5V46.5ZM29 28.5C29.2761 28.5 29.5 28.7239 29.5 29H30.5C30.5 28.1716 29.8284 27.5 29 27.5V28.5ZM28.5 29C28.5 28.7239 28.7239 28.5 29 28.5V27.5C28.1716 27.5 27.5 28.1716 27.5 29H28.5ZM28.5 38.5858V29H27.5V38.5858H28.5ZM24.8536 36.1464L27.6464 38.9393L28.3536 38.2322L25.5607 35.4393L24.8536 36.1464ZM24.1464 36.1464C24.3417 35.9512 24.6583 35.9512 24.8536 36.1464L25.5607 35.4393C24.9749 34.8536 24.0251 34.8536 23.4393 35.4393L24.1464 36.1464ZM24.1464 36.8536C23.9512 36.6583 23.9512 36.3417 24.1464 36.1464L23.4393 35.4393C22.8536 36.0251 22.8536 36.9749 23.4393 37.5607L24.1464 36.8536ZM28.6464 41.3536L24.1464 36.8536L23.4393 37.5607L27.9393 42.0607L28.6464 41.3536ZM29.3536 41.3536C29.1583 41.5488 28.8417 41.5488 28.6464 41.3536L27.9393 42.0607C28.5251 42.6464 29.4749 42.6464 30.0607 42.0607L29.3536 41.3536ZM33.8536 36.8536L29.3536 41.3536L30.0607 42.0607L34.5607 37.5607L33.8536 36.8536ZM33.8536 36.1464C34.0488 36.3417 34.0488 36.6583 33.8536 36.8536L34.5607 37.5607C35.1464 36.9749 35.1464 36.0251 34.5607 35.4393L33.8536 36.1464ZM33.1464 36.1464C33.3417 35.9512 33.6583 35.9512 33.8536 36.1464L34.5607 35.4393C33.9749 34.8536 33.0251 34.8536 32.4393 35.4393L33.1464 36.1464ZM30.3536 38.9393L33.1464 36.1464L32.4393 35.4393L29.6464 38.2322L30.3536 38.9393ZM29.5 29V38.5858H30.5V29H29.5Z" fill="black" fill-opacity="0.03" mask="url(#path-6-inside-1_676_11946)"/>
<defs>
<filter id="filter0_f_676_11946" x="12" y="18" width="34" height="34" filterUnits="userSpaceOnUse" color-interpolation-filters="sRGB">
<feFlood flood-opacity="0" result="BackgroundImageFix"/>
<feBlend mode="normal" in="SourceGraphic" in2="BackgroundImageFix" result="shape"/>
<feGaussianBlur stdDeviation="2.5" result="effect1_foregroundBlur_676_11946"/>
</filter>
<linearGradient id="paint0_linear_676_11946" x1="45" y1="43.2813" x2="24.5746" y2="4.99828" gradientUnits="userSpaceOnUse">
<stop offset="0.0046461" stop-color="#79C0FB"/>
<stop offset="1" stop-color="#6796FF"/>
</linearGradient>
<linearGradient id="paint1_linear_676_11946" x1="39" y1="57.5" x2="30.8864" y2="-5.37296" gradientUnits="userSpaceOnUse">
<stop offset="0.0046461" stop-color="#79C0FB"/>
<stop offset="1" stop-color="#6796FF"/>
</linearGradient>
<linearGradient id="paint2_linear_676_11946" x1="57.8571" y1="15.7946" x2="57.8245" y2="12.0781" gradientUnits="userSpaceOnUse">
<stop stop-color="white"/>
<stop offset="1" stop-color="white" stop-opacity="0.44"/>
</linearGradient>
</defs>
</svg>
