<svg width="48" height="48" viewBox="0 0 48 48" fill="none" xmlns="http://www.w3.org/2000/svg">
<path d="M0 5.6C0 4.71634 0.716344 4 1.6 4H13.662C14.6341 4 15.5535 4.44189 16.1608 5.20098L17.4392 6.79902C18.0465 7.55811 18.9659 8 19.938 8H46.4C47.2837 8 48 8.71634 48 9.6V42.4C48 43.2837 47.2837 44 46.4 44H1.6C0.716343 44 0 43.2837 0 42.4V5.6Z" fill="url(#paint0_linear_478_11611)"/>
<path d="M0 12H48V42.4C48 43.2837 47.2837 44 46.4 44H1.6C0.716343 44 0 43.2837 0 42.4V12Z" fill="url(#paint1_linear_478_11611)"/>
<path opacity="0.4" d="M0 12H48V13H0V12Z" fill="url(#paint2_linear_478_11611)" fill-opacity="0.9"/>
<path d="M47.6 9.6V42.4C47.6 43.0627 47.0627 43.6 46.4 43.6H1.6C0.937257 43.6 0.4 43.0627 0.4 42.4V5.6C0.4 4.93726 0.937258 4.4 1.6 4.4H13.662C14.5126 4.4 15.3171 4.78665 15.8484 5.45085L17.1269 7.0489C17.8101 7.90288 18.8444 8.4 19.938 8.4H46.4C47.0627 8.4 47.6 8.93726 47.6 9.6Z" stroke="black" stroke-opacity="0.03" stroke-width="0.8"/>
<g filter="url(#filter0_f_478_11611)">
<circle cx="24" cy="28" r="10" fill="white" fill-opacity="0.2"/>
</g>
<mask id="path-6-inside-1_478_11611" fill="white">
<path fill-rule="evenodd" clip-rule="evenodd" d="M24 38C29.5228 38 34 33.5228 34 28C34 22.4772 29.5228 18 24 18C18.4772 18 14 22.4772 14 28C14 33.5228 18.4772 38 24 38ZM24.9091 22.8571C24.9091 22.3838 24.5021 22 24 22C23.4979 22 23.0909 22.3838 23.0909 22.8571V31.0735L20.5519 28.6796C20.1969 28.3449 19.6213 28.3449 19.2663 28.6796C18.9112 29.0144 18.9112 29.5571 19.2663 29.8918L23.3572 33.7489C23.7122 34.0837 24.2878 34.0837 24.6428 33.7489L28.7337 29.8918C29.0888 29.5571 29.0888 29.0144 28.7337 28.6796C28.3787 28.3449 27.8031 28.3449 27.4481 28.6796L24.9091 31.0735V22.8571Z"/>
</mask>
<path fill-rule="evenodd" clip-rule="evenodd" d="M24 38C29.5228 38 34 33.5228 34 28C34 22.4772 29.5228 18 24 18C18.4772 18 14 22.4772 14 28C14 33.5228 18.4772 38 24 38ZM24.9091 22.8571C24.9091 22.3838 24.5021 22 24 22C23.4979 22 23.0909 22.3838 23.0909 22.8571V31.0735L20.5519 28.6796C20.1969 28.3449 19.6213 28.3449 19.2663 28.6796C18.9112 29.0144 18.9112 29.5571 19.2663 29.8918L23.3572 33.7489C23.7122 34.0837 24.2878 34.0837 24.6428 33.7489L28.7337 29.8918C29.0888 29.5571 29.0888 29.0144 28.7337 28.6796C28.3787 28.3449 27.8031 28.3449 27.4481 28.6796L24.9091 31.0735V22.8571Z" fill="#1374E7" fill-opacity="0.9"/>
<path d="M23.0909 31.0735L22.8165 31.3646L23.4909 32.0004V31.0735H23.0909ZM20.5519 28.6796L20.8263 28.3886L20.8263 28.3886L20.5519 28.6796ZM19.2663 28.6796L18.9919 28.3886L18.9919 28.3886L19.2663 28.6796ZM19.2663 29.8918L19.5407 29.6008L19.5407 29.6008L19.2663 29.8918ZM23.3572 33.7489L23.6316 33.4579L23.6316 33.4579L23.3572 33.7489ZM24.6428 33.7489L24.3684 33.4579L24.3684 33.4579L24.6428 33.7489ZM28.7337 29.8918L28.4593 29.6008L28.4593 29.6008L28.7337 29.8918ZM28.7337 28.6796L28.4593 28.9707L28.4593 28.9707L28.7337 28.6796ZM27.4481 28.6796L27.1737 28.3886L27.1737 28.3886L27.4481 28.6796ZM24.9091 31.0735H24.5091V32.0004L25.1835 31.3646L24.9091 31.0735ZM33.6 28C33.6 33.3019 29.3019 37.6 24 37.6V38.4C29.7438 38.4 34.4 33.7438 34.4 28H33.6ZM24 18.4C29.3019 18.4 33.6 22.6981 33.6 28H34.4C34.4 22.2562 29.7438 17.6 24 17.6V18.4ZM14.4 28C14.4 22.6981 18.6981 18.4 24 18.4V17.6C18.2562 17.6 13.6 22.2562 13.6 28H14.4ZM24 37.6C18.6981 37.6 14.4 33.3019 14.4 28H13.6C13.6 33.7438 18.2562 38.4 24 38.4V37.6ZM24 22.4C24.3037 22.4 24.5091 22.6265 24.5091 22.8571H25.3091C25.3091 22.141 24.7005 21.6 24 21.6V22.4ZM23.4909 22.8571C23.4909 22.6265 23.6963 22.4 24 22.4V21.6C23.2995 21.6 22.6909 22.141 22.6909 22.8571H23.4909ZM23.4909 31.0735V22.8571H22.6909V31.0735H23.4909ZM20.2775 28.9707L22.8165 31.3646L23.3653 30.7825L20.8263 28.3886L20.2775 28.9707ZM19.5407 28.9707C19.7416 28.7812 20.0766 28.7812 20.2775 28.9707L20.8263 28.3886C20.3172 27.9086 19.501 27.9086 18.9919 28.3886L19.5407 28.9707ZM19.5407 29.6008C19.3531 29.4239 19.3531 29.1475 19.5407 28.9707L18.9919 28.3886C18.4694 28.8812 18.4694 29.6902 18.9919 30.1828L19.5407 29.6008ZM23.6316 33.4579L19.5407 29.6008L18.9919 30.1828L23.0828 34.04L23.6316 33.4579ZM24.3684 33.4579C24.1675 33.6474 23.8325 33.6474 23.6316 33.4579L23.0828 34.04C23.5919 34.52 24.4081 34.52 24.9172 34.04L24.3684 33.4579ZM28.4593 29.6008L24.3684 33.4579L24.9172 34.04L29.0081 30.1828L28.4593 29.6008ZM28.4593 28.9707C28.6469 29.1475 28.6469 29.4239 28.4593 29.6008L29.0081 30.1828C29.5306 29.6902 29.5306 28.8812 29.0081 28.3886L28.4593 28.9707ZM27.7225 28.9707C27.9234 28.7812 28.2584 28.7812 28.4593 28.9707L29.0081 28.3886C28.499 27.9086 27.6828 27.9086 27.1737 28.3886L27.7225 28.9707ZM25.1835 31.3646L27.7225 28.9707L27.1737 28.3886L24.6347 30.7825L25.1835 31.3646ZM24.5091 22.8571V31.0735H25.3091V22.8571H24.5091Z" fill="black" fill-opacity="0.03" mask="url(#path-6-inside-1_478_11611)"/>
<defs>
<filter id="filter0_f_478_11611" x="10" y="14" width="28" height="28" filterUnits="userSpaceOnUse" color-interpolation-filters="sRGB">
<feFlood flood-opacity="0" result="BackgroundImageFix"/>
<feBlend mode="normal" in="SourceGraphic" in2="BackgroundImageFix" result="shape"/>
<feGaussianBlur stdDeviation="2" result="effect1_foregroundBlur_478_11611"/>
</filter>
<linearGradient id="paint0_linear_478_11611" x1="36" y1="34.625" x2="19.6597" y2="3.99863" gradientUnits="userSpaceOnUse">
<stop offset="0.0046461" stop-color="#79C0FB"/>
<stop offset="1" stop-color="#6796FF"/>
</linearGradient>
<linearGradient id="paint1_linear_478_11611" x1="31.2" y1="46" x2="24.7091" y2="-4.29837" gradientUnits="userSpaceOnUse">
<stop offset="0.0046461" stop-color="#79C0FB"/>
<stop offset="1" stop-color="#6796FF"/>
</linearGradient>
<linearGradient id="paint2_linear_478_11611" x1="46.2857" y1="12.7946" x2="46.2449" y2="9.07829" gradientUnits="userSpaceOnUse">
<stop stop-color="white"/>
<stop offset="1" stop-color="white" stop-opacity="0.44"/>
</linearGradient>
</defs>
</svg>
