<svg width="48" height="48" viewBox="0 0 48 48" fill="none" xmlns="http://www.w3.org/2000/svg">
<path d="M0 5.6C0 4.71634 0.716344 4 1.6 4H13.662C14.6341 4 15.5535 4.44189 16.1608 5.20098L17.4392 6.79902C18.0465 7.55811 18.9659 8 19.938 8H46.4C47.2837 8 48 8.71634 48 9.6V42.4C48 43.2837 47.2837 44 46.4 44H1.6C0.716343 44 0 43.2837 0 42.4V5.6Z" fill="url(#paint0_linear_478_11552)"/>
<path d="M0 12H48V42.4C48 43.2837 47.2837 44 46.4 44H1.6C0.716343 44 0 43.2837 0 42.4V12Z" fill="url(#paint1_linear_478_11552)"/>
<path opacity="0.4" d="M0 12H48V13H0V12Z" fill="url(#paint2_linear_478_11552)" fill-opacity="0.9"/>
<path d="M47.6 9.6V42.4C47.6 43.0627 47.0627 43.6 46.4 43.6H1.6C0.937257 43.6 0.4 43.0627 0.4 42.4V5.6C0.4 4.93726 0.937258 4.4 1.6 4.4H13.662C14.5126 4.4 15.3171 4.78665 15.8484 5.45085L17.1269 7.0489C17.8101 7.90288 18.8444 8.4 19.938 8.4H46.4C47.0627 8.4 47.6 8.93726 47.6 9.6Z" stroke="black" stroke-opacity="0.03" stroke-width="0.8"/>
<g filter="url(#filter0_f_478_11552)">
<rect x="13" y="20" width="22" height="16" fill="white" fill-opacity="0.2"/>
</g>
<rect x="13" y="20" width="22" height="16" rx="1.6" fill="#1374E7" fill-opacity="0.9"/>
<rect x="13.2" y="20.2" width="21.6" height="15.6" rx="1.4" stroke="black" stroke-opacity="0.03" stroke-width="0.4"/>
<g opacity="0.9">
<mask id="path-8-inside-1_478_11552" fill="white">
<path fill-rule="evenodd" clip-rule="evenodd" d="M18 26C19.1046 26 20 25.1046 20 24C20 22.8954 19.1046 22 18 22C16.8954 22 16 22.8954 16 24C16 25.1046 16.8954 26 18 26ZM25.4602 25.6482C26.0917 24.6823 27.507 24.6822 28.1385 25.6481L32.5882 32.4527C33.0231 33.1178 32.5459 34 31.7513 34H20L20 34H16.8097C16.0231 34 15.5445 33.1338 15.9631 32.4678L17.9971 29.2319C18.6361 28.2153 20.1255 28.2386 20.7323 29.2747L21.8461 31.1763L25.4602 25.6482Z"/>
</mask>
<path fill-rule="evenodd" clip-rule="evenodd" d="M18 26C19.1046 26 20 25.1046 20 24C20 22.8954 19.1046 22 18 22C16.8954 22 16 22.8954 16 24C16 25.1046 16.8954 26 18 26ZM25.4602 25.6482C26.0917 24.6823 27.507 24.6822 28.1385 25.6481L32.5882 32.4527C33.0231 33.1178 32.5459 34 31.7513 34H20L20 34H16.8097C16.0231 34 15.5445 33.1338 15.9631 32.4678L17.9971 29.2319C18.6361 28.2153 20.1255 28.2386 20.7323 29.2747L21.8461 31.1763L25.4602 25.6482Z" fill="url(#paint3_linear_478_11552)"/>
<path d="M28.1385 25.6481L28.8081 25.2102L28.8081 25.2102L28.1385 25.6481ZM25.4602 25.6482L26.1298 26.086L26.1298 26.086L25.4602 25.6482ZM32.5882 32.4527L31.9186 32.8906L31.9186 32.8906L32.5882 32.4527ZM20 34L19.3304 33.5622L18.5211 34.8H20V34ZM20 34L20.6696 34.4378L21.4789 33.2H20V34ZM15.9631 32.4678L16.6404 32.8936L16.6404 32.8936L15.9631 32.4678ZM17.9971 29.2319L17.3198 28.8061L17.3198 28.8061L17.9971 29.2319ZM20.7323 29.2747L20.042 29.679L20.042 29.679L20.7323 29.2747ZM21.8461 31.1763L21.1558 31.5806L21.8087 32.6954L22.5157 31.614L21.8461 31.1763ZM19.2 24C19.2 24.6627 18.6627 25.2 18 25.2V26.8C19.5464 26.8 20.8 25.5464 20.8 24H19.2ZM18 22.8C18.6627 22.8 19.2 23.3373 19.2 24H20.8C20.8 22.4536 19.5464 21.2 18 21.2V22.8ZM16.8 24C16.8 23.3373 17.3373 22.8 18 22.8V21.2C16.4536 21.2 15.2 22.4536 15.2 24H16.8ZM18 25.2C17.3373 25.2 16.8 24.6627 16.8 24H15.2C15.2 25.5464 16.4536 26.8 18 26.8V25.2ZM28.8081 25.2102C27.8607 23.7615 25.7379 23.7616 24.7906 25.2104L26.1298 26.086C26.4456 25.603 27.1532 25.603 27.469 26.0859L28.8081 25.2102ZM33.2578 32.0149L28.8081 25.2102L27.469 26.0859L31.9186 32.8906L33.2578 32.0149ZM31.7513 34.8C33.1817 34.8 34.0406 33.2121 33.2578 32.0149L31.9186 32.8906C32.0056 33.0236 31.9102 33.2 31.7513 33.2V34.8ZM20 34.8H31.7513V33.2H20V34.8ZM19.3304 33.5622L19.3304 33.5622L20.6696 34.4378L20.6696 34.4378L19.3304 33.5622ZM16.8097 34.8H20V33.2H16.8097V34.8ZM15.2858 32.0421C14.5323 33.2408 15.3939 34.8 16.8097 34.8V33.2C16.6524 33.2 16.5567 33.0268 16.6404 32.8936L15.2858 32.0421ZM17.3198 28.8061L15.2858 32.0421L16.6404 32.8936L18.6744 29.6576L17.3198 28.8061ZM21.4226 28.8704C20.5124 27.3163 18.2783 27.2813 17.3198 28.8061L18.6744 29.6576C18.9939 29.1493 19.7386 29.161 20.042 29.679L21.4226 28.8704ZM22.5364 30.772L21.4226 28.8704L20.042 29.679L21.1558 31.5806L22.5364 30.772ZM24.7906 25.2104L21.1765 30.7385L22.5157 31.614L26.1298 26.086L24.7906 25.2104Z" fill="white" fill-opacity="0.12" mask="url(#path-8-inside-1_478_11552)"/>
</g>
<defs>
<filter id="filter0_f_478_11552" x="9" y="16" width="30" height="24" filterUnits="userSpaceOnUse" color-interpolation-filters="sRGB">
<feFlood flood-opacity="0" result="BackgroundImageFix"/>
<feBlend mode="normal" in="SourceGraphic" in2="BackgroundImageFix" result="shape"/>
<feGaussianBlur stdDeviation="2" result="effect1_foregroundBlur_478_11552"/>
</filter>
<linearGradient id="paint0_linear_478_11552" x1="36" y1="34.625" x2="19.6597" y2="3.99863" gradientUnits="userSpaceOnUse">
<stop offset="0.0046461" stop-color="#79C0FB"/>
<stop offset="1" stop-color="#6796FF"/>
</linearGradient>
<linearGradient id="paint1_linear_478_11552" x1="31.2" y1="46" x2="24.7091" y2="-4.29837" gradientUnits="userSpaceOnUse">
<stop offset="0.0046461" stop-color="#79C0FB"/>
<stop offset="1" stop-color="#6796FF"/>
</linearGradient>
<linearGradient id="paint2_linear_478_11552" x1="46.2857" y1="12.7946" x2="46.2449" y2="9.07829" gradientUnits="userSpaceOnUse">
<stop stop-color="white"/>
<stop offset="1" stop-color="white" stop-opacity="0.44"/>
</linearGradient>
<linearGradient id="paint3_linear_478_11552" x1="28.1312" y1="31.0369" x2="21.6386" y2="11.5561" gradientUnits="userSpaceOnUse">
<stop offset="0.0046461" stop-color="#79C0FB"/>
<stop offset="1" stop-color="#6796FF"/>
</linearGradient>
</defs>
</svg>
