<svg width="48" height="48" viewBox="0 0 48 48" fill="none" xmlns="http://www.w3.org/2000/svg">
<path d="M0 5.6C0 4.71634 0.716344 4 1.6 4H13.662C14.6341 4 15.5535 4.44189 16.1608 5.20098L17.4392 6.79902C18.0465 7.55811 18.9659 8 19.938 8H46.4C47.2837 8 48 8.71634 48 9.6V42.4C48 43.2837 47.2837 44 46.4 44H1.6C0.716343 44 0 43.2837 0 42.4V5.6Z" fill="url(#paint0_linear_478_11599)"/>
<path d="M0 12H48V42.4C48 43.2837 47.2837 44 46.4 44H1.6C0.716343 44 0 43.2837 0 42.4V12Z" fill="url(#paint1_linear_478_11599)"/>
<path opacity="0.4" d="M0 12H48V13H0V12Z" fill="url(#paint2_linear_478_11599)" fill-opacity="0.9"/>
<path d="M47.6 9.6V42.4C47.6 43.0627 47.0627 43.6 46.4 43.6H1.6C0.937257 43.6 0.4 43.0627 0.4 42.4V5.6C0.4 4.93726 0.937258 4.4 1.6 4.4H13.662C14.5126 4.4 15.3171 4.78665 15.8484 5.45085L17.1269 7.0489C17.8101 7.90288 18.8444 8.4 19.938 8.4H46.4C47.0627 8.4 47.6 8.93726 47.6 9.6Z" stroke="black" stroke-opacity="0.03" stroke-width="0.8"/>
<g filter="url(#filter0_f_478_11599)">
<rect x="13" y="20" width="22" height="16" fill="white" fill-opacity="0.2"/>
</g>
<rect x="13" y="20" width="22" height="16" rx="1.6" fill="#1374E7" fill-opacity="0.9"/>
<rect x="13.2" y="20.2" width="21.6" height="15.6" rx="1.4" stroke="black" stroke-opacity="0.03" stroke-width="0.4"/>
<g opacity="0.9">
<mask id="path-8-inside-1_478_11599" fill="white">
<path fill-rule="evenodd" clip-rule="evenodd" d="M16 23H18V25H16V23ZM15 32H33V33.2C33 33.6419 32.6418 34 32.2 34H15.8C15.3582 34 15 33.6419 15 33.2V32ZM18 26H16V28H18V26Z"/>
</mask>
<path fill-rule="evenodd" clip-rule="evenodd" d="M16 23H18V25H16V23ZM15 32H33V33.2C33 33.6419 32.6418 34 32.2 34H15.8C15.3582 34 15 33.6419 15 33.2V32ZM18 26H16V28H18V26Z" fill="url(#paint3_linear_478_11599)"/>
<path d="M18 23H18.8V22.2H18V23ZM16 23V22.2H15.2V23H16ZM18 25V25.8H18.8V25H18ZM16 25H15.2V25.8H16V25ZM33 32H33.8V31.2H33V32ZM15 32V31.2H14.2V32H15ZM16 26V25.2H15.2V26H16ZM18 26H18.8V25.2H18V26ZM16 28H15.2V28.8H16V28ZM18 28V28.8H18.8V28H18ZM18 22.2H16V23.8H18V22.2ZM18.8 25V23H17.2V25H18.8ZM16 25.8H18V24.2H16V25.8ZM15.2 23V25H16.8V23H15.2ZM33 31.2H15V32.8H33V31.2ZM33.8 33.2V32H32.2V33.2H33.8ZM32.2 34.8C33.0837 34.8 33.8 34.0837 33.8 33.2H32.2L32.2 33.2V34.8ZM15.8 34.8H32.2V33.2H15.8V34.8ZM14.2 33.2C14.2 34.0837 14.9163 34.8 15.8 34.8V33.2L15.8 33.2H14.2ZM14.2 32V33.2H15.8V32H14.2ZM16 26.8H18V25.2H16V26.8ZM16.8 28V26H15.2V28H16.8ZM18 27.2H16V28.8H18V27.2ZM17.2 26V28H18.8V26H17.2Z" fill="white" fill-opacity="0.12" mask="url(#path-8-inside-1_478_11599)"/>
</g>
<defs>
<filter id="filter0_f_478_11599" x="9" y="16" width="30" height="24" filterUnits="userSpaceOnUse" color-interpolation-filters="sRGB">
<feFlood flood-opacity="0" result="BackgroundImageFix"/>
<feBlend mode="normal" in="SourceGraphic" in2="BackgroundImageFix" result="shape"/>
<feGaussianBlur stdDeviation="2" result="effect1_foregroundBlur_478_11599"/>
</filter>
<linearGradient id="paint0_linear_478_11599" x1="36" y1="34.625" x2="19.6597" y2="3.99863" gradientUnits="userSpaceOnUse">
<stop offset="0.0046461" stop-color="#79C0FB"/>
<stop offset="1" stop-color="#6796FF"/>
</linearGradient>
<linearGradient id="paint1_linear_478_11599" x1="31.2" y1="46" x2="24.7091" y2="-4.29837" gradientUnits="userSpaceOnUse">
<stop offset="0.0046461" stop-color="#79C0FB"/>
<stop offset="1" stop-color="#6796FF"/>
</linearGradient>
<linearGradient id="paint2_linear_478_11599" x1="46.2857" y1="12.7946" x2="46.2449" y2="9.07829" gradientUnits="userSpaceOnUse">
<stop stop-color="white"/>
<stop offset="1" stop-color="white" stop-opacity="0.44"/>
</linearGradient>
<linearGradient id="paint3_linear_478_11599" x1="28.4" y1="31.5875" x2="22.0723" y2="11.5838" gradientUnits="userSpaceOnUse">
<stop offset="0.0046461" stop-color="#79C0FB"/>
<stop offset="1" stop-color="#6796FF"/>
</linearGradient>
</defs>
</svg>
