<svg width="60" height="60" viewBox="0 0 60 60" fill="none" xmlns="http://www.w3.org/2000/svg">
<path d="M0 7C0 5.89543 0.895431 5 2 5H17.0775C18.2926 5 19.4419 5.55236 20.201 6.50122L21.799 8.49878C22.5581 9.44764 23.7074 10 24.9225 10H58C59.1046 10 60 10.8954 60 12V53C60 54.1046 59.1046 55 58 55H2C0.895432 55 0 54.1046 0 53V7Z" fill="url(#paint0_linear_676_11943)"/>
<path d="M0 15H60V53C60 54.1046 59.1046 55 58 55H2C0.895432 55 0 54.1046 0 53V15Z" fill="url(#paint1_linear_676_11943)"/>
<path opacity="0.4" d="M0 15H60V16H0V15Z" fill="url(#paint2_linear_676_11943)" fill-opacity="0.9"/>
<path d="M0.5 7C0.5 6.17157 1.17157 5.5 2 5.5H17.0775C18.1407 5.5 19.1463 5.98331 19.8105 6.81357L21.4086 8.81113C22.2626 9.8786 23.5555 10.5 24.9225 10.5H58C58.8284 10.5 59.5 11.1716 59.5 12V53C59.5 53.8284 58.8284 54.5 58 54.5H2C1.17157 54.5 0.5 53.8284 0.5 53V7Z" stroke="black" stroke-opacity="0.03"/>
<g filter="url(#filter0_f_676_11943)">
<path fill-rule="evenodd" clip-rule="evenodd" d="M30.5 22L21 31V43C21 44.1046 21.8954 45 23 45H28V37H33V45H38C39.1046 45 40 44.1046 40 43V31L30.5 22Z" fill="white" fill-opacity="0.2"/>
</g>
<mask id="path-6-inside-1_676_11943" fill="white">
<path fill-rule="evenodd" clip-rule="evenodd" d="M21.3123 30.7041C21.1129 30.893 21 31.1555 21 31.4301V44.9999H28V36.9999H33V44.9999H40V31.4301C40 31.1555 39.8871 30.893 39.6877 30.7041L31.1877 22.6515C30.802 22.2861 30.198 22.2861 29.8123 22.6515L21.3123 30.7041Z"/>
</mask>
<path fill-rule="evenodd" clip-rule="evenodd" d="M21.3123 30.7041C21.1129 30.893 21 31.1555 21 31.4301V44.9999H28V36.9999H33V44.9999H40V31.4301C40 31.1555 39.8871 30.893 39.6877 30.7041L31.1877 22.6515C30.802 22.2861 30.198 22.2861 29.8123 22.6515L21.3123 30.7041Z" fill="#1374E7" fill-opacity="0.9"/>
<path d="M21.3123 30.7041L20.9684 30.3411L21.3123 30.7041ZM21 44.9999H20.5V45.4999H21V44.9999ZM28 44.9999V45.4999H28.5V44.9999H28ZM28 36.9999V36.4999H27.5V36.9999H28ZM33 36.9999H33.5V36.4999H33V36.9999ZM33 44.9999H32.5V45.4999H33V44.9999ZM40 44.9999V45.4999H40.5V44.9999H40ZM39.6877 30.7041L40.0316 30.3411V30.3411L39.6877 30.7041ZM31.1877 22.6515L31.5316 22.2885V22.2885L31.1877 22.6515ZM29.8123 22.6515L30.1561 23.0145L30.1561 23.0145L29.8123 22.6515ZM21.5 31.4301C21.5 31.2928 21.5565 31.1615 21.6561 31.0671L20.9684 30.3411C20.6694 30.6244 20.5 31.0182 20.5 31.4301H21.5ZM21.5 44.9999V31.4301H20.5V44.9999H21.5ZM28 44.4999H21V45.4999H28V44.4999ZM28.5 44.9999V36.9999H27.5V44.9999H28.5ZM28 37.4999H33V36.4999H28V37.4999ZM32.5 36.9999V44.9999H33.5V36.9999H32.5ZM40 44.4999H33V45.4999H40V44.4999ZM39.5 31.4301V44.9999H40.5V31.4301H39.5ZM39.3439 31.0671C39.4435 31.1615 39.5 31.2928 39.5 31.4301H40.5C40.5 31.0182 40.3306 30.6244 40.0316 30.3411L39.3439 31.0671ZM30.8439 23.0145L39.3439 31.0671L40.0316 30.3411L31.5316 22.2885L30.8439 23.0145ZM30.1561 23.0145C30.349 22.8318 30.651 22.8318 30.8439 23.0145L31.5316 22.2885C30.9531 21.7404 30.0469 21.7404 29.4684 22.2885L30.1561 23.0145ZM21.6561 31.0671L30.1561 23.0145L29.4684 22.2885L20.9684 30.3411L21.6561 31.0671Z" fill="black" fill-opacity="0.03" mask="url(#path-6-inside-1_676_11943)"/>
<defs>
<filter id="filter0_f_676_11943" x="16" y="17" width="29" height="33" filterUnits="userSpaceOnUse" color-interpolation-filters="sRGB">
<feFlood flood-opacity="0" result="BackgroundImageFix"/>
<feBlend mode="normal" in="SourceGraphic" in2="BackgroundImageFix" result="shape"/>
<feGaussianBlur stdDeviation="2.5" result="effect1_foregroundBlur_676_11943"/>
</filter>
<linearGradient id="paint0_linear_676_11943" x1="45" y1="43.2813" x2="24.5746" y2="4.99828" gradientUnits="userSpaceOnUse">
<stop offset="0.0046461" stop-color="#79C0FB"/>
<stop offset="1" stop-color="#6796FF"/>
</linearGradient>
<linearGradient id="paint1_linear_676_11943" x1="39" y1="57.5" x2="30.8864" y2="-5.37296" gradientUnits="userSpaceOnUse">
<stop offset="0.0046461" stop-color="#79C0FB"/>
<stop offset="1" stop-color="#6796FF"/>
</linearGradient>
<linearGradient id="paint2_linear_676_11943" x1="57.8571" y1="15.7946" x2="57.8245" y2="12.0781" gradientUnits="userSpaceOnUse">
<stop stop-color="white"/>
<stop offset="1" stop-color="white" stop-opacity="0.44"/>
</linearGradient>
</defs>
</svg>
