<svg width="48" height="48" viewBox="0 0 48 48" fill="none" xmlns="http://www.w3.org/2000/svg">
<rect x="2" y="2" width="36" height="36" rx="18" fill="#969BAA"/>
<path fill-rule="evenodd" clip-rule="evenodd" d="M29.9692 31.2081C27.3192 33.5669 23.827 35 20.0001 35C16.1732 35 12.6811 33.5669 10.031 31.2081C10.3593 27.0181 13.27 23.5537 17.1725 22.4054C14.715 21.3189 13.0001 18.8597 13.0001 16C13.0001 12.134 16.1341 9 20.0001 9C23.8661 9 27.0001 12.134 27.0001 16C27.0001 18.8597 25.2852 21.3189 22.8278 22.4054C26.7303 23.5537 29.641 27.0181 29.9692 31.2081Z" fill="white" fill-opacity="0.7"/>
<rect x="22" y="22" width="26" height="26" rx="13" fill="url(#paint0_linear_331_10520)"/>
<path fill-rule="evenodd" clip-rule="evenodd" d="M33.9289 29.6569L37.2928 26.2929C37.6834 25.9024 38.3165 25.9024 38.707 26.2929L42.071 29.6569C42.4615 30.0474 42.4615 30.6805 42.071 31.0711C41.6805 31.4616 41.0473 31.4616 40.6568 31.0711L38.9999 29.4142L38.9999 36C38.9999 36.5523 38.5522 37 37.9999 37C37.4477 37 36.9999 36.5523 36.9999 36L36.9999 29.4142L35.3431 31.0711C34.9526 31.4616 34.3194 31.4616 33.9289 31.0711C33.5383 30.6805 33.5383 30.0474 33.9289 29.6569Z" fill="white"/>
<path fill-rule="evenodd" clip-rule="evenodd" d="M36.0572 40.3431L32.6932 43.7071C32.3027 44.0976 31.6695 44.0976 31.279 43.7071L27.915 40.3431C27.5245 39.9526 27.5245 39.3195 27.915 38.9289C28.3056 38.5384 28.9387 38.5384 29.3293 38.9289L30.9861 40.5858L30.9861 34C30.9861 33.4477 31.4338 33 31.9861 33C32.5384 33 32.9861 33.4477 32.9861 34L32.9861 40.5858L34.643 38.9289C35.0335 38.5384 35.6667 38.5384 36.0572 38.9289C36.4477 39.3195 36.4477 39.9526 36.0572 40.3431Z" fill="white"/>
<defs>
<linearGradient id="paint0_linear_331_10520" x1="22" y1="7.26667" x2="96.2822" y2="44.2241" gradientUnits="userSpaceOnUse">
<stop stop-color="#008C7B"/>
<stop offset="1" stop-color="#36FA79"/>
</linearGradient>
</defs>
</svg>
