<svg width="48" height="48" viewBox="0 0 48 48" fill="none" xmlns="http://www.w3.org/2000/svg">
<g clip-path="url(#clip0_248_5899)">
<rect x="2" y="2" width="44" height="44" rx="12" fill="url(#paint0_linear_248_5899)"/>
<rect x="-3.31699" y="30.5348" width="15.7036" height="1" transform="rotate(-30 -3.31699 30.5348)" stroke="white"/>
<rect x="38.683" y="23.5795" width="17.793" height="1" transform="rotate(-30 38.683 23.5795)" fill="#41AAF8" stroke="white"/>
<rect x="-20" y="53.5" width="37.6937" height="4" transform="rotate(-30 -20 53.5)" fill="#D9D9D9"/>
<path d="M26.3998 23.2617L28.3998 26.7258L35.6356 22.5482C36.595 27.4419 34.4166 32.6159 29.8564 35.2487C24.1169 38.5624 16.7778 36.5959 13.4641 30.8564C10.1504 25.1169 12.1169 17.7778 17.8564 14.4641C22.0848 12.0228 27.1813 12.4474 30.8969 15.1351L32.8904 11.6464C27.9699 8.28652 21.3614 7.82171 15.8564 11C8.20372 15.4183 5.58172 25.2037 10 32.8564C14.4183 40.5091 24.2037 43.1311 31.8564 38.7128C39.5091 34.2945 42.1311 24.5091 37.7128 16.8564C37.6946 16.8248 37.6762 16.7933 37.6578 16.7619L26.3998 23.2617Z" fill="url(#paint1_linear_248_5899)"/>
<path d="M26.3998 23.2617L28.3998 26.7258L35.6356 22.5482C36.595 27.4419 34.4166 32.6159 29.8564 35.2487C24.1169 38.5624 16.7778 36.5959 13.4641 30.8564C10.1504 25.1169 12.1169 17.7778 17.8564 14.4641C22.0848 12.0228 27.1813 12.4474 30.8969 15.1351L32.8904 11.6464C27.9699 8.28652 21.3614 7.82171 15.8564 11C8.20372 15.4183 5.58172 25.2037 10 32.8564C14.4183 40.5091 24.2037 43.1311 31.8564 38.7128C39.5091 34.2945 42.1311 24.5091 37.7128 16.8564C37.6946 16.8248 37.6762 16.7933 37.6578 16.7619L26.3998 23.2617Z" fill="white" fill-opacity="0.9"/>
<mask id="path-6-inside-1_248_5899" fill="white">
<path fill-rule="evenodd" clip-rule="evenodd" d="M6.80767 55.4331C2.75292 53.2324 0 48.9376 0 43.9998C0 36.8201 5.8203 30.9998 13 30.9998C17.5213 30.9998 21.5036 33.308 23.8327 36.8103L51.2169 21L67.1402 48.58L18.9233 76.4181L6.80767 55.4331Z"/>
</mask>
<path fill-rule="evenodd" clip-rule="evenodd" d="M6.80767 55.4331C2.75292 53.2324 0 48.9376 0 43.9998C0 36.8201 5.8203 30.9998 13 30.9998C17.5213 30.9998 21.5036 33.308 23.8327 36.8103L51.2169 21L67.1402 48.58L18.9233 76.4181L6.80767 55.4331Z" fill="url(#paint2_linear_248_5899)"/>
<path d="M6.80767 55.4331L8.53972 54.4331L8.25761 53.9445L7.76171 53.6753L6.80767 55.4331ZM23.8327 36.8103L22.1673 37.9178L23.2069 39.481L24.8327 38.5423L23.8327 36.8103ZM51.2169 21L52.9489 20L51.9489 18.2679L50.2169 19.2679L51.2169 21ZM67.1402 48.58L68.1402 50.3121L69.8723 49.3121L68.8723 47.58L67.1402 48.58ZM18.9233 76.4181L17.1913 77.4181L18.1913 79.1501L19.9233 78.1501L18.9233 76.4181ZM7.76171 53.6753C4.32564 51.8104 2 48.1752 2 43.9998H-2C-2 49.7 1.1802 54.6544 5.85363 57.1909L7.76171 53.6753ZM2 43.9998C2 37.9247 6.92487 32.9998 13 32.9998V28.9998C4.71573 28.9998 -2 35.7156 -2 43.9998H2ZM13 32.9998C16.8238 32.9998 20.1932 34.9493 22.1673 37.9178L25.498 35.7028C22.814 31.6667 18.2189 28.9998 13 28.9998V32.9998ZM24.8327 38.5423L52.2169 22.7321L50.2169 19.2679L22.8327 35.0782L24.8327 38.5423ZM49.4848 22L65.4082 49.58L68.8723 47.58L52.9489 20L49.4848 22ZM66.1402 46.848L17.9233 74.686L19.9233 78.1501L68.1402 50.3121L66.1402 46.848ZM20.6554 75.4181L8.53972 54.4331L5.07562 56.4331L17.1913 77.4181L20.6554 75.4181Z" fill="white" mask="url(#path-6-inside-1_248_5899)"/>
<mask id="path-8-inside-2_248_5899" fill="white">
<path fill-rule="evenodd" clip-rule="evenodd" d="M24.1374 46.2833L-21.7539 72.7787L-5.83057 100.359L70.9816 56.0112L55.0583 28.4312L34.0414 40.5652C32.975 39.5929 31.5567 38.9999 29.9998 38.9999C26.6861 38.9999 23.9998 41.6862 23.9998 44.9999C23.9998 45.4404 24.0473 45.8698 24.1374 46.2833Z"/>
</mask>
<path d="M-21.7539 72.7787L-22.7539 71.0466L-24.486 72.0466L-23.486 73.7787L-21.7539 72.7787ZM24.1374 46.2833L25.1374 48.0154L26.4026 47.2849L26.0916 45.8575L24.1374 46.2833ZM-5.83057 100.359L-7.56262 101.359L-6.56262 103.091L-4.83057 102.091L-5.83057 100.359ZM70.9816 56.0112L71.9816 57.7432L73.7136 56.7432L72.7136 55.0112L70.9816 56.0112ZM55.0583 28.4312L56.7903 27.4312L55.7903 25.6991L54.0583 26.6991L55.0583 28.4312ZM34.0414 40.5652L32.6938 42.0431L33.7746 43.0287L35.0414 42.2973L34.0414 40.5652ZM-20.7539 74.5107L25.1374 48.0154L23.1374 44.5513L-22.7539 71.0466L-20.7539 74.5107ZM-4.09852 99.3587L-20.0219 71.7787L-23.486 73.7787L-7.56262 101.359L-4.09852 99.3587ZM69.9816 54.2791L-6.83057 98.6267L-4.83057 102.091L71.9816 57.7432L69.9816 54.2791ZM53.3262 29.4312L69.2495 57.0112L72.7136 55.0112L56.7903 27.4312L53.3262 29.4312ZM35.0414 42.2973L56.0583 30.1632L54.0583 26.6991L33.0414 38.8332L35.0414 42.2973ZM29.9998 40.9999C31.0389 40.9999 31.9814 41.3935 32.6938 42.0431L35.389 39.0874C33.9687 37.7923 32.0745 36.9999 29.9998 36.9999V40.9999ZM25.9998 44.9999C25.9998 42.7908 27.7907 40.9999 29.9998 40.9999V36.9999C25.5816 36.9999 21.9998 40.5817 21.9998 44.9999H25.9998ZM26.0916 45.8575C26.0317 45.583 25.9998 45.2963 25.9998 44.9999H21.9998C21.9998 45.5845 22.0629 46.1566 22.1833 46.7091L26.0916 45.8575Z" fill="white" mask="url(#path-8-inside-2_248_5899)"/>
</g>
<defs>
<linearGradient id="paint0_linear_248_5899" x1="35" y1="35.6875" x2="15.3469" y2="4.99129" gradientUnits="userSpaceOnUse">
<stop offset="0.0046461" stop-color="#79C0FB"/>
<stop offset="1" stop-color="#6796FF"/>
</linearGradient>
<linearGradient id="paint1_linear_248_5899" x1="30" y1="8" x2="19.5" y2="39" gradientUnits="userSpaceOnUse">
<stop offset="0.0440212" stop-color="white"/>
<stop offset="1" stop-color="#B3E8FF"/>
</linearGradient>
<linearGradient id="paint2_linear_248_5899" x1="50.5" y1="59.5" x2="11.7706" y2="-23.7252" gradientUnits="userSpaceOnUse">
<stop offset="0.0046461" stop-color="#79C0FB"/>
<stop offset="1" stop-color="#6796FF"/>
</linearGradient>
<clipPath id="clip0_248_5899">
<rect x="2" y="2" width="44" height="44" rx="12" fill="white"/>
</clipPath>
</defs>
</svg>
