<svg width="48" height="48" viewBox="0 0 48 48" fill="none" xmlns="http://www.w3.org/2000/svg">
<g id="gooroom-browser">
<g id="Ellipse 370">
<circle cx="23.5729" cy="24.5227" r="18" fill="url(#paint0_linear_401_1021)"/>
<circle cx="23.5729" cy="24.5227" r="17.5" stroke="black" stroke-opacity="0.03"/>
</g>
<path id="Subtract" fill-rule="evenodd" clip-rule="evenodd" d="M37.2549 13.1396C37.5296 13.0634 37.7998 12.9916 38.0654 12.9243C40.3552 12.344 42.1649 12.1332 43.4264 12.2159C44.3914 12.2792 44.7306 12.4836 44.8198 12.5516C44.8341 12.6628 44.8415 13.0588 44.4138 13.9261C43.8546 15.0599 42.7672 16.5217 41.1198 18.2147C37.8479 21.577 32.7412 25.4715 26.5667 29.0364C20.3922 32.6012 14.4661 35.0765 9.91829 36.2289C7.62841 36.8091 5.81877 37.0199 4.55724 36.9373C3.59225 36.874 3.25306 36.6696 3.16384 36.6016C3.14956 36.4904 3.14214 36.0944 3.56988 35.2271C4.12679 34.0978 5.20764 32.6432 6.84393 30.959C6.51898 30.1489 6.2577 29.3253 6.05837 28.4942C2.02811 32.3969 0.0540597 35.8362 1.16296 37.7568C3.22014 41.32 15.1086 38.3075 27.7167 31.0282C40.3247 23.749 48.8779 14.9595 46.8207 11.3963C45.6541 9.37566 41.3256 9.46977 35.4972 11.2575C36.1218 11.8356 36.7098 12.4635 37.2549 13.1396Z" fill="url(#paint1_linear_401_1021)"/>
<circle id="Ellipse 402" opacity="0.7" cx="16" cy="18" r="6" fill="url(#paint2_linear_401_1021)"/>
</g>
<defs>
<linearGradient id="paint0_linear_401_1021" x1="32.5729" y1="34.0852" x2="16.4931" y2="8.97012" gradientUnits="userSpaceOnUse">
<stop offset="0.0046461" stop-color="#79C0FB"/>
<stop offset="1" stop-color="#6796FF"/>
</linearGradient>
<linearGradient id="paint1_linear_401_1021" x1="76" y1="6.00006" x2="31" y2="58.0001" gradientUnits="userSpaceOnUse">
<stop stop-color="#188392"/>
<stop offset="1" stop-color="#ADFF87"/>
</linearGradient>
<linearGradient id="paint2_linear_401_1021" x1="16" y1="12" x2="16" y2="24" gradientUnits="userSpaceOnUse">
<stop stop-color="#8FF2FF"/>
<stop offset="1" stop-color="#A4F4FF" stop-opacity="0"/>
</linearGradient>
</defs>
</svg>
