<svg width="48" height="48" viewBox="0 0 48 48" fill="none" xmlns="http://www.w3.org/2000/svg">
<rect x="11" y="4" width="26" height="21" fill="url(#paint0_linear_248_5624)"/>
<rect x="11" y="4" width="26" height="21" fill="url(#paint1_linear_248_5624)" fill-opacity="0.2"/>
<path d="M5 27C5 25.8954 5.89543 25 7 25H41C42.1046 25 43 25.8954 43 27V48H5V27Z" fill="url(#paint2_linear_248_5624)"/>
<rect x="11" y="4" width="1" height="21" fill="#D9D9D9"/>
<rect x="36" y="4" width="1" height="21" fill="#D9D9D9"/>
<g opacity="0.3">
<path d="M24 4H25V7.5H22.5V10H25V18.5H22.5V21H25V25H24V22H21.5V17.5H24V11H21.5V6.5H24V4Z" fill="black"/>
</g>
<g opacity="0.5">
<path d="M15 13H20V16H15V13Z" fill="black"/>
<path d="M28 13H33V16H28V13Z" fill="black"/>
</g>
<rect x="11" y="4" width="1" height="21" fill="#D9D9D9"/>
<rect x="36" y="4" width="1" height="21" fill="#D9D9D9"/>
<rect x="11" y="23" width="26" height="2" fill="black" fill-opacity="0.03"/>
<defs>
<linearGradient id="paint0_linear_248_5624" x1="38.3842" y1="5.72288e-07" x2="50.0631" y2="13.0403" gradientUnits="userSpaceOnUse">
<stop stop-color="#C8C8C8"/>
<stop offset="1" stop-color="#C2C6D3"/>
</linearGradient>
<linearGradient id="paint1_linear_248_5624" x1="24" y1="27" x2="24" y2="19.5" gradientUnits="userSpaceOnUse">
<stop/>
<stop offset="1" stop-opacity="0"/>
</linearGradient>
<linearGradient id="paint2_linear_248_5624" x1="29.7" y1="49.4375" x2="25.4522" y2="13.1812" gradientUnits="userSpaceOnUse">
<stop offset="0.0046461" stop-color="#79C0FB"/>
<stop offset="1" stop-color="#6796FF"/>
</linearGradient>
</defs>
</svg>
