<svg width="48" height="48" viewBox="0 0 48 48" fill="none" xmlns="http://www.w3.org/2000/svg">
<g id="io.github.celluloid_player.Celluloid">
<g id="Rectangle 283">
<rect width="48" height="48" rx="24" fill="url(#paint0_linear_401_1084)"/>
<rect x="0.5" y="0.5" width="47" height="47" rx="23.5" stroke="black" stroke-opacity="0.03"/>
</g>
<g id="Polygon 17" filter="url(#filter0_f_401_1084)">
<path d="M35 23.134C35.6667 23.5189 35.6667 24.4812 35 24.8661L18.5 34.3924C17.8333 34.7773 17 34.2961 17 33.5263L17 14.4738C17 13.704 17.8333 13.2229 18.5 13.6078L35 23.134Z" fill="#FF3D00" fill-opacity="0.5"/>
</g>
<path id="Polygon 18" d="M35 23.134C35.6667 23.5189 35.6667 24.4812 35 24.8661L18.5 34.3924C17.8333 34.7773 17 34.2961 17 33.5263L17 14.4738C17 13.704 17.8333 13.2229 18.5 13.6078L35 23.134Z" fill="url(#paint1_linear_401_1084)"/>
</g>
<defs>
<filter id="filter0_f_401_1084" x="12" y="8.47217" width="28.5" height="31.0557" filterUnits="userSpaceOnUse" color-interpolation-filters="sRGB">
<feFlood flood-opacity="0" result="BackgroundImageFix"/>
<feBlend mode="normal" in="SourceGraphic" in2="BackgroundImageFix" result="shape"/>
<feGaussianBlur stdDeviation="2.5" result="effect1_foregroundBlur_401_1084"/>
</filter>
<linearGradient id="paint0_linear_401_1084" x1="39.75" y1="43.8621" x2="-13.5154" y2="-13.7645" gradientUnits="userSpaceOnUse">
<stop stop-color="#FDA966"/>
<stop offset="0.826278" stop-color="#FF73A5"/>
</linearGradient>
<linearGradient id="paint1_linear_401_1084" x1="17" y1="34.4542" x2="36.5" y2="34.4542" gradientUnits="userSpaceOnUse">
<stop offset="0.0202659" stop-color="white"/>
<stop offset="1" stop-color="#EBF4FF"/>
</linearGradient>
</defs>
</svg>
