<svg width="48" height="48" viewBox="0 0 48 48" fill="none" xmlns="http://www.w3.org/2000/svg">
<g id="kr.gooroom.Software">
<path id="Rectangle 220" d="M8 9H40V48H8V9Z" fill="url(#paint0_linear_401_1576)"/>
<path id="Rectangle 221" d="M8 36H40V48H8V36Z" fill="url(#paint1_linear_401_1576)"/>
<path id="Rectangle 222" d="M9 10H39L36 12L39 14H9L12 12L9 10Z" fill="url(#paint2_linear_401_1576)" fill-opacity="0.5"/>
<g id="Union">
<path d="M19 0L16 3V14H19V0Z" fill="url(#paint3_linear_401_1576)"/>
<path d="M29 0L32 3V14H29V0Z" fill="url(#paint4_linear_401_1576)"/>
</g>
<path id="Rectangle 219" d="M19 0H29L32 3H19V0Z" fill="url(#paint5_linear_401_1576)"/>
<rect id="Rectangle 974" x="9" y="14" width="30" height="1" fill="white"/>
</g>
<defs>
<linearGradient id="paint0_linear_401_1576" x1="38.8571" y1="48" x2="38.8571" y2="9" gradientUnits="userSpaceOnUse">
<stop offset="0.0202659" stop-color="white"/>
<stop offset="1" stop-color="#EBF4FF"/>
</linearGradient>
<linearGradient id="paint1_linear_401_1576" x1="-32.5" y1="11.0769" x2="-0.890249" y2="79.5647" gradientUnits="userSpaceOnUse">
<stop stop-color="#188392"/>
<stop offset="1" stop-color="#ADFF87"/>
</linearGradient>
<linearGradient id="paint2_linear_401_1576" x1="24" y1="-3" x2="24" y2="14" gradientUnits="userSpaceOnUse">
<stop stop-color="#9CD5FF"/>
<stop offset="0.0001" stop-color="white"/>
<stop offset="1" stop-color="#00C466"/>
</linearGradient>
<linearGradient id="paint3_linear_401_1576" x1="12" y1="-6" x2="7.88072" y2="17.0014" gradientUnits="userSpaceOnUse">
<stop stop-color="#006C6C"/>
<stop offset="0.640625" stop-color="#209E5C"/>
</linearGradient>
<linearGradient id="paint4_linear_401_1576" x1="12" y1="-6" x2="7.88072" y2="17.0014" gradientUnits="userSpaceOnUse">
<stop stop-color="#006C6C"/>
<stop offset="0.640625" stop-color="#209E5C"/>
</linearGradient>
<linearGradient id="paint5_linear_401_1576" x1="12.3846" y1="-1.05555" x2="18.2208" y2="11.7635" gradientUnits="userSpaceOnUse">
<stop stop-color="#189274"/>
<stop offset="1" stop-color="#A3FF87"/>
</linearGradient>
</defs>
</svg>
