<svg width="48" height="48" viewBox="0 0 48 48" fill="none" xmlns="http://www.w3.org/2000/svg">
<rect x="2" y="2" width="44" height="44" rx="12" fill="url(#paint0_linear_248_5718)"/>
<path fill-rule="evenodd" clip-rule="evenodd" d="M12.5 38C11.6716 38 11 37.3284 11 36.5L11 11.5C11 10.6716 11.6716 10 12.5 10C13.3284 10 14 10.6716 14 11.5L14 36.5C14 37.3284 13.3284 38 12.5 38ZM34.5 38C33.6716 38 33 37.3284 33 36.5L33 11.5C33 10.6716 33.6716 10 34.5 10C35.3284 10 36 10.6716 36 11.5L36 36.5C36 37.3284 35.3284 38 34.5 38ZM22 36.5C22 37.3284 22.6716 38 23.5 38C24.3284 38 25 37.3284 25 36.5L25 11.5C25 10.6716 24.3284 10 23.5 10C22.6716 10 22 10.6716 22 11.5L22 36.5Z" fill="black" fill-opacity="0.3"/>
<path fill-rule="evenodd" clip-rule="evenodd" d="M12.5 38C11.6716 38 11 37.3284 11 36.5L11 31.5C11 30.6716 11.6716 30 12.5 30C13.3284 30 14 30.6716 14 31.5L14 36.5C14 37.3284 13.3284 38 12.5 38ZM34.5 38C33.6716 38 33 37.3284 33 36.5L33 25.5C33 24.6716 33.6716 24 34.5 24C35.3284 24 36 24.6716 36 25.5L36 36.5C36 37.3284 35.3284 38 34.5 38ZM22 36.5C22 37.3284 22.6716 38 23.5 38C24.3284 38 25 37.3284 25 36.5L25 18.5C25 17.6716 24.3284 17 23.5 17C22.6716 17 22 17.6716 22 18.5L22 36.5Z" fill="#2E9FFF"/>
<path fill-rule="evenodd" clip-rule="evenodd" d="M28 16.5C28 18.9853 25.9853 21 23.5 21C21.0147 21 19 18.9853 19 16.5C19 14.0147 21.0147 12 23.5 12C25.9853 12 28 14.0147 28 16.5ZM17 30.5C17 32.9853 14.9853 35 12.5 35C10.0147 35 8 32.9853 8 30.5C8 28.0147 10.0147 26 12.5 26C14.9853 26 17 28.0147 17 30.5ZM34.5 29C36.9853 29 39 26.9853 39 24.5C39 22.0147 36.9853 20 34.5 20C32.0147 20 30 22.0147 30 24.5C30 26.9853 32.0147 29 34.5 29Z" fill="black" fill-opacity="0.3"/>
<path fill-rule="evenodd" clip-rule="evenodd" d="M27 16.5C27 18.433 25.433 20 23.5 20C21.567 20 20 18.433 20 16.5C20 14.567 21.567 13 23.5 13C25.433 13 27 14.567 27 16.5ZM16 30.5C16 32.433 14.433 34 12.5 34C10.567 34 9 32.433 9 30.5C9 28.567 10.567 27 12.5 27C14.433 27 16 28.567 16 30.5ZM34.5 28C36.433 28 38 26.433 38 24.5C38 22.567 36.433 21 34.5 21C32.567 21 31 22.567 31 24.5C31 26.433 32.567 28 34.5 28Z" fill="url(#paint1_linear_248_5718)"/>
<defs>
<linearGradient id="paint0_linear_248_5718" x1="67" y1="6" x2="20.3796" y2="60.0285" gradientUnits="userSpaceOnUse">
<stop stop-color="#F3F3F3"/>
<stop offset="1" stop-color="#CFD3DF"/>
</linearGradient>
<linearGradient id="paint1_linear_248_5718" x1="39.5439" y1="15.823" x2="36.6684" y2="45.9727" gradientUnits="userSpaceOnUse">
<stop stop-color="#F1F1F1"/>
<stop offset="1" stop-color="#DDDEE1"/>
</linearGradient>
</defs>
</svg>
