<svg width="24" height="24" viewBox="0 0 24 24" fill="none" xmlns="http://www.w3.org/2000/svg">
<rect x="0.5" y="3.5" width="23" height="18" rx="1" fill="url(#paint0_linear_1_1682)"/>
<rect x="2" y="5" width="20" height="15" fill="url(#paint1_linear_1_1682)"/>
<circle cx="7" cy="9" r="2" fill="url(#paint2_linear_1_1682)"/>
<path opacity="0.8" fill-rule="evenodd" clip-rule="evenodd" d="M12.0095 10.5C12.1371 8.82189 13.5392 7.5 15.25 7.5C16.6214 7.5 17.7945 8.34947 18.2717 9.55095C18.4258 9.51758 18.5859 9.5 18.75 9.5C19.9926 9.5 21 10.5074 21 11.75C21 12.9926 19.9926 14 18.75 14C18.6655 14 18.5821 13.9953 18.5 13.9863V14H15.25H11.75H11.5V13.9823C10.6519 13.861 10 13.1316 10 12.25C10 11.3684 10.6519 10.639 11.5 10.5177V10.5H11.75H12.0095Z" fill="url(#paint3_linear_1_1682)"/>
<path opacity="0.8" fill-rule="evenodd" clip-rule="evenodd" d="M6 16.5H2.5V16.475C2.41922 16.4914 2.33562 16.5 2.25 16.5C1.55964 16.5 1 15.9404 1 15.25C1 14.5596 1.55964 14 2.25 14C2.33562 14 2.41922 14.0086 2.5 14.025V14H2.51772C2.63903 13.1519 3.36838 12.5 4.25 12.5C4.95159 12.5 5.55675 12.9129 5.83578 13.5089C5.88972 13.503 5.94451 13.5 6 13.5C6.82843 13.5 7.5 14.1716 7.5 15C7.5 15.6531 7.0826 16.2087 6.5 16.4146V16.5H6Z" fill="url(#paint4_linear_1_1682)"/>
<path d="M6.41303 14.7801C6.80774 14.1764 7.69226 14.1764 8.08697 14.7801L11.5 20H3L6.41303 14.7801Z" fill="url(#paint5_linear_1_1682)"/>
<path d="M14.1385 10.457C14.5255 9.80195 15.4732 9.8019 15.8603 10.4569L21.5 20H8.5L14.1385 10.457Z" fill="url(#paint6_linear_1_1682)"/>
<defs>
<linearGradient id="paint0_linear_1_1682" x1="22.6786" y1="21.5" x2="22.6786" y2="3.5" gradientUnits="userSpaceOnUse">
<stop offset="0.0202659" stop-color="white"/>
<stop offset="1" stop-color="#EBF4FF"/>
</linearGradient>
<linearGradient id="paint1_linear_1_1682" x1="16" y1="15" x2="10.9876" y2="-0.676285" gradientUnits="userSpaceOnUse">
<stop stop-color="#9FE2FF"/>
<stop offset="1" stop-color="#2C80FF"/>
</linearGradient>
<linearGradient id="paint2_linear_1_1682" x1="5.875" y1="5.73407" x2="9.68336" y2="10.28" gradientUnits="userSpaceOnUse">
<stop stop-color="#FFDA57"/>
<stop offset="1" stop-color="#FFFCA8"/>
</linearGradient>
<linearGradient id="paint3_linear_1_1682" x1="20.25" y1="10.5" x2="20.25" y2="16.5" gradientUnits="userSpaceOnUse">
<stop stop-color="white"/>
<stop offset="1" stop-color="#C9F2FF"/>
</linearGradient>
<linearGradient id="paint4_linear_1_1682" x1="10.25" y1="14.5" x2="10.25" y2="20.5" gradientUnits="userSpaceOnUse">
<stop stop-color="white"/>
<stop offset="1" stop-color="#C9F2FF"/>
</linearGradient>
<linearGradient id="paint5_linear_1_1682" x1="16.1484" y1="13.5" x2="16.1484" y2="21.7727" gradientUnits="userSpaceOnUse">
<stop stop-color="#189266"/>
<stop stop-color="#2E935A"/>
<stop offset="1" stop-color="#69C7A5"/>
</linearGradient>
<linearGradient id="paint6_linear_1_1682" x1="28.6094" y1="9" x2="28.6094" y2="23" gradientUnits="userSpaceOnUse">
<stop stop-color="#26946C"/>
<stop stop-color="#278B61"/>
<stop offset="1" stop-color="#83DE8C"/>
</linearGradient>
</defs>
</svg>
