<svg width="48" height="48" viewBox="0 0 48 48" fill="none" xmlns="http://www.w3.org/2000/svg">
<g id="synaptic">
<rect id="Rectangle 210" x="1" y="4" width="46" height="40" fill="url(#paint0_linear_401_1650)"/>
<path id="Rectangle 932" d="M19 4H30V16L28.625 15L27.25 16L25.875 15L24.5 16L23.125 15L21.75 16L20.375 15L19 16V4Z" fill="url(#paint1_linear_401_1650)"/>
<rect id="Rectangle 933" x="24" y="4" width="1" height="2" fill="#4E3E27"/>
<rect id="Rectangle 211" opacity="0.4" x="1" y="4" width="46" height="1" fill="white"/>
<rect id="Rectangle 936" opacity="0.4" x="2" y="5" width="44" height="1" fill="#93672E"/>
<path id="Union" opacity="0.9" d="M37.986 33.6059L40.8098 30.7588L42 31.9588L37 37L32 31.9588L33.1902 30.7588L36.014 33.6059V25H37.986V33.6059Z" fill="white"/>
<g id="Rectangle">
<rect x="6" y="27" width="17" height="9" fill="white"/>
<rect x="5.5" y="26.5" width="18" height="10" stroke="#C69859" stroke-opacity="0.4"/>
</g>
<g id="Rectangle_2">
<rect x="6" y="27" width="17" height="11" fill="white"/>
<rect x="5.5" y="26.5" width="18" height="12" stroke="#C69859" stroke-opacity="0.4"/>
</g>
<rect id="Rectangle 934" x="10" y="30" width="5" height="1" fill="#D9D9D9"/>
<rect id="Rectangle 935" x="10" y="32" width="9" height="1" fill="#D9D9D9"/>
</g>
<defs>
<linearGradient id="paint0_linear_401_1650" x1="11.0625" y1="-8.65934" x2="47.8814" y2="41.8828" gradientUnits="userSpaceOnUse">
<stop stop-color="#D59D69"/>
<stop offset="1" stop-color="#F2D589"/>
</linearGradient>
<linearGradient id="paint1_linear_401_1650" x1="5.07812" y1="-20.9231" x2="44.8764" y2="8.71837" gradientUnits="userSpaceOnUse">
<stop stop-color="#C88849"/>
<stop offset="1" stop-color="#C59D5E"/>
</linearGradient>
</defs>
</svg>
