<svg width="24" height="24" viewBox="0 0 24 24" fill="none" xmlns="http://www.w3.org/2000/svg">
<g id="ic_bright_rest">
<path id="Union" fill-rule="evenodd" clip-rule="evenodd" d="M11 5V2H12V5H11ZM11 21V18H12V21H11ZM21 11H18V12H21V11ZM2 11H5V12H2V11ZM17.8639 4.42912L15.7426 6.55044L16.4497 7.25755L18.571 5.13623L17.8639 4.42912ZM4.4289 17.8639L6.55022 15.7426L7.25732 16.4497L5.136 18.571L4.4289 17.8639ZM18.5711 17.8642L16.4498 15.7429L15.7427 16.45L17.864 18.5713L18.5711 17.8642ZM5.13608 4.4289L7.2574 6.55022L6.55029 7.25732L4.42897 5.136L5.13608 4.4289ZM16 11.5C16 13.9853 13.9853 16 11.5 16C9.01472 16 7 13.9853 7 11.5C7 9.01472 9.01472 7 11.5 7C13.9853 7 16 9.01472 16 11.5Z" fill="white"/>
</g>
</svg>
