<svg width="72" height="72" viewBox="0 0 72 72" fill="none" xmlns="http://www.w3.org/2000/svg">
<g id="Property 1=chinese">
<path id="&#230;&#188;&#162;" fill-rule="evenodd" clip-rule="evenodd" d="M46.4161 49.1998H57.6481V45.7918H43.2481C43.4881 44.9278 43.6321 44.0158 43.7761 43.1038H55.5361V39.7438H43.9201V37.3918H55.0561V27.9358H43.9201V26.0638H49.9681V20.3518H57.5521V16.8958H49.9681V13.6318H45.7921V16.8958H37.5841V13.6318H33.6001V16.8958H27.0241V18.9118C25.2961 17.2318 21.6481 15.2158 18.8161 14.0158L16.3201 17.3278C19.1521 18.6718 22.7521 20.9278 24.3841 22.5598L27.0241 18.9118V20.3518H33.6001V26.0638H39.6481V27.9358H29.0401V37.3918H39.6481V39.7438H28.5601V43.1038H39.4561C39.3121 44.0158 39.1201 44.9278 38.7841 45.7918H26.6401V49.1998H36.7201C34.6561 51.4078 31.2961 53.2318 25.7281 54.4318C26.6401 55.2478 27.7921 56.9278 28.2721 57.8398C35.7601 55.9198 39.7441 52.8478 41.8561 49.1998C44.6401 53.7598 49.2961 56.6398 55.9201 57.8398C56.4481 56.7358 57.6001 55.0558 58.5121 54.1918C53.1841 53.4718 49.0561 51.8398 46.4161 49.1998ZM24.5761 31.3438L21.9841 35.0878C20.3041 33.5038 16.7521 31.3918 13.8241 30.1438L16.3201 26.7838C19.1521 27.8878 22.8001 29.8078 24.5761 31.3438ZM26.3041 41.9038C24.1921 46.9438 21.5041 52.6558 19.0561 57.1678L15.1201 54.5278C17.3281 50.8318 20.4961 44.6878 22.8481 39.2158L26.3041 41.9038ZM33.0721 34.3678H39.6481V30.9598H33.0721V34.3678ZM43.9201 30.9598H50.8321V34.3678H43.9201V30.9598ZM37.5841 20.3518V23.0878H45.7921V20.3518H37.5841Z" fill="white"/>
</g>
</svg>
