<svg width="72" height="72" viewBox="0 0 72 72" fill="none" xmlns="http://www.w3.org/2000/svg">
<g id="Property 1=japanese">
<path id="&#227;&#129;&#130;" fill-rule="evenodd" clip-rule="evenodd" d="M47.2322 27.6481L42.5282 26.4961C42.4802 27.3121 42.2402 28.7041 42.0002 29.5681C41.5682 29.5201 41.1362 29.5201 40.6562 29.5201C38.3042 29.5201 35.6162 29.9041 33.0722 30.5761C33.2162 28.8001 33.3602 27.0721 33.5042 25.4401C39.3602 25.1521 45.6962 24.5281 50.4962 23.7121L50.4482 19.2961C45.4082 20.4481 39.9842 21.0721 34.0322 21.3121C34.2242 20.1601 34.4162 19.0561 34.6082 18.1441C34.7522 17.4721 34.9442 16.6081 35.1842 15.8881L30.1922 15.7441C30.2294 16.2658 30.1799 16.99 30.1334 17.6697C30.12 17.8655 30.1069 18.0576 30.0962 18.2401L29.7602 21.4561H27.1682C24.7202 21.4561 20.5442 21.0721 18.9122 20.8321L19.0562 25.2481C21.0722 25.3921 24.7682 25.5841 27.0242 25.5841H29.3282C29.1362 27.6481 28.9442 29.8561 28.8482 32.0641C22.2722 35.0881 17.0402 41.4721 17.0402 47.5681C17.0402 51.9841 19.7282 54.0001 23.0402 54.0001C25.5842 54.0001 28.3202 53.0401 30.7682 51.6961C30.9602 52.5121 31.2002 53.2801 31.4402 54.0001L35.8082 52.7041C35.4242 51.5521 35.0402 50.3041 34.7042 49.0081C38.5442 45.7441 42.3362 40.6561 44.9762 34.0321C48.9122 35.2801 50.9762 38.2081 50.9762 41.4721C50.9762 46.9921 46.3682 51.5041 37.5362 52.4641L40.0802 56.4481C51.3602 54.6721 55.6802 48.4801 55.6802 41.7121C55.6802 36.3361 52.0802 32.0161 46.3202 30.2881C46.3971 30.0572 46.4776 29.8057 46.5596 29.5491C46.7844 28.846 47.0211 28.1053 47.2322 27.6481ZM32.9282 34.6561V35.8081C32.9282 38.7841 33.2162 41.5681 33.6482 44.1121C36.3842 41.4241 38.8802 38.0161 40.7522 33.4081H40.4642C37.5842 33.4081 35.0402 33.9841 32.9282 34.6561ZM24.0002 49.3441C25.6322 49.3441 27.6482 48.6241 29.7602 47.2801C29.1362 43.9201 28.7042 40.2241 28.7042 36.5761C24.5282 39.1681 21.5522 43.3921 21.5522 46.7041C21.5522 48.4801 22.3202 49.3441 24.0002 49.3441Z" fill="white"/>
</g>
</svg>
