<svg width="72" height="72" viewBox="0 0 72 72" fill="none" xmlns="http://www.w3.org/2000/svg">
<g id="Property 1=normal">
<g id="ic/lan">
<g id="Combined Shape">
<mask id="path-1-inside-1_459_10401" fill="white">
<path fill-rule="evenodd" clip-rule="evenodd" d="M30 42V54C30 57.3137 32.6863 60 36 60H51C54.3137 60 57 57.3137 57 54V12H54V15V42V54C54 55.6569 52.6569 57 51 57H36C34.3431 57 33 55.6569 33 54V42H30Z"/>
</mask>
<path d="M30 42V39H27V42H30ZM57 12H60V9H57V12ZM54 12V9H51V12H54ZM33 42H36V39H33V42ZM27 42V54H33V42H27ZM27 54C27 58.9706 31.0294 63 36 63V57C34.3431 57 33 55.6569 33 54H27ZM36 63H51V57H36V63ZM51 63C55.9706 63 60 58.9706 60 54H54C54 55.6569 52.6569 57 51 57V63ZM60 54V12H54V54H60ZM57 9H54V15H57V9ZM51 12V15H57V12H51ZM51 15V42H57V15H51ZM51 42V54H57V42H51ZM51 54V60C54.3137 60 57 57.3137 57 54H51ZM51 54H36V60H51V54ZM36 54H30C30 57.3137 32.6863 60 36 60V54ZM36 54V42H30V54H36ZM33 39H30V45H33V39Z" fill="white" mask="url(#path-1-inside-1_459_10401)"/>
</g>
</g>
<path id="Shape" fill-rule="evenodd" clip-rule="evenodd" d="M33 15V21H30V15H27V21H24V15H18V27H45V15H39V21H36V15H33ZM18 30V42H45V30H36V36H27V30H18ZM15 45V12H48V45H15ZM33 27H30V33H33V27Z" fill="white"/>
</g>
</svg>
