<svg width="72" height="72" viewBox="0 0 72 72" fill="none" xmlns="http://www.w3.org/2000/svg">
<g id="Property 1=lock">
<path id="Shape" fill-rule="evenodd" clip-rule="evenodd" d="M48 51V46.5C48 42.3579 51.3579 39 55.5 39C59.6421 39 63 42.3579 63 46.5V51H66V66H45V51H48ZM48 54V63H63V54H48ZM60 46.5V51H51V46.5C51 44.0147 53.0147 42 55.5 42C57.9853 42 60 44.0147 60 46.5Z" fill="white"/>
<path id="Union" fill-rule="evenodd" clip-rule="evenodd" d="M21 24H18V15H21V18V21V24ZM24 12H21H18H15V15V24V27V42V45H18H27H30V48V54C30 57.3137 32.6863 60 36 60H39H42V57H39H36C34.3431 57 33 55.6569 33 54V48V45H36H42.769H44.8904H45.1063C45.2452 44.0293 45.5168 43.1014 45.9022 42.2353C45.9732 42.0757 46.0481 41.9182 46.1268 41.7629C46.4632 41.0986 46.8682 40.4748 47.3324 39.9009L47.3478 39.882C47.5539 39.6284 47.7715 39.3847 48 39.1515V39.0757V38.0142V27V24V15V12H45H42H39H36H33H30H27H24ZM45 27V30H42H39H36V33V36H33H30H27V33V30H24H21H18V27H21H27H30V30V33H33V30V27H36H42H45ZM45 15V24H42V21V18V15H45ZM57 36.1063V33.0827V15V12H54V15V33.0827V36.1063C54.4899 36.0363 54.9907 36 55.5 36C56.0093 36 56.5101 36.0363 57 36.1063ZM24 18V15H27V18V21H24V18ZM36 15H39V18V21H36V18V15ZM30 15H33V18V21H30V18V15ZM39 39V36V33H42V39H39ZM24 36V33H21V39H24V36Z" fill="white"/>
</g>
</svg>
