<svg width="72" height="72" viewBox="0 0 72 72" fill="none" xmlns="http://www.w3.org/2000/svg">
<g id="Property 1=no connection">
<g id="ic/lan no connection">
<g id="ic/lan">
<g id="ic/lan_2">
<g id="Combined Shape" opacity="0.2">
<mask id="path-1-inside-1_459_10440" fill="white">
<path fill-rule="evenodd" clip-rule="evenodd" d="M30 42V54C30 57.3137 32.6863 60 36 60H51C54.3137 60 57 57.3137 57 54V12H54V15V42V54C54 55.6569 52.6569 57 51 57H36C34.3431 57 33 55.6569 33 54V42H30Z"/>
</mask>
<path d="M30 42V39H27V42H30ZM57 12H60V9H57V12ZM54 12V9H51V12H54ZM33 42H36V39H33V42ZM27 42V54H33V42H27ZM27 54C27 58.9706 31.0294 63 36 63V57C34.3431 57 33 55.6569 33 54H27ZM36 63H51V57H36V63ZM51 63C55.9706 63 60 58.9706 60 54H54C54 55.6569 52.6569 57 51 57V63ZM60 54V12H54V54H60ZM57 9H54V15H57V9ZM51 12V15H57V12H51ZM51 15V42H57V15H51ZM51 42V54H57V42H51ZM51 54V60C54.3137 60 57 57.3137 57 54H51ZM51 54H36V60H51V54ZM36 54H30C30 57.3137 32.6863 60 36 60V54ZM36 54V42H30V54H36ZM33 39H30V45H33V39Z" fill="white" mask="url(#path-1-inside-1_459_10440)"/>
</g>
<path id="Path" fill-rule="evenodd" clip-rule="evenodd" d="M53.4853 49.2426L59.8492 42.8787C61.0208 41.7071 62.9203 41.7071 64.0919 42.8787C65.2635 44.0503 65.2635 45.9497 64.0919 47.1213L57.7279 53.4853L64.0919 59.8492C65.2635 61.0208 65.2635 62.9203 64.0919 64.0919C62.9203 65.2635 61.0208 65.2635 59.8492 64.0919L53.4853 57.7279L47.1213 64.0919C45.9497 65.2635 44.0503 65.2635 42.8787 64.0919C41.7071 62.9203 41.7071 61.0208 42.8787 59.8492L49.2426 53.4853L42.8787 47.1213C41.7071 45.9497 41.7071 44.0503 42.8787 42.8787C44.0503 41.7071 45.9497 41.7071 47.1213 42.8787L53.4853 49.2426Z" fill="white"/>
</g>
<path id="Shape" fill-rule="evenodd" clip-rule="evenodd" d="M39 42V45H15V12H48V39H45V30H36V36H27V30H18V42H39ZM33 15V21H30V15H27V21H24V15H18V27H45V15H39V21H36V15H33ZM33 27H30V33H33V27Z" fill="white"/>
</g>
</g>
</g>
</svg>
