<svg width="72" height="72" viewBox="0 0 72 72" fill="none" xmlns="http://www.w3.org/2000/svg">
<g id="Property 1=unknown">
<g id="ic/update/unknown">
<path id="Shape" fill-rule="evenodd" clip-rule="evenodd" d="M47.5437 8.30139L47.4353 8.25644C43.9111 6.80224 40.0492 6 36 6C19.4315 6 6 19.4315 6 36C6 46.0455 10.9374 54.9379 18.5179 60.3827L20.8985 58.3851C13.7196 53.5325 9 45.3174 9 36C9 21.0883 21.0883 9 36 9V17.9877L47.5437 8.30139ZM24.4563 63.6986L24.5647 63.7436C28.0889 65.1978 31.9508 66 36 66C52.5685 66 66 52.5685 66 36C66 25.9545 61.0626 17.0621 53.4821 11.6174L51.1015 13.6149C58.2804 18.4675 63 26.6826 63 36C63 50.9117 50.9117 63 36 63V54.0123L24.4563 63.6986Z" fill="white"/>
<path id="?" fill-rule="evenodd" clip-rule="evenodd" d="M33.6615 38.5797C33.2257 39.4173 33.001 40.81 32.9874 42.7576H37.9518C37.9518 41.5727 38.0505 40.6738 38.248 40.0609C38.4455 39.448 38.9324 38.8011 39.7087 38.1201C41.2341 36.8943 42.4974 35.5425 43.4984 34.0648C44.4995 32.587 45 30.9833 45 29.2536C45 26.6658 44.1998 24.6433 42.5995 23.186C40.9992 21.7287 38.769 21 35.9088 21C33.2665 21 31.1112 21.6776 29.4428 23.0328C27.7744 24.3879 26.9606 26.2777 27.0015 28.702L27.0628 28.8246H31.8433C31.8433 27.6124 32.2383 26.6965 33.0282 26.0768C33.8182 25.4571 34.7784 25.1472 35.9088 25.1472C37.2299 25.1472 38.248 25.5115 38.963 26.2402C39.6781 26.9689 40.0356 27.9937 40.0356 29.3149C40.0356 30.4589 39.7223 31.5042 39.0958 32.4508C38.4693 33.3974 37.6249 34.3882 36.5625 35.4233C35.0644 36.69 34.0974 37.7421 33.6615 38.5797ZM32.9669 51.1746H38.0335V46.4145H32.9669V51.1746Z" fill="white"/>
</g>
</g>
</svg>
