<svg width="48" height="48" viewBox="0 0 48 48" fill="none" xmlns="http://www.w3.org/2000/svg">
<path d="M3 6C3 4.89543 3.89543 4 5 4H39C40.1046 4 41 4.89543 41 6V30C41 31.1046 40.1046 32 39 32H5C3.89543 32 3 31.1046 3 30V6Z" fill="url(#paint0_linear_248_5437)"/>
<path d="M0 30H44C44 31.1046 43.1046 32 42 32H2C0.895431 32 0 31.1046 0 30Z" fill="url(#paint1_linear_248_5437)"/>
<path d="M19 30H25C25 30.5523 24.5523 31 24 31H20C19.4477 31 19 30.5523 19 30Z" fill="url(#paint2_linear_248_5437)"/>
<path d="M19 30H25C25 30.5523 24.5523 31 24 31H20C19.4477 31 19 30.5523 19 30Z" fill="black" fill-opacity="0.05"/>
<path d="M4 6C4 5.44772 4.44772 5 5 5H39C39.5523 5 40 5.44772 40 6V29C40 29.5523 39.5523 30 39 30H5C4.44772 30 4 29.5523 4 29V6Z" fill="url(#paint3_linear_248_5437)"/>
<path d="M4 6C4 5.44772 4.44772 5 5 5H39C39.5523 5 40 5.44772 40 6V29C40 29.5523 39.5523 30 39 30H5C4.44772 30 4 29.5523 4 29V6Z" fill="url(#paint4_linear_248_5437)" fill-opacity="0.2"/>
<rect opacity="0.5" x="20" y="6" width="4" height="1" rx="0.5" fill="black"/>
<path d="M30 18C30 16.8954 30.8954 16 32 16H46C47.1046 16 48 16.8954 48 18V44C48 45.1046 47.1046 46 46 46H32C30.8954 46 30 45.1046 30 44V18Z" fill="url(#paint5_linear_248_5437)"/>
<path d="M31 18C31 17.4477 31.4477 17 32 17H46C46.5523 17 47 17.4477 47 18V44C47 44.5523 46.5523 45 46 45H32C31.4477 45 31 44.5523 31 44V18Z" fill="url(#paint6_linear_248_5437)"/>
<path d="M31 18C31 17.4477 31.4477 17 32 17H46C46.5523 17 47 17.4477 47 18V44C47 44.5523 46.5523 45 46 45H32C31.4477 45 31 44.5523 31 44V18Z" fill="url(#paint7_linear_248_5437)" fill-opacity="0.2"/>
<rect opacity="0.5" x="37" y="18" width="4" height="1" rx="0.5" fill="black"/>
<defs>
<linearGradient id="paint0_linear_248_5437" x1="3" y1="2.38462" x2="11.3661" y2="43.6494" gradientUnits="userSpaceOnUse">
<stop stop-color="#A5A5A5"/>
<stop offset="1" stop-color="#9F9F9F"/>
</linearGradient>
<linearGradient id="paint1_linear_248_5437" x1="4.5348e-07" y1="29.8846" x2="0.0383731" y2="32.9528" gradientUnits="userSpaceOnUse">
<stop stop-color="white"/>
<stop offset="1" stop-color="#B3B3B3"/>
</linearGradient>
<linearGradient id="paint2_linear_248_5437" x1="25.1429" y1="30.25" x2="18.9286" y2="30.25" gradientUnits="userSpaceOnUse">
<stop stop-color="#D6D6D6"/>
<stop offset="1" stop-color="#989898"/>
</linearGradient>
<linearGradient id="paint3_linear_248_5437" x1="2.28572" y1="1.42857" x2="17.5457" y2="44.7114" gradientUnits="userSpaceOnUse">
<stop offset="0.0202659" stop-color="#162229"/>
<stop offset="1" stop-color="#646464"/>
</linearGradient>
<linearGradient id="paint4_linear_248_5437" x1="68.5882" y1="41.9565" x2="33.2303" y2="68.1332" gradientUnits="userSpaceOnUse">
<stop stop-color="white" stop-opacity="0.39"/>
<stop offset="0.450098" stop-color="white" stop-opacity="0.65"/>
<stop offset="0.471316" stop-color="white" stop-opacity="0"/>
</linearGradient>
<linearGradient id="paint5_linear_248_5437" x1="30" y1="14.2692" x2="47.4406" y2="52.3009" gradientUnits="userSpaceOnUse">
<stop stop-color="white"/>
<stop offset="1" stop-color="#B3B3B3"/>
</linearGradient>
<linearGradient id="paint6_linear_248_5437" x1="30.2381" y1="13" x2="57.2999" y2="43.4592" gradientUnits="userSpaceOnUse">
<stop offset="0.0202659" stop-color="#162229"/>
<stop offset="1" stop-color="#646464"/>
</linearGradient>
<linearGradient id="paint7_linear_248_5437" x1="59.9231" y1="28.0833" x2="32.5381" y2="46.9244" gradientUnits="userSpaceOnUse">
<stop stop-color="white" stop-opacity="0.39"/>
<stop offset="0.450098" stop-color="white" stop-opacity="0.65"/>
<stop offset="0.471316" stop-color="white" stop-opacity="0"/>
</linearGradient>
</defs>
</svg>
