<svg width="48" height="48" viewBox="0 0 48 48" fill="none" xmlns="http://www.w3.org/2000/svg">
<path fill-rule="evenodd" clip-rule="evenodd" d="M9.40159 35.9776C9.18796 36.4075 9.34542 36.9294 9.76116 37.1695L10.447 37.5654C10.8627 37.8055 11.3934 37.6809 11.6589 37.2809L13.2362 34.9047C14.8694 35.6471 16.6461 36.1288 18.5132 36.297L18.6914 39.1476C18.7213 39.6267 19.1186 40 19.5987 40H20.3906C20.8706 40 21.268 39.6267 21.2979 39.1476L21.476 36.298C23.3828 36.1275 25.1954 35.63 26.8573 34.8619L28.4444 37.2529C28.7099 37.6529 29.2407 37.7775 29.6564 37.5374L30.3422 37.1415C30.758 36.9014 30.9154 36.3795 30.7018 35.9496L29.4243 33.3789C30.9545 32.299 32.2912 30.9633 33.3721 29.4339L35.9253 30.7026C36.3552 30.9162 36.8771 30.7588 37.1171 30.343L37.5131 29.6572C37.7531 29.2415 37.6285 28.7108 37.2285 28.4453L34.8559 26.8703C35.6241 25.2119 36.1228 23.4032 36.2958 21.5004L39.1471 21.3222C39.6263 21.2923 39.9995 20.8949 39.9995 20.4149V19.623C39.9995 19.1429 39.6263 18.7456 39.1471 18.7156L36.2992 18.5377C36.1327 16.6581 35.6485 14.8699 34.9006 13.227L37.3048 11.6311C37.7047 11.3656 37.8293 10.8349 37.5893 10.4192L37.1933 9.73336C36.9533 9.31761 36.4314 9.16016 36.0015 9.37379L33.4316 10.6508C32.3642 9.12011 31.0418 7.78044 29.5259 6.69337L30.8065 4.11625C31.0202 3.68634 30.8627 3.16443 30.447 2.9244L29.7612 2.52845C29.3454 2.28842 28.8147 2.41301 28.5492 2.81297L26.9706 5.19104C25.2779 4.39287 23.4262 3.87638 21.476 3.70203L21.2979 0.852383C21.268 0.37326 20.8706 0 20.3906 0H19.5987C19.1186 0 18.7213 0.373261 18.6914 0.852383L18.5132 3.703C16.6026 3.87508 14.7868 4.37554 13.1224 5.14752L11.5542 2.78498C11.2887 2.38502 10.758 2.26043 10.3422 2.50046L9.6564 2.89641C9.24066 3.13644 9.08321 3.65835 9.29683 4.08826L10.5607 6.63167C9.03538 7.71066 7.70284 9.04414 6.62491 10.5703L4.06388 9.29765C3.63398 9.08402 3.11207 9.24148 2.87204 9.65722L2.47608 10.343C2.23605 10.7588 2.36065 11.2895 2.76061 11.555L5.1415 13.1354C4.36966 14.8033 3.87038 16.6231 3.70082 18.5376L0.851894 18.7156C0.372771 18.7456 -0.000488281 19.1429 -0.000488281 19.623V20.4149C-0.000488281 20.8949 0.372771 21.2923 0.851893 21.3222L3.70424 21.5005C3.88039 23.4382 4.39435 25.2783 5.18675 26.9615L2.83685 28.5214C2.43689 28.7869 2.3123 29.3176 2.55233 29.7333L2.94828 30.4192C3.18831 30.8349 3.71022 30.9924 4.14013 30.7787L6.68495 29.5142C7.77632 31.0388 9.12306 32.3682 10.6627 33.4399L9.40159 35.9776Z" fill="url(#paint0_linear_1717_17290)"/>
<path fill-rule="evenodd" clip-rule="evenodd" d="M9.40159 35.9776C9.18796 36.4075 9.34542 36.9294 9.76116 37.1695L10.447 37.5654C10.8627 37.8055 11.3934 37.6809 11.6589 37.2809L13.2362 34.9047C14.8694 35.6471 16.6461 36.1288 18.5132 36.297L18.6914 39.1476C18.7213 39.6267 19.1186 40 19.5987 40H20.3906C20.8706 40 21.268 39.6267 21.2979 39.1476L21.476 36.298C23.3828 36.1275 25.1954 35.63 26.8573 34.8619L28.4444 37.2529C28.7099 37.6529 29.2407 37.7775 29.6564 37.5374L30.3422 37.1415C30.758 36.9014 30.9154 36.3795 30.7018 35.9496L29.4243 33.3789C30.9545 32.299 32.2912 30.9633 33.3721 29.4339L35.9253 30.7026C36.3552 30.9162 36.8771 30.7588 37.1171 30.343L37.5131 29.6572C37.7531 29.2415 37.6285 28.7108 37.2285 28.4453L34.8559 26.8703C35.6241 25.2119 36.1228 23.4032 36.2958 21.5004L39.1471 21.3222C39.6263 21.2923 39.9995 20.8949 39.9995 20.4149V19.623C39.9995 19.1429 39.6263 18.7456 39.1471 18.7156L36.2992 18.5377C36.1327 16.6581 35.6485 14.8699 34.9006 13.227L37.3048 11.6311C37.7047 11.3656 37.8293 10.8349 37.5893 10.4192L37.1933 9.73336C36.9533 9.31761 36.4314 9.16016 36.0015 9.37379L33.4316 10.6508C32.3642 9.12011 31.0418 7.78044 29.5259 6.69337L30.8065 4.11625C31.0202 3.68634 30.8627 3.16443 30.447 2.9244L29.7612 2.52845C29.3454 2.28842 28.8147 2.41301 28.5492 2.81297L26.9706 5.19104C25.2779 4.39287 23.4262 3.87638 21.476 3.70203L21.2979 0.852383C21.268 0.37326 20.8706 0 20.3906 0H19.5987C19.1186 0 18.7213 0.373261 18.6914 0.852383L18.5132 3.703C16.6026 3.87508 14.7868 4.37554 13.1224 5.14752L11.5542 2.78498C11.2887 2.38502 10.758 2.26043 10.3422 2.50046L9.6564 2.89641C9.24066 3.13644 9.08321 3.65835 9.29683 4.08826L10.5607 6.63167C9.03538 7.71066 7.70284 9.04414 6.62491 10.5703L4.06388 9.29765C3.63398 9.08402 3.11207 9.24148 2.87204 9.65722L2.47608 10.343C2.23605 10.7588 2.36065 11.2895 2.76061 11.555L5.1415 13.1354C4.36966 14.8033 3.87038 16.6231 3.70082 18.5376L0.851894 18.7156C0.372771 18.7456 -0.000488281 19.1429 -0.000488281 19.623V20.4149C-0.000488281 20.8949 0.372771 21.2923 0.851893 21.3222L3.70424 21.5005C3.88039 23.4382 4.39435 25.2783 5.18675 26.9615L2.83685 28.5214C2.43689 28.7869 2.3123 29.3176 2.55233 29.7333L2.94828 30.4192C3.18831 30.8349 3.71022 30.9924 4.14013 30.7787L6.68495 29.5142C7.77632 31.0388 9.12306 32.3682 10.6627 33.4399L9.40159 35.9776Z" fill="black" fill-opacity="0.14"/>
<ellipse cx="19.9999" cy="20.0002" rx="12.7273" ry="12.7273" fill="url(#paint1_linear_1717_17290)" fill-opacity="0.5"/>
<ellipse cx="19.9999" cy="20.0002" rx="12.7273" ry="12.7273" fill="black" fill-opacity="0.2"/>
<circle cx="20" cy="20" r="11.8182" transform="rotate(-29.1616 20 20)" fill="url(#paint2_linear_1717_17290)"/>
<circle cx="20" cy="20" r="11.8182" transform="rotate(-29.1616 20 20)" fill="black" fill-opacity="0.14"/>
<ellipse cx="20" cy="19.9998" rx="7.27273" ry="7.27273" fill="url(#paint3_linear_1717_17290)" fill-opacity="0.5"/>
<ellipse cx="20" cy="19.9998" rx="7.27273" ry="7.27273" fill="black" fill-opacity="0.2"/>
<ellipse cx="20" cy="20" rx="4.54545" ry="4.54545" fill="url(#paint4_linear_1717_17290)"/>
<ellipse cx="20" cy="20" rx="4.54545" ry="4.54545" fill="black" fill-opacity="0.14"/>
<rect x="22" y="22" width="26" height="26" rx="13" fill="url(#paint5_linear_1717_17290)"/>
<path fill-rule="evenodd" clip-rule="evenodd" d="M33.9289 29.6569L37.2928 26.2929C37.6834 25.9024 38.3165 25.9024 38.707 26.2929L42.071 29.6569C42.4615 30.0474 42.4615 30.6805 42.071 31.0711C41.6805 31.4616 41.0473 31.4616 40.6568 31.0711L38.9999 29.4142L38.9999 36C38.9999 36.5523 38.5522 37 37.9999 37C37.4477 37 36.9999 36.5523 36.9999 36L36.9999 29.4142L35.3431 31.0711C34.9526 31.4616 34.3194 31.4616 33.9289 31.0711C33.5383 30.6805 33.5383 30.0474 33.9289 29.6569Z" fill="white"/>
<path fill-rule="evenodd" clip-rule="evenodd" d="M36.0572 40.3431L32.6932 43.7071C32.3027 44.0976 31.6695 44.0976 31.279 43.7071L27.915 40.3431C27.5245 39.9526 27.5245 39.3195 27.915 38.9289C28.3056 38.5384 28.9387 38.5384 29.3293 38.9289L30.9861 40.5858L30.9861 34C30.9861 33.4477 31.4338 33 31.9861 33C32.5384 33 32.9861 33.4477 32.9861 34L32.9861 40.5858L34.643 38.9289C35.0335 38.5384 35.6667 38.5384 36.0572 38.9289C36.4477 39.3195 36.4477 39.9526 36.0572 40.3431Z" fill="white"/>
<defs>
<linearGradient id="paint0_linear_1717_17290" x1="62.6444" y1="2.14876" x2="16.4092" y2="55.7308" gradientUnits="userSpaceOnUse">
<stop stop-color="white"/>
<stop offset="1" stop-color="#CFD3DF"/>
</linearGradient>
<linearGradient id="paint1_linear_1717_17290" x1="1.33328" y1="-5.45432" x2="32.7272" y2="40.7881" gradientUnits="userSpaceOnUse">
<stop offset="0.0625"/>
<stop offset="1" stop-opacity="0"/>
</linearGradient>
<linearGradient id="paint2_linear_1717_17290" x1="43.0992" y1="10.3306" x2="18.0551" y2="39.3542" gradientUnits="userSpaceOnUse">
<stop stop-color="white"/>
<stop offset="1" stop-color="#CFD3DF"/>
</linearGradient>
<linearGradient id="paint3_linear_1717_17290" x1="9.33329" y1="5.45432" x2="27.2727" y2="31.8786" gradientUnits="userSpaceOnUse">
<stop offset="0.0625"/>
<stop offset="1" stop-opacity="0"/>
</linearGradient>
<linearGradient id="paint4_linear_1717_17290" x1="28.8843" y1="16.281" x2="19.2519" y2="27.444" gradientUnits="userSpaceOnUse">
<stop stop-color="white"/>
<stop offset="1" stop-color="#CFD3DF"/>
</linearGradient>
<linearGradient id="paint5_linear_1717_17290" x1="22" y1="7.26667" x2="96.2822" y2="44.2241" gradientUnits="userSpaceOnUse">
<stop stop-color="#008C7B"/>
<stop offset="1" stop-color="#36FA79"/>
</linearGradient>
</defs>
</svg>
