<svg width="48" height="48" viewBox="0 0 48 48" fill="none" xmlns="http://www.w3.org/2000/svg">
<path d="M13.0002 24.9172L5.75652 11.6684L5.19638 12.588C4.14248 14.3182 3.33162 16.1875 2.79054 18.1479C2.26774 20.0421 2 22.0092 2 24.0112C2 36.1553 11.8447 46 23.9888 46C29.8227 46 35.2867 43.7141 39.3471 39.748C39.3471 39.748 37.6671 36.5526 37.1958 35.8452C33.8648 39.5627 29.1069 41.7441 23.9888 41.7441C14.499 41.7441 6.75033 34.2898 6.27864 24.9172C6.27864 24.9172 12.0445 24.9172 13.0002 24.9172Z" fill="url(#paint0_linear_1717_16929)"/>
<path d="M13.0002 24.9172L5.75652 11.6684L5.19638 12.588C4.14248 14.3182 3.33162 16.1875 2.79054 18.1479C2.26774 20.0421 2 22.0092 2 24.0112C2 36.1553 11.8447 46 23.9888 46C29.8227 46 35.2867 43.7141 39.3471 39.748C39.3471 39.748 37.6671 36.5526 37.1958 35.8452C33.8648 39.5627 29.1069 41.7441 23.9888 41.7441C14.499 41.7441 6.75033 34.2898 6.27864 24.9172C6.27864 24.9172 12.0445 24.9172 13.0002 24.9172Z" fill="#0038FF" fill-opacity="0.2"/>
<path d="M35.0007 23.0838L42.2444 36.3316L42.8045 35.412C43.8584 33.6818 44.6693 31.8126 45.2104 29.8521C45.7332 27.9579 46.0009 25.9908 46.0009 23.9888C46.0009 11.8447 36.1562 2 24.0121 2C18.2836 2 12.9117 4.20408 8.87515 8.03877C8.87515 7.95847 11.0096 11.9304 11.0096 11.9304C14.3293 8.3497 18.9978 6.2559 24.0121 6.2559C33.5022 6.2559 41.2512 13.7107 41.7223 23.0838H35.0007Z" fill="url(#paint1_linear_1717_16929)"/>
<path d="M35.0007 23.0838L42.2444 36.3316L42.8045 35.412C43.8584 33.6818 44.6693 31.8126 45.2104 29.8521C45.7332 27.9579 46.0009 25.9908 46.0009 23.9888C46.0009 11.8447 36.1562 2 24.0121 2C18.2836 2 12.9117 4.20408 8.87515 8.03877C8.87515 7.95847 11.0096 11.9304 11.0096 11.9304C14.3293 8.3497 18.9978 6.2559 24.0121 6.2559C33.5022 6.2559 41.2512 13.7107 41.7223 23.0838H35.0007Z" fill="#0038FF" fill-opacity="0.2"/>
<defs>
<linearGradient id="paint0_linear_1717_16929" x1="30.6006" y1="48.75" x2="17.482" y2="-19.0227" gradientUnits="userSpaceOnUse">
<stop offset="0.0046461" stop-color="#79C0FB"/>
<stop offset="1" stop-color="#6796FF"/>
</linearGradient>
<linearGradient id="paint1_linear_1717_16929" x1="30.6006" y1="48.75" x2="17.482" y2="-19.0227" gradientUnits="userSpaceOnUse">
<stop offset="0.0046461" stop-color="#79C0FB"/>
<stop offset="1" stop-color="#6796FF"/>
</linearGradient>
</defs>
</svg>
