<svg width="48" height="48" viewBox="0 0 48 48" fill="none" xmlns="http://www.w3.org/2000/svg">
<circle cx="23.5729" cy="24.5229" r="18" fill="url(#paint0_linear_1717_17274)"/>
<path fill-rule="evenodd" clip-rule="evenodd" d="M5.88535 27.8802C1.43861 32.1118 -0.77015 35.8772 0.429622 37.9618C2.58188 41.7014 14.8879 38.6161 27.916 31.0706C40.944 23.5251 49.7606 14.3767 47.6083 10.6371C46.3348 8.42431 41.5061 8.60113 35.0763 10.6776C36.6065 11.9505 37.9223 13.4722 38.9617 15.1806C38.9661 15.1875 38.9704 15.1944 38.9744 15.2015C38.9747 15.202 38.9751 15.2026 38.9754 15.2031C38.9836 15.2167 38.9918 15.2303 39 15.2439L38.9971 15.2455C39.6731 16.7348 33.4042 21.8685 24.8822 26.7887C16.4373 31.6643 8.9171 34.5191 7.85552 33.2761L7.84437 33.2825C6.91948 31.6254 6.24888 29.8071 5.88535 27.8802Z" fill="url(#paint1_linear_1717_17274)" fill-opacity="0.6"/>
<path fill-rule="evenodd" clip-rule="evenodd" d="M5.88535 27.8802C1.43861 32.1118 -0.77015 35.8772 0.429622 37.9618C2.58188 41.7014 14.8879 38.6161 27.916 31.0706C40.944 23.5251 49.7606 14.3767 47.6083 10.6371C46.3348 8.42431 41.5061 8.60113 35.0763 10.6776C35.2268 10.8028 35.3752 10.9304 35.5214 11.0603C36.4032 10.7813 37.2529 10.5394 38.0652 10.3358C40.5272 9.7185 42.6165 9.46044 44.202 9.57385C45.808 9.68873 46.7633 10.1713 47.175 10.8865C47.587 11.6025 47.5256 12.675 46.8215 14.1284C46.1264 15.563 44.8587 17.2493 43.0948 19.0797C39.5717 22.7354 34.1509 26.8817 27.6654 30.638C21.1799 34.3942 14.8901 37.0303 9.9728 38.2632C7.51073 38.8804 5.42143 39.1385 3.83596 39.0251C2.22996 38.9102 1.27463 38.4277 0.862976 37.7124C0.450929 36.9965 0.512307 35.9239 1.21646 34.4705C1.91153 33.036 3.17922 31.3496 4.9432 29.5193C5.27984 29.1699 5.63381 28.8161 6.00439 28.4586C5.96163 28.267 5.92194 28.0742 5.88535 27.8802ZM7.34668 32.3242C7.21512 32.6719 7.15707 33.0837 7.36819 33.4493C7.58092 33.8178 7.97088 33.973 8.3403 34.0319C8.7179 34.0921 9.17571 34.0703 9.6822 33.994C10.7005 33.8407 12.0407 33.4467 13.5988 32.8619C16.7225 31.6895 20.8118 29.716 25.1322 27.2217C29.4525 24.7273 33.2062 22.1727 35.7834 20.0536C37.0689 18.9966 38.0802 18.033 38.7222 17.2278C39.0415 16.8273 39.2892 16.4417 39.4259 16.0846C39.5596 15.7352 39.6202 15.3199 39.4074 14.9515C39.1952 14.5838 38.8065 14.4285 38.4378 14.3693C38.6195 14.6347 38.7942 14.9052 38.9617 15.1806C38.9661 15.1875 38.9704 15.1944 38.9744 15.2015C38.9747 15.202 38.9751 15.2026 38.9754 15.2031C38.9836 15.2167 38.9918 15.2303 39 15.2439L38.9971 15.2455C39.6731 16.7348 33.4042 21.8685 24.8822 26.7887C16.4373 31.6643 8.9171 34.5191 7.85552 33.2761L7.84437 33.2825C7.66923 32.9688 7.50322 32.6492 7.34668 32.3242Z" fill="url(#paint2_linear_1717_17274)"/>
<circle opacity="0.7" cx="16" cy="18" r="6" fill="url(#paint3_linear_1717_17274)"/>
<defs>
<linearGradient id="paint0_linear_1717_17274" x1="32.5729" y1="34.0855" x2="16.4931" y2="8.97037" gradientUnits="userSpaceOnUse">
<stop offset="0.0046461" stop-color="#79C0FB"/>
<stop offset="1" stop-color="#6796FF"/>
</linearGradient>
<linearGradient id="paint1_linear_1717_17274" x1="70.2583" y1="-19.1506" x2="-13.1079" y2="68.5328" gradientUnits="userSpaceOnUse">
<stop stop-color="#57E5F9"/>
<stop offset="1" stop-color="#ADFF87"/>
</linearGradient>
<linearGradient id="paint2_linear_1717_17274" x1="70.2583" y1="-19.1506" x2="-13.1079" y2="68.5328" gradientUnits="userSpaceOnUse">
<stop stop-color="#57E5F9"/>
<stop offset="1" stop-color="#ADFF87"/>
</linearGradient>
<linearGradient id="paint3_linear_1717_17274" x1="16" y1="12" x2="16" y2="24" gradientUnits="userSpaceOnUse">
<stop stop-color="#8FF2FF"/>
<stop offset="1" stop-color="#A4F4FF" stop-opacity="0"/>
</linearGradient>
</defs>
</svg>
