<svg width="48" height="48" viewBox="0 0 48 48" fill="none" xmlns="http://www.w3.org/2000/svg">
<path d="M1 6C1 4.89543 1.89543 4 3 4H13.3276C14.7187 4 16.01 4.72281 16.7373 5.90869L17.4627 7.09131C18.19 8.27719 19.4813 9 20.8724 9H45C46.1046 9 47 9.89543 47 11V42C47 43.1046 46.1046 44 45 44H3C1.89543 44 1 43.1046 1 42V6Z" fill="url(#paint0_linear_248_5793)"/>
<path d="M1 13H47V42C47 43.1046 46.1046 44 45 44H3C1.89543 44 1 43.1046 1 42V13Z" fill="url(#paint1_linear_248_5793)"/>
<path opacity="0.4" d="M1 13H47V14H1V13Z" fill="url(#paint2_linear_248_5793)" fill-opacity="0.9"/>
<mask id="path-4-outside-1_248_5793" maskUnits="userSpaceOnUse" x="24" y="9" width="11" height="34" fill="black">
<rect fill="white" x="24" y="9" width="11" height="34"/>
<path fill-rule="evenodd" clip-rule="evenodd" d="M29 10C29.5523 10 30 10.4477 30 11C30 11.5523 30.4477 12 31 12H33C33.5523 12 34 12.4477 34 13C34 13.5523 33.5523 14 33 14H31C30.4477 14 30 14.4477 30 15C30 15.5523 30.4477 16 31 16H33C33.5523 16 34 16.4477 34 17C34 17.5523 33.5523 18 33 18H31C30.4477 18 30 18.4477 30 19C30 19.5523 30.4477 20 31 20H33C33.5523 20 34 20.4477 34 21C34 21.5523 33.5523 22 33 22H31C30.4477 22 30 22.4477 30 23C30 23.5523 30.4477 24 31 24H33C33.5523 24 34 24.4477 34 25C34 25.5523 33.5523 26 33 26H31C30.4477 26 30 26.4477 30 27C30 27.5523 29.5523 28 29 28H26C25.4477 28 25 27.5523 25 27C25 26.4477 25.4477 26 26 26H28C28.5523 26 29 25.5523 29 25C29 24.4477 28.5523 24 28 24H26C25.4477 24 25 23.5523 25 23C25 22.4477 25.4477 22 26 22H28C28.5523 22 29 21.5523 29 21C29 20.4477 28.5523 20 28 20H26C25.4477 20 25 19.5523 25 19C25 18.4477 25.4477 18 26 18H28C28.5523 18 29 17.5523 29 17C29 16.4477 28.5523 16 28 16H26C25.4477 16 25 15.5523 25 15C25 14.4477 25.4477 14 26 14H28C28.5523 14 29 13.5523 29 13C29 12.4477 28.5523 12 28 12H26C25.4477 12 25 11.5523 25 11C25 10.4477 25.4477 10 26 10H29ZM25 31C25 30.4477 25.4477 30 26 30H33C33.5523 30 34 30.4477 34 31V41C34 41.5523 33.5523 42 33 42H26C25.4477 42 25 41.5523 25 41V31ZM32 32H27V34H32V32Z"/>
</mask>
<path fill-rule="evenodd" clip-rule="evenodd" d="M29 10C29.5523 10 30 10.4477 30 11C30 11.5523 30.4477 12 31 12H33C33.5523 12 34 12.4477 34 13C34 13.5523 33.5523 14 33 14H31C30.4477 14 30 14.4477 30 15C30 15.5523 30.4477 16 31 16H33C33.5523 16 34 16.4477 34 17C34 17.5523 33.5523 18 33 18H31C30.4477 18 30 18.4477 30 19C30 19.5523 30.4477 20 31 20H33C33.5523 20 34 20.4477 34 21C34 21.5523 33.5523 22 33 22H31C30.4477 22 30 22.4477 30 23C30 23.5523 30.4477 24 31 24H33C33.5523 24 34 24.4477 34 25C34 25.5523 33.5523 26 33 26H31C30.4477 26 30 26.4477 30 27C30 27.5523 29.5523 28 29 28H26C25.4477 28 25 27.5523 25 27C25 26.4477 25.4477 26 26 26H28C28.5523 26 29 25.5523 29 25C29 24.4477 28.5523 24 28 24H26C25.4477 24 25 23.5523 25 23C25 22.4477 25.4477 22 26 22H28C28.5523 22 29 21.5523 29 21C29 20.4477 28.5523 20 28 20H26C25.4477 20 25 19.5523 25 19C25 18.4477 25.4477 18 26 18H28C28.5523 18 29 17.5523 29 17C29 16.4477 28.5523 16 28 16H26C25.4477 16 25 15.5523 25 15C25 14.4477 25.4477 14 26 14H28C28.5523 14 29 13.5523 29 13C29 12.4477 28.5523 12 28 12H26C25.4477 12 25 11.5523 25 11C25 10.4477 25.4477 10 26 10H29ZM25 31C25 30.4477 25.4477 30 26 30H33C33.5523 30 34 30.4477 34 31V41C34 41.5523 33.5523 42 33 42H26C25.4477 42 25 41.5523 25 41V31ZM32 32H27V34H32V32Z" fill="url(#paint3_linear_248_5793)"/>
<path d="M27 32V31H26V32H27ZM32 32H33V31H32V32ZM27 34H26V35H27V34ZM32 34V35H33V34H32ZM31 11C31 9.89543 30.1046 9 29 9V11H31ZM31 11H29C29 12.1046 29.8954 13 31 13V11ZM33 11H31V13H33V11ZM35 13C35 11.8954 34.1046 11 33 11V13H35ZM33 15C34.1046 15 35 14.1046 35 13H33V15ZM31 15H33V13H31V15ZM31 15V13C29.8954 13 29 13.8954 29 15H31ZM31 15H29C29 16.1046 29.8954 17 31 17V15ZM33 15H31V17H33V15ZM35 17C35 15.8954 34.1046 15 33 15V17H35ZM33 19C34.1046 19 35 18.1046 35 17H33V19ZM31 19H33V17H31V19ZM31 19V17C29.8954 17 29 17.8954 29 19H31ZM31 19H29C29 20.1046 29.8954 21 31 21V19ZM33 19H31V21H33V19ZM35 21C35 19.8954 34.1046 19 33 19V21H35ZM33 23C34.1046 23 35 22.1046 35 21H33V23ZM31 23H33V21H31V23ZM31 23V21C29.8954 21 29 21.8954 29 23H31ZM31 23H29C29 24.1046 29.8954 25 31 25V23ZM33 23H31V25H33V23ZM35 25C35 23.8954 34.1046 23 33 23V25H35ZM33 27C34.1046 27 35 26.1046 35 25H33V27ZM31 27H33V25H31V27ZM31 27V25C29.8954 25 29 25.8954 29 27H31ZM29 29C30.1046 29 31 28.1046 31 27H29V29ZM26 29H29V27H26V29ZM24 27C24 28.1046 24.8954 29 26 29V27H24ZM26 25C24.8954 25 24 25.8954 24 27H26V25ZM28 25H26V27H28V25ZM28 25V27C29.1046 27 30 26.1046 30 25H28ZM28 25H30C30 23.8954 29.1046 23 28 23V25ZM26 25H28V23H26V25ZM24 23C24 24.1046 24.8954 25 26 25V23H24ZM26 21C24.8954 21 24 21.8954 24 23H26V21ZM28 21H26V23H28V21ZM28 21V23C29.1046 23 30 22.1046 30 21H28ZM28 21H30C30 19.8954 29.1046 19 28 19V21ZM26 21H28V19H26V21ZM24 19C24 20.1046 24.8954 21 26 21V19H24ZM26 17C24.8954 17 24 17.8954 24 19H26V17ZM28 17H26V19H28V17ZM28 17V19C29.1046 19 30 18.1046 30 17H28ZM28 17H30C30 15.8954 29.1046 15 28 15V17ZM26 17H28V15H26V17ZM24 15C24 16.1046 24.8954 17 26 17V15H24ZM26 13C24.8954 13 24 13.8954 24 15H26V13ZM28 13H26V15H28V13ZM28 13V15C29.1046 15 30 14.1046 30 13H28ZM28 13H30C30 11.8954 29.1046 11 28 11V13ZM26 13H28V11H26V13ZM24 11C24 12.1046 24.8954 13 26 13V11H24ZM26 9C24.8954 9 24 9.89543 24 11H26V9ZM29 9H26V11H29V9ZM26 29C24.8954 29 24 29.8954 24 31H26V29ZM33 29H26V31H33V29ZM35 31C35 29.8954 34.1046 29 33 29V31H35ZM35 41V31H33V41H35ZM33 43C34.1046 43 35 42.1046 35 41H33V43ZM26 43H33V41H26V43ZM24 41C24 42.1046 24.8954 43 26 43V41H26H24ZM24 31V41H26V31H24ZM27 33H32V31H27V33ZM28 34V32H26V34H28ZM32 33H27V35H32V33ZM31 32V34H33V32H31Z" fill="black" fill-opacity="0.03" mask="url(#path-4-outside-1_248_5793)"/>
<defs>
<linearGradient id="paint0_linear_248_5793" x1="35.5" y1="34.625" x2="18.7785" y2="4.58993" gradientUnits="userSpaceOnUse">
<stop offset="0.0046461" stop-color="#79C0FB"/>
<stop offset="1" stop-color="#6796FF"/>
</linearGradient>
<linearGradient id="paint1_linear_248_5793" x1="30.9" y1="45.9375" x2="24.5459" y2="-2.77161" gradientUnits="userSpaceOnUse">
<stop offset="0.0046461" stop-color="#79C0FB"/>
<stop offset="1" stop-color="#6796FF"/>
</linearGradient>
<linearGradient id="paint2_linear_248_5793" x1="45.3571" y1="13.7946" x2="45.3146" y2="10.0783" gradientUnits="userSpaceOnUse">
<stop stop-color="white"/>
<stop offset="1" stop-color="white" stop-opacity="0.44"/>
</linearGradient>
<linearGradient id="paint3_linear_248_5793" x1="33.6786" y1="42" x2="33.6786" y2="30" gradientUnits="userSpaceOnUse">
<stop offset="0.0202659" stop-color="white"/>
<stop offset="1" stop-color="#EBF4FF"/>
</linearGradient>
</defs>
</svg>
