<svg width="48" height="48" viewBox="0 0 48 48" fill="none" xmlns="http://www.w3.org/2000/svg">
<g filter="url(#filter0_i_1717_17058)">
<path d="M32.3357 8.06667C32.3357 7.47756 32.778 7 33.3236 7H41.0597C41.6054 7 42.0477 7.47756 42.0477 8.06667V10H32.3357V8.06667Z" fill="url(#paint0_linear_1717_17058)"/>
<path d="M32.3357 8.06667C32.3357 7.47756 32.778 7 33.3236 7H41.0597C41.6054 7 42.0477 7.47756 42.0477 8.06667V10H32.3357V8.06667Z" fill="url(#paint1_radial_1717_17058)"/>
</g>
<g filter="url(#filter1_i_1717_17058)">
<path d="M6.01685 7.97778C6.01685 7.43777 6.42229 7 6.92244 7H11.6459C12.1461 7 12.5515 7.43777 12.5515 7.97778V10H6.01685V7.97778Z" fill="url(#paint2_linear_1717_17058)"/>
<path d="M6.01685 7.97778C6.01685 7.43777 6.42229 7 6.92244 7H11.6459C12.1461 7 12.5515 7.43777 12.5515 7.97778V10H6.01685V7.97778Z" fill="url(#paint3_radial_1717_17058)"/>
</g>
<g filter="url(#filter2_i_1717_17058)">
<path d="M1 12.5768C1 10.6014 2.47436 9 4.29306 9H43.7069C45.5256 9 47 10.6014 47 12.5768V15.5529C47 15.7998 46.8157 16 46.5884 16H1.41163C1.1843 16 1 15.7998 1 15.5529V12.5768Z" fill="#DAD4E6"/>
<path d="M1 12.5768C1 10.6014 2.47436 9 4.29306 9H43.7069C45.5256 9 47 10.6014 47 12.5768V15.5529C47 15.7998 46.8157 16 46.5884 16H1.41163C1.1843 16 1 15.7998 1 15.5529V12.5768Z" fill="url(#paint4_linear_1717_17058)"/>
<path d="M1 12.5768C1 10.6014 2.47436 9 4.29306 9H43.7069C45.5256 9 47 10.6014 47 12.5768V15.5529C47 15.7998 46.8157 16 46.5884 16H1.41163C1.1843 16 1 15.7998 1 15.5529V12.5768Z" fill="url(#paint5_linear_1717_17058)"/>
<path d="M1 12.5768C1 10.6014 2.47436 9 4.29306 9H43.7069C45.5256 9 47 10.6014 47 12.5768V15.5529C47 15.7998 46.8157 16 46.5884 16H1.41163C1.1843 16 1 15.7998 1 15.5529V12.5768Z" fill="url(#paint6_linear_1717_17058)"/>
<path d="M1 12.5768C1 10.6014 2.47436 9 4.29306 9H43.7069C45.5256 9 47 10.6014 47 12.5768V15.5529C47 15.7998 46.8157 16 46.5884 16H1.41163C1.1843 16 1 15.7998 1 15.5529V12.5768Z" fill="url(#paint7_radial_1717_17058)"/>
<path d="M1 12.5768C1 10.6014 2.47436 9 4.29306 9H43.7069C45.5256 9 47 10.6014 47 12.5768V15.5529C47 15.7998 46.8157 16 46.5884 16H1.41163C1.1843 16 1 15.7998 1 15.5529V12.5768Z" fill="url(#paint8_linear_1717_17058)"/>
</g>
<path d="M1 36.1034C1 37.7032 2.30118 39 3.90627 39H44.0937C45.6988 39 47 37.7032 47 36.1034C47 36.0463 46.9535 36 46.8962 36H1.10379C1.04647 36 1 36.0463 1 36.1034Z" fill="url(#paint9_linear_1717_17058)"/>
<path d="M1 36.1034C1 37.7032 2.30118 39 3.90627 39H44.0937C45.6988 39 47 37.7032 47 36.1034C47 36.0463 46.9535 36 46.8962 36H1.10379C1.04647 36 1 36.0463 1 36.1034Z" fill="url(#paint10_linear_1717_17058)"/>
<path d="M1 36.1034C1 37.7032 2.30118 39 3.90627 39H44.0937C45.6988 39 47 37.7032 47 36.1034C47 36.0463 46.9535 36 46.8962 36H1.10379C1.04647 36 1 36.0463 1 36.1034Z" fill="url(#paint11_linear_1717_17058)"/>
<path d="M1 36.1034C1 37.7032 2.30118 39 3.90627 39H44.0937C45.6988 39 47 37.7032 47 36.1034C47 36.0463 46.9535 36 46.8962 36H1.10379C1.04647 36 1 36.0463 1 36.1034Z" fill="url(#paint12_radial_1717_17058)"/>
<path d="M1 36.1034C1 37.7032 2.30118 39 3.90627 39H44.0937C45.6988 39 47 37.7032 47 36.1034C47 36.0463 46.9535 36 46.8962 36H1.10379C1.04647 36 1 36.0463 1 36.1034Z" fill="url(#paint13_radial_1717_17058)"/>
<path d="M1 16.4118C1 16.1844 1.18429 16 1.41163 16H46.5884C46.8157 16 47 16.1844 47 16.4118V35.5882C47 35.8156 46.8157 36 46.5884 36H1.41163C1.1843 36 1 35.8156 1 35.5882V16.4118Z" fill="url(#paint14_linear_1717_17058)"/>
<path d="M1 16.4118C1 16.1844 1.18429 16 1.41163 16H46.5884C46.8157 16 47 16.1844 47 16.4118V35.5882C47 35.8156 46.8157 36 46.5884 36H1.41163C1.1843 36 1 35.8156 1 35.5882V16.4118Z" fill="url(#paint15_linear_1717_17058)"/>
<path d="M1 16.4118C1 16.1844 1.18429 16 1.41163 16H46.5884C46.8157 16 47 16.1844 47 16.4118V35.5882C47 35.8156 46.8157 36 46.5884 36H1.41163C1.1843 36 1 35.8156 1 35.5882V16.4118Z" fill="url(#paint16_linear_1717_17058)"/>
<path d="M1 16.4118C1 16.1844 1.18429 16 1.41163 16H46.5884C46.8157 16 47 16.1844 47 16.4118V35.5882C47 35.8156 46.8157 36 46.5884 36H1.41163C1.1843 36 1 35.8156 1 35.5882V16.4118Z" fill="url(#paint17_linear_1717_17058)"/>
<path d="M1 16.4118C1 16.1844 1.18429 16 1.41163 16H46.5884C46.8157 16 47 16.1844 47 16.4118V35.5882C47 35.8156 46.8157 36 46.5884 36H1.41163C1.1843 36 1 35.8156 1 35.5882V16.4118Z" fill="url(#paint18_linear_1717_17058)"/>
<path d="M1 16.4118C1 16.1844 1.18429 16 1.41163 16H46.5884C46.8157 16 47 16.1844 47 16.4118V35.5882C47 35.8156 46.8157 36 46.5884 36H1.41163C1.1843 36 1 35.8156 1 35.5882V16.4118Z" fill="url(#paint19_linear_1717_17058)"/>
<path d="M1 16.4118C1 16.1844 1.18429 16 1.41163 16H46.5884C46.8157 16 47 16.1844 47 16.4118V35.5882C47 35.8156 46.8157 36 46.5884 36H1.41163C1.1843 36 1 35.8156 1 35.5882V16.4118Z" fill="url(#paint20_radial_1717_17058)"/>
<g filter="url(#filter3_iiii_1717_17058)">
<circle cx="24.0002" cy="26.0217" r="11.5515" fill="url(#paint21_radial_1717_17058)"/>
</g>
<g filter="url(#filter4_f_1717_17058)">
<circle cx="23.9998" cy="26.0215" r="8.18121" stroke="url(#paint22_linear_1717_17058)" stroke-width="0.3"/>
<circle cx="23.9998" cy="26.0215" r="8.18121" stroke="url(#paint23_linear_1717_17058)" stroke-width="0.3"/>
</g>
<circle cx="23.9998" cy="26.0215" r="8.18121" fill="url(#paint24_radial_1717_17058)"/>
<circle cx="23.9998" cy="26.0215" r="8.18121" fill="url(#paint25_linear_1717_17058)"/>
<g filter="url(#filter5_f_1717_17058)">
<circle cx="24.0002" cy="26.0219" r="7.16499" fill="url(#paint26_radial_1717_17058)"/>
<circle cx="24.0002" cy="26.0219" r="7.16499" fill="url(#paint27_radial_1717_17058)"/>
</g>
<circle cx="24.0003" cy="26.0216" r="4.03915" fill="url(#paint28_linear_1717_17058)"/>
<circle cx="24.0003" cy="26.0216" r="4.03915" fill="url(#paint29_radial_1717_17058)"/>
<circle cx="24.0003" cy="26.0216" r="4.03915" fill="url(#paint30_radial_1717_17058)"/>
<ellipse cx="27.3528" cy="22.7418" rx="1.37735" ry="1.71624" transform="rotate(-34.9736 27.3528 22.7418)" fill="url(#paint31_linear_1717_17058)"/>
<g filter="url(#filter6_f_1717_17058)">
<rect x="45.4307" y="16.606" width="0.771812" height="18.9351" fill="#8D8D92"/>
</g>
<rect x="1" y="9" width="46" height="34" rx="4" fill="#D9D9D9"/>
<path d="M1 16.453C1 16.2028 1.18429 16 1.41163 16H46.5884C46.8157 16 47 16.2028 47 16.453V37.547C47 37.7972 46.8157 38 46.5884 38H1.41163C1.1843 38 1 37.7972 1 37.547V16.453Z" fill="#646464"/>
<path d="M1 16.453C1 16.2028 1.18429 16 1.41163 16H46.5884C46.8157 16 47 16.2028 47 16.453V37.547C47 37.7972 46.8157 38 46.5884 38H1.41163C1.1843 38 1 37.7972 1 37.547V16.453Z" fill="url(#paint32_linear_1717_17058)"/>
<path d="M1 16.453C1 16.2028 1.18429 16 1.41163 16H46.5884C46.8157 16 47 16.2028 47 16.453V37.547C47 37.7972 46.8157 38 46.5884 38H1.41163C1.1843 38 1 37.7972 1 37.547V16.453Z" fill="url(#paint33_linear_1717_17058)"/>
<path d="M1 16.453C1 16.2028 1.18429 16 1.41163 16H46.5884C46.8157 16 47 16.2028 47 16.453V37.547C47 37.7972 46.8157 38 46.5884 38H1.41163C1.1843 38 1 37.7972 1 37.547V16.453Z" fill="url(#paint34_linear_1717_17058)"/>
<rect x="38" y="17" width="3" height="3" rx="1.5" fill="#FF4848" fill-opacity="0.72"/>
<rect x="37.5" y="16.5" width="4" height="4" rx="2" stroke="black" stroke-opacity="0.1"/>
<g filter="url(#filter7_f_1717_17058)">
<circle cx="24" cy="27" r="14" fill="black" fill-opacity="0.3"/>
</g>
<circle cx="24" cy="27" r="14" fill="#D9D9D9"/>
<circle cx="24" cy="27" r="11" fill="url(#paint35_linear_1717_17058)"/>
<circle cx="24.0006" cy="26.9999" r="9.63365" fill="url(#paint36_radial_1717_17058)"/>
<circle cx="24.0004" cy="27.0002" r="5.43082" fill="url(#paint37_linear_1717_17058)"/>
<circle cx="27.5" cy="23.5" r="3.5" fill="url(#paint38_linear_1717_17058)"/>
<defs>
<filter id="filter0_i_1717_17058" x="32.3357" y="7" width="9.71191" height="3.15" filterUnits="userSpaceOnUse" color-interpolation-filters="sRGB">
<feFlood flood-opacity="0" result="BackgroundImageFix"/>
<feBlend mode="normal" in="SourceGraphic" in2="BackgroundImageFix" result="shape"/>
<feColorMatrix in="SourceAlpha" type="matrix" values="0 0 0 0 0 0 0 0 0 0 0 0 0 0 0 0 0 0 127 0" result="hardAlpha"/>
<feOffset dy="0.15"/>
<feGaussianBlur stdDeviation="0.2"/>
<feComposite in2="hardAlpha" operator="arithmetic" k2="-1" k3="1"/>
<feColorMatrix type="matrix" values="0 0 0 0 0.701961 0 0 0 0 0.709804 0 0 0 0 0.713726 0 0 0 1 0"/>
<feBlend mode="normal" in2="shape" result="effect1_innerShadow_1717_17058"/>
</filter>
<filter id="filter1_i_1717_17058" x="6.01685" y="7" width="6.53467" height="3.15" filterUnits="userSpaceOnUse" color-interpolation-filters="sRGB">
<feFlood flood-opacity="0" result="BackgroundImageFix"/>
<feBlend mode="normal" in="SourceGraphic" in2="BackgroundImageFix" result="shape"/>
<feColorMatrix in="SourceAlpha" type="matrix" values="0 0 0 0 0 0 0 0 0 0 0 0 0 0 0 0 0 0 127 0" result="hardAlpha"/>
<feOffset dy="0.15"/>
<feGaussianBlur stdDeviation="0.2"/>
<feComposite in2="hardAlpha" operator="arithmetic" k2="-1" k3="1"/>
<feColorMatrix type="matrix" values="0 0 0 0 0.701961 0 0 0 0 0.709804 0 0 0 0 0.713726 0 0 0 1 0"/>
<feBlend mode="normal" in2="shape" result="effect1_innerShadow_1717_17058"/>
</filter>
<filter id="filter2_i_1717_17058" x="1" y="9" width="46" height="7.1" filterUnits="userSpaceOnUse" color-interpolation-filters="sRGB">
<feFlood flood-opacity="0" result="BackgroundImageFix"/>
<feBlend mode="normal" in="SourceGraphic" in2="BackgroundImageFix" result="shape"/>
<feColorMatrix in="SourceAlpha" type="matrix" values="0 0 0 0 0 0 0 0 0 0 0 0 0 0 0 0 0 0 127 0" result="hardAlpha"/>
<feOffset dy="0.1"/>
<feGaussianBlur stdDeviation="0.15"/>
<feComposite in2="hardAlpha" operator="arithmetic" k2="-1" k3="1"/>
<feColorMatrix type="matrix" values="0 0 0 0 0.796078 0 0 0 0 0.8 0 0 0 0 0.803922 0 0 0 1 0"/>
<feBlend mode="normal" in2="shape" result="effect1_innerShadow_1717_17058"/>
</filter>
<filter id="filter3_iiii_1717_17058" x="12.2987" y="14.3202" width="23.4029" height="23.403" filterUnits="userSpaceOnUse" color-interpolation-filters="sRGB">
<feFlood flood-opacity="0" result="BackgroundImageFix"/>
<feBlend mode="normal" in="SourceGraphic" in2="BackgroundImageFix" result="shape"/>
<feColorMatrix in="SourceAlpha" type="matrix" values="0 0 0 0 0 0 0 0 0 0 0 0 0 0 0 0 0 0 127 0" result="hardAlpha"/>
<feOffset dy="-0.15"/>
<feGaussianBlur stdDeviation="0.075"/>
<feComposite in2="hardAlpha" operator="arithmetic" k2="-1" k3="1"/>
<feColorMatrix type="matrix" values="0 0 0 0 0.545098 0 0 0 0 0.529412 0 0 0 0 0.580392 0 0 0 1 0"/>
<feBlend mode="normal" in2="shape" result="effect1_innerShadow_1717_17058"/>
<feColorMatrix in="SourceAlpha" type="matrix" values="0 0 0 0 0 0 0 0 0 0 0 0 0 0 0 0 0 0 127 0" result="hardAlpha"/>
<feOffset dx="0.15"/>
<feGaussianBlur stdDeviation="0.075"/>
<feComposite in2="hardAlpha" operator="arithmetic" k2="-1" k3="1"/>
<feColorMatrix type="matrix" values="0 0 0 0 0.564706 0 0 0 0 0.54902 0 0 0 0 0.6 0 0 0 1 0"/>
<feBlend mode="normal" in2="effect1_innerShadow_1717_17058" result="effect2_innerShadow_1717_17058"/>
<feColorMatrix in="SourceAlpha" type="matrix" values="0 0 0 0 0 0 0 0 0 0 0 0 0 0 0 0 0 0 127 0" result="hardAlpha"/>
<feOffset dy="0.15"/>
<feGaussianBlur stdDeviation="0.075"/>
<feComposite in2="hardAlpha" operator="arithmetic" k2="-1" k3="1"/>
<feColorMatrix type="matrix" values="0 0 0 0 0.619608 0 0 0 0 0.623529 0 0 0 0 0.631373 0 0 0 1 0"/>
<feBlend mode="normal" in2="effect2_innerShadow_1717_17058" result="effect3_innerShadow_1717_17058"/>
<feColorMatrix in="SourceAlpha" type="matrix" values="0 0 0 0 0 0 0 0 0 0 0 0 0 0 0 0 0 0 127 0" result="hardAlpha"/>
<feOffset dx="-0.15" dy="0.1"/>
<feGaussianBlur stdDeviation="0.125"/>
<feComposite in2="hardAlpha" operator="arithmetic" k2="-1" k3="1"/>
<feColorMatrix type="matrix" values="0 0 0 0 0.803922 0 0 0 0 0.803922 0 0 0 0 0.823529 0 0 0 1 0"/>
<feBlend mode="normal" in2="effect3_innerShadow_1717_17058" result="effect4_innerShadow_1717_17058"/>
</filter>
<filter id="filter4_f_1717_17058" x="15.2686" y="17.2904" width="17.4625" height="17.4621" filterUnits="userSpaceOnUse" color-interpolation-filters="sRGB">
<feFlood flood-opacity="0" result="BackgroundImageFix"/>
<feBlend mode="normal" in="SourceGraphic" in2="BackgroundImageFix" result="shape"/>
<feGaussianBlur stdDeviation="0.2" result="effect1_foregroundBlur_1717_17058"/>
</filter>
<filter id="filter5_f_1717_17058" x="16.0852" y="18.1069" width="15.83" height="15.8301" filterUnits="userSpaceOnUse" color-interpolation-filters="sRGB">
<feFlood flood-opacity="0" result="BackgroundImageFix"/>
<feBlend mode="normal" in="SourceGraphic" in2="BackgroundImageFix" result="shape"/>
<feGaussianBlur stdDeviation="0.375" result="effect1_foregroundBlur_1717_17058"/>
</filter>
<filter id="filter6_f_1717_17058" x="44.7807" y="15.956" width="2.07185" height="20.2351" filterUnits="userSpaceOnUse" color-interpolation-filters="sRGB">
<feFlood flood-opacity="0" result="BackgroundImageFix"/>
<feBlend mode="normal" in="SourceGraphic" in2="BackgroundImageFix" result="shape"/>
<feGaussianBlur stdDeviation="0.325" result="effect1_foregroundBlur_1717_17058"/>
</filter>
<filter id="filter7_f_1717_17058" x="5" y="8" width="38" height="38" filterUnits="userSpaceOnUse" color-interpolation-filters="sRGB">
<feFlood flood-opacity="0" result="BackgroundImageFix"/>
<feBlend mode="normal" in="SourceGraphic" in2="BackgroundImageFix" result="shape"/>
<feGaussianBlur stdDeviation="2.5" result="effect1_foregroundBlur_1717_17058"/>
</filter>
<linearGradient id="paint0_linear_1717_17058" x1="32.9017" y1="8.5" x2="42.8323" y2="8.5" gradientUnits="userSpaceOnUse">
<stop offset="0.196906" stop-color="#949597"/>
<stop offset="0.624473" stop-color="#C1C2C4"/>
</linearGradient>
<radialGradient id="paint1_radial_1717_17058" cx="0" cy="0" r="1" gradientUnits="userSpaceOnUse" gradientTransform="translate(39.5393 7.77778) rotate(90) scale(0.388888 2.77852)">
<stop stop-color="#CFD0D2"/>
<stop offset="1" stop-color="#CFD0D2" stop-opacity="0"/>
</radialGradient>
<linearGradient id="paint2_linear_1717_17058" x1="6.39767" y1="8.5" x2="13.0795" y2="8.5" gradientUnits="userSpaceOnUse">
<stop offset="0.196906" stop-color="#949597"/>
<stop offset="0.624473" stop-color="#C1C2C4"/>
</linearGradient>
<radialGradient id="paint3_radial_1717_17058" cx="0" cy="0" r="1" gradientUnits="userSpaceOnUse" gradientTransform="translate(10.8638 7.77778) rotate(90) scale(0.388888 1.86952)">
<stop stop-color="#CFD0D2"/>
<stop offset="1" stop-color="#CFD0D2" stop-opacity="0"/>
</radialGradient>
<linearGradient id="paint4_linear_1717_17058" x1="24" y1="9" x2="24" y2="11.9202" gradientUnits="userSpaceOnUse">
<stop stop-color="#D8D8DC"/>
<stop offset="1" stop-color="#D8D8DC" stop-opacity="0"/>
</linearGradient>
<linearGradient id="paint5_linear_1717_17058" x1="1" y1="14.9381" x2="3.57271" y2="14.9381" gradientUnits="userSpaceOnUse">
<stop offset="0.22" stop-color="#C6C3CC"/>
<stop offset="1" stop-color="#C6C3CC" stop-opacity="0"/>
</linearGradient>
<linearGradient id="paint6_linear_1717_17058" x1="47" y1="15.3852" x2="42.7808" y2="15.3852" gradientUnits="userSpaceOnUse">
<stop offset="0.15" stop-color="#F9F7FE"/>
<stop offset="1" stop-color="#D3CDDD" stop-opacity="0"/>
</linearGradient>
<radialGradient id="paint7_radial_1717_17058" cx="0" cy="0" r="1" gradientUnits="userSpaceOnUse" gradientTransform="translate(47 10.3553) rotate(133.096) scale(2.93712 3.55871)">
<stop offset="0.15" stop-color="#F9F7FE"/>
<stop offset="1" stop-color="#F9F7FE" stop-opacity="0"/>
</radialGradient>
<linearGradient id="paint8_linear_1717_17058" x1="26.6756" y1="16" x2="26.6756" y2="15.3852" gradientUnits="userSpaceOnUse">
<stop stop-color="#B6ADC6"/>
<stop offset="1" stop-color="#B6ADC6" stop-opacity="0"/>
</linearGradient>
<linearGradient id="paint9_linear_1717_17058" x1="24" y1="36" x2="24" y2="39" gradientUnits="userSpaceOnUse">
<stop stop-color="#CFC6DE"/>
<stop offset="1" stop-color="#C3B4D7"/>
</linearGradient>
<linearGradient id="paint10_linear_1717_17058" x1="26.264" y1="39" x2="26.264" y2="36.6923" gradientUnits="userSpaceOnUse">
<stop stop-color="#AC91C9"/>
<stop offset="1" stop-color="#C2B3D6" stop-opacity="0"/>
</linearGradient>
<linearGradient id="paint11_linear_1717_17058" x1="24" y1="36" x2="24" y2="36.8462" gradientUnits="userSpaceOnUse">
<stop stop-color="#CFCBD7"/>
<stop offset="1" stop-color="#CFCBD7" stop-opacity="0"/>
</linearGradient>
<radialGradient id="paint12_radial_1717_17058" cx="0" cy="0" r="1" gradientUnits="userSpaceOnUse" gradientTransform="translate(45.868 35.359) rotate(90) scale(3.17947 2.06686)">
<stop offset="0.241932" stop-color="#F7F4FE"/>
<stop offset="1" stop-color="#C8BCDB" stop-opacity="0"/>
</radialGradient>
<radialGradient id="paint13_radial_1717_17058" cx="0" cy="0" r="1" gradientUnits="userSpaceOnUse" gradientTransform="translate(21.1186 31.4615) rotate(90) scale(7.53846 10.6747)">
<stop offset="0.645161" stop-color="#9884AF"/>
<stop offset="1" stop-color="#9884AF" stop-opacity="0"/>
</radialGradient>
<linearGradient id="paint14_linear_1717_17058" x1="31.0492" y1="26" x2="45.868" y2="26" gradientUnits="userSpaceOnUse">
<stop stop-color="#66636F"/>
<stop offset="1" stop-color="#6B6873"/>
</linearGradient>
<linearGradient id="paint15_linear_1717_17058" x1="1" y1="28.7671" x2="5.42506" y2="28.8185" gradientUnits="userSpaceOnUse">
<stop offset="0.342105" stop-color="#5E5C64"/>
<stop offset="1" stop-color="#5E5C64" stop-opacity="0"/>
</linearGradient>
<linearGradient id="paint16_linear_1717_17058" x1="0.434005" y1="26.296" x2="2.33781" y2="26.296" gradientUnits="userSpaceOnUse">
<stop stop-color="#8F8F91"/>
<stop offset="1" stop-color="#6D6C71" stop-opacity="0"/>
</linearGradient>
<linearGradient id="paint17_linear_1717_17058" x1="24" y1="16" x2="24" y2="17.2355" gradientUnits="userSpaceOnUse">
<stop stop-color="#706F76"/>
<stop offset="1" stop-color="#706F76" stop-opacity="0"/>
</linearGradient>
<linearGradient id="paint18_linear_1717_17058" x1="24" y1="16" x2="24" y2="16.5405" gradientUnits="userSpaceOnUse">
<stop stop-color="#5F5E65"/>
<stop offset="1" stop-color="#5F5E65" stop-opacity="0"/>
</linearGradient>
<linearGradient id="paint19_linear_1717_17058" x1="29.4541" y1="36" x2="29.4541" y2="34.9961" gradientUnits="userSpaceOnUse">
<stop stop-color="#5C536A"/>
<stop offset="1" stop-color="#5C536A" stop-opacity="0"/>
</linearGradient>
<radialGradient id="paint20_radial_1717_17058" cx="0" cy="0" r="1" gradientUnits="userSpaceOnUse" gradientTransform="translate(20.0895 29.1274) rotate(53.6919) scale(13.9904 13.935)">
<stop offset="0.59701" stop-color="#4B4357"/>
<stop offset="1" stop-color="#524C5D" stop-opacity="0"/>
</radialGradient>
<radialGradient id="paint21_radial_1717_17058" cx="0" cy="0" r="1" gradientUnits="userSpaceOnUse" gradientTransform="translate(32.7988 20.6061) rotate(143.867) scale(18.4118)">
<stop stop-color="#A6A2AE"/>
<stop offset="1" stop-color="#A6A2AF"/>
</radialGradient>
<linearGradient id="paint22_linear_1717_17058" x1="29.4025" y1="17.4673" x2="23.9998" y2="34.2027" gradientUnits="userSpaceOnUse">
<stop stop-color="#6A6375"/>
<stop offset="1" stop-color="#6A6375" stop-opacity="0"/>
</linearGradient>
<linearGradient id="paint23_linear_1717_17058" x1="18.8029" y1="32.3375" x2="21.7873" y2="28.2727" gradientUnits="userSpaceOnUse">
<stop offset="0.36304" stop-color="#B7B6BD"/>
<stop offset="1" stop-color="#B7B6BD" stop-opacity="0"/>
</linearGradient>
<radialGradient id="paint24_radial_1717_17058" cx="0" cy="0" r="1" gradientUnits="userSpaceOnUse" gradientTransform="translate(28.4763 23.8476) rotate(143.911) scale(10.5697 9.87557)">
<stop offset="0.0683178" stop-color="#67616D"/>
<stop offset="1" stop-color="#4D3E5C"/>
</radialGradient>
<linearGradient id="paint25_linear_1717_17058" x1="29.6598" y1="17.8403" x2="18.2369" y2="32.4404" gradientUnits="userSpaceOnUse">
<stop stop-color="#2C2634"/>
<stop offset="0.598769" stop-color="#40344C"/>
</linearGradient>
<radialGradient id="paint26_radial_1717_17058" cx="0" cy="0" r="1" gradientUnits="userSpaceOnUse" gradientTransform="translate(27.9207 24.118) rotate(143.911) scale(9.25676 8.64889)">
<stop offset="0.0683178" stop-color="#67616D"/>
<stop offset="1" stop-color="#4D3E5C"/>
</radialGradient>
<radialGradient id="paint27_radial_1717_17058" cx="0" cy="0" r="1" gradientUnits="userSpaceOnUse" gradientTransform="translate(27.9107 23.0247) rotate(147.397) scale(12.0325 11.6423)">
<stop offset="0.77983" stop-color="#554863" stop-opacity="0"/>
<stop offset="0.985426" stop-color="#554863"/>
</radialGradient>
<linearGradient id="paint28_linear_1717_17058" x1="26.11" y1="29.7649" x2="20.8102" y2="22.7156" gradientUnits="userSpaceOnUse">
<stop stop-color="#463755"/>
<stop offset="1" stop-color="#473F51"/>
</linearGradient>
<radialGradient id="paint29_radial_1717_17058" cx="0" cy="0" r="1" gradientUnits="userSpaceOnUse" gradientTransform="translate(21.3247 29.0445) rotate(-48.6139) scale(6.92665 4.74989)">
<stop stop-color="#544E5C"/>
<stop offset="1" stop-color="#544E5C" stop-opacity="0"/>
</radialGradient>
<radialGradient id="paint30_radial_1717_17058" cx="0" cy="0" r="1" gradientUnits="userSpaceOnUse" gradientTransform="translate(28.0395 22.6127) rotate(146.088) scale(3.68903)">
<stop stop-color="#544E5C"/>
<stop offset="1" stop-color="#544E5C" stop-opacity="0"/>
</radialGradient>
<linearGradient id="paint31_linear_1717_17058" x1="28.0755" y1="21.7087" x2="26.8644" y2="24.5035" gradientUnits="userSpaceOnUse">
<stop offset="0.0511788" stop-color="#F3F2F4"/>
<stop offset="1" stop-color="#F3F2F4" stop-opacity="0"/>
</linearGradient>
<linearGradient id="paint32_linear_1717_17058" x1="1" y1="30.0438" x2="5.42516" y2="30.0905" gradientUnits="userSpaceOnUse">
<stop offset="0.342105" stop-color="#595959"/>
<stop offset="1" stop-color="#5E5C64" stop-opacity="0"/>
</linearGradient>
<linearGradient id="paint33_linear_1717_17058" x1="24" y1="16" x2="24" y2="16.5946" gradientUnits="userSpaceOnUse">
<stop stop-color="#5F5E65"/>
<stop offset="1" stop-color="#5F5E65" stop-opacity="0"/>
</linearGradient>
<linearGradient id="paint34_linear_1717_17058" x1="29.4541" y1="38" x2="29.4541" y2="36.8958" gradientUnits="userSpaceOnUse">
<stop stop-color="#5C536A"/>
<stop offset="1" stop-color="#5C536A" stop-opacity="0"/>
</linearGradient>
<linearGradient id="paint35_linear_1717_17058" x1="31.6101" y1="16" x2="15.5" y2="37" gradientUnits="userSpaceOnUse">
<stop stop-color="#2A2C40"/>
<stop offset="1" stop-color="#427A6D"/>
</linearGradient>
<radialGradient id="paint36_radial_1717_17058" cx="0" cy="0" r="1" gradientUnits="userSpaceOnUse" gradientTransform="translate(29.2718 24.44) rotate(143.911) scale(12.4461 11.6288)">
<stop offset="0.0683178" stop-color="#616C6D"/>
<stop offset="1" stop-color="#324C55"/>
</radialGradient>
<linearGradient id="paint37_linear_1717_17058" x1="26.8369" y1="32.0332" x2="19.7111" y2="22.5552" gradientUnits="userSpaceOnUse">
<stop stop-color="#0F182D"/>
<stop offset="1" stop-color="#006A57"/>
</linearGradient>
<linearGradient id="paint38_linear_1717_17058" x1="29.3365" y1="21.3931" x2="27.2361" y2="27.4325" gradientUnits="userSpaceOnUse">
<stop offset="0.0511788" stop-color="#F3F2F4"/>
<stop offset="1" stop-color="#F3F2F4" stop-opacity="0"/>
</linearGradient>
</defs>
</svg>
