<svg width="48" height="48" viewBox="0 0 48 48" fill="none" xmlns="http://www.w3.org/2000/svg">
<path d="M39 46C40.1046 46 41 45.1046 41 44L41 15.8284C41 15.298 40.7893 14.7893 40.4142 14.4142L28.5858 2.58579C28.2107 2.21071 27.702 2 27.1716 2L8 2C6.89543 2 6 2.89543 6 4L6 44C6 45.1046 6.89543 46 8 46L39 46Z" fill="url(#paint0_linear_532_4301)"/>
<path d="M41 15L28 2L28 13C28 14.1046 28.8954 15 30 15L41 15Z" fill="url(#paint1_linear_532_4301)"/>
<path d="M19.9444 20.0188V21.1574H17.5V20.0188C17.5 17.5034 19.8416 15.4644 22.5417 15.4644H23C25.7001 15.4644 28.5 17.6225 28.5 20.1378V20.5881C28.5 22.4924 27.5128 23.896 25.8493 25.0029C24.8282 25.6824 24.2222 26.6777 24.2222 27.8466V29.5545H21.7778V27.8466C21.7778 25.9423 22.765 24.2568 24.4285 23.1499C25.4496 22.4705 26.0556 21.757 26.0556 20.5881V20.0188C26.0556 18.7611 24.35 17.7183 23 17.7183H22.5417C21.1916 17.7183 19.9444 18.7611 19.9444 20.0188Z" fill="url(#paint2_linear_532_4301)"/>
<path d="M19.9444 20.0188V21.1574H17.5V20.0188C17.5 17.5034 19.8416 15.4644 22.5417 15.4644H23C25.7001 15.4644 28.5 17.6225 28.5 20.1378V20.5881C28.5 22.4924 27.5128 23.896 25.8493 25.0029C24.8282 25.6824 24.2222 26.6777 24.2222 27.8466V29.5545H21.7778V27.8466C21.7778 25.9423 22.765 24.2568 24.4285 23.1499C25.4496 22.4705 26.0556 21.757 26.0556 20.5881V20.0188C26.0556 18.7611 24.35 17.7183 23 17.7183H22.5417C21.1916 17.7183 19.9444 18.7611 19.9444 20.0188Z" fill="#8595AD" fill-opacity="0.7"/>
<path d="M21.7772 33.5358V30.9739H24.2216V33.5358H21.7772Z" fill="url(#paint3_linear_532_4301)"/>
<path d="M21.7772 33.5358V30.9739H24.2216V33.5358H21.7772Z" fill="#8595AD" fill-opacity="0.7"/>
<path d="M8 2.25L27.1716 2.25C27.6357 2.25 28.0808 2.43438 28.409 2.76256L40.2374 14.591C40.5656 14.9192 40.75 15.3643 40.75 15.8284L40.75 44C40.75 44.9665 39.9665 45.75 39 45.75L8 45.75C7.0335 45.75 6.25 44.9665 6.25 44L6.25 4C6.25 3.0335 7.0335 2.25 8 2.25Z" stroke="black" stroke-opacity="0.03" stroke-width="0.5"/>
<defs>
<linearGradient id="paint0_linear_532_4301" x1="41" y1="3.57143" x2="6" y2="3.57143" gradientUnits="userSpaceOnUse">
<stop offset="0.0202659" stop-color="#D6E9FF"/>
<stop offset="1" stop-color="#E8F2FF"/>
</linearGradient>
<linearGradient id="paint1_linear_532_4301" x1="42.5" y1="8.5" x2="30.5" y2="20.5" gradientUnits="userSpaceOnUse">
<stop offset="0.0202659" stop-color="#E8F2FF"/>
<stop offset="1" stop-color="white"/>
</linearGradient>
<linearGradient id="paint2_linear_532_4301" x1="25.75" y1="29.3003" x2="16.8737" y2="20.8614" gradientUnits="userSpaceOnUse">
<stop offset="0.0046461" stop-color="#79C0FB"/>
<stop offset="1" stop-color="#6796FF"/>
</linearGradient>
<linearGradient id="paint3_linear_532_4301" x1="25.75" y1="29.3003" x2="16.8737" y2="20.8614" gradientUnits="userSpaceOnUse">
<stop offset="0.0046461" stop-color="#79C0FB"/>
<stop offset="1" stop-color="#6796FF"/>
</linearGradient>
</defs>
</svg>
