<svg xmlns="http://www.w3.org/2000/svg" width="60" height="60" viewBox="0 0 60 60">
    <g fill="none" fill-rule="evenodd">
        <path fill="#FFF" fill-rule="nonzero" d="M52.789 3.39c2.694 54.606 2.693 54.72-44.853 53.22C5.242 2.005 5.244 1.89 52.79 3.39z"/>
        <path fill="#2998D2" fill-rule="nonzero" d="M25.49 4.887c-6.525.641-10.401 2.164-12.82 5.04-2.455 2.919-3.687 7.549-4.05 15.191-.298 6.286-.118 12.402.746 30.036 15.06.467 20.463.49 25.869-.04 6.525-.642 10.401-2.165 12.82-5.04 2.455-2.92 3.687-7.55 4.05-15.192.298-6.286.118-12.401-.747-30.036-15.058-.467-20.462-.49-25.868.04zM52.79 3.39c2.694 54.606 2.693 54.72-44.853 53.22C5.242 2.005 5.244 1.89 52.79 3.39z"/>
        <path fill="#2A99D2" d="M46 14H16v3.815h30V14zm0 5.605H16v1.577h30v-1.577zM31.134 23.01H16v1.549h15.134v-1.55zM16 41.7V26.61h15.09V41.7h-15.09zm8.16-1.368h5.381v-5.605h-5.38v5.605h-.001zm-6.792 0h5.425v-5.605H17.37v5.605h-.001zm5.425-12.353H17.37v5.38h5.424v-5.38zm6.75 0h-5.382v5.38h5.38v-5.38h.002z" opacity=".4"/>
        <path fill="#2A99D2" d="M39.828 39.38a1.37 1.37 0 1 1-.009 2.74 1.37 1.37 0 0 1 .009-2.74zm-.862-10.311V27h1.93v2.069h4.69L45.595 31H34.414v-1.931h4.552zM35.93 42.862H46v1.931H34v-4.552h1.931v2.621zm3.808-11.478a3.78 3.78 0 1 1-.004 7.56 3.78 3.78 0 0 1 .004-7.56zm.002 1.892a1.892 1.892 0 1 1 .01 3.784 1.892 1.892 0 0 1-.01-3.784z"/>
    </g>
</svg>
