<svg xmlns="http://www.w3.org/2000/svg" width="60" height="60" viewBox="0 0 60 60">
    <g fill="none" fill-rule="evenodd">
        <g fill-rule="nonzero">
            <path fill="#FFF" d="M52.789 3.39c2.694 54.606 2.693 54.72-44.853 53.22C5.242 2.005 5.244 1.89 52.79 3.39z"/>
            <path fill="#2998D2" d="M25.49 4.887c-6.525.641-10.401 2.164-12.82 5.04-2.455 2.919-3.687 7.549-4.05 15.191-.298 6.286-.118 12.402.746 30.036 15.06.467 20.463.49 25.869-.04 6.525-.642 10.401-2.165 12.82-5.04 2.455-2.92 3.687-7.55 4.05-15.192.298-6.286.118-12.401-.747-30.036-15.058-.467-20.462-.49-25.868.04zM52.79 3.39c2.694 54.606 2.693 54.72-44.853 53.22C5.242 2.005 5.244 1.89 52.79 3.39z"/>
        </g>
        <path fill="#2A99D2" d="M29.741 35.569a2.056 2.056 0 1 1-.012 4.112 2.056 2.056 0 0 1 .012-4.112zm-1.293-15.466V17h2.897v3.103h7.034L38.393 23H21.62v-2.897h6.827zm-4.551 20.69H39v2.897H21v-6.828h2.897v3.931zm5.712-17.218a5.67 5.67 0 1 1-.006 11.34 5.67 5.67 0 0 1 .006-11.34zm.003 2.839a2.838 2.838 0 1 1 .013 5.677 2.838 2.838 0 0 1-.013-5.677z"/>
    </g>
</svg>
