<svg width="18" height="18" viewBox="0 0 18 18" fill="none" xmlns="http://www.w3.org/2000/svg">
<path fill-rule="evenodd" clip-rule="evenodd" d="M9 0C8.44771 0 8 0.447715 8 1V3C8 3.55228 8.44771 4 9 4C9.55229 4 10 3.55228 10 3V1C10 0.447715 9.55229 0 9 0ZM9 13C11.2091 13 13 11.2091 13 9C13 6.79086 11.2091 5 9 5C6.79086 5 5 6.79086 5 9C5 11.2091 6.79086 13 9 13ZM8 15C8 14.4477 8.44771 14 9 14C9.55229 14 10 14.4477 10 15V17C10 17.5523 9.55229 18 9 18C8.44771 18 8 17.5523 8 17V15ZM4 9C4 8.44771 3.55228 8 3 8H1C0.447715 8 0 8.44771 0 9C0 9.55229 0.447715 10 1 10H3C3.55228 10 4 9.55229 4 9ZM17 8C17.5523 8 18 8.44771 18 9C18 9.55229 17.5523 10 17 10H15C14.4477 10 14 9.55229 14 9C14 8.44771 14.4477 8 15 8H17ZM15.364 2.63615C14.9735 2.24563 14.3403 2.24563 13.9498 2.63615L12.5356 4.05037C12.145 4.44089 12.145 5.07406 12.5356 5.46458C12.9261 5.85511 13.5593 5.85511 13.9498 5.46458L15.364 4.05037C15.7545 3.65984 15.7545 3.02668 15.364 2.63615ZM4.05025 12.5356C4.44077 12.145 5.07394 12.145 5.46446 12.5356C5.85498 12.9261 5.85498 13.5593 5.46446 13.9498L4.05025 15.364C3.65972 15.7545 3.02656 15.7545 2.63603 15.364C2.24551 14.9735 2.24551 14.3403 2.63603 13.9498L4.05025 12.5356ZM5.46446 5.46458C5.85498 5.07406 5.85498 4.44089 5.46446 4.05037L4.05025 2.63615C3.65972 2.24563 3.02656 2.24563 2.63603 2.63615C2.24551 3.02668 2.24551 3.65984 2.63603 4.05037L4.05025 5.46458C4.44077 5.85511 5.07394 5.85511 5.46446 5.46458ZM15.364 13.9498C15.7545 14.3403 15.7545 14.9735 15.364 15.364C14.9735 15.7545 14.3403 15.7545 13.9498 15.364L12.5356 13.9498C12.145 13.5593 12.145 12.9261 12.5356 12.5356C12.9261 12.145 13.5593 12.145 13.9498 12.5356L15.364 13.9498Z" fill="white"/>
</svg>
