<svg width="24" height="24" viewBox="0 0 24 24" fill="none" xmlns="http://www.w3.org/2000/svg">
<path fill-rule="evenodd" clip-rule="evenodd" d="M12 3C11.4477 3 11 3.44772 11 4V6C11 6.55228 11.4477 7 12 7C12.5523 7 13 6.55228 13 6V4C13 3.44772 12.5523 3 12 3ZM12 16C14.2091 16 16 14.2091 16 12C16 9.79086 14.2091 8 12 8C9.79086 8 8 9.79086 8 12C8 14.2091 9.79086 16 12 16ZM11 18C11 17.4477 11.4477 17 12 17C12.5523 17 13 17.4477 13 18V20C13 20.5523 12.5523 21 12 21C11.4477 21 11 20.5523 11 20V18ZM7 12C7 11.4477 6.55228 11 6 11H4C3.44772 11 3 11.4477 3 12C3 12.5523 3.44772 13 4 13H6C6.55228 13 7 12.5523 7 12ZM20 11C20.5523 11 21 11.4477 21 12C21 12.5523 20.5523 13 20 13H18C17.4477 13 17 12.5523 17 12C17 11.4477 17.4477 11 18 11H20ZM18.364 5.63615C17.9735 5.24563 17.3403 5.24563 16.9498 5.63615L15.5356 7.05037C15.145 7.44089 15.145 8.07406 15.5356 8.46458C15.9261 8.85511 16.5593 8.85511 16.9498 8.46458L18.364 7.05037C18.7545 6.65984 18.7545 6.02668 18.364 5.63615ZM7.05025 15.5356C7.44077 15.145 8.07394 15.145 8.46446 15.5356C8.85498 15.9261 8.85498 16.5593 8.46446 16.9498L7.05025 18.364C6.65972 18.7545 6.02656 18.7545 5.63603 18.364C5.24551 17.9735 5.24551 17.3403 5.63603 16.9498L7.05025 15.5356ZM8.46446 8.46458C8.85498 8.07406 8.85498 7.44089 8.46446 7.05037L7.05025 5.63615C6.65972 5.24563 6.02656 5.24563 5.63603 5.63615C5.24551 6.02668 5.24551 6.65984 5.63603 7.05037L7.05025 8.46458C7.44077 8.85511 8.07394 8.85511 8.46446 8.46458ZM18.364 16.9498C18.7545 17.3403 18.7545 17.9735 18.364 18.364C17.9735 18.7545 17.3403 18.7545 16.9498 18.364L15.5356 16.9498C15.145 16.5593 15.145 15.9261 15.5356 15.5356C15.9261 15.145 16.5593 15.145 16.9498 15.5356L18.364 16.9498Z" fill="#575D6D"/>
</svg>
