<svg xmlns="http://www.w3.org/2000/svg" width="24" height="24" viewBox="0 0 24 24">
    <g fill="none" fill-rule="evenodd">
        <path fill="#FFF" fill-rule="nonzero" d="M12 16a4 4 0 1 0 0-8 4 4 0 0 0 0 8zm0-13a1 1 0 0 0-1 1v2a1 1 0 1 0 2 0V4a1 1 0 0 0-1-1zm0 14a1 1 0 0 0-1 1v2a1 1 0 0 0 2 0v-2a1 1 0 0 0-1-1zm-5-5a1 1 0 0 0-1-1H4a1 1 0 1 0 0 2h2a1 1 0 0 0 1-1zm14 0a1 1 0 0 0-1-1h-2a1 1 0 0 0 0 2h2a1 1 0 0 0 1-1zm-2.636-6.364a1 1 0 0 0-1.414 0L15.536 7.05a1 1 0 1 0 1.414 1.414l1.414-1.414a1 1 0 0 0 0-1.414zm-9.9 9.9a1 1 0 0 0-1.414 0L5.636 16.95a1 1 0 1 0 1.414 1.414l1.414-1.414a1 1 0 0 0 0-1.414zm0-7.072a1 1 0 0 0 0-1.414L7.05 5.636A1 1 0 0 0 5.636 7.05L7.05 8.464a1 1 0 0 0 1.414 0zm9.9 9.9a1 1 0 0 0 0-1.414l-1.414-1.414a1 1 0 0 0-1.414 1.414l1.414 1.414a1 1 0 0 0 1.414 0z"/>
    </g>
</svg>
