<svg width="16" height="16" viewBox="0 0 16 16" fill="none" xmlns="http://www.w3.org/2000/svg">
<path d="M5 0H15V4H5V0Z" fill="#BEBEBE"/>
<path d="M5 1H6V13H5V1Z" fill="#BEBEBE"/>
<path d="M14 1H15V13H14V1Z" fill="#BEBEBE"/>
<path d="M6 13C6 14.6569 4.65685 16 3 16C1.34315 16 0 14.6569 0 13C0 11.3431 1.34315 10 3 10C4.65685 10 6 11.3431 6 13Z" fill="#BEBEBE"/>
<path d="M15 13C15 14.6569 13.6569 16 12 16C10.3431 16 9 14.6569 9 13C9 11.3431 10.3431 10 12 10C13.6569 10 15 11.3431 15 13Z" fill="#BEBEBE"/>
</svg>
