<?xml version="1.0" encoding="utf-8"?>
<!-- Generator: Adobe Illustrator 16.0.0, SVG Export Plug-In . SVG Version: 6.00 Build 0)  -->
<!DOCTYPE svg PUBLIC "-//W3C//DTD SVG 1.1//EN" "http://www.w3.org/Graphics/SVG/1.1/DTD/svg11.dtd">
<svg version="1.1" id="레이어_1" xmlns="http://www.w3.org/2000/svg" xmlns:xlink="http://www.w3.org/1999/xlink" x="0px"
	 y="0px" width="256px" height="256px" viewBox="0 0 256 256" enable-background="new 0 0 256 256" xml:space="preserve">
<path fill="#DD6F60" d="M256,236c0,11.046-8.955,20-20,20H20c-11.047,0-20-8.954-20-20V20C0,8.954,8.953,0,20,0h216
	c11.045,0,20,8.953,20,20V236z"/>
<g>
	<path fill="none" stroke="#FFFFFF" stroke-width="10" stroke-miterlimit="10" d="M61.473,56.151c-5.732,0-10.38,4.641-10.38,10.363
		v122.973c0,5.723,4.647,10.362,10.38,10.362l91.732,10.805c5.732,0,10.381-4.64,10.381-10.363V55.71
		c0-5.724-4.648-10.363-10.381-10.363L61.473,56.151z"/>
	<path fill="none" stroke="#FFFFFF" stroke-width="10" stroke-miterlimit="10" d="M167.139,56.148h27.536
		c5.684,0,10.155,4.565,10.231,10.224c0,0.046,0,0.093,0,0.14v63.604v12.533v46.115c0,5.722-4.867,10.361-10.6,10.361h-7.924"/>
	<path fill="#FFFFFF" d="M100.232,85.185c1.444,0.24,5.812,0.788,10.282,3.566c4.472,2.777,14.171,10.217,14.171,10.217
		c-2.203-5.76-8.599-15.017-13.069-18.103c-0.888-0.613-2.033-1.061-3.093-1.25c-1.758-0.317-3.59-0.039-5.308,0.384
		c-0.804,0.197-1.669,0.483-2.446,0.905c-0.859,0.469-1.61,1.106-2.052,1.982C98.202,83.917,98.787,84.947,100.232,85.185
		 M137.204,109.872c-4.058-3.772-10.455-3.086-10.455-3.086l-5.709-5.897c-6.742-6.651-17.403-9.874-29.097-9.599
		c-11.693,0.274-11.625,10.422-11.625,10.422s-0.065,1.088,0,2.554c0.064,1.466,1.101,1.286,1.101,1.286
		c0.894-0.412,9.836-1.44,16.99-1.646c7.153-0.205,10.729,2.538,11.28,3.703c-8.047,1.715-16.166,6.446-16.166,6.446
		c-9.078,4.594-16.508,25.233-3.575,34.628c12.932,9.395,29.165,1.988,35.632-6.856c6.465-8.846,5.434-21.669,5.089-24.549
		c1.72-0.069,9.562,3.978,9.562,3.978S141.262,113.642,137.204,109.872 M119.629,133.219c-2.682,10.389-13.154,10.8-16.816,9.462
		c-3.664-1.336-7.121-6.531-4.851-14.502s12.794-10.388,12.794-10.388l6.861-1.389C117.617,116.403,122.313,122.832,119.629,133.219
		 M107.833,163.218c-3.687,0-6.672,2.979-6.672,6.652c0,3.673,2.985,6.651,6.672,6.651c3.685,0,6.672-2.979,6.672-6.651
		C114.505,166.197,111.518,163.218,107.833,163.218"/>
</g>
</svg>
