<svg xmlns="http://www.w3.org/2000/svg" width="48" height="48" viewBox="0 0 48 48">
    <g fill="none" fill-rule="evenodd">
        <path fill="#FFF" d="M14 0h20c7.732 0 14 6.268 14 14v20c0 7.732-6.268 14-14 14H14C6.268 48 0 41.732 0 34V14C0 6.268 6.268 0 14 0z"/>
        <path fill="#BD10E0" d="M24 15.692v19.3a4 4 0 0 1-2.39 3.662l-4.087 1.798A2.512 2.512 0 0 1 14 38.153v-1.239a4 4 0 0 1 2.39-3.661l3.818-1.68A3 3 0 0 0 22 28.827V9.157a1 1 0 0 1 1.646-.764l8.994 7.61a6 6 0 0 1 2.103 5.078l-.66 7.922A1.087 1.087 0 0 1 33 30v-3.91a6 6 0 0 0-2.124-4.58L24 15.692z"/>
    </g>
</svg>
