<?xml version="1.0" encoding="utf-8"?>
<!-- Generator: Adobe Illustrator 16.0.0, SVG Export Plug-In . SVG Version: 6.00 Build 0)  -->
<!DOCTYPE svg PUBLIC "-//W3C//DTD SVG 1.1//EN" "http://www.w3.org/Graphics/SVG/1.1/DTD/svg11.dtd">
<svg version="1.1" id="레이어_1" xmlns="http://www.w3.org/2000/svg" xmlns:xlink="http://www.w3.org/1999/xlink" x="0px"
	 y="0px" width="256px" height="256px" viewBox="0 0 256 256" enable-background="new 0 0 256 256" xml:space="preserve">
<path fill="#686D7E" d="M256,236c0,11.046-8.953,20-20,20H20c-11.046,0-20-8.954-20-20V20C0,8.954,8.954,0,20,0h216
	c11.047,0,20,8.954,20,20V236z"/>
<line fill="none" stroke="#FFFFFF" stroke-width="10" stroke-miterlimit="10" x1="67.802" y1="98.026" x2="210.953" y2="98.026"/>
<path fill="#FFFFFF" d="M195.966,77.871c0,3.71-3.008,6.719-6.719,6.719s-6.719-3.008-6.719-6.719c0-3.71,3.008-6.718,6.719-6.718
	S195.966,74.161,195.966,77.871"/>
<path fill="#FFFFFF" d="M176.845,77.871c0,3.71-3.009,6.719-6.719,6.719c-3.711,0-6.719-3.008-6.719-6.719
	c0-3.71,3.008-6.718,6.719-6.718C173.836,71.152,176.845,74.161,176.845,77.871"/>
<path fill="#FFFFFF" d="M157.723,77.871c0,3.71-3.008,6.719-6.718,6.719s-6.718-3.008-6.718-6.719c0-3.71,3.008-6.718,6.718-6.718
	S157.723,74.161,157.723,77.871"/>
<path fill="none" stroke="#FFFFFF" stroke-width="10" stroke-miterlimit="10" d="M211.97,192.25c0,2.761-2.238,5-5,5H49.03
	c-2.761,0-5-2.239-5-5V63.75c0-2.761,2.239-5,5-5h157.94c2.762,0,5,2.239,5,5V192.25z"/>
</svg>
