<svg xmlns="http://www.w3.org/2000/svg" width="48" height="48" viewBox="0 0 48 48">
    <g fill="none" fill-rule="evenodd">
        <path fill="#FFF" d="M14 0h20c7.732 0 14 6.268 14 14v20c0 7.732-6.268 14-14 14H14C6.268 48 0 41.732 0 34V14C0 6.268 6.268 0 14 0z"/>
        <path fill="#434343" d="M21.733 37.412a13.527 13.527 0 0 1-5.613-2.326l-2.538 2.538-3.206-3.206 2.538-2.538a13.527 13.527 0 0 1-2.326-5.613H7v-4.534h3.588a13.527 13.527 0 0 1 2.326-5.613l-2.538-2.538 3.206-3.206 2.538 2.538a13.527 13.527 0 0 1 5.613-2.326V7h4.534v3.588a13.527 13.527 0 0 1 5.613 2.326l2.538-2.538 3.206 3.206-2.538 2.538a13.527 13.527 0 0 1 2.326 5.613H41v4.534h-3.588a13.527 13.527 0 0 1-2.326 5.613l2.538 2.538-3.206 3.206-2.538-2.538a13.527 13.527 0 0 1-5.613 2.326V41h-4.534v-3.588zM24 34.2c5.633 0 10.2-4.567 10.2-10.2 0-5.633-4.567-10.2-10.2-10.2-5.633 0-10.2 4.567-10.2 10.2 0 5.633 4.567 10.2 10.2 10.2zm0-2.267a7.933 7.933 0 1 1 0-15.866 7.933 7.933 0 0 1 0 15.866zm0-3.4a4.533 4.533 0 1 0 0-9.066 4.533 4.533 0 0 0 0 9.066z"/>
    </g>
</svg>
