<svg xmlns="http://www.w3.org/2000/svg" width="48" height="48" viewBox="0 0 48 48">
    <g fill="none" fill-rule="evenodd">
        <path fill="#FFF" d="M14 0h20c7.732 0 14 6.268 14 14v20c0 7.732-6.268 14-14 14H14C6.268 48 0 41.732 0 34V14C0 6.268 6.268 0 14 0z"/>
        <path fill="#3986E1" d="M8 8h14v2H8V8zm0 4h14v2H8v-2zm0 4h14v2H8v-2zm0 4h10v2H8v-2z"/>
        <path fill="#646464" d="M26 26h2v2h-2v-2zm4 0h10v2H30v-2zm-4 4h2v2h-2v-2zm4 0h10v2H30v-2zm-4 4h2v2h-2v-2zm4 0h10v2H30v-2zm-4 4h2v2h-2v-2zm4 0h10v2H30v-2z"/>
        <path fill="#59A209" d="M26 8h6v6h-6V8zm0 8h6v6h-6v-6zm8-8h6v6h-6V8zm0 8h6v6h-6v-6z"/>
        <path fill="#F08217" d="M14 26.07V34h7.93A7.002 7.002 0 0 1 8 33a7.002 7.002 0 0 1 6-6.93zm2 0A7.005 7.005 0 0 1 21.93 32H16v-5.93z"/>
    </g>
</svg>
