<?xml version="1.0" encoding="utf-8"?>
<!-- Generator: Adobe Illustrator 16.0.0, SVG Export Plug-In . SVG Version: 6.00 Build 0)  -->
<!DOCTYPE svg PUBLIC "-//W3C//DTD SVG 1.1//EN" "http://www.w3.org/Graphics/SVG/1.1/DTD/svg11.dtd">
<svg version="1.1" id="레이어_1" xmlns="http://www.w3.org/2000/svg" xmlns:xlink="http://www.w3.org/1999/xlink" x="0px"
	 y="0px" width="256px" height="256px" viewBox="0 0 256 256" enable-background="new 0 0 256 256" xml:space="preserve">
<path fill="#686D7E" d="M256,236c0,11.047-8.954,20-20,20H20c-11.046,0-20-8.953-20-20V20C0,8.956,8.954,0,20,0h216
	c11.046,0,20,8.955,20,20V236z"/>
<g>
	<path fill="none" stroke="#FFFFFF" stroke-width="10" stroke-linecap="round" stroke-linejoin="round" stroke-miterlimit="10" d="
		M210.663,180.583c0.836-4.087,0.977-8.321,0.364-12.521l0.004,0.008l11.441-12.886l-6.926-12.29l-16.479,3.12l0.008,0.013
		c-3.534-3.109-7.604-5.463-11.955-6.99l-5.321-15.742H167.69l-5.52,16.037c-1.678,0.64-3.331,1.41-4.943,2.318
		c-1.991,1.121-3.827,2.41-5.518,3.826l0.013-0.023l-16.401-3.511l-7.215,12.125l11.133,13.151l0.009-0.017
		c-0.702,4.1-0.701,8.33,0.046,12.507l-0.007-0.01l-11.206,12.479l6.926,12.292l16.948-3.113l-0.003-0.005
		c3.18,2.618,6.755,4.651,10.556,6.049l0,0l5.18,16.288h14.108l4.742-15.899l0,0c2.168-0.725,4.301-1.656,6.366-2.82
		c1.635-0.922,3.17-1.95,4.604-3.072l16.866,3.514l7.216-12.123l-10.906-12.742L210.663,180.583z"/>
	
		<circle fill="none" stroke="#FFFFFF" stroke-width="10" stroke-linecap="round" stroke-linejoin="round" stroke-miterlimit="10" cx="175.277" cy="173.491" r="16.75"/>
	
		<circle fill="none" stroke="#FFFFFF" stroke-width="10" stroke-linecap="round" stroke-linejoin="round" stroke-miterlimit="10" cx="175.277" cy="55.061" r="16.75"/>
	
		<circle fill="none" stroke="#FFFFFF" stroke-width="10" stroke-linecap="round" stroke-linejoin="round" stroke-miterlimit="10" cx="68.276" cy="188.491" r="16.75"/>
	
		<circle fill="none" stroke="#FFFFFF" stroke-width="10" stroke-linecap="round" stroke-linejoin="round" stroke-miterlimit="10" cx="68.276" cy="55.061" r="16.75"/>
	<line fill="none" stroke="#FFFFFF" stroke-width="10" stroke-miterlimit="10" x1="68.277" y1="173.492" x2="68.277" y2="69.325"/>
	
		<line fill="none" stroke="#FFFFFF" stroke-width="10" stroke-miterlimit="10" x1="175.278" y1="71.811" x2="175.278" y2="107.909"/>
	<line fill="none" stroke="#FFFFFF" stroke-width="10" stroke-miterlimit="10" x1="81.143" y1="65.783" x2="139.887" y2="124.527"/>
</g>
</svg>
