<svg xmlns="http://www.w3.org/2000/svg" width="48" height="48" viewBox="0 0 48 48">
    <defs>
        <linearGradient id="a" x1="0%" y1="0%" y2="100%">
            <stop offset="0%" stop-color="#6B6B6B"/>
            <stop offset="100%"/>
        </linearGradient>
        <linearGradient id="b" x1="0%" y1="0%" y2="100%">
            <stop offset="0%" stop-color="#F4F4F4"/>
            <stop offset="100%" stop-color="#CACACA"/>
        </linearGradient>
    </defs>
    <g fill="none" fill-rule="evenodd">
        <g>
            <path fill="#FFF" d="M14 0h20c7.732 0 14 6.268 14 14v20c0 7.732-6.268 14-14 14H14C6.268 48 0 41.732 0 34V14C0 6.268 6.268 0 14 0z"/>
            <circle cx="24" cy="24" r="17" fill="url(#a)"/>
            <circle cx="24" cy="24" r="13" fill="url(#b)"/>
            <path fill="#D0021B" d="M24 13a1 1 0 0 1 1 1v4a1 1 0 0 1-2 0v-4a1 1 0 0 1 1-1z"/>
            <path fill="#FFF" d="M24 8a1 1 0 1 1 0 2 1 1 0 0 1 0-2zm0 30a1 1 0 1 1 0 2 1 1 0 0 1 0-2zM9 23a1 1 0 1 1 0 2 1 1 0 0 1 0-2zm30 0a1 1 0 1 1 0 2 1 1 0 0 1 0-2zm-7-12.856a1 1 0 1 1-1 1.732 1 1 0 0 1 1-1.732zm-15 25.98a1 1 0 1 1-1 1.732 1 1 0 0 1 1-1.732zm-5.49-20.49a1 1 0 1 1-1 1.732 1 1 0 0 1 1-1.732zm25.98 15a1 1 0 1 1-1 1.732 1 1 0 0 1 1-1.732zM37.856 16a1 1 0 1 1-1.732 1 1 1 0 0 1 1.732-1zm-25.98 15a1 1 0 1 1-1.732 1 1 1 0 0 1 1.732-1zm5.49-20.49a1 1 0 1 1-1.732 1 1 1 0 0 1 1.732-1zm15 25.98a1 1 0 1 1-1.732 1 1 1 0 0 1 1.732-1z"/>
        </g>
        <path fill="#D0021B" d="M24 6l2-3h-4z"/>
    </g>
</svg>
