<svg width="16" height="16" viewBox="0 0 16 16" fill="none" xmlns="http://www.w3.org/2000/svg">
<path fill-rule="evenodd" clip-rule="evenodd" d="M10.5416 9.17342C10.9733 8.9328 11.4706 8.79571 12 8.79571C13.6568 8.79571 15 10.1389 15 11.7957C15 13.4526 13.6568 14.7957 12 14.7957C10.3431 14.7957 8.99997 13.4526 8.99997 11.7957C8.99997 11.1019 9.23548 10.4631 9.63091 9.95496L2.44037 1.3856L3.35962 0.614258L10.5416 9.17342ZM12 13.2957C11.1715 13.2957 10.5 12.6241 10.5 11.7957C10.5 10.9673 11.1715 10.2957 12 10.2957C12.8284 10.2957 13.5 10.9673 13.5 11.7957C13.5 12.6241 12.8284 13.2957 12 13.2957Z" fill="white" fill-opacity="0.9"/>
<path fill-rule="evenodd" clip-rule="evenodd" d="M5.45836 9.17342C5.02664 8.9328 4.52933 8.79571 4 8.79571C2.34315 8.79571 1 10.1389 1 11.7957C1 13.4526 2.34315 14.7957 4 14.7957C5.65685 14.7957 7 13.4526 7 11.7957C7 11.1019 6.76449 10.4631 6.36906 9.95496L13.5596 1.3856L12.6403 0.614258L5.45836 9.17342ZM4 13.2957C4.82843 13.2957 5.5 12.6241 5.5 11.7957C5.5 10.9673 4.82843 10.2957 4 10.2957C3.17157 10.2957 2.5 10.9673 2.5 11.7957C2.5 12.6241 3.17157 13.2957 4 13.2957Z" fill="white" fill-opacity="0.9"/>
</svg>
