<svg width="16" height="16" viewBox="0 0 16 16" fill="none" xmlns="http://www.w3.org/2000/svg">
<g clip-path="url(#clip0_894_14600)">
<path fill-rule="evenodd" clip-rule="evenodd" d="M9.00021 10.0002C8.16451 10.628 7.1257 11 6 11C3.23858 11 1 8.76142 1 6C1 3.23858 3.23858 1 6 1C8.76142 1 11 3.23858 11 6C11 7.27532 10.5225 8.43912 9.73661 9.32239L9.70711 9.29289L9 10L9.00021 10.0002ZM9.71325 10.7133C8.69179 11.5191 7.40205 12 6 12C2.68629 12 0 9.31371 0 6C0 2.68629 2.68629 0 6 0C9.31371 0 12 2.68629 12 6C12 7.55148 11.4111 8.96542 10.4447 10.0305L15.364 14.9497L14.6569 15.6569L9.71325 10.7133Z" fill="white"/>
</g>
<defs>
<clipPath id="clip0_894_14600">
<rect width="16" height="16" fill="white"/>
</clipPath>
</defs>
</svg>
