<svg width="16" height="16" viewBox="0 0 16 16" fill="none" xmlns="http://www.w3.org/2000/svg">
<path fill-rule="evenodd" clip-rule="evenodd" d="M3.01807 3H6.01807V6H3.01807V3ZM2.01807 2H3.01807H6.01807H7.01807V3V6V7H6.01807H3.01807H2.01807V6V3V2ZM10.0181 3H13.0181V6H10.0181V3ZM9.01807 2H10.0181H13.0181H14.0181V3V6V7H13.0181H10.0181H9.01807V6V3V2ZM6.01807 10H3.01807V13H6.01807V10ZM3.01807 9H2.01807V10V13V14H3.01807H6.01807H7.01807V13V10V9H6.01807H3.01807ZM10.0181 10H13.0181V13H10.0181V10ZM9.01807 9H10.0181H13.0181H14.0181V10V13V14H13.0181H10.0181H9.01807V13V10V9Z" fill="white" fill-opacity="0.9"/>
</svg>
