<svg xmlns="http://www.w3.org/2000/svg" xmlns:xlink="http://www.w3.org/1999/xlink" width="24" height="24" viewBox="0 0 24 24">
    <defs>
        <path id="a" d="M8 0h8a8 8 0 0 1 8 8v8a8 8 0 0 1-8 8H8a8 8 0 0 1-8-8V8a8 8 0 0 1 8-8z"/>
    </defs>
    <g fill="none" fill-rule="evenodd">
        <mask id="b" fill="#fff">
            <use xlink:href="#a"/>
        </mask>
        <use fill="#4A4A4A" xlink:href="#a"/>
        <path fill="#FFF" fill-opacity=".5" fill-rule="nonzero" d="M12 10a3 3 0 1 0 0-6 3 3 0 0 0 0 6zm0 2a5 5 0 1 1 0-10 5 5 0 0 1 0 10zM4 21.429a1 1 0 1 1-2 0C2 16.504 5.506 14 12 14s10 2.504 10 7.429a1 1 0 1 1-2 0C20 17.78 17.506 16 12 16s-8 1.781-8 5.429z" mask="url(#b)"/>
    </g>
</svg>
