<svg xmlns="http://www.w3.org/2000/svg" width="24" height="24" viewBox="0 0 24 24">
    <g fill="none" fill-rule="evenodd">
        <path fill="#FFF" fill-opacity=".9" d="M4 21V5a2 2 0 0 1 2-2h6a2 2 0 0 1 2 2v16a2 2 0 0 1-2 2H6a2 2 0 0 1-2-2zm1 0a1 1 0 0 0 1 1h6a1 1 0 0 0 1-1V5a1 1 0 0 0-1-1H6a1 1 0 0 0-1 1v16zM7 2a1 1 0 0 1 1-1h2a1 1 0 0 1 1 1H7z"/>
        <path fill="#D0021B" d="M6 21v-2h6v2z"/>
        <path fill="#FFF" d="M18 12v-2h1v2h1v3.5a2.5 2.5 0 0 1-2 2.45V23h-1v-5.05a2.5 2.5 0 0 1-2-2.45V12h1v-2h1v2h1zm-2 3.5a1.5 1.5 0 0 0 3 0V13h-3v2.5z"/>
    </g>
</svg>
