<svg xmlns="http://www.w3.org/2000/svg" width="24" height="24" viewBox="0 0 24 24">
    <path fill="#FFF" fill-rule="nonzero" d="M13.36 6.432v1.312H4.832V6.432h3.44V4.768H9.92v1.664h3.44zm-6.192 4.72c0 .912.784 1.456 1.92 1.456 1.152 0 1.936-.544 1.936-1.456 0-.912-.784-1.456-1.936-1.456-1.136 0-1.92.544-1.92 1.456zm5.424 0c0 1.648-1.424 2.736-3.504 2.736-2.064 0-3.504-1.088-3.504-2.736 0-1.632 1.44-2.736 3.504-2.736 2.08 0 3.504 1.104 3.504 2.736zm-3.984 3.632v2.832h8.064v1.344H6.944v-4.176h1.664zm7.488-5.392h2.048v1.36h-2.048v4.864h-1.648V4.784h1.648v4.608z"/>
</svg>
