<svg xmlns="http://www.w3.org/2000/svg" width="24" height="24" viewBox="0 0 24 24">
    <path fill="#FFF" fill-rule="nonzero" d="M8.192 10.448l-.864 1.248c-.56-.528-1.744-1.232-2.72-1.648l.832-1.12c.944.368 2.16 1.008 2.752 1.52zm-.576 2.624l1.152.896c-.704 1.68-1.6 3.584-2.416 5.088l-1.312-.88c.736-1.232 1.792-3.28 2.576-5.104zM5.44 5.776l.832-1.104c.944.4 2.16 1.072 2.736 1.632l-.88 1.216c-.544-.544-1.744-1.296-2.688-1.744zm5.584 5.68h2.192V10.32h-2.192v1.136zm5.92-1.136H14.64v1.136h2.304V10.32zm-4.416-3.536v.912h2.736v-.912h-2.736zm6.688 9.616h-3.744c.88.88 2.256 1.424 4.032 1.664-.304.288-.688.848-.864 1.216-2.208-.4-3.76-1.36-4.688-2.88-.704 1.216-2.032 2.24-4.528 2.88-.16-.304-.544-.864-.848-1.136 1.856-.4 2.976-1.008 3.664-1.744H8.88v-1.136h4.048c.112-.288.176-.592.224-.896H9.52v-1.12h3.696v-.784H9.68V9.312h3.536v-.624H11.2V6.784H9.008V5.632H11.2V4.544h1.328v1.088h2.736V4.544h1.392v1.088h2.528v1.152h-2.528v1.904H14.64v.624h3.712v3.152H14.64v.784h3.872v1.12h-3.92c-.048.304-.096.608-.176.896h4.8V16.4z"/>
</svg>
