<svg width="24" height="24" xmlns="http://www.w3.org/2000/svg">
    <g fill="#FFF" fill-rule="evenodd">
        <path d="M15 3a3 3 0 0 1 3 3v3.016a7.612 7.612 0 0 0-1 0V6a2 2 0 0 0-1.85-1.995L15 4H5a2 2 0 0 0-1.995 1.85L3 6v8a2 2 0 0 0 1.85 1.995L5 16h5.016a7.612 7.612 0 0 0 0 1H5a3 3 0 0 1-3-3V6a3 3 0 0 1 3-3h10zm0 2a1 1 0 0 1 1 1v1a1 1 0 0 1-1 1H5a1 1 0 0 1-1-1V6a1 1 0 0 1 1-1h10z"/>
        <path d="M17 10a6 6 0 1 1 0 12 6 6 0 0 1 0-12zm.5 1a.5.5 0 0 0-.5.5V16h-3.5a.5.5 0 1 0 0 1H18v-5.5a.5.5 0 0 0-.5-.5z"/>
    </g>
</svg>
