<svg width="48" height="48" viewBox="0 0 48 48" fill="none" xmlns="http://www.w3.org/2000/svg">
<path d="M0 5.6C0 4.71634 0.716344 4 1.6 4H13.662C14.6341 4 15.5535 4.44189 16.1608 5.20098L17.4392 6.79902C18.0465 7.55811 18.9659 8 19.938 8H46.4C47.2837 8 48 8.71634 48 9.6V42.4C48 43.2837 47.2837 44 46.4 44H1.6C0.716343 44 0 43.2837 0 42.4V5.6Z" fill="url(#paint0_linear_478_11583)"/>
<path d="M0 12H48V42.4C48 43.2837 47.2837 44 46.4 44H1.6C0.716343 44 0 43.2837 0 42.4V12Z" fill="url(#paint1_linear_478_11583)"/>
<path opacity="0.4" d="M0 12H48V13H0V12Z" fill="url(#paint2_linear_478_11583)" fill-opacity="0.9"/>
<path d="M47.6 9.6V42.4C47.6 43.0627 47.0627 43.6 46.4 43.6H1.6C0.937257 43.6 0.4 43.0627 0.4 42.4V5.6C0.4 4.93726 0.937258 4.4 1.6 4.4H13.662C14.5126 4.4 15.3171 4.78665 15.8484 5.45085L17.1269 7.0489C17.8101 7.90288 18.8444 8.4 19.938 8.4H46.4C47.0627 8.4 47.6 8.93726 47.6 9.6Z" stroke="black" stroke-opacity="0.03" stroke-width="0.8"/>
<g filter="url(#filter0_f_478_11583)">
<rect x="17" y="18" width="16" height="20" fill="white" fill-opacity="0.2"/>
</g>
<rect x="17" y="18" width="16" height="20" rx="1.6" fill="#1374E7" fill-opacity="0.9"/>
<rect x="17.2" y="18.2" width="15.6" height="19.6" rx="1.4" stroke="black" stroke-opacity="0.03" stroke-width="0.4"/>
<g opacity="0.9">
<mask id="path-8-inside-1_478_11583" fill="white">
<path fill-rule="evenodd" clip-rule="evenodd" d="M30 22H20V24H30V22ZM30 26H20V27H30V26ZM30 28H20V29H30V28ZM30 32H25V33H30V32ZM25 30H30V31H25V30ZM24 30H20V33H24V30Z"/>
</mask>
<path fill-rule="evenodd" clip-rule="evenodd" d="M30 22H20V24H30V22ZM30 26H20V27H30V26ZM30 28H20V29H30V28ZM30 32H25V33H30V32ZM25 30H30V31H25V30ZM24 30H20V33H24V30Z" fill="url(#paint3_linear_478_11583)"/>
<path d="M20 22V21.2H19.2V22H20ZM30 22H30.8V21.2H30V22ZM20 24H19.2V24.8H20V24ZM30 24V24.8H30.8V24H30ZM20 26V25.2H19.2V26H20ZM30 26H30.8V25.2H30V26ZM20 27H19.2V27.8H20V27ZM30 27V27.8H30.8V27H30ZM20 28V27.2H19.2V28H20ZM30 28H30.8V27.2H30V28ZM20 29H19.2V29.8H20V29ZM30 29V29.8H30.8V29H30ZM25 32V31.2H24.2V32H25ZM30 32H30.8V31.2H30V32ZM25 33H24.2V33.8H25V33ZM30 33V33.8H30.8V33H30ZM30 30H30.8V29.2H30V30ZM25 30V29.2H24.2V30H25ZM30 31V31.8H30.8V31H30ZM25 31H24.2V31.8H25V31ZM20 30V29.2H19.2V30H20ZM24 30H24.8V29.2H24V30ZM20 33H19.2V33.8H20V33ZM24 33V33.8H24.8V33H24ZM20 22.8H30V21.2H20V22.8ZM20.8 24V22H19.2V24H20.8ZM30 23.2H20V24.8H30V23.2ZM29.2 22V24H30.8V22H29.2ZM20 26.8H30V25.2H20V26.8ZM20.8 27V26H19.2V27H20.8ZM30 26.2H20V27.8H30V26.2ZM29.2 26V27H30.8V26H29.2ZM20 28.8H30V27.2H20V28.8ZM20.8 29V28H19.2V29H20.8ZM30 28.2H20V29.8H30V28.2ZM29.2 28V29H30.8V28H29.2ZM25 32.8H30V31.2H25V32.8ZM25.8 33V32H24.2V33H25.8ZM30 32.2H25V33.8H30V32.2ZM29.2 32V33H30.8V32H29.2ZM30 29.2H25V30.8H30V29.2ZM30.8 31V30H29.2V31H30.8ZM25 31.8H30V30.2H25V31.8ZM24.2 30V31H25.8V30H24.2ZM20 30.8H24V29.2H20V30.8ZM20.8 33V30H19.2V33H20.8ZM24 32.2H20V33.8H24V32.2ZM23.2 30V33H24.8V30H23.2Z" fill="white" fill-opacity="0.12" mask="url(#path-8-inside-1_478_11583)"/>
</g>
<defs>
<filter id="filter0_f_478_11583" x="13" y="14" width="24" height="28" filterUnits="userSpaceOnUse" color-interpolation-filters="sRGB">
<feFlood flood-opacity="0" result="BackgroundImageFix"/>
<feBlend mode="normal" in="SourceGraphic" in2="BackgroundImageFix" result="shape"/>
<feGaussianBlur stdDeviation="2" result="effect1_foregroundBlur_478_11583"/>
</filter>
<linearGradient id="paint0_linear_478_11583" x1="36" y1="34.625" x2="19.6597" y2="3.99863" gradientUnits="userSpaceOnUse">
<stop offset="0.0046461" stop-color="#79C0FB"/>
<stop offset="1" stop-color="#6796FF"/>
</linearGradient>
<linearGradient id="paint1_linear_478_11583" x1="31.2" y1="46" x2="24.7091" y2="-4.29837" gradientUnits="userSpaceOnUse">
<stop offset="0.0046461" stop-color="#79C0FB"/>
<stop offset="1" stop-color="#6796FF"/>
</linearGradient>
<linearGradient id="paint2_linear_478_11583" x1="46.2857" y1="12.7946" x2="46.2449" y2="9.07829" gradientUnits="userSpaceOnUse">
<stop stop-color="white"/>
<stop offset="1" stop-color="white" stop-opacity="0.44"/>
</linearGradient>
<linearGradient id="paint3_linear_478_11583" x1="27.3" y1="30.2688" x2="19.7391" y2="13.9717" gradientUnits="userSpaceOnUse">
<stop offset="0.0046461" stop-color="#79C0FB"/>
<stop offset="1" stop-color="#6796FF"/>
</linearGradient>
</defs>
</svg>
