<svg width="48" height="48" viewBox="0 0 48 48" fill="none" xmlns="http://www.w3.org/2000/svg">
<path d="M0 5.6C0 4.71634 0.716344 4 1.6 4H13.662C14.6341 4 15.5535 4.44189 16.1608 5.20098L17.4392 6.79902C18.0465 7.55811 18.9659 8 19.938 8H46.4C47.2837 8 48 8.71634 48 9.6V42.4C48 43.2837 47.2837 44 46.4 44H1.6C0.716343 44 0 43.2837 0 42.4V5.6Z" fill="url(#paint0_linear_478_11520)"/>
<path d="M0 12H48V42.4C48 43.2837 47.2837 44 46.4 44H1.6C0.716343 44 0 43.2837 0 42.4V12Z" fill="url(#paint1_linear_478_11520)"/>
<path opacity="0.4" d="M0 12H48V13H0V12Z" fill="url(#paint2_linear_478_11520)" fill-opacity="0.9"/>
<path d="M47.6 9.6V42.4C47.6 43.0627 47.0627 43.6 46.4 43.6H1.6C0.937257 43.6 0.4 43.0627 0.4 42.4V5.6C0.4 4.93726 0.937258 4.4 1.6 4.4H13.662C14.5126 4.4 15.3171 4.78665 15.8484 5.45085L17.1269 7.0489C17.8101 7.90288 18.8444 8.4 19.938 8.4H46.4C47.0627 8.4 47.6 8.93726 47.6 9.6Z" stroke="black" stroke-opacity="0.03" stroke-width="0.8"/>
<g filter="url(#filter0_f_478_11520)">
<path fill-rule="evenodd" clip-rule="evenodd" d="M23.2001 20.8C23.2001 21.6836 23.9164 22.4 24.8001 22.4C25.6838 22.4 26.4001 21.6836 26.4001 20.8C26.4001 19.9163 25.6838 19.2 24.8001 19.2C23.9164 19.2 23.2001 19.9163 23.2001 20.8ZM21.6001 20.8C21.6001 21.5091 21.8308 22.1644 22.2212 22.6949L18.3463 26.7977C17.888 26.5442 17.3609 26.4 16.8001 26.4C15.0328 26.4 13.6001 27.8327 13.6001 29.6C13.6001 31.3673 15.0328 32.8 16.8001 32.8C17.9963 32.8 19.0392 32.1436 19.5883 31.1715L25.6002 32.7746C25.6001 32.7831 25.6001 32.7915 25.6001 32.8C25.6001 34.5673 27.0328 36 28.8001 36C30.5674 36 32.0001 34.5673 32.0001 32.8C32.0001 31.0327 30.5674 29.6 28.8001 29.6C27.6039 29.6 26.561 30.2563 26.0119 31.2285L20 29.6253L20.0001 29.6C20.0001 28.9738 19.8203 28.3897 19.5094 27.8964L23.4644 23.7087C23.8709 23.8957 24.3233 24 24.8001 24C26.5674 24 28.0001 22.5673 28.0001 20.8C28.0001 19.0327 26.5674 17.6 24.8001 17.6C23.0328 17.6 21.6001 19.0327 21.6001 20.8Z" fill="white" fill-opacity="0.1"/>
</g>
<mask id="path-6-inside-1_478_11520" fill="white">
<path fill-rule="evenodd" clip-rule="evenodd" d="M23.2001 20.8C23.2001 21.6836 23.9164 22.4 24.8001 22.4C25.6838 22.4 26.4001 21.6836 26.4001 20.8C26.4001 19.9163 25.6838 19.2 24.8001 19.2C23.9164 19.2 23.2001 19.9163 23.2001 20.8ZM21.6001 20.8C21.6001 21.5091 21.8308 22.1644 22.2212 22.6949L18.3463 26.7977C17.888 26.5442 17.3609 26.4 16.8001 26.4C15.0328 26.4 13.6001 27.8327 13.6001 29.6C13.6001 31.3673 15.0328 32.8 16.8001 32.8C17.9963 32.8 19.0392 32.1436 19.5883 31.1715L25.6002 32.7746C25.6001 32.7831 25.6001 32.7915 25.6001 32.8C25.6001 34.5673 27.0328 36 28.8001 36C30.5674 36 32.0001 34.5673 32.0001 32.8C32.0001 31.0327 30.5674 29.6 28.8001 29.6C27.6039 29.6 26.561 30.2563 26.0119 31.2285L20 29.6253L20.0001 29.6C20.0001 28.9738 19.8203 28.3897 19.5094 27.8964L23.4644 23.7087C23.8709 23.8957 24.3233 24 24.8001 24C26.5674 24 28.0001 22.5673 28.0001 20.8C28.0001 19.0327 26.5674 17.6 24.8001 17.6C23.0328 17.6 21.6001 19.0327 21.6001 20.8Z"/>
</mask>
<path fill-rule="evenodd" clip-rule="evenodd" d="M23.2001 20.8C23.2001 21.6836 23.9164 22.4 24.8001 22.4C25.6838 22.4 26.4001 21.6836 26.4001 20.8C26.4001 19.9163 25.6838 19.2 24.8001 19.2C23.9164 19.2 23.2001 19.9163 23.2001 20.8ZM21.6001 20.8C21.6001 21.5091 21.8308 22.1644 22.2212 22.6949L18.3463 26.7977C17.888 26.5442 17.3609 26.4 16.8001 26.4C15.0328 26.4 13.6001 27.8327 13.6001 29.6C13.6001 31.3673 15.0328 32.8 16.8001 32.8C17.9963 32.8 19.0392 32.1436 19.5883 31.1715L25.6002 32.7746C25.6001 32.7831 25.6001 32.7915 25.6001 32.8C25.6001 34.5673 27.0328 36 28.8001 36C30.5674 36 32.0001 34.5673 32.0001 32.8C32.0001 31.0327 30.5674 29.6 28.8001 29.6C27.6039 29.6 26.561 30.2563 26.0119 31.2285L20 29.6253L20.0001 29.6C20.0001 28.9738 19.8203 28.3897 19.5094 27.8964L23.4644 23.7087C23.8709 23.8957 24.3233 24 24.8001 24C26.5674 24 28.0001 22.5673 28.0001 20.8C28.0001 19.0327 26.5674 17.6 24.8001 17.6C23.0328 17.6 21.6001 19.0327 21.6001 20.8Z" fill="#1374E7" fill-opacity="0.9"/>
<path d="M22.2212 22.6949L22.512 22.9695L22.7413 22.7267L22.5433 22.4578L22.2212 22.6949ZM18.3463 26.7977L18.1528 27.1477L18.4242 27.2978L18.6371 27.0723L18.3463 26.7977ZM19.5883 31.1715L19.6914 30.785L19.3923 30.7052L19.24 30.9747L19.5883 31.1715ZM25.6002 32.7746L26.0002 32.7777L26.0026 32.468L25.7033 32.3881L25.6002 32.7746ZM26.0119 31.2285L25.9088 31.615L26.2079 31.6948L26.3602 31.4252L26.0119 31.2285ZM20 29.6253L19.6 29.6238L19.5988 29.9323L19.8969 30.0118L20 29.6253ZM20.0001 29.6L20.4001 29.6015V29.6H20.0001ZM19.5094 27.8964L19.2186 27.6217L19.0057 27.8472L19.171 28.1096L19.5094 27.8964ZM23.4644 23.7087L23.6316 23.3453L23.3707 23.2254L23.1736 23.4341L23.4644 23.7087ZM24.8001 22C24.1374 22 23.6001 21.4627 23.6001 20.8H22.8001C22.8001 21.9045 23.6955 22.8 24.8001 22.8V22ZM26.0001 20.8C26.0001 21.4627 25.4628 22 24.8001 22V22.8C25.9047 22.8 26.8001 21.9045 26.8001 20.8H26.0001ZM24.8001 19.6C25.4628 19.6 26.0001 20.1372 26.0001 20.8H26.8001C26.8001 19.6954 25.9047 18.8 24.8001 18.8V19.6ZM23.6001 20.8C23.6001 20.1372 24.1374 19.6 24.8001 19.6V18.8C23.6955 18.8 22.8001 19.6954 22.8001 20.8H23.6001ZM22.5433 22.4578C22.2018 21.9937 22.0001 21.421 22.0001 20.8H21.2001C21.2001 21.5973 21.4598 22.3351 21.899 22.932L22.5433 22.4578ZM18.6371 27.0723L22.512 22.9695L21.9304 22.4202L18.0555 26.523L18.6371 27.0723ZM16.8001 26.8C17.2915 26.8 17.7522 26.9262 18.1528 27.1477L18.5399 26.4476C18.0238 26.1623 17.4303 26 16.8001 26V26.8ZM14.0001 29.6C14.0001 28.0536 15.2537 26.8 16.8001 26.8V26C14.8119 26 13.2001 27.6118 13.2001 29.6H14.0001ZM16.8001 32.4C15.2537 32.4 14.0001 31.1464 14.0001 29.6H13.2001C13.2001 31.5882 14.8119 33.2 16.8001 33.2V32.4ZM19.24 30.9747C18.7589 31.8264 17.8462 32.4 16.8001 32.4V33.2C18.1463 33.2 19.3194 32.4608 19.9366 31.3682L19.24 30.9747ZM25.7033 32.3881L19.6914 30.785L19.4852 31.5579L25.4971 33.1611L25.7033 32.3881ZM26.0001 32.8C26.0001 32.7925 26.0001 32.7851 26.0002 32.7777L25.2002 32.7715C25.2001 32.781 25.2001 32.7905 25.2001 32.8H26.0001ZM28.8001 35.6C27.2537 35.6 26.0001 34.3464 26.0001 32.8H25.2001C25.2001 34.7882 26.8119 36.4 28.8001 36.4V35.6ZM31.6001 32.8C31.6001 34.3464 30.3465 35.6 28.8001 35.6V36.4C30.7883 36.4 32.4001 34.7882 32.4001 32.8H31.6001ZM28.8001 30C30.3465 30 31.6001 31.2536 31.6001 32.8H32.4001C32.4001 30.8118 30.7883 29.2 28.8001 29.2V30ZM26.3602 31.4252C26.8412 30.5735 27.754 30 28.8001 30V29.2C27.4539 29.2 26.2808 29.9391 25.6636 31.0318L26.3602 31.4252ZM19.8969 30.0118L25.9088 31.615L26.115 30.842L20.1031 29.2388L19.8969 30.0118ZM19.6001 29.5984L19.6 29.6238L20.4 29.6269L20.4001 29.6015L19.6001 29.5984ZM19.171 28.1096C19.4428 28.541 19.6001 29.0515 19.6001 29.6H20.4001C20.4001 28.8962 20.1977 28.2384 19.8479 27.6832L19.171 28.1096ZM23.1736 23.4341L19.2186 27.6217L19.8002 28.171L23.7552 23.9834L23.1736 23.4341ZM24.8001 23.6C24.3822 23.6 23.9867 23.5087 23.6316 23.3453L23.2973 24.0722C23.7551 24.2827 24.2645 24.4 24.8001 24.4V23.6ZM27.6001 20.8C27.6001 22.3464 26.3465 23.6 24.8001 23.6V24.4C26.7883 24.4 28.4001 22.7882 28.4001 20.8H27.6001ZM24.8001 18C26.3465 18 27.6001 19.2536 27.6001 20.8H28.4001C28.4001 18.8118 26.7883 17.2 24.8001 17.2V18ZM22.0001 20.8C22.0001 19.2536 23.2537 18 24.8001 18V17.2C22.8119 17.2 21.2001 18.8118 21.2001 20.8H22.0001Z" fill="black" fill-opacity="0.03" mask="url(#path-6-inside-1_478_11520)"/>
<defs>
<filter id="filter0_f_478_11520" x="9.6001" y="13.6" width="26.3999" height="26.4" filterUnits="userSpaceOnUse" color-interpolation-filters="sRGB">
<feFlood flood-opacity="0" result="BackgroundImageFix"/>
<feBlend mode="normal" in="SourceGraphic" in2="BackgroundImageFix" result="shape"/>
<feGaussianBlur stdDeviation="2" result="effect1_foregroundBlur_478_11520"/>
</filter>
<linearGradient id="paint0_linear_478_11520" x1="36" y1="34.625" x2="19.6597" y2="3.99863" gradientUnits="userSpaceOnUse">
<stop offset="0.0046461" stop-color="#79C0FB"/>
<stop offset="1" stop-color="#6796FF"/>
</linearGradient>
<linearGradient id="paint1_linear_478_11520" x1="31.2" y1="46" x2="24.7091" y2="-4.29837" gradientUnits="userSpaceOnUse">
<stop offset="0.0046461" stop-color="#79C0FB"/>
<stop offset="1" stop-color="#6796FF"/>
</linearGradient>
<linearGradient id="paint2_linear_478_11520" x1="46.2857" y1="12.7946" x2="46.2449" y2="9.07829" gradientUnits="userSpaceOnUse">
<stop stop-color="white"/>
<stop offset="1" stop-color="white" stop-opacity="0.44"/>
</linearGradient>
</defs>
</svg>
