<svg width="48" height="48" viewBox="0 0 48 48" fill="none" xmlns="http://www.w3.org/2000/svg">
<path d="M0 5.6C0 4.71634 0.716344 4 1.6 4H13.662C14.6341 4 15.5535 4.44189 16.1608 5.20098L17.4392 6.79902C18.0465 7.55811 18.9659 8 19.938 8H46.4C47.2837 8 48 8.71634 48 9.6V42.4C48 43.2837 47.2837 44 46.4 44H1.6C0.716343 44 0 43.2837 0 42.4V5.6Z" fill="url(#paint0_linear_478_11537)"/>
<path d="M0 12H48V42.4C48 43.2837 47.2837 44 46.4 44H1.6C0.716343 44 0 43.2837 0 42.4V12Z" fill="url(#paint1_linear_478_11537)"/>
<path opacity="0.4" d="M0 12H48V13H0V12Z" fill="url(#paint2_linear_478_11537)" fill-opacity="0.9"/>
<path d="M47.6 9.6V42.4C47.6 43.0627 47.0627 43.6 46.4 43.6H1.6C0.937257 43.6 0.4 43.0627 0.4 42.4V5.6C0.4 4.93726 0.937258 4.4 1.6 4.4H13.662C14.5126 4.4 15.3171 4.78665 15.8484 5.45085L17.1269 7.0489C17.8101 7.90288 18.8444 8.4 19.938 8.4H46.4C47.0627 8.4 47.6 8.93726 47.6 9.6Z" stroke="black" stroke-opacity="0.03" stroke-width="0.8"/>
<g filter="url(#filter0_f_478_11537)">
<rect x="17" y="18" width="16" height="20" fill="white" fill-opacity="0.2"/>
</g>
<rect x="17" y="18" width="16" height="20" rx="1.6" fill="#1374E7" fill-opacity="0.9"/>
<rect x="17.2" y="18.2" width="15.6" height="19.6" rx="1.4" stroke="black" stroke-opacity="0.03" stroke-width="0.4"/>
<g opacity="0.9">
<mask id="path-8-inside-1_478_11537" fill="white">
<path fill-rule="evenodd" clip-rule="evenodd" d="M20 22H30V24H20V22ZM20 26H30V27H20V26ZM30 28H20V29H30V28ZM20 30H30V31H20V30ZM27 32H20V33H27V32Z"/>
</mask>
<path fill-rule="evenodd" clip-rule="evenodd" d="M20 22H30V24H20V22ZM20 26H30V27H20V26ZM30 28H20V29H30V28ZM20 30H30V31H20V30ZM27 32H20V33H27V32Z" fill="url(#paint3_linear_478_11537)"/>
<path d="M30 22H30.8V21.2H30V22ZM20 22V21.2H19.2V22H20ZM30 24V24.8H30.8V24H30ZM20 24H19.2V24.8H20V24ZM30 26H30.8V25.2H30V26ZM20 26V25.2H19.2V26H20ZM30 27V27.8H30.8V27H30ZM20 27H19.2V27.8H20V27ZM20 28V27.2H19.2V28H20ZM30 28H30.8V27.2H30V28ZM20 29H19.2V29.8H20V29ZM30 29V29.8H30.8V29H30ZM30 30H30.8V29.2H30V30ZM20 30V29.2H19.2V30H20ZM30 31V31.8H30.8V31H30ZM20 31H19.2V31.8H20V31ZM20 32V31.2H19.2V32H20ZM27 32H27.8V31.2H27V32ZM20 33H19.2V33.8H20V33ZM27 33V33.8H27.8V33H27ZM30 21.2H20V22.8H30V21.2ZM30.8 24V22H29.2V24H30.8ZM20 24.8H30V23.2H20V24.8ZM19.2 22V24H20.8V22H19.2ZM30 25.2H20V26.8H30V25.2ZM30.8 27V26H29.2V27H30.8ZM20 27.8H30V26.2H20V27.8ZM19.2 26V27H20.8V26H19.2ZM20 28.8H30V27.2H20V28.8ZM20.8 29V28H19.2V29H20.8ZM30 28.2H20V29.8H30V28.2ZM29.2 28V29H30.8V28H29.2ZM30 29.2H20V30.8H30V29.2ZM30.8 31V30H29.2V31H30.8ZM20 31.8H30V30.2H20V31.8ZM19.2 30V31H20.8V30H19.2ZM20 32.8H27V31.2H20V32.8ZM20.8 33V32H19.2V33H20.8ZM27 32.2H20V33.8H27V32.2ZM26.2 32V33H27.8V32H26.2Z" fill="white" fill-opacity="0.12" mask="url(#path-8-inside-1_478_11537)"/>
</g>
<defs>
<filter id="filter0_f_478_11537" x="13" y="14" width="24" height="28" filterUnits="userSpaceOnUse" color-interpolation-filters="sRGB">
<feFlood flood-opacity="0" result="BackgroundImageFix"/>
<feBlend mode="normal" in="SourceGraphic" in2="BackgroundImageFix" result="shape"/>
<feGaussianBlur stdDeviation="2" result="effect1_foregroundBlur_478_11537"/>
</filter>
<linearGradient id="paint0_linear_478_11537" x1="36" y1="34.625" x2="19.6597" y2="3.99863" gradientUnits="userSpaceOnUse">
<stop offset="0.0046461" stop-color="#79C0FB"/>
<stop offset="1" stop-color="#6796FF"/>
</linearGradient>
<linearGradient id="paint1_linear_478_11537" x1="31.2" y1="46" x2="24.7091" y2="-4.29837" gradientUnits="userSpaceOnUse">
<stop offset="0.0046461" stop-color="#79C0FB"/>
<stop offset="1" stop-color="#6796FF"/>
</linearGradient>
<linearGradient id="paint2_linear_478_11537" x1="46.2857" y1="12.7946" x2="46.2449" y2="9.07829" gradientUnits="userSpaceOnUse">
<stop stop-color="white"/>
<stop offset="1" stop-color="white" stop-opacity="0.44"/>
</linearGradient>
<linearGradient id="paint3_linear_478_11537" x1="27" y1="28.6563" x2="20.1773" y2="13.3621" gradientUnits="userSpaceOnUse">
<stop offset="0.0046461" stop-color="#79C0FB"/>
<stop offset="1" stop-color="#6796FF"/>
</linearGradient>
</defs>
</svg>
