<svg width="48" height="48" viewBox="0 0 48 48" fill="none" xmlns="http://www.w3.org/2000/svg">
<path d="M0 5.6C0 4.71634 0.716344 4 1.6 4H13.662C14.6341 4 15.5535 4.44189 16.1608 5.20098L17.4392 6.79902C18.0465 7.55811 18.9659 8 19.938 8H46.4C47.2837 8 48 8.71634 48 9.6V42.4C48 43.2837 47.2837 44 46.4 44H1.6C0.716343 44 0 43.2837 0 42.4V5.6Z" fill="url(#paint0_linear_478_11621)"/>
<path d="M0 12H48V42.4C48 43.2837 47.2837 44 46.4 44H1.6C0.716343 44 0 43.2837 0 42.4V12Z" fill="url(#paint1_linear_478_11621)"/>
<path opacity="0.4" d="M0 12H48V13H0V12Z" fill="url(#paint2_linear_478_11621)" fill-opacity="0.9"/>
<path d="M47.6 9.6V42.4C47.6 43.0627 47.0627 43.6 46.4 43.6H1.6C0.937257 43.6 0.4 43.0627 0.4 42.4V5.6C0.4 4.93726 0.937258 4.4 1.6 4.4H13.662C14.5126 4.4 15.3171 4.78665 15.8484 5.45085L17.1269 7.0489C17.8101 7.90288 18.8444 8.4 19.938 8.4H46.4C47.0627 8.4 47.6 8.93726 47.6 9.6Z" stroke="black" stroke-opacity="0.03" stroke-width="0.8"/>
<g filter="url(#filter0_f_478_11621)">
<path fill-rule="evenodd" clip-rule="evenodd" d="M29.9053 19L19 21.1811V23V24.4526V31.1707C18.6872 31.0602 18.3506 31 18 31C16.3431 31 15 32.3431 15 34C15 35.6569 16.3431 37 18 37C19.6569 37 21 35.6569 21 34V24.0526L28 22.6526V29.1707C27.6872 29.0602 27.3506 29 27 29C25.3431 29 24 30.3431 24 32C24 33.6569 25.3431 35 27 35C28.3062 35 29.4175 34.1652 29.8293 33H30V32V21H29.9053V19Z" fill="white" fill-opacity="0.2"/>
</g>
<mask id="path-6-inside-1_478_11621" fill="white">
<path fill-rule="evenodd" clip-rule="evenodd" d="M29.9053 19L19 21.1811V23V24.4526V31.1707C18.6872 31.0602 18.3506 31 18 31C16.3431 31 15 32.3431 15 34C15 35.6569 16.3431 37 18 37C19.6569 37 21 35.6569 21 34V24.0526L28 22.6526V29.1707C27.6872 29.0602 27.3506 29 27 29C25.3431 29 24 30.3431 24 32C24 33.6569 25.3431 35 27 35C28.3062 35 29.4175 34.1652 29.8293 33H30V32V21H29.9053V19Z"/>
</mask>
<path fill-rule="evenodd" clip-rule="evenodd" d="M29.9053 19L19 21.1811V23V24.4526V31.1707C18.6872 31.0602 18.3506 31 18 31C16.3431 31 15 32.3431 15 34C15 35.6569 16.3431 37 18 37C19.6569 37 21 35.6569 21 34V24.0526L28 22.6526V29.1707C27.6872 29.0602 27.3506 29 27 29C25.3431 29 24 30.3431 24 32C24 33.6569 25.3431 35 27 35C28.3062 35 29.4175 34.1652 29.8293 33H30V32V21H29.9053V19Z" fill="#1374E7" fill-opacity="0.9"/>
<path d="M19 21.1811L18.9216 20.7888L18.6 20.8531V21.1811H19ZM29.9053 19H30.3053V18.5121L29.8269 18.6078L29.9053 19ZM19 31.1707L18.8667 31.5478L19.4 31.7363V31.1707H19ZM21 24.0526L20.9216 23.6604L20.6 23.7247V24.0526H21ZM28 22.6526H28.4V22.1647L27.9216 22.2604L28 22.6526ZM28 29.1707L27.8667 29.5478L28.4 29.7363V29.1707H28ZM29.8293 33V32.6H29.5464L29.4522 32.8667L29.8293 33ZM30 33V33.4H30.4V33H30ZM30 21H30.4V20.6H30V21ZM29.9053 21H29.5053V21.4H29.9053V21ZM19.0784 21.5733L29.9837 19.3922L29.8269 18.6078L18.9216 20.7888L19.0784 21.5733ZM19.4 23V21.1811H18.6V23H19.4ZM19.4 24.4526V23H18.6V24.4526H19.4ZM19.4 31.1707V24.4526H18.6V31.1707H19.4ZM18 31.4C18.3046 31.4 18.5961 31.4522 18.8667 31.5478L19.1333 30.7936C18.7783 30.6681 18.3967 30.6 18 30.6V31.4ZM15.4 34C15.4 32.5641 16.5641 31.4 18 31.4V30.6C16.1222 30.6 14.6 32.1222 14.6 34H15.4ZM18 36.6C16.5641 36.6 15.4 35.4359 15.4 34H14.6C14.6 35.8778 16.1222 37.4 18 37.4V36.6ZM20.6 34C20.6 35.4359 19.4359 36.6 18 36.6V37.4C19.8778 37.4 21.4 35.8778 21.4 34H20.6ZM20.6 24.0526V34H21.4V24.0526H20.6ZM27.9216 22.2604L20.9216 23.6604L21.0784 24.4449L28.0784 23.0449L27.9216 22.2604ZM28.4 29.1707V22.6526H27.6V29.1707H28.4ZM28.1333 28.7936C27.7783 28.6681 27.3967 28.6 27 28.6V29.4C27.3046 29.4 27.5961 29.4522 27.8667 29.5478L28.1333 28.7936ZM27 28.6C25.1222 28.6 23.6 30.1222 23.6 32H24.4C24.4 30.5641 25.5641 29.4 27 29.4V28.6ZM23.6 32C23.6 33.8778 25.1222 35.4 27 35.4V34.6C25.5641 34.6 24.4 33.4359 24.4 32H23.6ZM27 35.4C28.481 35.4 29.7399 34.4533 30.2064 33.1333L29.4522 32.8667C29.095 33.8771 28.1314 34.6 27 34.6V35.4ZM30 32.6H29.8293V33.4H30V32.6ZM29.6 32V33H30.4V32H29.6ZM29.6 21V32H30.4V21H29.6ZM29.9053 21.4H30V20.6H29.9053V21.4ZM29.5053 19V21H30.3053V19H29.5053Z" fill="black" fill-opacity="0.03" mask="url(#path-6-inside-1_478_11621)"/>
<defs>
<filter id="filter0_f_478_11621" x="11" y="15" width="23" height="26" filterUnits="userSpaceOnUse" color-interpolation-filters="sRGB">
<feFlood flood-opacity="0" result="BackgroundImageFix"/>
<feBlend mode="normal" in="SourceGraphic" in2="BackgroundImageFix" result="shape"/>
<feGaussianBlur stdDeviation="2" result="effect1_foregroundBlur_478_11621"/>
</filter>
<linearGradient id="paint0_linear_478_11621" x1="36" y1="34.625" x2="19.6597" y2="3.99863" gradientUnits="userSpaceOnUse">
<stop offset="0.0046461" stop-color="#79C0FB"/>
<stop offset="1" stop-color="#6796FF"/>
</linearGradient>
<linearGradient id="paint1_linear_478_11621" x1="31.2" y1="46" x2="24.7091" y2="-4.29837" gradientUnits="userSpaceOnUse">
<stop offset="0.0046461" stop-color="#79C0FB"/>
<stop offset="1" stop-color="#6796FF"/>
</linearGradient>
<linearGradient id="paint2_linear_478_11621" x1="46.2857" y1="12.7946" x2="46.2449" y2="9.07829" gradientUnits="userSpaceOnUse">
<stop stop-color="white"/>
<stop offset="1" stop-color="white" stop-opacity="0.44"/>
</linearGradient>
</defs>
</svg>
