<svg width="48" height="48" viewBox="0 0 48 48" fill="none" xmlns="http://www.w3.org/2000/svg">
<path d="M0 5.6C0 4.71634 0.716344 4 1.6 4H13.662C14.6341 4 15.5535 4.44189 16.1608 5.20098L17.4392 6.79902C18.0465 7.55811 18.9659 8 19.938 8H46.4C47.2837 8 48 8.71634 48 9.6V42.4C48 43.2837 47.2837 44 46.4 44H1.6C0.716343 44 0 43.2837 0 42.4V5.6Z" fill="url(#paint0_linear_478_11573)"/>
<path d="M0 12H48V42.4C48 43.2837 47.2837 44 46.4 44H1.6C0.716343 44 0 43.2837 0 42.4V12Z" fill="url(#paint1_linear_478_11573)"/>
<path opacity="0.4" d="M0 12H48V13H0V12Z" fill="url(#paint2_linear_478_11573)" fill-opacity="0.9"/>
<path d="M47.6 9.6V42.4C47.6 43.0627 47.0627 43.6 46.4 43.6H1.6C0.937257 43.6 0.4 43.0627 0.4 42.4V5.6C0.4 4.93726 0.937258 4.4 1.6 4.4H13.662C14.5126 4.4 15.3171 4.78665 15.8484 5.45085L17.1269 7.0489C17.8101 7.90288 18.8444 8.4 19.938 8.4H46.4C47.0627 8.4 47.6 8.93726 47.6 9.6Z" stroke="black" stroke-opacity="0.03" stroke-width="0.8"/>
<g filter="url(#filter0_f_478_11573)">
<path fill-rule="evenodd" clip-rule="evenodd" d="M24 18L16 25.0435V34.4348C16 35.2992 16.754 36 17.6842 36H22V30H26V36H30.3158C31.246 36 32 35.2992 32 34.4348V25.0435L24 18Z" fill="white" fill-opacity="0.2"/>
</g>
<mask id="path-6-inside-1_478_11573" fill="white">
<path fill-rule="evenodd" clip-rule="evenodd" d="M16.2714 24.8046C16.0988 24.9564 16 25.1752 16 25.405V35C16 35.5523 16.4477 36 17 36L22 36V30H26V36L31 36C31.5523 36 32 35.5523 32 35V25.405C32 25.1752 31.9012 24.9564 31.7286 24.8046L24.5286 18.4654C24.2264 18.1993 23.7736 18.1993 23.4714 18.4654L16.2714 24.8046Z"/>
</mask>
<path fill-rule="evenodd" clip-rule="evenodd" d="M16.2714 24.8046C16.0988 24.9564 16 25.1752 16 25.405V35C16 35.5523 16.4477 36 17 36L22 36V30H26V36L31 36C31.5523 36 32 35.5523 32 35V25.405C32 25.1752 31.9012 24.9564 31.7286 24.8046L24.5286 18.4654C24.2264 18.1993 23.7736 18.1993 23.4714 18.4654L16.2714 24.8046Z" fill="#1374E7" fill-opacity="0.9"/>
<path d="M16.2714 24.8046L16.5357 25.1048L16.5357 25.1048L16.2714 24.8046ZM17 36L17 35.6H17V36ZM22 36L22 36.4L22.4 36.4V36H22ZM22 30V29.6H21.6V30H22ZM26 30H26.4V29.6H26V30ZM26 36H25.6V36.4L26 36.4L26 36ZM31 36L31 35.6L31 35.6L31 36ZM31.7286 24.8046L31.993 24.5043L31.993 24.5043L31.7286 24.8046ZM24.5286 18.4654L24.793 18.1652L24.793 18.1652L24.5286 18.4654ZM23.4714 18.4654L23.7357 18.7656L23.7357 18.7656L23.4714 18.4654ZM16.4 25.405C16.4 25.2901 16.4494 25.1807 16.5357 25.1048L16.007 24.5043C15.7483 24.7322 15.6 25.0602 15.6 25.405H16.4ZM16.4 35V25.405H15.6V35H16.4ZM17 35.6C16.6686 35.6 16.4 35.3314 16.4 35H15.6C15.6 35.7732 16.2268 36.4 17 36.4V35.6ZM22 35.6L17 35.6L17 36.4L22 36.4L22 35.6ZM22.4 36V30H21.6V36H22.4ZM22 30.4H26V29.6H22V30.4ZM25.6 30V36H26.4V30H25.6ZM31 35.6L26 35.6L26 36.4L31 36.4L31 35.6ZM31.6 35C31.6 35.3314 31.3314 35.6 31 35.6V36.4C31.7732 36.4 32.4 35.7732 32.4 35H31.6ZM31.6 25.405V35H32.4V25.405H31.6ZM31.4643 25.1048C31.5506 25.1807 31.6 25.2901 31.6 25.405H32.4C32.4 25.0602 32.2517 24.7322 31.993 24.5043L31.4643 25.1048ZM24.2643 18.7656L31.4643 25.1048L31.993 24.5043L24.793 18.1652L24.2643 18.7656ZM23.7357 18.7656C23.8868 18.6326 24.1132 18.6326 24.2643 18.7656L24.793 18.1652C24.3397 17.7661 23.6603 17.7661 23.207 18.1652L23.7357 18.7656ZM16.5357 25.1048L23.7357 18.7656L23.207 18.1652L16.007 24.5043L16.5357 25.1048Z" fill="black" fill-opacity="0.03" mask="url(#path-6-inside-1_478_11573)"/>
<defs>
<filter id="filter0_f_478_11573" x="12" y="14" width="24" height="26" filterUnits="userSpaceOnUse" color-interpolation-filters="sRGB">
<feFlood flood-opacity="0" result="BackgroundImageFix"/>
<feBlend mode="normal" in="SourceGraphic" in2="BackgroundImageFix" result="shape"/>
<feGaussianBlur stdDeviation="2" result="effect1_foregroundBlur_478_11573"/>
</filter>
<linearGradient id="paint0_linear_478_11573" x1="36" y1="34.625" x2="19.6597" y2="3.99863" gradientUnits="userSpaceOnUse">
<stop offset="0.0046461" stop-color="#79C0FB"/>
<stop offset="1" stop-color="#6796FF"/>
</linearGradient>
<linearGradient id="paint1_linear_478_11573" x1="31.2" y1="46" x2="24.7091" y2="-4.29837" gradientUnits="userSpaceOnUse">
<stop offset="0.0046461" stop-color="#79C0FB"/>
<stop offset="1" stop-color="#6796FF"/>
</linearGradient>
<linearGradient id="paint2_linear_478_11573" x1="46.2857" y1="12.7946" x2="46.2449" y2="9.07829" gradientUnits="userSpaceOnUse">
<stop stop-color="white"/>
<stop offset="1" stop-color="white" stop-opacity="0.44"/>
</linearGradient>
</defs>
</svg>
