<svg width="48" height="48" viewBox="0 0 48 48" fill="none" xmlns="http://www.w3.org/2000/svg">
<path d="M5.19199 4.1758C5.0888 3.00638 6.0103 2 7.18425 2H40.8157C41.9897 2 42.9112 3.00639 42.808 4.1758L39.3588 43.2637C39.2222 44.8123 37.9251 46 36.3705 46H11.6295C10.0749 46 8.77781 44.8123 8.64115 43.2637L5.19199 4.1758Z" fill="url(#paint0_linear_1717_17195)"/>
<path d="M5.69006 4.13185C5.61267 3.25479 6.30379 2.5 7.18425 2.5H40.8157C41.6962 2.5 42.3873 3.25479 42.3099 4.13185L38.8608 43.2198C38.7469 44.5103 37.666 45.5 36.3705 45.5H11.6295C10.334 45.5 9.2531 44.5103 9.13922 43.2197L5.69006 4.13185Z" stroke="#6796FF" stroke-opacity="0.05"/>
<path fill-rule="evenodd" clip-rule="evenodd" d="M32.2194 30.0001L29.5714 25.4261L32.2219 24.0167L34.8157 28.497C35.9736 30.497 34.5304 33.0001 32.2194 33.0001H28.9998L28.9998 35.0002L22.9998 31.5001L28.9999 28.0001L28.9999 30.0001L32.2194 30.0001ZM28.0756 16.8549L26.7045 14.4866C25.549 12.4908 22.6674 12.4908 21.5119 14.4866L18.9589 18.8965L21.6094 20.3059L24.1082 15.9897L25.4842 18.3665L24.0154 19.2232L30.0154 22.7232L30.0156 15.7232L28.0756 16.8549ZM21.0001 30.0001L15.997 30.0001L17.3116 27.7293L19.0154 28.7232L19.0156 21.7232L13.0154 25.2232L14.7203 26.2177L13.4007 28.497C12.2428 30.4969 13.686 33.0001 15.997 33.0001H21.0001V30.0001Z" fill="url(#paint1_linear_1717_17195)"/>
<defs>
<linearGradient id="paint0_linear_1717_17195" x1="5.00001" y1="-31.5" x2="32" y2="60" gradientUnits="userSpaceOnUse">
<stop offset="0.0202659" stop-color="#D6E9FF"/>
<stop offset="1" stop-color="white"/>
</linearGradient>
<linearGradient id="paint1_linear_1717_17195" x1="-15.1442" y1="-32.7242" x2="110.811" y2="81.9428" gradientUnits="userSpaceOnUse">
<stop stop-color="#188392"/>
<stop offset="1" stop-color="#ADFF87"/>
</linearGradient>
</defs>
</svg>
