<svg xmlns="http://www.w3.org/2000/svg" width="24" height="24" viewBox="0 0 24 24">
    <g fill="none" fill-rule="evenodd">
        <path fill="#FFF" d="M11 20.945a8.957 8.957 0 0 1-4.618-1.913l-2.16 2.16-1.414-1.414 2.16-2.16A8.957 8.957 0 0 1 3.055 13H0v-2h3.055a8.957 8.957 0 0 1 1.913-4.618l-2.16-2.16 1.414-1.414 2.16 2.16A8.957 8.957 0 0 1 11 3.055V0h2v3.055a8.957 8.957 0 0 1 4.618 1.913l2.16-2.16 1.414 1.414-2.16 2.16A8.957 8.957 0 0 1 20.945 11H24v2h-3.055a8.957 8.957 0 0 1-1.913 4.618l2.16 2.16-1.414 1.414-2.16-2.16A8.957 8.957 0 0 1 13 20.945V24h-2v-3.055zm5.95-3.995A6.978 6.978 0 0 0 19 12a6.978 6.978 0 0 0-2.05-4.95 7 7 0 1 0 0 9.9zM12 14a2 2 0 1 0 0-4 2 2 0 0 0 0 4zm0 2a4 4 0 1 1 0-8 4 4 0 0 1 0 8z"/>
    </g>
</svg>
