<svg xmlns="http://www.w3.org/2000/svg" width="48" height="48" viewBox="0 0 48 48">
    <defs>
        <linearGradient id="a" x1="0%" x2="101.44%" y1="0%" y2="100.446%">
            <stop offset="0%" stop-color="#CA0000"/>
            <stop offset="99.954%" stop-color="#7A47C2"/>
        </linearGradient>
    </defs>
    <g fill="none" fill-rule="evenodd">
        <path fill="url(#a)" d="M16 0h16c8.837 0 16 7.163 16 16v16c0 8.837-7.163 16-16 16H16C7.163 48 0 40.837 0 32V16C0 7.163 7.163 0 16 0z"/>
        <path fill="#FFF" fill-rule="nonzero" d="M10.286 12c-.149 0-.286.14-.286.333v23.334c0 .193.137.333.286.333h27.428c.149 0 .286-.14.286-.333V12.333c0-.193-.137-.333-.286-.333H10.286zm0-2h27.428C38.977 10 40 11.045 40 12.333v23.334C40 36.955 38.977 38 37.714 38H10.286C9.023 38 8 36.955 8 35.667V12.333C8 11.045 9.023 10 10.286 10z"/>
        <path fill="#FFF" d="M17.486 34H11l8.757-12L23 26.444 17.486 34zM16 35.5h-5 5zM36 23.744V34H19.75l11.958-16z"/>
    </g>
</svg>
