<svg xmlns="http://www.w3.org/2000/svg" width="48" height="48" viewBox="0 0 48 48">
    <defs>
        <linearGradient id="a" x1="0%" x2="102%" y1="0%" y2="101%">
            <stop offset="0%" stop-color="#AE2323"/>
            <stop offset="100%" stop-color="#954FD2"/>
        </linearGradient>
    </defs>
    <g fill="none" fill-rule="evenodd">
        <path fill="url(#a)" d="M16 0h16c8.837 0 16 7.163 16 16v16c0 8.837-7.163 16-16 16H16C7.163 48 0 40.837 0 32V16C0 7.163 7.163 0 16 0z"/>
        <path fill="#FFF" d="M17 2h6v2h-6zM17 10h6v2h-6zM24 4h6v2h-6zM24 12h6v2h-6zM17 6h6v2h-6zM17 14h6v2h-6zM24 8h6v2h-6zM24 16h6v2h-6zM17 18h6v2h-6zM20 22h7a3 3 0 0 1 3 3v12a3 3 0 0 1-3 3h-7a3 3 0 0 1-3-3V25a3 3 0 0 1 3-3zm0 13a1 1 0 0 0-1 1v1a1 1 0 0 0 1 1h7a1 1 0 0 0 1-1v-1a1 1 0 0 0-1-1h-7z"/>
    </g>
</svg>
