<svg xmlns="http://www.w3.org/2000/svg" width="48" height="48" viewBox="0 0 48 48">
    <defs>
        <linearGradient id="a" x1="0%" x2="101.766%" y1="0%" y2="100.769%">
            <stop offset="0%" stop-color="#107507"/>
            <stop offset="99.954%" stop-color="#47C292"/>
        </linearGradient>
    </defs>
    <g fill="none" fill-rule="evenodd">
        <path fill="url(#a)" d="M16 0h16c8.837 0 16 7.163 16 16v16c0 8.837-7.163 16-16 16H16C7.163 48 0 40.837 0 32V16C0 7.163 7.163 0 16 0z"/>
        <path fill="#FFF" d="M12 20h3a1 1 0 0 1 1 1v14a1 1 0 0 1-1 1h-3a1 1 0 0 1-1-1V21a1 1 0 0 1 1-1zm7-8h3a1 1 0 0 1 1 1v22a1 1 0 0 1-1 1h-3a1 1 0 0 1-1-1V13a1 1 0 0 1 1-1zm7 10h3a1 1 0 0 1 1 1v12a1 1 0 0 1-1 1h-3a1 1 0 0 1-1-1V23a1 1 0 0 1 1-1zm7 7h3a1 1 0 0 1 1 1v5a1 1 0 0 1-1 1h-3a1 1 0 0 1-1-1v-5a1 1 0 0 1 1-1z"/>
    </g>
</svg>
