<svg xmlns="http://www.w3.org/2000/svg" xmlns:xlink="http://www.w3.org/1999/xlink" width="48" height="48" viewBox="0 0 48 48">
    <defs>
        <linearGradient id="a" x1="0%" y1="0%" y2="100%">
            <stop offset="0%" stop-color="#4B4B4B"/>
            <stop offset="100%" stop-color="#515151"/>
        </linearGradient>
        <path id="b" d="M0 0h28v28H0z"/>
    </defs>
    <g fill="none" fill-rule="evenodd">
        <path fill="url(#a)" d="M16 0h16c8.837 0 16 7.163 16 16v16c0 8.837-7.163 16-16 16H16C7.163 48 0 40.837 0 32V16C0 7.163 7.163 0 16 0z"/>
        <g transform="translate(10 10)">
            <mask id="c" fill="#fff">
                <use xlink:href="#b"/>
            </mask>
            <g fill="#FFF" mask="url(#c)">
                <path d="M14 24.5C8.201 24.5 3.5 19.799 3.5 14S8.201 3.5 14 3.5 24.5 8.201 24.5 14 19.799 24.5 14 24.5zm0-2.333a8.167 8.167 0 1 0 0-16.334 8.167 8.167 0 0 0 0 16.334z"/>
                <path d="M12.833 0h2.334v5.833h-2.334V0zm0 22.167h2.334V28h-2.334v-5.833zM28 12.833v2.334h-5.833v-2.334H28zm-22.167 0v2.334H0v-2.334h5.833zm17.242-9.557l1.65 1.65L20.6 9.05 18.95 7.4l4.125-4.124zM7.4 18.95l1.65 1.65-4.125 4.124-1.65-1.65L7.4 18.95zm17.324 4.125l-1.65 1.65L18.95 20.6l1.65-1.65 4.124 4.125zM9.05 7.4L7.4 9.05 3.276 4.925l1.65-1.65L9.05 7.4z"/>
                <path fill-rule="nonzero" d="M14 16.333a2.333 2.333 0 1 0 0-4.666 2.333 2.333 0 0 0 0 4.666zm0 2.334a4.667 4.667 0 1 1 0-9.334 4.667 4.667 0 0 1 0 9.334z"/>
            </g>
        </g>
    </g>
</svg>
