<svg xmlns="http://www.w3.org/2000/svg" width="48" height="48" viewBox="0 0 48 48">
    <defs>
        <linearGradient id="a" x1="0%" x2="101.766%" y1="0%" y2="100.769%">
            <stop offset="0%" stop-color="#107507"/>
            <stop offset="99.954%" stop-color="#47C292"/>
        </linearGradient>
    </defs>
    <g fill="none" fill-rule="evenodd">
        <path fill="url(#a)" d="M16 0h16c8.837 0 16 7.163 16 16v16c0 8.837-7.163 16-16 16H16C7.163 48 0 40.837 0 32V16C0 7.163 7.163 0 16 0z"/>
        <path fill="#FFF" fill-rule="nonzero" d="M24 39c8.284 0 15-6.716 15-15 0-8.284-6.716-15-15-15-8.284 0-15 6.716-15 15 0 8.284 6.716 15 15 15zm0 2c-9.389 0-17-7.611-17-17S14.611 7 24 7s17 7.611 17 17-7.611 17-17 17z"/>
        <path fill="#FFF" d="M23 32.133c-1.816-.206-3.695-1.032-5-2.124l1.844-2.532c1.376 1.073 2.697 1.679 4.128 1.679 1.542 0 2.23-.66 2.23-1.624 0-1.156-1.596-1.679-3.22-2.312-1.954-.743-4.211-1.926-4.211-4.486 0-2.357 1.622-4.12 4.229-4.602V13h2v3.016c2.009.126 3.557.993 4.752 1.883l-1.816 2.45c-1.101-.771-2.175-1.321-3.33-1.321-1.377 0-2.037.605-2.037 1.486 0 1.128 1.514 1.541 3.137 2.147C27.743 23.43 30 24.45 30 27.31c0 2.431-1.72 4.437-5 4.81V35h-2v-2.867z"/>
    </g>
</svg>
