<svg xmlns="http://www.w3.org/2000/svg" width="48" height="48" viewBox="0 0 48 48">
    <defs>
        <linearGradient id="a" x1="100%" x2="0%" y1="100%" y2="0%">
            <stop offset="0%" stop-color="#0AC8F1"/>
            <stop offset="100%" stop-color="#01478B"/>
        </linearGradient>
    </defs>
    <g fill="none" fill-rule="evenodd">
        <path fill="url(#a)" d="M16 0h16c8.837 0 16 7.163 16 16v16c0 8.837-7.163 16-16 16H16C7.163 48 0 40.837 0 32V16C0 7.163 7.163 0 16 0z"/>
        <path fill="#FFF" fill-rule="nonzero" d="M24 22a3 3 0 1 0 0-6 3 3 0 0 0 0 6zm0 2a5 5 0 1 1 0-10 5 5 0 0 1 0 10zm13-2a3 3 0 1 0 0-6 3 3 0 0 0 0 6zm0 2a5 5 0 1 1 0-10 5 5 0 0 1 0 10zm-26-2a3 3 0 1 0 0-6 3 3 0 0 0 0 6zm0 2a5 5 0 1 1 0-10 5 5 0 0 1 0 10zm5 9.429a1 1 0 1 1-2 0C14 28.504 17.506 26 24 26s10 2.504 10 7.429a1 1 0 1 1-2 0C32 29.78 29.506 28 24 28s-8 1.781-8 5.429zm16.855-6.999C34.06 26.144 35.445 26 37 26c6.494 0 10 2.504 10 7.429a1 1 0 1 1-2 0C45 29.78 42.506 28 37 28c-.918 0-1.753.05-2.506.15-.45-.648-1-1.221-1.64-1.72zm-17.71 0a7.897 7.897 0 0 0-1.639 1.72c-.753-.1-1.588-.15-2.506-.15-5.506 0-8 1.781-8 5.429a1 1 0 1 1-2 0C1 28.504 4.506 26 11 26c1.556 0 2.94.144 4.145.43z"/>
    </g>
</svg>
