<svg xmlns="http://www.w3.org/2000/svg" width="48" height="48" viewBox="0 0 48 48">
    <defs>
        <linearGradient id="a" x1="0%" x2="101.58%" y1="0%" y2="100.584%">
            <stop offset="0%" stop-color="#58009D"/>
            <stop offset="99.954%" stop-color="#C24747"/>
        </linearGradient>
    </defs>
    <g fill="none" fill-rule="evenodd">
        <path fill="url(#a)" d="M16 0h16c8.837 0 16 7.163 16 16v16c0 8.837-7.163 16-16 16H16C7.163 48 0 40.837 0 32V16C0 7.163 7.163 0 16 0z"/>
        <path fill="#FFF" fill-rule="nonzero" d="M30.547 29.234l-2.45-1.415A10.64 10.64 0 0 0 34.636 18c0-5.874-4.763-10.636-10.637-10.636-5.874 0-10.636 4.762-10.636 10.636a10.64 10.64 0 0 0 6.577 9.834c.021.018 2.869 1.664 8.543 4.939a1.182 1.182 0 0 1-1.182 2.047c-5.529-3.196-8.309-4.807-8.34-4.832C14.283 28.019 11 23.393 11 18c0-7.18 5.82-13 13-13s13 5.82 13 13c0 4.792-2.593 8.98-6.453 11.234zm-10.25 3.539l8.187 4.727a1.182 1.182 0 0 1-1.182 2.047l-8.188-4.727a1.182 1.182 0 1 1 1.182-2.047zm.364 5.304l6.043 3.488a3.545 3.545 0 0 1-6.043-3.489z"/>
    </g>
</svg>
