<svg xmlns="http://www.w3.org/2000/svg" width="48" height="48" viewBox="0 0 48 48">
    <defs>
        <linearGradient id="a" x1="100%" x2="0%" y1="100%" y2="0%">
            <stop offset="0%" stop-color="#0AC8F1"/>
            <stop offset="100%" stop-color="#01478B"/>
        </linearGradient>
    </defs>
    <g fill="none" fill-rule="evenodd">
        <g>
            <path fill="url(#a)" d="M16 0h16c8.837 0 16 7.163 16 16v16c0 8.837-7.163 16-16 16H16C7.163 48 0 40.837 0 32V16C0 7.163 7.163 0 16 0z"/>
            <rect width="13" height="10" x="15" y="18" fill="#FFF" rx="1"/>
            <path fill="#FFF" d="M30 21.286L34 19v8l-4-2.286v-3.428z"/>
        </g>
        <path fill="#FFF" d="M16 33l-2 2a5 5 0 0 1-5-5V16a5 5 0 0 1 5-5h20a5 5 0 0 1 5 5v14a5 5 0 0 1-5 5H21.485l-5.07 5.071L15 38.657 20.657 33H16zm-2-20a3 3 0 0 0-3 3v14a3 3 0 0 0 3 3h20a3 3 0 0 0 3-3V16a3 3 0 0 0-3-3H14z"/>
    </g>
</svg>
