<svg xmlns="http://www.w3.org/2000/svg" xmlns:xlink="http://www.w3.org/1999/xlink" width="48" height="48" viewBox="0 0 48 48">
    <defs>
        <path id="a" d="M8 0h32a8 8 0 0 1 8 8v32a8 8 0 0 1-8 8H8a8 8 0 0 1-8-8V8a8 8 0 0 1 8-8z"/>
    </defs>
    <g fill="none" fill-rule="evenodd">
        <path fill="#FFF" d="M8 0h32a8 8 0 0 1 8 8v32a8 8 0 0 1-8 8H8a8 8 0 0 1-8-8V8a8 8 0 0 1 8-8z"/>
        <g>
            <mask id="b" fill="#fff">
                <use xlink:href="#a"/>
            </mask>
            <path stroke="#D3D3D3" d="M8 .5A7.5 7.5 0 0 0 .5 8v32A7.5 7.5 0 0 0 8 47.5h32a7.5 7.5 0 0 0 7.5-7.5V8A7.5 7.5 0 0 0 40 .5H8z"/>
            <g mask="url(#b)">
                <path fill="#55B6FF" d="M23.616 42l36.445-21.04 1 1.731-38.105 22-.5-.866a4 4 0 0 0-6.928 4l.5.866-15.589 9-1-1.732 13.928-8.041A6.002 6.002 0 0 1 23.616 42z"/>
                <path fill="#299FFF" d="M51.456 20.154l6.105-3.525 1 1.732-7.794 4.5-.5-.866a8 8 0 0 0-13.857 8l-1.732 1c-2.761-4.783-1.122-10.899 3.66-13.66 4.491-2.593 10.157-1.307 13.118 2.819z"/>
                <path fill="#2E70BE" d="M38.81 14.881a12.108 12.108 0 0 0-1.985 1.035c-4.914-3.324-11.493-3.773-16.977-.607-7.653 4.418-10.275 14.203-5.856 21.856l-1.732 1c-4.97-8.61-2.021-19.618 6.588-24.588 6.496-3.75 14.358-2.992 19.961 1.304z"/>
                <path fill="#299FFF" d="M11.409 43.275a8.037 8.037 0 0 0-.419 2.551l-13.05 7.535-1-1.732 14.469-8.354zm9.165-5.292L35.91 29.13l1 1.732-13.917 8.035a8.037 8.037 0 0 0-2.419-.913z"/>
                <path fill="#2E70BE" d="M13.492 36.299l1 1.732-19.053 11-1-1.732 19.053-11zM49.34 15.602l5.72-3.303 1 1.732-4.92 2.842a11.941 11.941 0 0 0-1.8-1.271z"/>
                <path fill="#FFF" fill-opacity=".5" d="M6.94 68.95l60.62-35 1 1.732-60.62 35z"/>
            </g>
        </g>
        <path fill="#4A4A4A" d="M16 4h16a2 2 0 1 1 0 4H16a2 2 0 1 1 0-4z"/>
    </g>
</svg>
