<svg xmlns="http://www.w3.org/2000/svg" width="48" height="48" viewBox="0 0 48 48">
    <defs>
        <linearGradient id="a" x1="0%" x2="101.766%" y1="0%" y2="100.769%">
            <stop offset="0%" stop-color="#09BAB8"/>
            <stop offset="99.954%" stop-color="#7A47C2"/>
        </linearGradient>
    </defs>
    <g fill="none" fill-rule="evenodd">
        <path fill="url(#a)" d="M16 0h16c8.837 0 16 7.163 16 16v16c0 8.837-7.163 16-16 16H16C7.163 48 0 40.837 0 32V16C0 7.163 7.163 0 16 0z"/>
        <path fill="#FFF" fill-rule="nonzero" d="M13 14h-2v-2.571C11 9.535 12.648 8 14.682 8h19.636C36.352 8 38 9.535 38 11.429V36.57C38 38.465 36.352 40 34.318 40H14.682C12.648 40 11 38.465 11 36.571V34h2v-4h-2v-4h2V14zm-2 8v-4h2v4h-2zm-2 2a1 1 0 0 1 1-1h3a1 1 0 0 1 0 2h-3a1 1 0 0 1-1-1zm0-8a1 1 0 0 1 1-1h3a1 1 0 0 1 0 2h-3a1 1 0 0 1-1-1zm0 16a1 1 0 0 1 1-1h3a1 1 0 0 1 0 2h-3a1 1 0 0 1-1-1zm4 4.833c0 .645.572 1.167 1.278 1.167h20.444c.706 0 1.278-.522 1.278-1.167V11.167c0-.645-.572-1.167-1.278-1.167H14.278c-.706 0-1.278.522-1.278 1.167v25.666zM17 15h16v2H17v-2zm0 5h16v2H17v-2zm0 5h8v2h-8v-2z"/>
    </g>
</svg>
