<svg xmlns="http://www.w3.org/2000/svg" width="48" height="48" viewBox="0 0 48 48">
    <defs>
        <linearGradient id="a" x1="27.743%" y1="27.743%" y2="100%">
            <stop offset="0%" stop-color="#18B094"/>
            <stop offset="100%" stop-color="#007EFF"/>
        </linearGradient>
    </defs>
    <g fill="none" fill-rule="evenodd">
        <path fill="url(#a)" d="M16 0h16c8.837 0 16 7.163 16 16v16c0 8.837-7.163 16-16 16H16C7.163 48 0 40.837 0 32V16C0 7.163 7.163 0 16 0z"/>
        <path fill="#FFF" d="M14 12h2a2 2 0 0 1 2 2v2a2 2 0 0 1-2 2h-2a2 2 0 0 1-2-2v-2a2 2 0 0 1 2-2zm0 18h2a2 2 0 0 1 2 2v2a2 2 0 0 1-2 2h-2a2 2 0 0 1-2-2v-2a2 2 0 0 1 2-2zm0-9h2a2 2 0 0 1 2 2v2a2 2 0 0 1-2 2h-2a2 2 0 0 1-2-2v-2a2 2 0 0 1 2-2zm9-9h2a2 2 0 0 1 2 2v2a2 2 0 0 1-2 2h-2a2 2 0 0 1-2-2v-2a2 2 0 0 1 2-2zm0 18h2a2 2 0 0 1 2 2v2a2 2 0 0 1-2 2h-2a2 2 0 0 1-2-2v-2a2 2 0 0 1 2-2zm0-9h2a2 2 0 0 1 2 2v2a2 2 0 0 1-2 2h-2a2 2 0 0 1-2-2v-2a2 2 0 0 1 2-2zm9-9h2a2 2 0 0 1 2 2v2a2 2 0 0 1-2 2h-2a2 2 0 0 1-2-2v-2a2 2 0 0 1 2-2zm0 18h2a2 2 0 0 1 2 2v2a2 2 0 0 1-2 2h-2a2 2 0 0 1-2-2v-2a2 2 0 0 1 2-2zm0-9h2a2 2 0 0 1 2 2v2a2 2 0 0 1-2 2h-2a2 2 0 0 1-2-2v-2a2 2 0 0 1 2-2z"/>
    </g>
</svg>
