<?xml version="1.0" encoding="UTF-8"?>
<svg width="60px" height="60px" viewBox="0 0 60 60" version="1.1" xmlns="http://www.w3.org/2000/svg" xmlns:xlink="http://www.w3.org/1999/xlink">
    <title>183D6EBD-D688-4DFE-9728-C30DC743BB2F</title>
    <defs>
        <linearGradient x1="17.1638403%" y1="29.0323413%" x2="65.9484863%" y2="64.5252046%" id="linearGradient-1">
            <stop stop-color="#5A88D5" offset="0%"></stop>
            <stop stop-color="#388DC7" offset="100%"></stop>
        </linearGradient>
        <path d="M-3.73034936e-13,37.5 L-3.73034936e-13,2.5 C-3.73034936e-13,1.11928813 1.11928813,0 2.5,0 L22.5,0 C23.8807119,0 25,1.11928813 25,2.5 L25,3.5 C25,4.32842712 25.6715729,5 26.5,5 L57.5,5 C58.8807119,5 60,6.11928813 60,7.5 L60,37.5 C60,38.8807119 58.8807119,40 57.5,40 L2.5,40 C1.11928813,40 -3.73034936e-13,38.8807119 -3.73034936e-13,37.5 Z" id="path-2"></path>
        <filter x="-0.8%" y="-1.2%" width="101.7%" height="102.5%" filterUnits="objectBoundingBox" id="filter-3">
            <feGaussianBlur stdDeviation="0.5" in="SourceAlpha" result="shadowBlurInner1"></feGaussianBlur>
            <feOffset dx="0" dy="0" in="shadowBlurInner1" result="shadowOffsetInner1"></feOffset>
            <feComposite in="shadowOffsetInner1" in2="SourceAlpha" operator="arithmetic" k2="-1" k3="1" result="shadowInnerInner1"></feComposite>
            <feColorMatrix values="0 0 0 0 1   0 0 0 0 1   0 0 0 0 1  0 0 0 0.2 0" type="matrix" in="shadowInnerInner1"></feColorMatrix>
        </filter>
        <linearGradient x1="50%" y1="0%" x2="50%" y2="37.9359007%" id="linearGradient-4">
            <stop stop-color="#FFFFFF" offset="0%"></stop>
            <stop stop-color="#C6C6C6" offset="100%"></stop>
        </linearGradient>
        <path d="M2.5,10 L57.5,10 C58.8807119,10 60,11.1192881 60,12.5 L60,15.5 C60,16.8807119 58.8807119,18 57.5,18 L2.5,18 C1.11928813,18 6.82121026e-13,16.8807119 6.82121026e-13,15.5 L6.82121026e-13,12.5 C6.82121026e-13,11.1192881 1.11928813,10 2.5,10 Z" id="path-5"></path>
        <filter x="-5.8%" y="-56.2%" width="111.7%" height="187.5%" filterUnits="objectBoundingBox" id="filter-6">
            <feOffset dx="0" dy="-1" in="SourceAlpha" result="shadowOffsetOuter1"></feOffset>
            <feGaussianBlur stdDeviation="1" in="shadowOffsetOuter1" result="shadowBlurOuter1"></feGaussianBlur>
            <feColorMatrix values="0 0 0 0 0   0 0 0 0 0   0 0 0 0 0  0 0 0 0.2 0" type="matrix" in="shadowBlurOuter1"></feColorMatrix>
        </filter>
        <linearGradient x1="17.1638403%" y1="31.5713937%" x2="61.1513265%" y2="67.606926%" id="linearGradient-7">
            <stop stop-color="#6B98E3" offset="0%"></stop>
            <stop stop-color="#4FABE8" offset="100%"></stop>
        </linearGradient>
        <path d="M38,37 C39.1045695,37 40,37.8954305 40,39 L40,43 C40,44.1045695 39.1045695,45 38,45 L34,45 C32.8954305,45 32,44.1045695 32,43 L32,39 C32,37.8954305 32.8954305,37 34,37 L38,37 Z M30,42 C30.5522847,42 31,42.4477153 31,43 C31,43.5522847 30.5522847,44 30,44 L21,44 C20.4477153,44 20,43.5522847 20,43 C20,42.4477153 20.4477153,42 21,42 L30,42 Z M30,38 C30.5522847,38 31,38.4477153 31,39 C31,39.5522847 30.5522847,40 30,40 L21,40 C20.4477153,40 20,39.5522847 20,39 C20,38.4477153 20.4477153,38 21,38 L30,38 Z M26,27 C27.1045695,27 28,27.8954305 28,29 L28,33 C28,34.1045695 27.1045695,35 26,35 L22,35 C20.8954305,35 20,34.1045695 20,33 L20,29 C20,27.8954305 20.8954305,27 22,27 L26,27 Z M39,32 C39.5522847,32 40,32.4477153 40,33 C40,33.5522847 39.5522847,34 39,34 L30,34 C29.4477153,34 29,33.5522847 29,33 C29,32.4477153 29.4477153,32 30,32 L39,32 Z M39,28 C39.5522847,28 40,28.4477153 40,29 C40,29.5522847 39.5522847,30 39,30 L30,30 C29.4477153,30 29,29.5522847 29,29 C29,28.4477153 29.4477153,28 30,28 L39,28 Z" id="path-8"></path>
        <filter x="-7.5%" y="-8.3%" width="115.0%" height="116.7%" filterUnits="objectBoundingBox" id="filter-9">
            <feGaussianBlur stdDeviation="1" in="SourceAlpha" result="shadowBlurInner1"></feGaussianBlur>
            <feOffset dx="0" dy="1" in="shadowBlurInner1" result="shadowOffsetInner1"></feOffset>
            <feComposite in="shadowOffsetInner1" in2="SourceAlpha" operator="arithmetic" k2="-1" k3="1" result="shadowInnerInner1"></feComposite>
            <feColorMatrix values="0 0 0 0 0   0 0 0 0 0   0 0 0 0 0  0 0 0 0.2 0" type="matrix" in="shadowInnerInner1"></feColorMatrix>
        </filter>
    </defs>
    <g id="UI" stroke="none" stroke-width="1" fill="none" fill-rule="evenodd">
        <g id="Icons" transform="translate(-1454.000000, -1460.000000)">
            <g id="file-icon/folder/desktop" transform="translate(1454.000000, 1460.000000)">
                <g id="Group" transform="translate(0.000000, 5.000000)">
                    <g id="Path">
                        <use fill="url(#linearGradient-1)" fill-rule="evenodd" xlink:href="#path-2"></use>
                        <use fill="black" fill-opacity="1" filter="url(#filter-3)" xlink:href="#path-2"></use>
                    </g>
                    <g id="Rectangle-28">
                        <use fill="black" fill-opacity="1" filter="url(#filter-6)" xlink:href="#path-5"></use>
                        <use fill="url(#linearGradient-4)" fill-rule="evenodd" xlink:href="#path-5"></use>
                    </g>
                    <path d="M2.5,12.5 L57.5,12.5 C58.8807119,12.5 60,13.6192881 60,15 L60,47.5 C60,48.8807119 58.8807119,50 57.5,50 L2.5,50 C1.11928813,50 -3.73034936e-13,48.8807119 -3.73034936e-13,47.5 L-3.73034936e-13,15 C-3.73034936e-13,13.6192881 1.11928813,12.5 2.5,12.5 Z" id="Rectangle-28" fill="url(#linearGradient-7)"></path>
                </g>
                <g id="Combined-Shape">
                    <use fill-opacity="0.3" fill="#000000" fill-rule="evenodd" xlink:href="#path-8"></use>
                    <use fill="black" fill-opacity="1" filter="url(#filter-9)" xlink:href="#path-8"></use>
                </g>
            </g>
        </g>
    </g>
</svg>