<?xml version="1.0" encoding="UTF-8"?>
<svg width="60px" height="60px" viewBox="0 0 60 60" version="1.1" xmlns="http://www.w3.org/2000/svg" xmlns:xlink="http://www.w3.org/1999/xlink">
    <title>96F0E329-86EE-4042-9E14-3B70D7776FCE</title>
    <defs>
        <linearGradient x1="17.1638403%" y1="29.0323413%" x2="65.9484863%" y2="64.5252046%" id="linearGradient-1">
            <stop stop-color="#5A88D5" offset="0%"></stop>
            <stop stop-color="#388DC7" offset="100%"></stop>
        </linearGradient>
        <path d="M-3.73034936e-13,37.5 L-3.73034936e-13,2.5 C-3.73034936e-13,1.11928813 1.11928813,0 2.5,0 L22.5,0 C23.8807119,0 25,1.11928813 25,2.5 L25,3.5 C25,4.32842712 25.6715729,5 26.5,5 L57.5,5 C58.8807119,5 60,6.11928813 60,7.5 L60,37.5 C60,38.8807119 58.8807119,40 57.5,40 L2.5,40 C1.11928813,40 -3.73034936e-13,38.8807119 -3.73034936e-13,37.5 Z" id="path-2"></path>
        <filter x="-0.8%" y="-1.2%" width="101.7%" height="102.5%" filterUnits="objectBoundingBox" id="filter-3">
            <feGaussianBlur stdDeviation="0.5" in="SourceAlpha" result="shadowBlurInner1"></feGaussianBlur>
            <feOffset dx="0" dy="0" in="shadowBlurInner1" result="shadowOffsetInner1"></feOffset>
            <feComposite in="shadowOffsetInner1" in2="SourceAlpha" operator="arithmetic" k2="-1" k3="1" result="shadowInnerInner1"></feComposite>
            <feColorMatrix values="0 0 0 0 1   0 0 0 0 1   0 0 0 0 1  0 0 0 0.2 0" type="matrix" in="shadowInnerInner1"></feColorMatrix>
        </filter>
        <linearGradient x1="50%" y1="0%" x2="50%" y2="37.9359007%" id="linearGradient-4">
            <stop stop-color="#FFFFFF" offset="0%"></stop>
            <stop stop-color="#C6C6C6" offset="100%"></stop>
        </linearGradient>
        <path d="M2.5,10 L57.5,10 C58.8807119,10 60,11.1192881 60,12.5 L60,15.5 C60,16.8807119 58.8807119,18 57.5,18 L2.5,18 C1.11928813,18 6.82121026e-13,16.8807119 6.82121026e-13,15.5 L6.82121026e-13,12.5 C6.82121026e-13,11.1192881 1.11928813,10 2.5,10 Z" id="path-5"></path>
        <filter x="-5.8%" y="-56.2%" width="111.7%" height="187.5%" filterUnits="objectBoundingBox" id="filter-6">
            <feOffset dx="0" dy="-1" in="SourceAlpha" result="shadowOffsetOuter1"></feOffset>
            <feGaussianBlur stdDeviation="1" in="shadowOffsetOuter1" result="shadowBlurOuter1"></feGaussianBlur>
            <feColorMatrix values="0 0 0 0 0   0 0 0 0 0   0 0 0 0 0  0 0 0 0.2 0" type="matrix" in="shadowBlurOuter1"></feColorMatrix>
        </filter>
        <linearGradient x1="17.1638403%" y1="31.5713937%" x2="61.1513265%" y2="67.606926%" id="linearGradient-7">
            <stop stop-color="#6B98E3" offset="0%"></stop>
            <stop stop-color="#4FABE8" offset="100%"></stop>
        </linearGradient>
        <path d="M29.7424437,30.0812411 L29.7424437,43.0945251 C29.7424437,44.164057 29.1104347,45.1325367 28.1314407,45.5631982 L25.3755692,46.7755119 C24.5193923,47.1521459 23.5200016,46.7633996 23.1433676,45.9072227 C23.0488226,45.6922997 23,45.4600657 23,45.2252665 L23,44.3899927 C23,43.3204608 23.6320091,42.3519811 24.611003,41.9213196 L27.1857027,40.7887038 C27.9199482,40.4657077 28.393955,39.7393478 28.393955,38.9371989 L28.393955,25.6742444 C28.393955,25.3018695 28.6958245,25 29.0681994,25 C29.2276721,25 29.381983,25.0565253 29.5037223,25.1595355 L35.5676463,30.2905481 C36.5662369,31.1355094 37.0946334,32.4111713 36.986001,33.7147593 L36.5408804,39.0562068 C36.5092314,39.4359949 36.1917476,39.7281222 35.8106431,39.7281222 L35.8106431,37.0921544 C35.8106431,35.9021782 35.2867258,34.7725568 34.3783144,34.0039009 L29.7424437,30.0812411 Z" id="path-8"></path>
        <filter x="-10.7%" y="-6.8%" width="121.4%" height="113.7%" filterUnits="objectBoundingBox" id="filter-9">
            <feGaussianBlur stdDeviation="1" in="SourceAlpha" result="shadowBlurInner1"></feGaussianBlur>
            <feOffset dx="0" dy="1" in="shadowBlurInner1" result="shadowOffsetInner1"></feOffset>
            <feComposite in="shadowOffsetInner1" in2="SourceAlpha" operator="arithmetic" k2="-1" k3="1" result="shadowInnerInner1"></feComposite>
            <feColorMatrix values="0 0 0 0 0   0 0 0 0 0   0 0 0 0 0  0 0 0 0.2 0" type="matrix" in="shadowInnerInner1"></feColorMatrix>
        </filter>
    </defs>
    <g id="UI" stroke="none" stroke-width="1" fill="none" fill-rule="evenodd">
        <g id="Icons" transform="translate(-1100.000000, -1460.000000)">
            <g id="file-icon/folder/music" transform="translate(1100.000000, 1460.000000)">
                <g id="Group" transform="translate(0.000000, 5.000000)">
                    <g id="Path">
                        <use fill="url(#linearGradient-1)" fill-rule="evenodd" xlink:href="#path-2"></use>
                        <use fill="black" fill-opacity="1" filter="url(#filter-3)" xlink:href="#path-2"></use>
                    </g>
                    <g id="Rectangle-28">
                        <use fill="black" fill-opacity="1" filter="url(#filter-6)" xlink:href="#path-5"></use>
                        <use fill="url(#linearGradient-4)" fill-rule="evenodd" xlink:href="#path-5"></use>
                    </g>
                    <path d="M2.5,12.5 L57.5,12.5 C58.8807119,12.5 60,13.6192881 60,15 L60,47.5 C60,48.8807119 58.8807119,50 57.5,50 L2.5,50 C1.11928813,50 -3.73034936e-13,48.8807119 -3.73034936e-13,47.5 L-3.73034936e-13,15 C-3.73034936e-13,13.6192881 1.11928813,12.5 2.5,12.5 Z" id="Rectangle-28" fill="url(#linearGradient-7)"></path>
                </g>
                <g id="Path">
                    <use fill-opacity="0.3" fill="#000000" fill-rule="evenodd" xlink:href="#path-8"></use>
                    <use fill="black" fill-opacity="1" filter="url(#filter-9)" xlink:href="#path-8"></use>
                </g>
            </g>
        </g>
    </g>
</svg>