<svg xmlns="http://www.w3.org/2000/svg" width="48" height="48" viewBox="0 0 48 48">
    <g fill="none" fill-rule="evenodd">
        <g>
            <path fill="#3986E1" d="M0 0h48v48H0z"/>
            <circle cx="24" cy="24" r="17" fill="#FFF"/>
            <circle cx="24" cy="24" r="13" fill="#3986E1"/>
            <path fill="#10FFCA" d="M24 13a1 1 0 0 1 1 1v4a1 1 0 0 1-2 0v-4a1 1 0 0 1 1-1z"/>
            <path fill="#3986E1" d="M24 8a1 1 0 1 1 0 2 1 1 0 0 1 0-2zm0 30a1 1 0 1 1 0 2 1 1 0 0 1 0-2zM9 23a1 1 0 1 1 0 2 1 1 0 0 1 0-2zm30 0a1 1 0 1 1 0 2 1 1 0 0 1 0-2zm-7-12.856a1 1 0 1 1-1 1.732 1 1 0 0 1 1-1.732zm-15 25.98a1 1 0 1 1-1 1.732 1 1 0 0 1 1-1.732zm-5.49-20.49a1 1 0 1 1-1 1.732 1 1 0 0 1 1-1.732zm25.98 15a1 1 0 1 1-1 1.732 1 1 0 0 1 1-1.732zM37.856 16a1 1 0 1 1-1.732 1 1 1 0 0 1 1.732-1zm-25.98 15a1 1 0 1 1-1.732 1 1 1 0 0 1 1.732-1zm5.49-20.49a1 1 0 1 1-1.732 1 1 1 0 0 1 1.732-1zm15 25.98a1 1 0 1 1-1.732 1 1 1 0 0 1 1.732-1z"/>
        </g>
        <path fill="#10FFCA" d="M24 6l2-3h-4z"/>
    </g>
</svg>
