<svg xmlns="http://www.w3.org/2000/svg" width="24" height="24" viewBox="0 0 24 24">
    <path fill="#FFF" fill-rule="nonzero" d="M10.976 11.552v.384c0 .992.096 1.92.24 2.768.912-.896 1.744-2.032 2.368-3.568h-.096a8.24 8.24 0 0 0-2.512.416zM8 16.448c.544 0 1.216-.24 1.92-.688a19.834 19.834 0 0 1-.352-3.568c-1.392.864-2.384 2.272-2.384 3.376 0 .592.256.88.816.88zm6.176-7.616l1.568.384c-.096.208-.208.592-.304.88 1.92.576 3.12 2.016 3.12 3.808 0 2.256-1.44 4.32-5.2 4.912l-.848-1.328c2.944-.32 4.48-1.824 4.48-3.664 0-1.088-.688-2.064-2-2.48-.88 2.208-2.144 3.904-3.424 4.992.112.432.24.848.368 1.232L10.48 18c-.08-.24-.16-.496-.224-.768C9.44 17.68 8.528 18 7.68 18c-1.104 0-2-.672-2-2.144 0-2.032 1.744-4.16 3.936-5.168.032-.736.096-1.472.16-2.16h-.768c-.752 0-1.984-.064-2.656-.112l-.048-1.472c.544.08 1.936.208 2.752.208h.864l.112-1.072c.016-.272.048-.608.032-.832l1.664.048c-.08.24-.144.528-.192.752-.064.304-.128.672-.192 1.056 1.984-.08 3.792-.288 5.472-.672l.016 1.472c-1.6.272-3.712.48-5.664.576-.048.544-.096 1.12-.144 1.712.848-.224 1.744-.352 2.528-.352.16 0 .304 0 .448.016.08-.288.16-.752.176-1.024z"/>
</svg>
