<svg width="48" height="48" viewBox="0 0 48 48" fill="none" xmlns="http://www.w3.org/2000/svg">
<path d="M0 5.6C0 4.71634 0.716344 4 1.6 4H13.662C14.6341 4 15.5535 4.44189 16.1608 5.20098L17.4392 6.79902C18.0465 7.55811 18.9659 8 19.938 8H46.4C47.2837 8 48 8.71634 48 9.6V42.4C48 43.2837 47.2837 44 46.4 44H1.6C0.716343 44 0 43.2837 0 42.4V5.6Z" fill="url(#paint0_linear_446_5981)"/>
<path d="M0 12H48V42.4C48 43.2837 47.2837 44 46.4 44H1.6C0.716343 44 0 43.2837 0 42.4V12Z" fill="url(#paint1_linear_446_5981)"/>
<path opacity="0.4" d="M0 12H48V13H0V12Z" fill="url(#paint2_linear_446_5981)" fill-opacity="0.9"/>
<path d="M47.6 9.6V42.4C47.6 43.0627 47.0627 43.6 46.4 43.6H1.6C0.937257 43.6 0.4 43.0627 0.4 42.4V5.6C0.4 4.93726 0.937258 4.4 1.6 4.4H13.662C14.5126 4.4 15.3171 4.78665 15.8484 5.45085L17.1269 7.0489C17.8101 7.90288 18.8444 8.4 19.938 8.4H46.4C47.0627 8.4 47.6 8.93726 47.6 9.6Z" stroke="black" stroke-opacity="0.03" stroke-width="0.8"/>
<defs>
<linearGradient id="paint0_linear_446_5981" x1="36" y1="34.625" x2="19.6597" y2="3.99863" gradientUnits="userSpaceOnUse">
<stop offset="0.0046461" stop-color="#79C0FB"/>
<stop offset="1" stop-color="#6796FF"/>
</linearGradient>
<linearGradient id="paint1_linear_446_5981" x1="31.2" y1="46" x2="24.7091" y2="-4.29837" gradientUnits="userSpaceOnUse">
<stop offset="0.0046461" stop-color="#79C0FB"/>
<stop offset="1" stop-color="#6796FF"/>
</linearGradient>
<linearGradient id="paint2_linear_446_5981" x1="46.2857" y1="12.7946" x2="46.2449" y2="9.07829" gradientUnits="userSpaceOnUse">
<stop stop-color="white"/>
<stop offset="1" stop-color="white" stop-opacity="0.44"/>
</linearGradient>
</defs>
</svg>
