<svg width="48" height="48" viewBox="0 0 48 48" fill="none" xmlns="http://www.w3.org/2000/svg">
<path d="M5.19199 4.1758C5.0888 3.00638 6.0103 2 7.18425 2H40.8157C41.9897 2 42.9112 3.00639 42.808 4.1758L39.3588 43.2637C39.2222 44.8123 37.9251 46 36.3705 46H11.6295C10.0749 46 8.77781 44.8123 8.64115 43.2637L5.19199 4.1758Z" fill="url(#paint0_linear_248_5781)"/>
<path fill-rule="evenodd" clip-rule="evenodd" d="M32.2196 30.0001L29.5716 25.4261L32.2221 24.0167L34.8159 28.497C35.9738 30.497 34.5306 33.0001 32.2196 33.0001H29L29 35.0002L23 31.5001L29.0001 28.0001L29.0001 30.0001L32.2196 30.0001ZM28.0757 16.8549L26.7047 14.4866C25.5492 12.4908 22.6676 12.4908 21.5121 14.4866L18.9591 18.8965L21.6096 20.3059L24.1084 15.9897L25.4844 18.3665L24.0156 19.2232L30.0156 22.7232L30.0157 15.7232L28.0757 16.8549ZM21.0002 30.0001L15.9972 30.0001L17.3118 27.7293L19.0156 28.7232L19.0157 21.7232L13.0156 25.2232L14.7205 26.2177L13.4009 28.497C12.243 30.4969 13.6862 33.0001 15.9972 33.0001H21.0002V30.0001Z" fill="white"/>
<defs>
<linearGradient id="paint0_linear_248_5781" x1="-43.0938" y1="-89.3846" x2="100.133" y2="11.1182" gradientUnits="userSpaceOnUse">
<stop stop-color="#188392"/>
<stop offset="1" stop-color="#ADFF87"/>
</linearGradient>
</defs>
</svg>
