<svg xmlns="http://www.w3.org/2000/svg" width="60" height="60" viewBox="0 0 60 60">
    <g fill="none" fill-rule="evenodd">
        <path fill="#FFF" fill-rule="nonzero" d="M52.789 3.39c2.694 54.606 2.693 54.72-44.853 53.22C5.242 2.005 5.244 1.89 52.79 3.39z"/>
        <path fill="#2998D2" fill-rule="nonzero" d="M25.49 4.887c-6.525.641-10.401 2.164-12.82 5.04-2.455 2.919-3.687 7.549-4.05 15.191-.298 6.286-.118 12.402.746 30.036 15.06.467 20.463.49 25.869-.04 6.525-.642 10.401-2.165 12.82-5.04 2.455-2.92 3.687-7.55 4.05-15.192.298-6.286.118-12.401-.747-30.036-15.058-.467-20.462-.49-25.868.04zM52.79 3.39c2.694 54.606 2.693 54.72-44.853 53.22C5.242 2.005 5.244 1.89 52.79 3.39z"/>
        <path fill="#2998D2" d="M44.986 47.865H15v-1.58h30v1.58h-.014zm0-4.286H15V42h30v1.579h-.014zm0-4.286H15v-1.579h30v1.58h-.014zm0-4.285h-13.52v-1.58H45v1.58h-.014zm0-4.286h-13.52v-1.58H45v1.58h-.014zm0-4.286h-13.52v-1.579H45v1.58h-.014zm0-4.286h-13.52v-1.579H45v1.58h-.014zm0-4.285H15v-1.58h30v1.58h-.014zm0-4.286H15V12h30v1.579h-.014zM15 20.57h13.534v14.437H15V20.57zm1.579 1.58h10.376v11.278H16.579V22.15z"/>
    </g>
</svg>
