<?xml version="1.0" encoding="utf-8"?>
<!-- Generator: Adobe Illustrator 16.0.0, SVG Export Plug-In . SVG Version: 6.00 Build 0)  -->
<!DOCTYPE svg PUBLIC "-//W3C//DTD SVG 1.1//EN" "http://www.w3.org/Graphics/SVG/1.1/DTD/svg11.dtd">
<svg version="1.1" id="레이어_1" xmlns="http://www.w3.org/2000/svg" xmlns:xlink="http://www.w3.org/1999/xlink" x="0px"
	 y="0px" width="256px" height="256px" viewBox="0 0 256 256" enable-background="new 0 0 256 256" xml:space="preserve">
<path fill="#76949F" d="M256,236c0,11.047-8.954,20-20,20H20c-11.046,0-20-8.953-20-20V20C0,8.956,8.954,0,20,0h216
	c11.046,0,20,8.955,20,20V236z"/>
<g>
	<line fill="none" stroke="#FFFFFF" stroke-width="10" stroke-miterlimit="10" x1="41.75" y1="77.87" x2="105.204" y2="77.87"/>
	<line fill="none" stroke="#FFFFFF" stroke-width="10" stroke-miterlimit="10" x1="150.795" y1="77.87" x2="214.25" y2="77.87"/>
	<line fill="none" stroke="#FFFFFF" stroke-width="10" stroke-miterlimit="10" x1="73.477" y1="46.143" x2="73.477" y2="109.597"/>
	<line fill="none" stroke="#FFFFFF" stroke-width="10" stroke-miterlimit="10" x1="48.042" y1="159.624" x2="92.912" y2="204.493"/>
	<line fill="none" stroke="#FFFFFF" stroke-width="10" stroke-miterlimit="10" x1="92.912" y1="159.624" x2="48.042" y2="204.492"/>
	
		<line fill="none" stroke="#FFFFFF" stroke-width="10" stroke-miterlimit="10" x1="159.987" y1="204.391" x2="204.856" y2="159.522"/>
	<path fill="#FFFFFF" d="M170.092,156.895c3.515,3.515,3.516,9.217,0,12.732s-9.219,3.515-12.733,0
		c-3.515-3.515-3.516-9.217,0-12.732C160.875,153.378,166.577,153.379,170.092,156.895"/>
	<path fill="#FFFFFF" d="M207.686,194.488c3.516,3.515,3.516,9.217,0,12.733c-3.518,3.516-9.219,3.515-12.732,0
		c-3.516-3.516-3.517-9.219,0-12.733C198.468,190.972,204.17,190.973,207.686,194.488"/>
</g>
</svg>
