<?xml version="1.0" encoding="utf-8"?>
<!-- Generator: Adobe Illustrator 16.0.0, SVG Export Plug-In . SVG Version: 6.00 Build 0)  -->
<!DOCTYPE svg PUBLIC "-//W3C//DTD SVG 1.1//EN" "http://www.w3.org/Graphics/SVG/1.1/DTD/svg11.dtd">
<svg version="1.1" id="레이어_1" xmlns="http://www.w3.org/2000/svg" xmlns:xlink="http://www.w3.org/1999/xlink" x="0px"
	 y="0px" width="256px" height="256px" viewBox="0 0 256 256" enable-background="new 0 0 256 256" xml:space="preserve">
<path fill="#67BEDE" d="M256.066,235.934c0,11.046-8.955,20-20,20h-216c-11.046,0-20-8.954-20-20V19.933c0-11.045,8.954-20,20-20
	h216c11.045,0,20,8.955,20,20V235.934z"/>
<g>
	
		<line fill="none" stroke="#FFFFFF" stroke-width="10" stroke-miterlimit="10" x1="193.239" y1="197.177" x2="193.239" y2="148.442"/>
	<polyline fill="none" stroke="#FFFFFF" stroke-width="10" stroke-miterlimit="10" points="213.922,166.625 193.306,146.007 
		172.522,166.791 	"/>
	<path fill="none" stroke="#FFFFFF" stroke-width="10" stroke-miterlimit="10" d="M77.277,179.313h81.641
		c0.164,0.002,0.329,0,0.496,0 M210.761,132.334c0-20.348-10.576-34.715-34.071-34.715c-5.286-22.325-25.287-38.929-49.155-38.929
		c-26.71,0-48.578,20.797-50.399,47.131c-19.441,0.904-34.927,17-34.927,36.728c0,19.978,15.877,36.238,35.664,36.765"/>
</g>
</svg>
