<?xml version="1.0" encoding="utf-8"?>
<!-- Generator: Adobe Illustrator 16.0.0, SVG Export Plug-In . SVG Version: 6.00 Build 0)  -->
<!DOCTYPE svg PUBLIC "-//W3C//DTD SVG 1.1//EN" "http://www.w3.org/Graphics/SVG/1.1/DTD/svg11.dtd">
<svg version="1.1" id="레이어_1" xmlns="http://www.w3.org/2000/svg" xmlns:xlink="http://www.w3.org/1999/xlink" x="0px"
	 y="0px" width="256px" height="256px" viewBox="0 0 256 256" enable-background="new 0 0 256 256" xml:space="preserve">
<path fill="#65A9DD" d="M257,236c0,11.045-8.954,20-20,20H21c-11.046,0-20-8.955-20-20V20C1,8.954,9.954,0,21,0h216
	c11.046,0,20,8.954,20,20V236z"/>
<g>
	<path fill-rule="evenodd" clip-rule="evenodd" fill="#9DC6EA" d="M79.84,82.435c0,0-3.719,59.741,47.982,92.476l6.107,3.49
		c0,0-17.869,3.652-19.193,3.49c-0.722-0.09-13.257,0.961-25.301-3.49c-10.078-3.725-20.065-15.703-20.065-15.703
		S47.934,134.73,47.489,93.347c-0.016-1.41,2.654,0.125,2.689-1.316c0.011-0.465,0.855-2.148,0.872-2.617
		c15.277-10.177,25.3-10.469,25.3-10.469"/>
	<path fill-rule="evenodd" clip-rule="evenodd" fill="#FFFFFF" d="M72.454,57.37c0,0,14.304-14.393,30.535-15.703
		c16.23-1.31,39.187-2.375,54.962,0.872c15.775,3.248,19.727,6.918,27.043,13.959c7.318,7.041,26.367,29.546,25.301,34.896
		c-0.857,2.426-1.813,3.103-4.361,2.617c-2.551-0.486-26.918-13.958-72.411-13.958c-45.493,0-70.481,9.75-82.879,15.703
		c0,0-2.148,1.14-2.617,1.745c-0.727,0.939-0.705-4.876,0-7.852C49.855,81.929,69.043,60.391,72.454,57.37z"/>
	<path fill-rule="evenodd" clip-rule="evenodd" fill="#9DC6EA" d="M181.182,110.248c0,0-11.609,40.831-44.442,62.555l-6.103,3.488
		c0,0,17.853,1.035,19.176,0.871c0.764-0.094,17.154,1.146,29.68-3.488c9.191-3.402,15.643-13.078,15.643-13.078
		s11.605-15.31,15.203-35.23"/>
	<g>
		<g>
			<path fill="#FFFFFF" d="M196.26,159.041c-4.723,4.656-33.43,16.617-66.816,16.617c-33.389,0-61.428-14.869-61.428-14.869
				c1.14,2.138,2.708,4.441,4.594,6.844c11.04,16.896,41.811,40.98,51.241,45.498c10.073,4.826,13.686,1.521,17.448-0.873
				c29.92-16.796,47.563-42.88,51.847-49.021C194.636,161.276,195.688,159.813,196.26,159.041z"/>
		</g>
	</g>
	<path fill="#FFFFFF" d="M138.765,103.871c0,0-6.106-0.283-6.106,5.235c0,5.517,0,18.321,0,18.321s-0.609,6.107,4.362,6.107
		c4.971,0,37.093,0.573,63.685,18.32c10.84-19.333,9.598-23.555,9.598-23.555s1.807-5.059-5.234-8.724
		C199.682,116.771,173.703,104.192,138.765,103.871z"/>
</g>
</svg>
