<?xml version="1.0" encoding="utf-8"?>
<!-- Generator: Adobe Illustrator 16.0.0, SVG Export Plug-In . SVG Version: 6.00 Build 0)  -->
<!DOCTYPE svg PUBLIC "-//W3C//DTD SVG 1.1//EN" "http://www.w3.org/Graphics/SVG/1.1/DTD/svg11.dtd">
<svg version="1.1" id="레이어_1" xmlns="http://www.w3.org/2000/svg" xmlns:xlink="http://www.w3.org/1999/xlink" x="0px"
	 y="0px" width="256px" height="256px" viewBox="0 0 256 256" enable-background="new 0 0 256 256" xml:space="preserve">
<path fill="#7BBE60" d="M256,236c0,11.047-8.953,20-20,20H20c-11.046,0-20-8.953-20-20V20C0,8.955,8.954,0,20,0h216
	c11.047,0,20,8.955,20,20V236z"/>
<g>
	<path fill="none" stroke="#FFFFFF" stroke-width="10" stroke-miterlimit="10" d="M132.61,214.395
		c-13.843,0.75-28.065-1.824-41.486-8.148c-43.213-20.365-61.738-71.908-41.371-115.12c20.365-43.216,71.907-61.738,115.122-41.373
		c43.214,20.366,61.738,71.906,41.371,115.121c-7.207,15.292-18.316,27.491-31.58,35.969"/>
	<g>
		<path fill="none" stroke="#FFFFFF" stroke-width="10" stroke-linecap="round" stroke-linejoin="round" stroke-miterlimit="10" d="
			M128,84.198"/>
	</g>
	<polyline fill="none" stroke="#FFFFFF" stroke-width="10" stroke-linejoin="round" stroke-miterlimit="10" points="
		127.627,184.519 127.627,87.876 90.479,125.023 	"/>
	
		<line fill="none" stroke="#FFFFFF" stroke-width="10" stroke-linejoin="round" stroke-miterlimit="10" x1="164.627" y1="125.024" x2="127.479" y2="87.877"/>
</g>
</svg>
