<?xml version="1.0" encoding="utf-8"?>
<!-- Generator: Adobe Illustrator 16.0.0, SVG Export Plug-In . SVG Version: 6.00 Build 0)  -->
<!DOCTYPE svg PUBLIC "-//W3C//DTD SVG 1.1//EN" "http://www.w3.org/Graphics/SVG/1.1/DTD/svg11.dtd">
<svg version="1.1" id="레이어_1" xmlns="http://www.w3.org/2000/svg" xmlns:xlink="http://www.w3.org/1999/xlink" x="0px"
	 y="0px" width="256px" height="256px" viewBox="0 0 256 256" enable-background="new 0 0 256 256" xml:space="preserve">
<path fill="#4AAED7" d="M256,236c0,11.045-8.955,20-20,20H20c-11.046,0-20-8.955-20-20V20C0,8.954,8.954,0,20,0h216
	c11.045,0,20,8.954,20,20V236z"/>
<g>
	<path fill="none" stroke="#FFFFFF" stroke-width="10" stroke-miterlimit="10" d="M120.777,170.528H76.477
		c-11.938,0-21.616-9.672-21.616-21.616V71.093c0-11.943,9.678-21.621,21.616-21.621h103.047c11.936,0,21.615,9.678,21.615,21.621
		v77.819c0,11.944-9.679,21.616-21.615,21.616h-21.606"/>
	
		<line fill="none" stroke="#FFFFFF" stroke-width="10" stroke-miterlimit="10" x1="152.917" y1="206.528" x2="117.139" y2="169.028"/>
	<line fill="none" stroke="#FFFFFF" stroke-width="10" stroke-miterlimit="10" x1="88.249" y1="95.028" x2="167.749" y2="95.028"/>
	
		<line fill="none" stroke="#FFFFFF" stroke-width="10" stroke-miterlimit="10" x1="88.249" y1="123.028" x2="125.749" y2="123.028"/>
</g>
</svg>
