<?xml version="1.0" encoding="utf-8"?>
<!-- Generator: Adobe Illustrator 16.0.0, SVG Export Plug-In . SVG Version: 6.00 Build 0)  -->
<!DOCTYPE svg PUBLIC "-//W3C//DTD SVG 1.1//EN" "http://www.w3.org/Graphics/SVG/1.1/DTD/svg11.dtd">
<svg version="1.1" id="레이어_1" xmlns="http://www.w3.org/2000/svg" xmlns:xlink="http://www.w3.org/1999/xlink" x="0px"
	 y="0px" width="256px" height="256px" viewBox="0 0 256 256" enable-background="new 0 0 256 256" xml:space="preserve">
<path fill="#4AAED7" d="M256,236c0,11.047-8.953,20-20,20H20c-11.046,0-20-8.953-20-20V20C0,8.955,8.954,0,20,0h216
	c11.047,0,20,8.955,20,20V236z"/>
<g>
	<path fill="none" stroke="#FFFFFF" stroke-width="10" stroke-miterlimit="10" d="M156.088,151.654
		c0,13.314-10.793,24.105-24.106,24.105H61.047c-13.314,0-24.106-10.791-24.106-24.105v-47.309
		c0-13.313,10.792-24.105,24.106-24.105h70.935c13.313,0,24.106,10.792,24.106,24.105V151.654z"/>
	<path fill="none" stroke="#FFFFFF" stroke-width="10" stroke-miterlimit="10" d="M211.433,86.096c-2.281,0-4.688,0.021-6.719,1.209
		c-1.424,0.834-2.789,1.85-4.016,2.936c-1.258,1.114-2.469,2.171-3.787,3.206c-1.994,1.566-3.971,3.155-5.957,4.732
		c-3.611,2.867-7.224,5.73-10.836,8.594c-0.258,0.205-2.263,1.442-2.263,1.798v0.566v37.16v0.566
		c0.806,0.64,1.615,1.276,2.421,1.916c1.927,1.528,3.859,3.053,5.778,4.591c2.351,1.884,4.718,3.744,7.071,5.624
		c2.107,1.685,4.207,3.394,6.346,5.039c1.711,1.315,3.317,2.79,5.201,3.864c2.131,1.216,4.346,1.44,6.76,1.44
		c7.627,0,7.627-7.135,7.627-15.519v-25.441v-1.323v-25.44C219.06,93.23,219.06,86.096,211.433,86.096z"/>
</g>
</svg>
