<?xml version="1.0" encoding="utf-8"?>
<!-- Generator: Adobe Illustrator 16.0.0, SVG Export Plug-In . SVG Version: 6.00 Build 0)  -->
<!DOCTYPE svg PUBLIC "-//W3C//DTD SVG 1.1//EN" "http://www.w3.org/Graphics/SVG/1.1/DTD/svg11.dtd">
<svg version="1.1" id="레이어_1" xmlns="http://www.w3.org/2000/svg" xmlns:xlink="http://www.w3.org/1999/xlink" x="0px"
	 y="0px" width="256px" height="256px" viewBox="0 0 256 256" enable-background="new 0 0 256 256" xml:space="preserve">
<path fill="#5B9AC3" d="M256,236c0,11.047-8.955,20-20,20H20c-11.047,0-20-8.953-20-20V20C0,8.955,8.953,0,20,0h216
	c11.045,0,20,8.954,20,20V236z"/>
<g>
	<path fill="none" stroke="#FFFFFF" stroke-width="10" stroke-linecap="round" stroke-linejoin="round" stroke-miterlimit="10" d="
		M142.271,167.439l-32.01-20.867v-8.888c8.366-7.729,13.459-23.573,8.73-43.281C114.5,75.686,95.107,74.047,93.165,73.929V73.92
		c0,0-0.033,0.001-0.085,0.005c-0.052-0.004-0.085-0.005-0.085-0.005v0.009c-1.942,0.118-21.335,1.757-25.827,20.474
		c-4.729,19.708,0.364,35.552,8.73,43.281v8.888l-32.01,20.867c0,0-6.547,3.478-6.547,10.821c0,7.342,0,19.708,0,19.708h55.654h0.17
		h55.653c0,0,0-12.366,0-19.708C148.818,170.917,142.271,167.439,142.271,167.439z"/>
	<path fill="none" stroke="#FFFFFF" stroke-width="10" stroke-linejoin="round" stroke-miterlimit="10" d="M141.183,167.252
		L141.183,167.252h77.477c0,0,0-10.887,0-17.352c0-6.467-5.766-9.528-5.766-9.528L184.711,122v-7.826
		c7.366-6.806,11.85-20.756,7.687-38.107c-3.955-16.479-21.029-17.922-22.739-18.026v-0.008c0,0-0.029,0.001-0.075,0.004
		c-0.046-0.003-0.075-0.004-0.075-0.004v0.008c-1.709,0.104-18.785,1.547-22.74,18.026c-4.163,17.352,0.321,31.302,7.687,38.107V122
		l-16.893,13.651"/>
</g>
</svg>
