<?xml version="1.0" encoding="utf-8"?>
<!-- Generator: Adobe Illustrator 16.0.0, SVG Export Plug-In . SVG Version: 6.00 Build 0)  -->
<!DOCTYPE svg PUBLIC "-//W3C//DTD SVG 1.1//EN" "http://www.w3.org/Graphics/SVG/1.1/DTD/svg11.dtd">
<svg version="1.1" id="레이어_1" xmlns="http://www.w3.org/2000/svg" xmlns:xlink="http://www.w3.org/1999/xlink" x="0px"
	 y="0px" width="256px" height="256px" viewBox="0 0 256 256" enable-background="new 0 0 256 256" xml:space="preserve">
<path fill="#33B59D" d="M256,236c0,11.047-8.953,20-20,20H20c-11.046,0-20-8.953-20-20V20C0,8.954,8.954,0,20,0h216
	c11.047,0,20,8.954,20,20V236z"/>
<g>
	<path fill="none" stroke="#FFFFFF" stroke-width="10" stroke-linejoin="round" stroke-miterlimit="10" d="M56.161,100.427
		c0,3.513-1.402,31.448,10.342,61.224c11.743,29.776,44.609,51.188,53.285,56.456c3.308,2.008,6.063,2.543,8.213,2.439
		c2.148,0.104,4.903-0.432,8.211-2.439c8.676-5.268,41.543-26.68,53.287-56.456c11.742-29.776,10.34-57.711,10.34-61.224V70.483
		c0,0,0.265-4.182-4.818-6.355c-5.084-2.176-59.422-16.979-59.422-16.979s-3.243-0.964-7.379-0.961
		c-0.073-0.002-0.147-0.001-0.219-0.002c-0.074,0.001-0.146,0-0.221,0.002c-4.134-0.003-7.379,0.961-7.379,0.961
		s-54.337,14.804-59.42,16.979"/>
	<path fill="none" stroke="#FFFFFF" stroke-width="10" stroke-miterlimit="10" d="M144.458,107.644
		c0-9.089-7.368-16.458-16.458-16.458c-9.089,0-16.458,7.369-16.458,16.458c0,6.335,3.586,11.827,8.834,14.577v21.29
		c0,2.149,1.743,3.892,3.892,3.892h6.766c2.15,0,3.892-1.742,3.892-3.892v-20.954C140.55,119.94,144.458,114.254,144.458,107.644z"
		/>
</g>
</svg>
