<?xml version="1.0" encoding="utf-8"?>
<!-- Generator: Adobe Illustrator 16.0.0, SVG Export Plug-In . SVG Version: 6.00 Build 0)  -->
<!DOCTYPE svg PUBLIC "-//W3C//DTD SVG 1.1//EN" "http://www.w3.org/Graphics/SVG/1.1/DTD/svg11.dtd">
<svg version="1.1" id="레이어_1" xmlns="http://www.w3.org/2000/svg" xmlns:xlink="http://www.w3.org/1999/xlink" x="0px"
	 y="0px" width="256px" height="256px" viewBox="0 0 256 256" enable-background="new 0 0 256 256" xml:space="preserve">
<path fill="#57A1AD" d="M256,236c0,11.047-8.955,20-20,20H20c-11.047,0-20-8.953-20-20V20C0,8.955,8.953,0,20,0h216
	c11.045,0,20,8.955,20,20V236z"/>
<g>
	
		<line fill="none" stroke="#FFFFFF" stroke-width="10" stroke-miterlimit="10" x1="36.083" y1="205.329" x2="219.917" y2="205.329"/>
	<path fill="none" stroke="#FFFFFF" stroke-width="10" stroke-miterlimit="10" d="M107.494,205.329V56.791
		c0-3.381,2.739-6.121,6.121-6.121h28.77c3.381,0,6.121,2.74,6.121,6.121v148.538"/>
	<path fill="none" stroke="#FFFFFF" stroke-width="10" stroke-miterlimit="10" d="M148.506,205.329v-97.12
		c0-3.381,2.739-6.121,6.121-6.121h28.77c3.381,0,6.121,2.74,6.121,6.121v71.709"/>
	<path fill="none" stroke="#FFFFFF" stroke-width="10" stroke-miterlimit="10" d="M66.482,205.329v-66.208
		c0-3.381,2.74-6.121,6.121-6.121h28.77c3.381,0,6.121,2.74,6.121,6.121v66.208"/>
</g>
</svg>
