<?xml version="1.0" encoding="utf-8"?>
<!-- Generator: Adobe Illustrator 16.0.0, SVG Export Plug-In . SVG Version: 6.00 Build 0)  -->
<!DOCTYPE svg PUBLIC "-//W3C//DTD SVG 1.1//EN" "http://www.w3.org/Graphics/SVG/1.1/DTD/svg11.dtd">
<svg version="1.1" id="레이어_1" xmlns="http://www.w3.org/2000/svg" xmlns:xlink="http://www.w3.org/1999/xlink" x="0px"
	 y="0px" width="256px" height="256px" viewBox="0 0 256 256" enable-background="new 0 0 256 256" xml:space="preserve">
<path fill="#686D7E" d="M256,236c0,11.047-8.954,20-20,20H20c-11.046,0-20-8.953-20-20V20C0,8.956,8.954,0,20,0h216
	c11.046,0,20,8.955,20,20V236z"/>
<g>
	<path fill="none" stroke="#FFFFFF" stroke-width="10" stroke-linecap="round" stroke-linejoin="round" stroke-miterlimit="10" d="
		M218.613,104.472c0,2.478-2.009,4.484-4.484,4.484h-59.864c-2.477,0-4.484-2.007-4.484-4.484V44.609
		c0-2.477,2.007-4.484,4.484-4.484h59.864c2.476,0,4.484,2.008,4.484,4.484V104.472z"/>
	<path fill="none" stroke="#FFFFFF" stroke-width="10" stroke-linecap="round" stroke-linejoin="round" stroke-miterlimit="10" d="
		M218.613,212.815c0,2.477-2.009,4.484-4.484,4.484h-59.864c-2.477,0-4.484-2.008-4.484-4.484v-59.863
		c0-2.477,2.007-4.484,4.484-4.484h59.864c2.476,0,4.484,2.008,4.484,4.484V212.815z"/>
	<path fill="none" stroke="#FFFFFF" stroke-width="10" stroke-linecap="round" stroke-linejoin="round" stroke-miterlimit="10" d="
		M77.928,113.263c-1.491,1.491-3.908,1.491-5.397,0L36.506,77.241c-1.491-1.49-1.491-3.907,0-5.399l36.025-36.022
		c1.489-1.49,3.905-1.49,5.397-0.001l36.024,36.023c1.491,1.492,1.491,3.909,0,5.399L77.928,113.263z"/>
	<path fill="none" stroke="#FFFFFF" stroke-width="10" stroke-linecap="round" stroke-linejoin="round" stroke-miterlimit="10" d="
		M109.646,212.813c0,2.477-2.008,4.484-4.484,4.484H45.297c-2.477,0-4.484-2.008-4.484-4.484V152.95
		c0-2.477,2.007-4.484,4.484-4.484h59.864c2.476,0,4.484,2.008,4.484,4.484V212.813z"/>
</g>
</svg>
