<?xml version="1.0" encoding="utf-8"?>
<!-- Generator: Adobe Illustrator 16.0.0, SVG Export Plug-In . SVG Version: 6.00 Build 0)  -->
<!DOCTYPE svg PUBLIC "-//W3C//DTD SVG 1.1//EN" "http://www.w3.org/Graphics/SVG/1.1/DTD/svg11.dtd">
<svg version="1.1" id="레이어_1" xmlns="http://www.w3.org/2000/svg" xmlns:xlink="http://www.w3.org/1999/xlink" x="0px"
	 y="0px" width="256px" height="256px" viewBox="0 0 256 256" enable-background="new 0 0 256 256" xml:space="preserve">
<path fill="#4AA4C8" d="M256,236c0,11.047-8.955,20-20,20H20c-11.047,0-20-8.953-20-20V20C0,8.954,8.953,0,20,0h216
	c11.045,0,20,8.954,20,20V236z"/>
<g>
	
		<line fill="none" stroke="#FFFFFF" stroke-width="10" stroke-miterlimit="10" x1="212.725" y1="106.852" x2="78.742" y2="106.852"/>
	<path fill="none" stroke="#FFFFFF" stroke-width="10" stroke-miterlimit="10" d="M39.689,210.25h164.083
		c6.924,0,12.538-5.611,12.538-12.537V82.41c0-6.925-5.614-12.539-12.538-12.539h-78.259L112.868,45.75H43.286
		c-1.731,0-3.135,1.404-3.135,3.136V82.41v83.825v13.478"/>
</g>
</svg>
