<?xml version="1.0" encoding="UTF-8"?>
<svg width="48px" height="48px" viewBox="0 0 48 48" version="1.1" xmlns="http://www.w3.org/2000/svg" xmlns:xlink="http://www.w3.org/1999/xlink">
    <title>24A518AA-5254-4AF2-A220-E0DF11299A0B</title>
    <defs>
        <linearGradient x1="0%" y1="0%" x2="101.999998%" y2="100.999999%" id="linearGradient-1">
            <stop stop-color="#AE2323" offset="0%"></stop>
            <stop stop-color="#954FD2" offset="100%"></stop>
        </linearGradient>
        <path d="M20,0 L28,0 C39.045695,0 48,8.954305 48,20 L48,28 C48,39.045695 39.045695,48 28,48 L20,48 C8.954305,48 0,39.045695 0,28 L0,20 C0,8.954305 8.954305,0 20,0 Z" id="path-2"></path>
        <filter x="-4.2%" y="-4.2%" width="108.3%" height="108.3%" filterUnits="objectBoundingBox" id="filter-3">
            <feMorphology radius="2" operator="erode" in="SourceAlpha" result="shadowSpreadInner1"></feMorphology>
            <feGaussianBlur stdDeviation="1" in="shadowSpreadInner1" result="shadowBlurInner1"></feGaussianBlur>
            <feOffset dx="0" dy="0" in="shadowBlurInner1" result="shadowOffsetInner1"></feOffset>
            <feComposite in="shadowOffsetInner1" in2="SourceAlpha" operator="arithmetic" k2="-1" k3="1" result="shadowInnerInner1"></feComposite>
            <feColorMatrix values="0 0 0 0 1   0 0 0 0 1   0 0 0 0 1  0 0 0 0.1 0" type="matrix" in="shadowInnerInner1"></feColorMatrix>
        </filter>
        <path d="M27,22 C28.6568542,22 30,23.3431458 30,25 L30,37 C30,38.6568542 28.6568542,40 27,40 L21,40 C19.3431458,40 18,38.6568542 18,37 L18,25 C18,23.3431458 19.3431458,22 21,22 L27,22 Z M27,35 L21,35 C20.4871642,35 20.0644928,35.3860402 20.0067277,35.8833789 L20,36 L20,37 C20,37.5128358 20.3860402,37.9355072 20.8833789,37.9932723 L21,38 L27,38 C27.5128358,38 27.9355072,37.6139598 27.9932723,37.1166211 L28,37 L28,36 C28,35.4477153 27.5522847,35 27,35 Z M23.5,18 C23.7761424,18 24,18.2238576 24,18.5 L24,19.5 C24,19.7761424 23.7761424,20 23.5,20 L18.5,20 C18.2238576,20 18,19.7761424 18,19.5 L18,18.5 C18,18.2238576 18.2238576,18 18.5,18 L23.5,18 Z M29.5,16 C29.7761424,16 30,16.2238576 30,16.5 L30,17.5 C30,17.7761424 29.7761424,18 29.5,18 L24.5,18 C24.2238576,18 24,17.7761424 24,17.5 L24,16.5 C24,16.2238576 24.2238576,16 24.5,16 L29.5,16 Z M23.5,14 C23.7761424,14 24,14.2238576 24,14.5 L24,15.5 C24,15.7761424 23.7761424,16 23.5,16 L18.5,16 C18.2238576,16 18,15.7761424 18,15.5 L18,14.5 C18,14.2238576 18.2238576,14 18.5,14 L23.5,14 Z M29.5,12 C29.7761424,12 30,12.2238576 30,12.5 L30,13.5 C30,13.7761424 29.7761424,14 29.5,14 L24.5,14 C24.2238576,14 24,13.7761424 24,13.5 L24,12.5 C24,12.2238576 24.2238576,12 24.5,12 L29.5,12 Z M23.5,10 C23.7761424,10 24,10.2238576 24,10.5 L24,11.5 C24,11.7761424 23.7761424,12 23.5,12 L18.5,12 C18.2238576,12 18,11.7761424 18,11.5 L18,10.5 C18,10.2238576 18.2238576,10 18.5,10 L23.5,10 Z M29.5,8 C29.7761424,8 30,8.22385763 30,8.5 L30,9.5 C30,9.77614237 29.7761424,10 29.5,10 L24.5,10 C24.2238576,10 24,9.77614237 24,9.5 L24,8.5 C24,8.22385763 24.2238576,8 24.5,8 L29.5,8 Z M23.5,6 C23.7761424,6 24,6.22385763 24,6.5 L24,7.5 C24,7.77614237 23.7761424,8 23.5,8 L18.5,8 C18.2238576,8 18,7.77614237 18,7.5 L18,6.5 C18,6.22385763 18.2238576,6 18.5,6 L23.5,6 Z M29.5,4 C29.7761424,4 30,4.22385763 30,4.5 L30,5.5 C30,5.77614237 29.7761424,6 29.5,6 L24.5,6 C24.2238576,6 24,5.77614237 24,5.5 L24,4.5 C24,4.22385763 24.2238576,4 24.5,4 L29.5,4 Z M23.5,2 C23.7761424,2 24,2.22385763 24,2.5 L24,3.5 C24,3.77614237 23.7761424,4 23.5,4 L18.5,4 C18.2238576,4 18,3.77614237 18,3.5 L18,2.5 C18,2.22385763 18.2238576,2 18.5,2 L23.5,2 Z" id="path-4"></path>
        <filter x="-16.7%" y="-2.6%" width="133.3%" height="110.5%" filterUnits="objectBoundingBox" id="filter-5">
            <feOffset dx="0" dy="1" in="SourceAlpha" result="shadowOffsetOuter1"></feOffset>
            <feGaussianBlur stdDeviation="0.5" in="shadowOffsetOuter1" result="shadowBlurOuter1"></feGaussianBlur>
            <feColorMatrix values="0 0 0 0 0   0 0 0 0 0   0 0 0 0 0  0 0 0 0.3 0" type="matrix" in="shadowBlurOuter1"></feColorMatrix>
        </filter>
    </defs>
    <g id="UI" stroke="none" stroke-width="1" fill="none" fill-rule="evenodd">
        <g id="Icons" transform="translate(-988.000000, -348.000000)">
            <g id="launcher_ic/archiver" transform="translate(988.000000, 348.000000)">
                <g id="Rectangle">
                    <use fill="url(#linearGradient-1)" fill-rule="evenodd" xlink:href="#path-2"></use>
                    <use fill="black" fill-opacity="1" filter="url(#filter-3)" xlink:href="#path-2"></use>
                </g>
                <g id="Combined-Shape">
                    <use fill="black" fill-opacity="1" filter="url(#filter-5)" xlink:href="#path-4"></use>
                    <use fill="#FFFFFF" fill-rule="evenodd" xlink:href="#path-4"></use>
                </g>
            </g>
        </g>
    </g>
</svg>