<?xml version="1.0" encoding="UTF-8"?>
<svg width="48px" height="48px" viewBox="0 0 48 48" version="1.1" xmlns="http://www.w3.org/2000/svg" xmlns:xlink="http://www.w3.org/1999/xlink">
    <title>4BEE7E07-5DDC-4C90-86F7-7BDA431A75E4</title>
    <defs>
        <linearGradient x1="0%" y1="0%" x2="101.766435%" y2="100.768726%" id="linearGradient-1">
            <stop stop-color="#107507" offset="0%"></stop>
            <stop stop-color="#47C292" offset="99.9541614%"></stop>
        </linearGradient>
        <path d="M20,0 L28,0 C39.045695,0 48,8.954305 48,20 L48,28 C48,39.045695 39.045695,48 28,48 L20,48 C8.954305,48 0,39.045695 0,28 L0,20 C0,8.954305 8.954305,0 20,0 Z" id="path-2"></path>
        <filter x="-4.2%" y="-4.2%" width="108.3%" height="108.3%" filterUnits="objectBoundingBox" id="filter-3">
            <feMorphology radius="2" operator="erode" in="SourceAlpha" result="shadowSpreadInner1"></feMorphology>
            <feGaussianBlur stdDeviation="1" in="shadowSpreadInner1" result="shadowBlurInner1"></feGaussianBlur>
            <feOffset dx="0" dy="0" in="shadowBlurInner1" result="shadowOffsetInner1"></feOffset>
            <feComposite in="shadowOffsetInner1" in2="SourceAlpha" operator="arithmetic" k2="-1" k3="1" result="shadowInnerInner1"></feComposite>
            <feColorMatrix values="0 0 0 0 1   0 0 0 0 1   0 0 0 0 1  0 0 0 0.2 0" type="matrix" in="shadowInnerInner1"></feColorMatrix>
        </filter>
        <path d="M3,8 C4.1045695,8 5,8.8954305 5,10 L5,22 C5,23.1045695 4.1045695,24 3,24 L2,24 C0.8954305,24 0,23.1045695 0,22 L0,10 C0,8.8954305 0.8954305,8 2,8 L3,8 Z M10,0 C11.1045695,0 12,0.8954305 12,2 L12,22 C12,23.1045695 11.1045695,24 10,24 L9,24 C7.8954305,24 7,23.1045695 7,22 L7,2 C7,0.8954305 7.8954305,0 9,0 L10,0 Z M17,10 C18.1045695,10 19,10.8954305 19,12 L19,22 C19,23.1045695 18.1045695,24 17,24 L16,24 C14.8954305,24 14,23.1045695 14,22 L14,12 C14,10.8954305 14.8954305,10 16,10 L17,10 Z M24,16 C25.1045695,16 26,16.8954305 26,18 L26,22 C26,23.1045695 25.1045695,24 24,24 L23,24 C21.8954305,24 21,23.1045695 21,22 L21,18 C21,16.8954305 21.8954305,16 23,16 L24,16 Z" id="path-4"></path>
        <filter x="-7.7%" y="-4.2%" width="115.4%" height="116.7%" filterUnits="objectBoundingBox" id="filter-5">
            <feOffset dx="0" dy="1" in="SourceAlpha" result="shadowOffsetOuter1"></feOffset>
            <feGaussianBlur stdDeviation="0.5" in="shadowOffsetOuter1" result="shadowBlurOuter1"></feGaussianBlur>
            <feColorMatrix values="0 0 0 0 0   0 0 0 0 0   0 0 0 0 0  0 0 0 0.3 0" type="matrix" in="shadowBlurOuter1"></feColorMatrix>
        </filter>
    </defs>
    <g id="UI" stroke="none" stroke-width="1" fill="none" fill-rule="evenodd">
        <g id="Icons" transform="translate(-634.000000, -762.000000)">
            <g id="launcher_ic/statistics-management" transform="translate(634.000000, 762.000000)">
                <g id="Rectangle">
                    <use fill="url(#linearGradient-1)" fill-rule="evenodd" xlink:href="#path-2"></use>
                    <use fill="black" fill-opacity="1" filter="url(#filter-3)" xlink:href="#path-2"></use>
                </g>
                <g id="Shape" transform="translate(11.000000, 12.000000)">
                    <use fill="black" fill-opacity="1" filter="url(#filter-5)" xlink:href="#path-4"></use>
                    <use fill="#FFFFFF" fill-rule="evenodd" xlink:href="#path-4"></use>
                </g>
            </g>
        </g>
    </g>
</svg>