<?xml version="1.0" encoding="UTF-8"?>
<svg width="48px" height="48px" viewBox="0 0 48 48" version="1.1" xmlns="http://www.w3.org/2000/svg" xmlns:xlink="http://www.w3.org/1999/xlink">
    <title>093CD2C8-49F9-4B18-9B2B-D402075BBDDA</title>
    <defs>
        <linearGradient x1="0%" y1="0%" x2="101.440345%" y2="100.445833%" id="linearGradient-1">
            <stop stop-color="#149EB2" offset="0%"></stop>
            <stop stop-color="#7A47C2" offset="99.9541614%"></stop>
        </linearGradient>
        <path d="M20,0 L28,0 C39.045695,0 48,8.954305 48,20 L48,28 C48,39.045695 39.045695,48 28,48 L20,48 C8.954305,48 0,39.045695 0,28 L0,20 C0,8.954305 8.954305,0 20,0 Z" id="path-2"></path>
        <filter x="-4.2%" y="-4.2%" width="108.3%" height="108.3%" filterUnits="objectBoundingBox" id="filter-3">
            <feMorphology radius="2" operator="erode" in="SourceAlpha" result="shadowSpreadInner1"></feMorphology>
            <feGaussianBlur stdDeviation="1" in="shadowSpreadInner1" result="shadowBlurInner1"></feGaussianBlur>
            <feOffset dx="0" dy="0" in="shadowBlurInner1" result="shadowOffsetInner1"></feOffset>
            <feComposite in="shadowOffsetInner1" in2="SourceAlpha" operator="arithmetic" k2="-1" k3="1" result="shadowInnerInner1"></feComposite>
            <feColorMatrix values="0 0 0 0 1   0 0 0 0 1   0 0 0 0 1  0 0 0 0.2 0" type="matrix" in="shadowInnerInner1"></feColorMatrix>
        </filter>
        <path d="M12,37 C11.4477153,37 11,36.5522847 11,36 L11,26 L11,26 C11,23.790861 12.790861,22 15,22 L33,22 C35.209139,22 37,23.790861 37,26 L37,36 C37,36.5522847 36.5522847,37 36,37 C35.4477153,37 35,36.5522847 35,36 L35,26 L35,26 C35,24.9456382 34.1841222,24.0818349 33.1492623,24.0054857 L33,24 L15,24 C13.9456382,24 13.0818349,24.8158778 13.0054857,25.8507377 L13,26 L13,36 C13,36.5522847 12.5522847,37 12,37 Z" id="path-4"></path>
        <filter x="-7.7%" y="-6.7%" width="115.4%" height="126.7%" filterUnits="objectBoundingBox" id="filter-5">
            <feOffset dx="0" dy="1" in="SourceAlpha" result="shadowOffsetOuter1"></feOffset>
            <feGaussianBlur stdDeviation="0.5" in="shadowOffsetOuter1" result="shadowBlurOuter1"></feGaussianBlur>
            <feColorMatrix values="0 0 0 0 0   0 0 0 0 0   0 0 0 0 0  0 0 0 0.3 0" type="matrix" in="shadowBlurOuter1"></feColorMatrix>
        </filter>
        <path d="M29,8 C30.1045695,8 31,8.8954305 31,10 L31,21 L24,21 L24,8 L29,8 Z M29,10 L26,10 L26,12 L29,12 L29,10 Z" id="path-6"></path>
        <filter x="-28.6%" y="-7.7%" width="157.1%" height="130.8%" filterUnits="objectBoundingBox" id="filter-7">
            <feOffset dx="0" dy="1" in="SourceAlpha" result="shadowOffsetOuter1"></feOffset>
            <feGaussianBlur stdDeviation="0.5" in="shadowOffsetOuter1" result="shadowBlurOuter1"></feGaussianBlur>
            <feComposite in="shadowBlurOuter1" in2="SourceAlpha" operator="out" result="shadowBlurOuter1"></feComposite>
            <feColorMatrix values="0 0 0 0 0   0 0 0 0 0   0 0 0 0 0  0 0 0 0.3 0" type="matrix" in="shadowBlurOuter1"></feColorMatrix>
        </filter>
        <path d="M24,8 L24,21 L17,21 L17,10 C17,8.8954305 17.8954305,8 19,8 L24,8 Z M22,10 L19,10 L19,12 L22,12 L22,10 Z" id="path-8"></path>
        <filter x="-28.6%" y="-7.7%" width="157.1%" height="130.8%" filterUnits="objectBoundingBox" id="filter-9">
            <feOffset dx="0" dy="1" in="SourceAlpha" result="shadowOffsetOuter1"></feOffset>
            <feGaussianBlur stdDeviation="0.5" in="shadowOffsetOuter1" result="shadowBlurOuter1"></feGaussianBlur>
            <feColorMatrix values="0 0 0 0 0   0 0 0 0 0   0 0 0 0 0  0 0 0 0.3 0" type="matrix" in="shadowBlurOuter1"></feColorMatrix>
        </filter>
    </defs>
    <g id="UI" stroke="none" stroke-width="1" fill="none" fill-rule="evenodd">
        <g id="Icons" transform="translate(-1224.000000, -624.000000)">
            <g id="launcher_ic/RegisterUSB" transform="translate(1224.000000, 624.000000)">
                <g id="Rectangle">
                    <use fill="url(#linearGradient-1)" fill-rule="evenodd" xlink:href="#path-2"></use>
                    <use fill="black" fill-opacity="1" filter="url(#filter-3)" xlink:href="#path-2"></use>
                </g>
                <g id="Path" fill-rule="nonzero">
                    <use fill="black" fill-opacity="1" filter="url(#filter-5)" xlink:href="#path-4"></use>
                    <use fill="#FFFFFF" xlink:href="#path-4"></use>
                </g>
                <g id="Combined-Shape-Copy">
                    <use fill="black" fill-opacity="1" filter="url(#filter-7)" xlink:href="#path-6"></use>
                    <use fill-opacity="0.5" fill="#FFFFFF" fill-rule="evenodd" xlink:href="#path-6"></use>
                </g>
                <g id="Combined-Shape" fill-rule="nonzero">
                    <use fill="black" fill-opacity="1" filter="url(#filter-9)" xlink:href="#path-8"></use>
                    <use fill="#FFFFFF" xlink:href="#path-8"></use>
                </g>
            </g>
        </g>
    </g>
</svg>