<?xml version="1.0" encoding="UTF-8"?>
<svg width="48px" height="48px" viewBox="0 0 48 48" version="1.1" xmlns="http://www.w3.org/2000/svg" xmlns:xlink="http://www.w3.org/1999/xlink">
    <title>15642F80-0983-4EC3-B087-294C9F87EE63</title>
    <defs>
        <linearGradient x1="0%" y1="0%" x2="101.57997%" y2="100.584089%" id="linearGradient-1">
            <stop stop-color="#58009D" offset="0%"></stop>
            <stop stop-color="#C24747" offset="99.9541614%"></stop>
        </linearGradient>
        <path d="M20,0 L28,0 C39.045695,0 48,8.954305 48,20 L48,28 C48,39.045695 39.045695,48 28,48 L20,48 C8.954305,48 0,39.045695 0,28 L0,20 C0,8.954305 8.954305,0 20,0 Z" id="path-2"></path>
        <filter x="-4.2%" y="-4.2%" width="108.3%" height="108.3%" filterUnits="objectBoundingBox" id="filter-3">
            <feMorphology radius="2" operator="erode" in="SourceAlpha" result="shadowSpreadInner1"></feMorphology>
            <feGaussianBlur stdDeviation="1" in="shadowSpreadInner1" result="shadowBlurInner1"></feGaussianBlur>
            <feOffset dx="0" dy="0" in="shadowBlurInner1" result="shadowOffsetInner1"></feOffset>
            <feComposite in="shadowOffsetInner1" in2="SourceAlpha" operator="arithmetic" k2="-1" k3="1" result="shadowInnerInner1"></feComposite>
            <feColorMatrix values="0 0 0 0 1   0 0 0 0 1   0 0 0 0 1  0 0 0 0.2 0" type="matrix" in="shadowInnerInner1"></feColorMatrix>
        </filter>
        <path d="M30,14 C35.5228475,14 40,18.4771525 40,24 C40,29.5228475 35.5228475,34 30,34 L30,34 L18,34 C12.4771525,34 8,29.5228475 8,24 C8,18.4771525 12.4771525,14 18,14 L18,14 Z M30,16 L18,16 C13.581722,16 10,19.581722 10,24 C10,28.418278 13.581722,32 18,32 L18,32 L30,32 C34.418278,32 38,28.418278 38,24 C38,19.581722 34.418278,16 30,16 L30,16 Z M18,18 C21.3137085,18 24,20.6862915 24,24 C24,27.3137085 21.3137085,30 18,30 C14.6862915,30 12,27.3137085 12,24 C12,20.6862915 14.6862915,18 18,18 Z" id="path-4"></path>
        <filter x="-6.2%" y="-5.0%" width="112.5%" height="120.0%" filterUnits="objectBoundingBox" id="filter-5">
            <feOffset dx="0" dy="1" in="SourceAlpha" result="shadowOffsetOuter1"></feOffset>
            <feGaussianBlur stdDeviation="0.5" in="shadowOffsetOuter1" result="shadowBlurOuter1"></feGaussianBlur>
            <feColorMatrix values="0 0 0 0 0   0 0 0 0 0   0 0 0 0 0  0 0 0 0.3 0" type="matrix" in="shadowBlurOuter1"></feColorMatrix>
        </filter>
    </defs>
    <g id="UI" stroke="none" stroke-width="1" fill="none" fill-rule="evenodd">
        <g id="Icons" transform="translate(-634.000000, -900.000000)">
            <g id="Group-6-Copy-5" transform="translate(634.000000, 900.000000)">
                <g id="Rectangle">
                    <use fill="url(#linearGradient-1)" fill-rule="evenodd" xlink:href="#path-2"></use>
                    <use fill="black" fill-opacity="1" filter="url(#filter-3)" xlink:href="#path-2"></use>
                </g>
                <g id="Combined-Shape">
                    <use fill="black" fill-opacity="1" filter="url(#filter-5)" xlink:href="#path-4"></use>
                    <use fill="#FFFFFF" fill-rule="evenodd" xlink:href="#path-4"></use>
                </g>
            </g>
        </g>
    </g>
</svg>