<?xml version="1.0" encoding="UTF-8"?>
<svg width="48px" height="48px" viewBox="0 0 48 48" version="1.1" xmlns="http://www.w3.org/2000/svg" xmlns:xlink="http://www.w3.org/1999/xlink">
    <title>4D842762-DCB8-4D39-ACF5-FFBABED1E4A9</title>
    <defs>
        <linearGradient x1="0%" y1="0%" x2="101.440345%" y2="100.445833%" id="linearGradient-1">
            <stop stop-color="#CA0000" offset="0%"></stop>
            <stop stop-color="#7A47C2" offset="99.9541614%"></stop>
        </linearGradient>
        <path d="M20,0 L28,0 C39.045695,0 48,8.954305 48,20 L48,28 C48,39.045695 39.045695,48 28,48 L20,48 C8.954305,48 0,39.045695 0,28 L0,20 C0,8.954305 8.954305,0 20,0 Z" id="path-2"></path>
        <filter x="-4.2%" y="-4.2%" width="108.3%" height="108.3%" filterUnits="objectBoundingBox" id="filter-3">
            <feMorphology radius="2" operator="erode" in="SourceAlpha" result="shadowSpreadInner1"></feMorphology>
            <feGaussianBlur stdDeviation="1" in="shadowSpreadInner1" result="shadowBlurInner1"></feGaussianBlur>
            <feOffset dx="0" dy="0" in="shadowBlurInner1" result="shadowOffsetInner1"></feOffset>
            <feComposite in="shadowOffsetInner1" in2="SourceAlpha" operator="arithmetic" k2="-1" k3="1" result="shadowInnerInner1"></feComposite>
            <feColorMatrix values="0 0 0 0 1   0 0 0 0 1   0 0 0 0 1  0 0 0 0.2 0" type="matrix" in="shadowInnerInner1"></feColorMatrix>
        </filter>
        <path d="M14.9484898,11.0233657 L3.27909025,18.0250054 C2.25372427,18.640225 0.92376688,18.3077356 0.308547288,17.2823697 C0.10664994,16.9458741 0,16.560834 0,16.168416 L0,2.16513664 C0,0.969364693 0.969364693,0 2.16513664,0 C2.55755455,0 2.94259467,0.10664994 3.27909025,0.308547288 L14.9484898,7.31018699 C15.9738557,7.92540658 16.3063451,9.25536397 15.6911255,10.28073 C15.5082802,10.5854721 15.2532319,10.8405204 14.9484898,11.0233657 Z" id="path-4"></path>
        <filter x="-21.9%" y="-13.6%" width="143.8%" height="138.2%" filterUnits="objectBoundingBox" id="filter-5">
            <feOffset dx="0" dy="1" in="SourceAlpha" result="shadowOffsetOuter1"></feOffset>
            <feGaussianBlur stdDeviation="1" in="shadowOffsetOuter1" result="shadowBlurOuter1"></feGaussianBlur>
            <feColorMatrix values="0 0 0 0 0   0 0 0 0 0   0 0 0 0 0  0 0 0 0.3 0" type="matrix" in="shadowBlurOuter1"></feColorMatrix>
        </filter>
    </defs>
    <g id="UI" stroke="none" stroke-width="1" fill="none" fill-rule="evenodd">
        <g id="Icons" transform="translate(-752.000000, -348.000000)">
            <g id="Group-6-Copy" transform="translate(752.000000, 348.000000)">
                <g id="Rectangle">
                    <use fill="url(#linearGradient-1)" fill-rule="evenodd" xlink:href="#path-2"></use>
                    <use fill="black" fill-opacity="1" filter="url(#filter-3)" xlink:href="#path-2"></use>
                </g>
                <g id="Triangle" transform="translate(16.000000, 15.000000)">
                    <use fill="black" fill-opacity="1" filter="url(#filter-5)" xlink:href="#path-4"></use>
                    <use fill="#FFFFFF" fill-rule="evenodd" xlink:href="#path-4"></use>
                </g>
            </g>
        </g>
    </g>
</svg>