<?xml version="1.0" encoding="UTF-8"?>
<svg width="48px" height="48px" viewBox="0 0 48 48" version="1.1" xmlns="http://www.w3.org/2000/svg" xmlns:xlink="http://www.w3.org/1999/xlink">
    <title>296A8626-1A63-4BE8-B6E8-6478EE993880</title>
    <defs>
        <path d="M15,0 L33,0 C41.2842712,0 48,6.71572875 48,15 L48,33 C48,41.2842712 41.2842712,48 33,48 L15,48 C6.71572875,48 0,41.2842712 0,33 L0,15 C0,6.71572875 6.71572875,0 15,0 Z" id="path-1"></path>
        <path d="M16,4 L32,4 C33.1045695,4 34,4.8954305 34,6 C34,7.1045695 33.1045695,8 32,8 L16,8 C14.8954305,8 14,7.1045695 14,6 C14,4.8954305 14.8954305,4 16,4 Z" id="path-3"></path>
        <filter x="-10.0%" y="-50.0%" width="120.0%" height="200.0%" filterUnits="objectBoundingBox" id="filter-4">
            <feGaussianBlur stdDeviation="1.5" in="SourceAlpha" result="shadowBlurInner1"></feGaussianBlur>
            <feOffset dx="0" dy="1" in="shadowBlurInner1" result="shadowOffsetInner1"></feOffset>
            <feComposite in="shadowOffsetInner1" in2="SourceAlpha" operator="arithmetic" k2="-1" k3="1" result="shadowInnerInner1"></feComposite>
            <feColorMatrix values="0 0 0 0 0   0 0 0 0 0   0 0 0 0 0  0 0 0 0.5 0" type="matrix" in="shadowInnerInner1"></feColorMatrix>
        </filter>
    </defs>
    <g id="UI" stroke="none" stroke-width="1" fill="none" fill-rule="evenodd">
        <g id="Icons" transform="translate(-634.000000, -210.000000)">
            <g id="Group-6-Copy-10" transform="translate(634.000000, 210.000000)">
                <path d="M15,0 L33,0 C41.2842712,0 48,6.71572875 48,15 L48,33 C48,41.2842712 41.2842712,48 33,48 L15,48 C6.71572875,48 0,41.2842712 0,33 L0,15 C0,6.71572875 6.71572875,0 15,0 Z" id="Rectangle" fill="#EBEBEB"></path>
                <g id="Group-4">
                    <mask id="mask-2" fill="white">
                        <use xlink:href="#path-1"></use>
                    </mask>
                    <path stroke="#D3D3D3" d="M33,0.5 C37.0040644,0.5 40.6290644,2.12296778 43.2530483,4.74695167 C45.8770322,7.37093556 47.5,10.9959356 47.5,15 L47.5,15 L47.5,33 C47.5,37.0040644 45.8770322,40.6290644 43.2530483,43.2530483 C40.6290644,45.8770322 37.0040644,47.5 33,47.5 L33,47.5 L15,47.5 C10.9959356,47.5 7.37093556,45.8770322 4.74695167,43.2530483 C2.12296778,40.6290644 0.5,37.0040644 0.5,33 L0.5,33 L0.5,15 C0.5,10.9959356 2.12296778,7.37093556 4.74695167,4.74695167 C7.37093556,2.12296778 10.9959356,0.5 15,0.5 L15,0.5 Z"></path>
                    <g mask="url(#mask-2)" id="Combined-Shape">
                        <g transform="translate(23.500000, 27.633975) rotate(-30.000000) translate(-23.500000, -27.633975) translate(-11.500000, 13.133975)">
                            <path d="M22,22 C24.9730632,22 27.4410745,24.1623839 27.9170737,27.0001915 L70,27 L70,29 L26,29 L26,28 L26,28 C26,25.790861 24.209139,24 22,24 C19.790861,24 18,25.790861 18,28 L18,29 L0,29 L0,27 L16.0829263,27.0001915 C16.5589255,24.1623839 19.0269368,22 22,22 Z" fill="#55B6FF"></path>
                            <path d="M53,13 C58.1853136,13 62.4488436,16.9466248 62.9506147,21.9998991 L70,22 L70,24 L61,24 L61,23 C61,18.581722 57.418278,15 53,15 C48.581722,15 45,18.581722 45,23 L45,24 L28.9296499,23.99984 C28.4940862,23.2469205 27.9393371,22.5715759 27.291201,21.9996048 L43.0493853,21.9998991 C43.5511564,16.9466248 47.8146864,13 53,13 Z M16.708799,21.9996048 C16.0606629,22.5715759 15.5059138,23.2469205 15.0703501,23.99984 L0,24 L0,22 L16.708799,21.9996048 Z" fill="#299FFF"></path>
                            <path d="M70,17 L70,19 L64.3172055,19.0000801 C64.0702076,18.301243 63.7603137,17.6321163 63.3943254,16.9995017 L70,17 Z M38,0 C45.501066,0 51.9304835,4.58827309 54.6347869,11.1113539 C54.1002925,11.0376148 53.554539,11 53,11 C52.7984272,11 52.5980153,11.00497 52.39888,11.0147942 C49.8054479,5.67858354 44.3323135,2 38,2 C29.163444,2 22,9.163444 22,18 L22,19 L-1.36424205e-12,19 L-1.36424205e-12,17 L20.0273119,16.9999352 C20.5462259,7.52397664 28.3944535,0 38,0 Z" fill="#2E70BE"></path>
                        </g>
                    </g>
                </g>
                <g id="Rectangle-15">
                    <use fill="#4A4A4A" fill-rule="evenodd" xlink:href="#path-3"></use>
                    <use fill="black" fill-opacity="1" filter="url(#filter-4)" xlink:href="#path-3"></use>
                </g>
            </g>
        </g>
    </g>
</svg>