<?xml version="1.0" encoding="UTF-8"?>
<svg width="48px" height="48px" viewBox="0 0 48 48" version="1.1" xmlns="http://www.w3.org/2000/svg" xmlns:xlink="http://www.w3.org/1999/xlink">
    <title>7F4200D8-8DE3-469E-9AC4-BCCD1BEB3625</title>
    <defs>
        <path d="M20,0 L28,0 C39.045695,0 48,8.954305 48,20 L48,28 C48,39.045695 39.045695,48 28,48 L20,48 C8.954305,48 0,39.045695 0,28 L0,20 C0,8.954305 8.954305,0 20,0 Z" id="path-1"></path>
        <filter x="-4.2%" y="-4.2%" width="108.3%" height="108.3%" filterUnits="objectBoundingBox" id="filter-2">
            <feMorphology radius="2" operator="erode" in="SourceAlpha" result="shadowSpreadInner1"></feMorphology>
            <feGaussianBlur stdDeviation="1" in="shadowSpreadInner1" result="shadowBlurInner1"></feGaussianBlur>
            <feOffset dx="0" dy="0" in="shadowBlurInner1" result="shadowOffsetInner1"></feOffset>
            <feComposite in="shadowOffsetInner1" in2="SourceAlpha" operator="arithmetic" k2="-1" k3="1" result="shadowInnerInner1"></feComposite>
            <feColorMatrix values="0 0 0 0 1   0 0 0 0 1   0 0 0 0 1  0 0 0 0.1 0" type="matrix" in="shadowInnerInner1"></feColorMatrix>
        </filter>
        <filter id="filter-3">
            <feColorMatrix in="SourceGraphic" type="matrix" values="0 0 0 0 1.000000 0 0 0 0 1.000000 0 0 0 0 1.000000 0 0 0 1.000000 0"></feColorMatrix>
        </filter>
        <filter x="-14.3%" y="-14.3%" width="128.6%" height="128.6%" filterUnits="objectBoundingBox" id="filter-4">
            <feOffset dx="0" dy="1" in="SourceAlpha" result="shadowOffsetOuter1"></feOffset>
            <feGaussianBlur stdDeviation="0.5" in="shadowOffsetOuter1" result="shadowBlurOuter1"></feGaussianBlur>
            <feColorMatrix values="0 0 0 0 0   0 0 0 0 0   0 0 0 0 0  0 0 0 0.3 0" type="matrix" in="shadowBlurOuter1" result="shadowMatrixOuter1"></feColorMatrix>
            <feMerge>
                <feMergeNode in="shadowMatrixOuter1"></feMergeNode>
                <feMergeNode in="SourceGraphic"></feMergeNode>
            </feMerge>
        </filter>
    </defs>
    <g id="UI" stroke="none" stroke-width="1" fill="none" fill-rule="evenodd">
        <g id="Icons" transform="translate(-1224.000000, -900.000000)">
            <g id="launcher_ic/setting" transform="translate(1224.000000, 900.000000)">
                <g id="Rectangle">
                    <use fill="#4D4D4D" fill-rule="evenodd" xlink:href="#path-1"></use>
                    <use fill="black" fill-opacity="1" filter="url(#filter-2)" xlink:href="#path-1"></use>
                </g>
                <g filter="url(#filter-3)" id="ic/control-tower/setting/rest">
                    <g filter="url(#filter-4)" transform="translate(10.000000, 10.000000)">
                        <g id="setting-icon">
                            <path d="M7.44603322,22.2038826 L5.63256976,24.0173461 C5.24204546,24.4078704 4.60888049,24.4078704 4.21835619,24.0173461 L3.98265393,23.7816438 C3.59212964,23.3911195 3.59212964,22.7579545 3.98265393,22.3674302 L5.7961174,20.5539668 L5.7961174,20.5539668 C4.58777449,19.0434046 3.78795386,17.1918285 3.56408357,15.1666667 L1,15.1666667 C0.44771525,15.1666667 3.49118082e-15,14.7189514 0,14.1666667 L0,13.8333333 C-6.76353751e-17,13.2810486 0.44771525,12.8333333 1,12.8333333 L3.56408357,12.8333333 L3.56408357,12.8333333 C3.78795386,10.8081715 4.58777449,8.95659541 5.7961174,7.44603322 L3.98265393,5.63256976 C3.59212964,5.24204546 3.59212964,4.60888049 3.98265393,4.21835619 L4.21835619,3.98265393 C4.60888049,3.59212964 5.24204546,3.59212964 5.63256976,3.98265393 L7.44603322,5.7961174 L7.44603322,5.7961174 C8.95659541,4.58777449 10.8081715,3.78795386 12.8333333,3.56408357 L12.8333333,1 C12.8333333,0.44771525 13.2810486,1.6557653e-15 13.8333333,0 L14.1666667,0 C14.7189514,8.7960173e-16 15.1666667,0.44771525 15.1666667,1 L15.1666667,3.56408357 L15.1666667,3.56408357 C17.1918285,3.78795386 19.0434046,4.58777449 20.5539668,5.7961174 L22.3674302,3.98265393 C22.7579545,3.59212964 23.3911195,3.59212964 23.7816438,3.98265393 L24.0173461,4.21835619 C24.4078704,4.60888049 24.4078704,5.24204546 24.0173461,5.63256976 L22.2038826,7.44603322 L22.2038826,7.44603322 C23.4122255,8.95659541 24.2120461,10.8081715 24.4359164,12.8333333 L27,12.8333333 C27.5522847,12.8333333 28,13.2810486 28,13.8333333 L28,14.1666667 C28,14.7189514 27.5522847,15.1666667 27,15.1666667 L24.4359164,15.1666667 L24.4359164,15.1666667 C24.2120461,17.1918285 23.4122255,19.0434046 22.2038826,20.5539668 L24.0173461,22.3674302 C24.4078704,22.7579545 24.4078704,23.3911195 24.0173461,23.7816438 L23.7816438,24.0173461 C23.3911195,24.4078704 22.7579545,24.4078704 22.3674302,24.0173461 L20.5539668,22.2038826 L20.5539668,22.2038826 C19.0434046,23.4122255 17.1918285,24.2120461 15.1666667,24.4359164 L15.1666667,27 C15.1666667,27.5522847 14.7189514,28 14.1666667,28 L13.8333333,28 C13.2810486,28 12.8333333,27.5522847 12.8333333,27 L12.8333333,24.4359164 L12.8333333,24.4359164 C10.8081715,24.2120461 8.95659541,23.4122255 7.44603322,22.2038826 Z M22.1666667,14 C22.1666667,11.7448368 21.252581,9.70316975 19.7747044,8.22529369 C18.2968285,6.74741823 16.2551622,5.83333333 14,5.83333333 C9.48967454,5.83333333 5.83333333,9.48967454 5.83333333,14 C5.83333333,18.5103255 9.48967454,22.1666667 14,22.1666667 C16.2551632,22.1666667 18.2968303,21.252581 19.7747063,19.7747044 C21.2525818,18.2968285 22.1666667,16.2551622 22.1666667,14 Z M14,16.3333333 C15.2886644,16.3333333 16.3333333,15.2886644 16.3333333,14 C16.3333333,12.7113356 15.2886644,11.6666667 14,11.6666667 C12.7113356,11.6666667 11.6666667,12.7113356 11.6666667,14 C11.6666667,15.2886644 12.7113356,16.3333333 14,16.3333333 Z M14,18.6666667 C11.4226712,18.6666667 9.33333333,16.5773288 9.33333333,14 C9.33333333,11.4226712 11.4226712,9.33333333 14,9.33333333 C16.5773288,9.33333333 18.6666667,11.4226712 18.6666667,14 C18.6666667,16.5773288 16.5773288,18.6666667 14,18.6666667 Z" id="Shape" fill="#FFFFFF"></path>
                            <g id="Group"></g>
                        </g>
                    </g>
                </g>
            </g>
        </g>
    </g>
</svg>