<?xml version="1.0" encoding="UTF-8"?>
<svg width="48px" height="48px" viewBox="0 0 48 48" version="1.1" xmlns="http://www.w3.org/2000/svg" xmlns:xlink="http://www.w3.org/1999/xlink">
    <title>4BFBC802-7185-418C-8088-BEF9F0BA8060</title>
    <defs>
        <linearGradient x1="0%" y1="0%" x2="101.859796%" y2="100.861172%" id="linearGradient-1">
            <stop stop-color="#3023AE" offset="0%"></stop>
            <stop stop-color="#47C292" offset="99.9541614%"></stop>
        </linearGradient>
        <path d="M20,0 L28,0 C39.045695,0 48,8.954305 48,20 L48,28 C48,39.045695 39.045695,48 28,48 L20,48 C8.954305,48 0,39.045695 0,28 L0,20 C0,8.954305 8.954305,0 20,0 Z" id="path-2"></path>
        <filter x="-4.2%" y="-4.2%" width="108.3%" height="108.3%" filterUnits="objectBoundingBox" id="filter-3">
            <feMorphology radius="2" operator="erode" in="SourceAlpha" result="shadowSpreadInner1"></feMorphology>
            <feGaussianBlur stdDeviation="1" in="shadowSpreadInner1" result="shadowBlurInner1"></feGaussianBlur>
            <feOffset dx="0" dy="0" in="shadowBlurInner1" result="shadowOffsetInner1"></feOffset>
            <feComposite in="shadowOffsetInner1" in2="SourceAlpha" operator="arithmetic" k2="-1" k3="1" result="shadowInnerInner1"></feComposite>
            <feColorMatrix values="0 0 0 0 1   0 0 0 0 1   0 0 0 0 1  0 0 0 0.2 0" type="matrix" in="shadowInnerInner1"></feColorMatrix>
        </filter>
        <path d="M24,28 C21.790861,28 20,26.209139 20,24 C20,22.1361606 21.2747728,20.5700603 23,20.1260175 L23,17 C23,16.4477153 23.4477153,16 24,16 C24.5522847,16 25,16.4477153 25,17 L25,20.1260175 L25,20.1260175 C26.7252272,20.5700603 28,22.1361606 28,24 C28,24.370957 27.9495033,24.73012 27.8550088,25.0709898 L33.2693884,28.1969833 C34.5165543,26.9249141 36.5102234,26.6039787 38.1243557,27.5358984 C40.0375261,28.6404679 40.6930268,31.0868295 39.5884573,33 C38.4838878,34.9131705 36.0375261,35.5686711 34.1243557,34.4641016 C32.5102234,33.5321819 31.7913271,31.6451461 32.2693884,29.9290341 L26.8541029,26.8025176 C26.1283098,27.5415861 25.1176891,28 24,28 Z M18.8038476,27 C19.07999,27.4782926 18.9161148,28.089883 18.4378222,28.3660254 L15.7306116,29.9290341 L15.7306116,29.9290341 C16.2086729,31.6451461 15.4897766,33.5321819 13.8756443,34.4641016 C11.9624739,35.5686711 9.51611223,34.9131705 8.41154273,33 C7.30697323,31.0868295 7.96247385,28.6404679 9.87564435,27.5358984 C11.4897766,26.6039787 13.4834457,26.9249141 14.7306116,28.1969833 L17.4378222,26.6339746 C17.9161148,26.3578322 18.5277052,26.5217074 18.8038476,27 Z M24,26 C25.1045695,26 26,25.1045695 26,24 C26,22.8954305 25.1045695,22 24,22 C22.8954305,22 22,22.8954305 22,24 C22,25.1045695 22.8954305,26 24,26 Z M24,12 C25.1045695,12 26,11.1045695 26,10 C26,8.8954305 25.1045695,8 24,8 C22.8954305,8 22,8.8954305 22,10 C22,11.1045695 22.8954305,12 24,12 Z M24,14 C21.790861,14 20,12.209139 20,10 C20,7.790861 21.790861,6 24,6 C26.209139,6 28,7.790861 28,10 C28,12.209139 26.209139,14 24,14 Z M10.1435935,32 C10.6958783,32.9565852 11.9190591,33.2843356 12.8756443,32.7320508 C13.8322296,32.1797661 14.1599799,30.9565852 13.6076952,30 C13.0554104,29.0434148 11.8322296,28.7156644 10.8756443,29.2679492 C9.9190591,29.8202339 9.59130879,31.0434148 10.1435935,32 Z M34.3923048,30 C33.8400201,30.9565852 34.1677704,32.1797661 35.1243557,32.7320508 C36.0809409,33.2843356 37.3041217,32.9565852 37.8564065,32 C38.4086912,31.0434148 38.0809409,29.8202339 37.1243557,29.2679492 C36.1677704,28.7156644 34.9445896,29.0434148 34.3923048,30 Z M32.8535014,36.1097561 C30.3720882,37.9270131 27.3113489,39 24,39 C20.6886511,39 17.6279118,37.9270131 15.1464986,36.1097561 C15.7344682,35.7469234 16.2550988,35.2854448 16.685309,34.7484017 C18.7691593,36.1692887 21.2875681,37 24,37 C26.7124319,37 29.2308407,36.1692887 31.314691,34.7484017 C31.7449012,35.2854448 32.2655318,35.7469234 32.8535014,36.1097561 Z M37,24 C37,18.8114865 33.9603867,14.3329127 29.5647319,12.2478504 C29.8163431,11.6255694 29.9666036,10.9514545 29.99505,10.2459694 C35.295408,12.5595084 39,17.8471273 39,24 C39,24.5905371 38.9658745,25.1731038 38.899488,25.7458356 C38.3059922,25.4176183 37.6509811,25.1870378 36.9561256,25.0757652 C36.9851842,24.7210192 37,24.3622398 37,24 Z M11,24 C11,24.3622398 11.0148158,24.7210192 11.0438744,25.0757652 C10.3490189,25.1870378 9.69400784,25.4176183 9.10051204,25.7458356 C9.03412549,25.1731038 9,24.5905371 9,24 C9,17.8471273 12.704592,12.5595084 18.00495,10.2459694 C18.0333964,10.9514545 18.1836569,11.6255694 18.4352681,12.2478504 C14.0396133,14.3329127 11,18.8114865 11,24 Z" id="path-4"></path>
        <filter x="-6.2%" y="-3.0%" width="112.4%" height="112.1%" filterUnits="objectBoundingBox" id="filter-5">
            <feOffset dx="0" dy="1" in="SourceAlpha" result="shadowOffsetOuter1"></feOffset>
            <feGaussianBlur stdDeviation="0.5" in="shadowOffsetOuter1" result="shadowBlurOuter1"></feGaussianBlur>
            <feColorMatrix values="0 0 0 0 0   0 0 0 0 0   0 0 0 0 0  0 0 0 0.3 0" type="matrix" in="shadowBlurOuter1"></feColorMatrix>
        </filter>
    </defs>
    <g id="UI" stroke="none" stroke-width="1" fill="none" fill-rule="evenodd">
        <g id="Icons" transform="translate(-516.000000, -762.000000)">
            <g id="Group-6-Copy-5" transform="translate(516.000000, 762.000000)">
                <g id="Rectangle">
                    <use fill="url(#linearGradient-1)" fill-rule="evenodd" xlink:href="#path-2"></use>
                    <use fill="black" fill-opacity="1" filter="url(#filter-3)" xlink:href="#path-2"></use>
                </g>
                <g id="Shape" fill-rule="nonzero">
                    <use fill="black" fill-opacity="1" filter="url(#filter-5)" xlink:href="#path-4"></use>
                    <use fill="#FFFFFF" xlink:href="#path-4"></use>
                </g>
            </g>
        </g>
    </g>
</svg>