<?xml version="1.0" encoding="UTF-8"?>
<svg width="48px" height="48px" viewBox="0 0 48 48" version="1.1" xmlns="http://www.w3.org/2000/svg" xmlns:xlink="http://www.w3.org/1999/xlink">
    <title>F4A1D682-A6E5-4ABA-ADBA-BC23EBFCA715</title>
    <defs>
        <path d="M20,0 L28,0 C39.045695,0 48,8.954305 48,20 L48,28 C48,39.045695 39.045695,48 28,48 L20,48 C8.954305,48 0,39.045695 0,28 L0,20 C0,8.954305 8.954305,0 20,0 Z" id="path-1"></path>
        <filter x="-4.2%" y="-4.2%" width="108.3%" height="108.3%" filterUnits="objectBoundingBox" id="filter-2">
            <feMorphology radius="2" operator="erode" in="SourceAlpha" result="shadowSpreadInner1"></feMorphology>
            <feGaussianBlur stdDeviation="1" in="shadowSpreadInner1" result="shadowBlurInner1"></feGaussianBlur>
            <feOffset dx="0" dy="0" in="shadowBlurInner1" result="shadowOffsetInner1"></feOffset>
            <feComposite in="shadowOffsetInner1" in2="SourceAlpha" operator="arithmetic" k2="-1" k3="1" result="shadowInnerInner1"></feComposite>
            <feColorMatrix values="0 0 0 0 1   0 0 0 0 1   0 0 0 0 1  0 0 0 0.1 0" type="matrix" in="shadowInnerInner1"></feColorMatrix>
        </filter>
        <path d="M25,15 L23,15 C23,13.8954305 22.1045695,13 21,13 L14,13 C12.8954305,13 12,13.8954305 12,15 L12,33 C12,34.1045695 12.8954305,35 14,35 L34,35 C35.1045695,35 36,34.1045695 36,33 L36,20 C36,18.8954305 35.1045695,18 34,18 L15,18 C14.4477153,18 14,17.5522847 14,17 C14,16.4477153 14.4477153,16 15,16 L34,16 C36.209139,16 38,17.790861 38,20 L38,33 C38,35.209139 36.209139,37 34,37 L14,37 C11.790861,37 10,35.209139 10,33 L10,15 C10,12.790861 11.790861,11 14,11 L21,11 C23.1421954,11 24.8910789,12.6839685 24.9951047,14.8003597 L25,15 Z" id="path-3"></path>
        <filter x="-7.1%" y="-3.8%" width="114.3%" height="115.4%" filterUnits="objectBoundingBox" id="filter-4">
            <feOffset dx="0" dy="1" in="SourceAlpha" result="shadowOffsetOuter1"></feOffset>
            <feGaussianBlur stdDeviation="0.5" in="shadowOffsetOuter1" result="shadowBlurOuter1"></feGaussianBlur>
            <feColorMatrix values="0 0 0 0 0   0 0 0 0 0   0 0 0 0 0  0 0 0 0.3 0" type="matrix" in="shadowBlurOuter1"></feColorMatrix>
        </filter>
    </defs>
    <g id="UI" stroke="none" stroke-width="1" fill="none" fill-rule="evenodd">
        <g id="Icons" transform="translate(-516.000000, -348.000000)">
            <g id="launcher_ic/folder" transform="translate(516.000000, 348.000000)">
                <g id="Rectangle">
                    <use fill="#616161" fill-rule="evenodd" xlink:href="#path-1"></use>
                    <use fill="black" fill-opacity="1" filter="url(#filter-2)" xlink:href="#path-1"></use>
                </g>
                <g id="Path">
                    <use fill="black" fill-opacity="1" filter="url(#filter-4)" xlink:href="#path-3"></use>
                    <use fill="#FFFFFF" fill-rule="evenodd" xlink:href="#path-3"></use>
                </g>
            </g>
        </g>
    </g>
</svg>