<svg width="48" height="48" viewBox="0 0 48 48" fill="none" xmlns="http://www.w3.org/2000/svg">
<g clip-path="url(#clip0_248_5389)">
<rect x="2" y="2" width="11" height="11" fill="#F9A2FB"/>
<rect x="13" y="2" width="11" height="11" fill="#FF93AD"/>
<rect x="24" y="2" width="11" height="11" fill="url(#paint0_linear_248_5389)"/>
<rect x="35" y="2" width="11" height="11" fill="#FF8E75"/>
<rect x="2" y="13" width="11" height="11" fill="#C2A6FF"/>
<rect x="13" y="13" width="11" height="11" fill="white"/>
<rect x="24" y="13" width="11" height="11" fill="#FFC188"/>
<rect x="35" y="13" width="11" height="11" fill="#FFE074"/>
<rect x="2" y="24" width="11" height="11" fill="url(#paint1_linear_248_5389)"/>
<rect x="13" y="24" width="11" height="11" fill="#37DFD5"/>
<rect x="24" y="24" width="11" height="11" fill="#00B881"/>
<rect x="35" y="24" width="11" height="11" fill="url(#paint2_linear_248_5389)"/>
<rect x="2" y="35" width="11" height="11" fill="url(#paint3_linear_248_5389)"/>
<rect x="13" y="35" width="11" height="11" fill="#C2A6FF"/>
<rect x="24" y="35" width="11" height="11" fill="url(#paint4_linear_248_5389)"/>
<rect x="35" y="35" width="11" height="11" fill="#1BD6FF"/>
</g>
<defs>
<linearGradient id="paint0_linear_248_5389" x1="33.1094" y1="12.0517" x2="20.9027" y2="-1.15437" gradientUnits="userSpaceOnUse">
<stop stop-color="#FDA966"/>
<stop offset="0.826278" stop-color="#FF73A5"/>
</linearGradient>
<linearGradient id="paint1_linear_248_5389" x1="18" y1="41.5" x2="5.0826" y2="17.3511" gradientUnits="userSpaceOnUse">
<stop offset="0.0046461" stop-color="#79C0FB"/>
<stop offset="1" stop-color="#6796FF"/>
</linearGradient>
<linearGradient id="paint2_linear_248_5389" x1="21.0781" y1="1.15385" x2="58.3487" y2="31.4362" gradientUnits="userSpaceOnUse">
<stop stop-color="#188392"/>
<stop offset="1" stop-color="#ADFF87"/>
</linearGradient>
<linearGradient id="paint3_linear_248_5389" x1="10.8846" y1="46" x2="2.70692" y2="35.9765" gradientUnits="userSpaceOnUse">
<stop stop-color="#F587DC"/>
<stop offset="1" stop-color="#BC83F6"/>
</linearGradient>
<linearGradient id="paint4_linear_248_5389" x1="40" y1="52.5" x2="27.0826" y2="28.3511" gradientUnits="userSpaceOnUse">
<stop offset="0.0046461" stop-color="#79C0FB"/>
<stop offset="1" stop-color="#6796FF"/>
</linearGradient>
<clipPath id="clip0_248_5389">
<rect x="2" y="2" width="44" height="44" rx="12" fill="white"/>
</clipPath>
</defs>
</svg>
