<svg width="48" height="48" viewBox="0 0 48 48" fill="none" xmlns="http://www.w3.org/2000/svg">
<circle cx="23.5728" cy="24.5227" r="18" fill="url(#paint0_linear_248_5854)"/>
<path fill-rule="evenodd" clip-rule="evenodd" d="M5.88511 27.8802C1.43836 32.1118 -0.770394 35.8772 0.429378 37.9618C2.58164 41.7014 14.8877 38.6161 27.9157 31.0706C40.9438 23.5251 49.7603 14.3767 47.6081 10.6371C46.3346 8.42431 41.5058 8.60113 35.076 10.6776C36.6063 11.9505 37.9221 13.4722 38.9615 15.1806C38.9659 15.1875 38.9701 15.1944 38.9742 15.2015C38.9745 15.202 38.9748 15.2026 38.9751 15.2031C38.9834 15.2167 38.9916 15.2303 38.9998 15.2439L38.9968 15.2455C39.6728 16.7348 33.4039 21.8685 24.8819 26.7887C16.437 31.6643 8.91686 34.5191 7.85527 33.2761L7.84412 33.2825C6.91924 31.6254 6.24864 29.8071 5.88511 27.8802Z" fill="url(#paint1_linear_248_5854)" fill-opacity="0.6"/>
<path fill-rule="evenodd" clip-rule="evenodd" d="M5.8856 27.8802C1.43885 32.1118 -0.769905 35.8772 0.429866 37.9618C2.58213 41.7014 14.8882 38.6161 27.9162 31.0706C40.9443 23.5251 49.7608 14.3767 47.6086 10.6371C46.335 8.42431 41.5063 8.60113 35.0765 10.6776C35.227 10.8028 35.3754 10.9304 35.5217 11.0603C36.4035 10.7813 37.2532 10.5394 38.0654 10.3358C40.5275 9.7185 42.6168 9.46044 44.2022 9.57385C45.8082 9.68873 46.7636 10.1713 47.1752 10.8865C47.5873 11.6025 47.5259 12.675 46.8217 14.1284C46.1267 15.563 44.859 17.2493 43.095 19.0797C39.5719 22.7354 34.1511 26.8817 27.6656 30.638C21.1802 34.3942 14.8903 37.0303 9.97304 38.2632C7.51097 38.8804 5.42167 39.1385 3.8362 39.0251C2.23021 38.9102 1.27487 38.4277 0.86322 37.7124C0.451173 36.9965 0.512551 35.9239 1.21671 34.4705C1.91177 33.036 3.17947 31.3496 4.94345 29.5193C5.28009 29.1699 5.63406 28.8161 6.00463 28.4586C5.96188 28.267 5.92218 28.0742 5.8856 27.8802ZM7.34692 32.3242C7.21536 32.6719 7.15732 33.0837 7.36843 33.4493C7.58117 33.8178 7.97112 33.973 8.34054 34.0319C8.71814 34.0921 9.17595 34.0703 9.68244 33.994C10.7008 33.8407 12.0409 33.4467 13.599 32.8619C16.7228 31.6895 20.8121 29.716 25.1324 27.2217C29.4527 24.7273 33.2065 22.1727 35.7837 20.0536C37.0691 18.9966 38.0804 18.033 38.7224 17.2278C39.0417 16.8273 39.2895 16.4417 39.4261 16.0846C39.5598 15.7352 39.6204 15.3199 39.4077 14.9515C39.1954 14.5838 38.8068 14.4285 38.4381 14.3693C38.6197 14.6347 38.7944 14.9052 38.9619 15.1806C38.9664 15.1874 38.9706 15.1944 38.9747 15.2015C38.975 15.202 38.9753 15.2026 38.9756 15.2031C38.9839 15.2167 38.9921 15.2303 39.0003 15.2439L38.9973 15.2455C39.6733 16.7348 33.4044 21.8685 24.8824 26.7887C16.4375 31.6643 8.91735 34.5191 7.85576 33.2761L7.84461 33.2825C7.66948 32.9688 7.50346 32.6492 7.34692 32.3242Z" fill="url(#paint2_linear_248_5854)"/>
<circle opacity="0.7" cx="16" cy="18" r="6" fill="url(#paint3_linear_248_5854)"/>
<defs>
<linearGradient id="paint0_linear_248_5854" x1="32.5728" y1="34.0852" x2="16.493" y2="8.97012" gradientUnits="userSpaceOnUse">
<stop offset="0.0046461" stop-color="#79C0FB"/>
<stop offset="1" stop-color="#6796FF"/>
</linearGradient>
<linearGradient id="paint1_linear_248_5854" x1="70.258" y1="-19.1506" x2="-13.1081" y2="68.5328" gradientUnits="userSpaceOnUse">
<stop stop-color="#57E5F9"/>
<stop offset="1" stop-color="#ADFF87"/>
</linearGradient>
<linearGradient id="paint2_linear_248_5854" x1="70.2585" y1="-19.1506" x2="-13.1076" y2="68.5328" gradientUnits="userSpaceOnUse">
<stop stop-color="#57E5F9"/>
<stop offset="1" stop-color="#ADFF87"/>
</linearGradient>
<linearGradient id="paint3_linear_248_5854" x1="16" y1="12" x2="16" y2="24" gradientUnits="userSpaceOnUse">
<stop stop-color="#8FF2FF"/>
<stop offset="1" stop-color="#A4F4FF" stop-opacity="0"/>
</linearGradient>
</defs>
</svg>
