<svg xmlns="http://www.w3.org/2000/svg" xmlns:xlink="http://www.w3.org/1999/xlink" width="60" height="60" viewBox="0 0 60 60">
    <defs>
        <linearGradient id="a" x1="17.164%" x2="65.948%" y1="29.032%" y2="64.525%">
            <stop offset="0%" stop-color="#6B98E3"/>
            <stop offset="100%" stop-color="#4FABE8"/>
        </linearGradient>
        <linearGradient id="b" x1="17.164%" x2="65.948%" y1="31.571%" y2="62.766%">
            <stop offset="0%" stop-color="#6B98E3"/>
            <stop offset="100%" stop-color="#4FABE8"/>
        </linearGradient>
        <linearGradient id="d" x1="50%" x2="50%" y1="87.476%" y2="100%">
            <stop offset="0%" stop-color="#FFF" stop-opacity=".5"/>
            <stop offset="100%" stop-opacity=".5"/>
        </linearGradient>
        <path id="c" d="M2.5 17.5h55A2.5 2.5 0 0 1 60 20v32.5a2.5 2.5 0 0 1-2.5 2.5h-55A2.5 2.5 0 0 1 0 52.5V20a2.5 2.5 0 0 1 2.5-2.5z"/>
    </defs>
    <g fill="none" fill-rule="evenodd">
        <path fill="url(#a)" d="M0 42.5v-35A2.5 2.5 0 0 1 2.5 5h20A2.5 2.5 0 0 1 25 7.5V10h32.5a2.5 2.5 0 0 1 2.5 2.5v30a2.5 2.5 0 0 1-2.5 2.5h-55A2.5 2.5 0 0 1 0 42.5z"/>
        <path fill="#F7F7F7" d="M2.5 15h55a2.5 2.5 0 0 1 2.5 2.5v30a2.5 2.5 0 0 1-2.5 2.5h-55A2.5 2.5 0 0 1 0 47.5v-30A2.5 2.5 0 0 1 2.5 15z"/>
        <g>
            <use fill="url(#b)" xlink:href="#c"/>
            <use fill="url(#d)" fill-opacity=".2" xlink:href="#c"/>
        </g>
        <path fill="#32658F" d="M29.742 30.081v13.014c0 1.07-.632 2.038-1.61 2.468l-2.756 1.213A1.694 1.694 0 0 1 23 45.226v-.836c0-1.07.632-2.038 1.611-2.469l2.575-1.132a2.023 2.023 0 0 0 1.208-1.852V25.674a.674.674 0 0 1 1.11-.514l6.064 5.13a4.045 4.045 0 0 1 1.418 3.425l-.445 5.341a.733.733 0 0 1-.73.672v-2.636c0-1.19-.524-2.32-1.433-3.088l-4.636-3.923z"/>
    </g>
</svg>
