<svg xmlns="http://www.w3.org/2000/svg" xmlns:xlink="http://www.w3.org/1999/xlink" width="60" height="60" viewBox="0 0 60 60">
    <defs>
        <linearGradient id="a" x1="17.164%" x2="65.948%" y1="29.032%" y2="64.525%">
            <stop offset="0%" stop-color="#6B98E3"/>
            <stop offset="100%" stop-color="#4FABE8"/>
        </linearGradient>
        <linearGradient id="b" x1="17.164%" x2="65.948%" y1="31.571%" y2="62.766%">
            <stop offset="0%" stop-color="#6B98E3"/>
            <stop offset="100%" stop-color="#4FABE8"/>
        </linearGradient>
        <linearGradient id="d" x1="50%" x2="50%" y1="87.476%" y2="100%">
            <stop offset="0%" stop-color="#FFF" stop-opacity=".5"/>
            <stop offset="100%" stop-opacity=".5"/>
        </linearGradient>
        <path id="c" d="M2.5 17.5h55A2.5 2.5 0 0 1 60 20v32.5a2.5 2.5 0 0 1-2.5 2.5h-55A2.5 2.5 0 0 1 0 52.5V20a2.5 2.5 0 0 1 2.5-2.5z"/>
    </defs>
    <g fill="none" fill-rule="evenodd">
        <path fill="url(#a)" d="M0 42.5v-35A2.5 2.5 0 0 1 2.5 5h20A2.5 2.5 0 0 1 25 7.5V10h32.5a2.5 2.5 0 0 1 2.5 2.5v30a2.5 2.5 0 0 1-2.5 2.5h-55A2.5 2.5 0 0 1 0 42.5z"/>
        <path fill="#F7F7F7" d="M2.5 15h55a2.5 2.5 0 0 1 2.5 2.5v30a2.5 2.5 0 0 1-2.5 2.5h-55A2.5 2.5 0 0 1 0 47.5v-30A2.5 2.5 0 0 1 2.5 15z"/>
        <g>
            <use fill="url(#b)" xlink:href="#c"/>
            <use fill="url(#d)" fill-opacity=".2" xlink:href="#c"/>
        </g>
        <path fill="#32658F" fill-rule="nonzero" d="M28.667 25v1.333h-4.593c-.409 0-.74.349-.74.778v17.111c0 .43.331.778.74.778h11.852c.409 0 .74-.348.74-.778v-9.889H38v9.715c0 1.262-.977 2.285-2.182 2.285H24.182c-1.205 0-2.182-1.023-2.182-2.285V29h1.185H22v-1.714c0-1.263.977-2.286 2.182-2.286h4.485zM30 25l8 8h-7.111a.889.889 0 0 1-.889-.889V25z"/>
    </g>
</svg>
