<svg xmlns="http://www.w3.org/2000/svg" xmlns:xlink="http://www.w3.org/1999/xlink" width="24" height="24" viewBox="0 0 24 24">
    <defs>
        <linearGradient id="a" x1="17.164%" x2="65.948%" y1="29.032%" y2="64.525%">
            <stop offset="0%" stop-color="#6B98E3"/>
            <stop offset="100%" stop-color="#4FABE8"/>
        </linearGradient>
        <linearGradient id="b" x1="17.164%" x2="65.948%" y1="31.571%" y2="62.766%">
            <stop offset="0%" stop-color="#6B98E3"/>
            <stop offset="100%" stop-color="#4FABE8"/>
        </linearGradient>
        <linearGradient id="d" x1="50%" x2="50%" y1="87.476%" y2="100%">
            <stop offset="0%" stop-color="#FFF" stop-opacity=".5"/>
            <stop offset="100%" stop-opacity=".5"/>
        </linearGradient>
        <path id="c" d="M1 7h22a1 1 0 0 1 1 1v13a1 1 0 0 1-1 1H1a1 1 0 0 1-1-1V8a1 1 0 0 1 1-1z"/>
    </defs>
    <g fill="none" fill-rule="evenodd">
        <path fill="url(#a)" d="M0 17V3a1 1 0 0 1 1-1h8a1 1 0 0 1 1 1v1h13a1 1 0 0 1 1 1v12a1 1 0 0 1-1 1H1a1 1 0 0 1-1-1z"/>
        <path fill="#F7F7F7" d="M1 6h22a1 1 0 0 1 1 1v12a1 1 0 0 1-1 1H1a1 1 0 0 1-1-1V7a1 1 0 0 1 1-1z"/>
        <use fill="url(#b)" xlink:href="#c"/>
        <use fill="url(#d)" fill-opacity=".2" xlink:href="#c"/>
    </g>
</svg>
