<svg xmlns="http://www.w3.org/2000/svg" xmlns:xlink="http://www.w3.org/1999/xlink" width="60" height="60" viewBox="0 0 60 60">
    <defs>
        <linearGradient id="a" x1="17.164%" x2="65.948%" y1="29.032%" y2="64.525%">
            <stop offset="0%" stop-color="#6B98E3"/>
            <stop offset="100%" stop-color="#4FABE8"/>
        </linearGradient>
        <linearGradient id="b" x1="17.164%" x2="65.948%" y1="31.571%" y2="62.766%">
            <stop offset="0%" stop-color="#6B98E3"/>
            <stop offset="100%" stop-color="#4FABE8"/>
        </linearGradient>
        <linearGradient id="d" x1="50%" x2="50%" y1="87.476%" y2="100%">
            <stop offset="0%" stop-color="#FFF" stop-opacity=".5"/>
            <stop offset="100%" stop-opacity=".5"/>
        </linearGradient>
        <path id="c" d="M2.5 17.5h55A2.5 2.5 0 0 1 60 20v32.5a2.5 2.5 0 0 1-2.5 2.5h-55A2.5 2.5 0 0 1 0 52.5V20a2.5 2.5 0 0 1 2.5-2.5z"/>
    </defs>
    <g fill="none" fill-rule="evenodd">
        <path fill="url(#a)" d="M0 42.5v-35A2.5 2.5 0 0 1 2.5 5h20A2.5 2.5 0 0 1 25 7.5V10h32.5a2.5 2.5 0 0 1 2.5 2.5v30a2.5 2.5 0 0 1-2.5 2.5h-55A2.5 2.5 0 0 1 0 42.5z"/>
        <path fill="#F7F7F7" d="M2.5 15h55a2.5 2.5 0 0 1 2.5 2.5v30a2.5 2.5 0 0 1-2.5 2.5h-55A2.5 2.5 0 0 1 0 47.5v-30A2.5 2.5 0 0 1 2.5 15z"/>
        <g>
            <use fill="url(#b)" xlink:href="#c"/>
            <use fill="url(#d)" fill-opacity=".2" xlink:href="#c"/>
        </g>
        <path fill="#32658F" d="M31 28.465a1.488 1.488 0 1 0 0-2.977 1.488 1.488 0 0 0 0 2.977zm0 1.488A2.977 2.977 0 1 1 31 24a2.977 2.977 0 0 1 0 5.953zM20.688 43.35a1.488 1.488 0 1 0 2.578-1.489 1.488 1.488 0 0 0-2.578 1.489zm-1.289.744a2.977 2.977 0 1 1 5.156-2.977 2.977 2.977 0 0 1-5.156 2.977zm19.335-2.233a1.488 1.488 0 1 0 2.578 1.489 1.488 1.488 0 0 0-2.578-1.489zm-1.29-.744a2.977 2.977 0 1 1 5.157 2.977 2.977 2.977 0 0 1-5.156-2.977zm-1 4.278c.32.4.707.743 1.145 1.013A11.113 11.113 0 0 1 31 48.558c-2.464 0-4.742-.798-6.589-2.15.438-.27.825-.614 1.146-1.014A9.63 9.63 0 0 0 31 47.07a9.63 9.63 0 0 0 5.443-1.676zm4.198-7.198a9.675 9.675 0 0 0-5.5-9.546c.186-.464.298-.965.32-1.49a11.165 11.165 0 0 1 6.626 11.535 4.435 4.435 0 0 0-1.446-.5zM26.859 28.65a9.675 9.675 0 0 0-5.5 9.546 4.435 4.435 0 0 0-1.447.499 11.165 11.165 0 0 1 6.627-11.535c.02.525.133 1.026.32 1.49z"/>
    </g>
</svg>
