<svg xmlns="http://www.w3.org/2000/svg" width="48" height="48" viewBox="0 0 48 48">
    <defs>
        <linearGradient id="a" x1="0%" x2="102%" y1="0%" y2="101%">
            <stop offset="0%" stop-color="#3023AE"/>
            <stop offset="100%" stop-color="#954FD2"/>
        </linearGradient>
    </defs>
    <g fill="none" fill-rule="evenodd">
        <path fill="url(#a)" d="M16 0h16c8.837 0 16 7.163 16 16v16c0 8.837-7.163 16-16 16H16C7.163 48 0 40.837 0 32V16C0 7.163 7.163 0 16 0z"/>
        <path fill="#FFF" d="M17 18v18a1 1 0 0 0 1 1h12a1 1 0 0 0 1-1V18h2v18a3 3 0 0 1-3 3H18a3 3 0 0 1-3-3V18h2zm3-4v-2.43c0-1.006.14-1.546.4-2.035A2.726 2.726 0 0 1 21.536 8.4C22.024 8.139 22.564 8 23.57 8h.858c1.007 0 1.547.14 2.036.4.49.262.873.646 1.134 1.135.262.489.401 1.029.401 2.036V14h7a1 1 0 0 1 0 2H13a1 1 0 1 1 0-2h7zm2 0h4v-3a1 1 0 0 0-1-1h-2a1 1 0 0 0-1 1v3z"/>
    </g>
</svg>
