<svg xmlns="http://www.w3.org/2000/svg" width="256" height="256"><path fill="#383E4A" d="M-520-1575h256v256h-256z"/><g><path fill="#6CAEF1" fill-rule="evenodd" d="M-264 236c0 11.05-8.94 20-20 20h-216c-11.03 0-20-8.95-20-20V20c0-11.05 8.96-20 20-20h216c11.06 0 20 8.95 20 20v216z" clip-rule="evenodd"/><linearGradient id="a" x1="282.669" x2="193.296" y1="-1131.999" y2="-1131.999" gradientUnits="userSpaceOnUse"><stop offset="0" stop-color="#6CAEF1"/><stop offset="1" stop-color="#4799EB"/></linearGradient><path fill="url(#a)" d="M244.4-1226.82c0 .07.02.14.02.2v98.46l-.57 19.4v71.37c0 8.87-7.2 16.05-16.07 16.05h-71.02c-8.8 0-15.94-7.07-16.06-15.82v-83.1h-.02v-106.34c0-8.87 7.2-16.05 16.07-16.05h71.6c8.8 0 15.94 7.07 16.06 15.83z"/><linearGradient id="b" x1="-392.136" x2="-392.136" y1="-51.334" y2="-124.369" gradientUnits="userSpaceOnUse"><stop offset="0" stop-color="#4799EB"/><stop offset="1" stop-color="#3183D6"/></linearGradient><path fill="url(#b)" d="M-264.23-138.62l-8.94 59-.7 3.76c-1.8 8.78-5.83 15-12.7 16.48-.27.05-.56.1-.85.14-.22.03-.43.07-.65.1-.28.03-.57.04-.85.05-.3.03-.6.05-.9.05H-494.3c-8.88 0-13.9-6.7-15.95-16.8l-.7-3.77-9.1-60.2"/><path fill="#6CAEF1" fill-rule="evenodd" d="M-392-1889.17c70.7 0 128 57.3 128 128s-57.3 128-128 128-128-57.3-128-128 57.3-128 128-128zM-392 315c70.7 0 128 57.3 128 128s-57.3 128-128 128-128-57.3-128-128 57.32-128 128-128z" clip-rule="evenodd"/><linearGradient id="c" x1="-328.761" x2="-397.761" y1="-1829.119" y2="-1686.619" gradientUnits="userSpaceOnUse"><stop offset="0" stop-color="#4598EB"/><stop offset="1" stop-color="#6CAEF1"/></linearGradient><path fill="url(#c)" fill-rule="evenodd" d="M-264.28-1752.8l-47.1-47.1-90.62-28.77-50.98 25 36.07 114.58 52.83 52.86c54.62-12.16 96.08-59.2 99.8-116.55z" clip-rule="evenodd"/><path fill="#9DCDFE" fill-rule="evenodd" d="M-441.16-1805.74s-3.7 59.74 48 92.48l6.1 3.5s-17.88 3.64-19.2 3.48c-.72-.1-13.26.96-25.3-3.5-10.08-3.72-20.07-15.7-20.07-15.7s-21.43-27.96-21.88-69.35c-.02-1.4 2.65.13 2.68-1.3 0-.48.86-2.16.87-2.63 15.28-10.18 25.3-10.47 25.3-10.47" clip-rule="evenodd"/><path fill="#fff" fill-rule="evenodd" d="M-448.54-1830.8s14.3-14.4 30.53-15.7c16.22-1.32 39.18-2.38 54.95.87 15.78 3.24 19.73 6.9 27.05 13.96 7.3 7.04 26.36 29.54 25.3 34.9-.86 2.42-1.8 3.1-4.36 2.6-2.55-.48-26.92-13.95-72.4-13.95s-70.5 9.75-82.9 15.7c0 0-2.14 1.14-2.6 1.75-.74.94-.72-4.88 0-7.85 1.82-7.72 21-29.26 24.42-32.28z" clip-rule="evenodd"/><path fill="#9DCDFE" fill-rule="evenodd" d="M-339.82-1777.93s-11.6 40.83-44.44 62.56l-6.1 3.5s17.85 1.02 19.18.86c.76-.1 17.15 1.13 29.68-3.5 9.2-3.4 15.64-13.08 15.64-13.08s11.6-15.3 15.2-35.23" clip-rule="evenodd"/><path fill="#fff" d="M-324.74-1729.13c-4.72 4.65-33.43 16.62-66.8 16.62-33.4-.02-61.44-14.88-61.44-14.88 1.14 2.14 2.7 4.44 4.6 6.85 11.04 16.9 41.8 40.97 51.23 45.5 10.07 4.8 13.7 1.5 17.45-.9 29.94-16.8 47.58-42.9 51.85-49.02 1.5-1.95 2.54-3.4 3.1-4.18zM-382.23-1784.3s-6.1-.3-6.1 5.23c0 5.52 0 18.32 0 18.32s-.62 6.1 4.35 6.1 37.1.58 63.7 18.33c10.83-19.33 9.6-23.56 9.6-23.56s1.8-5.06-5.25-8.72c-5.4-2.8-31.36-15.38-66.3-15.7z"/><linearGradient id="d" x1="-391.998" x2="-391.998" y1="-1520.999" y2="-1323.794" gradientUnits="userSpaceOnUse"><stop offset="0" stop-color="#6CAEF1"/><stop offset="1" stop-color="#4799EB"/></linearGradient><path fill="url(#d)" fill-rule="evenodd" d="M-500-1565h216c11.05 0 20 8.95 20 20v206c0 11.05-8.95 20-20 20h-216c-11.04 0-20-8.95-20-20v-206c0-11.05 8.96-20 20-20z" clip-rule="evenodd"/><path fill="#fff" d="M-520-1555v34h256v-34c0-11.05-8.95-20-20-20h-216c-11.04 0-20 8.95-20 20z"/><path fill="#6CAEF1" fill-rule="evenodd" d="M-284.78-1557.5c-5.25 0-9.5 4.25-9.5 9.5s4.25 9.5 9.5 9.5 9.5-4.25 9.5-9.5-4.26-9.5-9.5-9.5zm-29 0c-5.25 0-9.5 4.25-9.5 9.5s4.25 9.5 9.5 9.5 9.5-4.25 9.5-9.5-4.26-9.5-9.5-9.5zm-29 0c-5.25 0-9.5 4.25-9.5 9.5s4.25 9.5 9.5 9.5 9.5-4.25 9.5-9.5-4.26-9.5-9.5-9.5z" clip-rule="evenodd"/><path fill="#C7E0F9" fill-rule="evenodd" d="M-484.93-1465.66h105.22c2.75 0 5-2.24 5-5v-6.33c0-2.75-2.25-5-5-5h-105.23c-2.76 0-5 2.25-5 5v6.34c0 2.76 2.24 5 5 5zm134.74 0h51.14c2.76 0 5-2.24 5-5v-6.33c0-2.75-2.24-5-5-5h-51.13c-2.75 0-5 2.25-5 5v6.34c0 2.76 2.25 5 5 5zm51.13 31.67H-404.3c-2.75 0-5 2.25-5 5v6.34c0 2.76 2.25 5 5 5h105.23c2.76 0 5-2.24 5-5v-6.33c0-2.75-2.24-5-5-5zm-185.86 16.34h51.12c2.75 0 5-2.24 5-5v-6.33c0-2.75-2.25-5-5-5h-51.13c-2.76 0-5 2.25-5 5v6.34c0 2.76 2.24 5 5 5zM-379.7-1383h-105.23c-2.76 0-5 2.25-5 5v6.34c0 2.76 2.24 5 5 5h105.22c2.75 0 5-2.24 5-5v-6.33c0-2.75-2.25-5-5-5zm80.63 0h-51.12c-2.75 0-5 2.25-5 5v6.34c0 2.76 2.25 5 5 5h51.13c2.77 0 5-2.24 5-5v-6.33c0-2.75-2.23-5-5-5z" clip-rule="evenodd"/><path fill="#6CAEF1" d="M-298.1-1180.23c0-5.16 0-43.97 0-43.97s.38-6.14-7.08-9.33c-7.46-3.2-87.25-24.93-87.25-24.93s-4.76-1.42-10.84-1.42c-.1 0-.2 0-.32 0-.1 0-.2 0-.3 0-6.08 0-10.85 1.42-10.85 1.42s-79.78 21.73-87.25 24.93c-7.46 3.2-7.07 9.33-7.07 9.33s0 38.8 0 43.97c0 5.15-2.06 46.17 15.18 89.9 17.25 43.7 65.5 75.15 78.25 82.9 4.86 2.94 8.9 3.72 12.06 3.57 3.17.15 7.2-.63 12.07-3.58 12.74-7.74 61-39.18 78.24-82.9s15.2-84.74 15.2-89.9z"/><linearGradient id="e" x1="-247.997" x2="-455.459" y1="-1131.98" y2="-1131.98" gradientUnits="userSpaceOnUse"><stop offset="0" stop-color="#6CAEF1"/><stop offset="1" stop-color="#4799EB"/></linearGradient><path fill="url(#e)" d="M-403.27-1003.98c3.16.15 7.2-.63 12.06-3.58 12.73-7.74 61-39.18 78.23-82.9s15.2-84.74 15.2-89.9c0-5.15 0-43.96 0-43.96s.38-6.14-7.1-9.34c-7.45-3.2-87.24-24.93-87.24-24.93s-4.77-1.4-10.84-1.4c-.1 0-.22 0-.33 0-.1 0-.2 0-.32 0l.33 256.02z"/><linearGradient id="f" x1="-356.441" x2="-356.441" y1="-1022.289" y2="-1133.225" gradientUnits="userSpaceOnUse"><stop offset="0" stop-color="#6CAEF1"/><stop offset="1" stop-color="#4799EB"/></linearGradient><path fill="url(#f)" d="M-394.17-1185.74l-9.42 64.66.02 4.9 65.24 65.26c10.2-11.44 19.44-24.67 25.2-39.28 1.4-3.58 2.68-7.13 3.85-10.66l-84.87-84.88z"/><linearGradient id="g" x1="-403.588" x2="-403.588" y1="-1188.297" y2="-1089.995" gradientUnits="userSpaceOnUse"><stop offset="0" stop-color="#fff"/><stop offset="1" stop-color="#CFE4F9"/></linearGradient><path fill="url(#g)" d="M-382.45-1167.16c0-11.67-9.46-21.14-21.14-21.14-11.67 0-21.13 9.47-21.13 21.14 0 8.14 4.6 15.2 11.35 18.73v27.35c0 2.76 2.23 5 5 5h8.7c2.75 0 5-2.24 5-5V-1148c7.2-3.36 12.23-10.66 12.23-19.16z"/><path fill="#F67474" fill-rule="evenodd" d="M-324.15-1108.26c28.8 0 52.15 23.35 52.15 52.15s-23.35 52.14-52.15 52.14c-28.8 0-52.15-23.35-52.15-52.15s23.35-52.16 52.15-52.16z" clip-rule="evenodd"/><circle cx="-391.998" cy="-817" r="128" fill="#6CAEF1"/><linearGradient id="h" x1="-360.997" x2="-360.997" y1="-747.162" y2="-915.675" gradientUnits="userSpaceOnUse"><stop offset="0" stop-color="#6CAEF1"/><stop offset="1" stop-color="#4799EB"/></linearGradient><path fill="url(#h)" d="M-264-817c0-.44 0-.87 0-1.3l-64.34-64.7h-93.25l-36.4 37.67.93 92.9 59.62 63.3c1.8.08 3.62.13 5.45.13 70.7 0 128-57.3 128-128z"/><path fill="#fff" fill-rule="evenodd" d="M-410.97-883H-454c-1.06 0-2 .42-2.72 1.1-.03.02-.07.04-.1.07-.05.05-.08.1-.12.15-.65.7-1.06 1.64-1.06 2.67v43.03c0 2.2 1.8 3.98 4.04 3.98h12.93c2.23 0 4.04-1.77 4.04-3.97V-862h26.03c2.2 0 3.98-1.82 3.98-4.05v-12.9c0-2.24-1.77-4.05-3.97-4.05zm83.92 1.33c-.04-.05-.08-.1-.12-.16-.03-.02-.07-.05-.1-.07-.7-.68-1.66-1.1-2.7-1.1h-43.05c-2.2 0-4 1.8-4 4.04v12.92c0 2.23 1.8 4.03 4 4.03H-347v26.03c0 2.2 1.8 3.98 4.04 3.98h12.92c2.24 0 4.04-1.77 4.04-3.97V-879c0-1.04-.4-1.97-1.05-2.67zm-3 79.66h-12.9c-2.24 0-4.05 1.77-4.05 3.97V-772h-26.02c-2.2 0-4 1.82-4 4.05v12.9c0 2.24 1.8 4.05 4 4.05h43.04c1.05 0 2-.42 2.7-1.1.04-.02.08-.04.1-.07.05-.05.1-.1.13-.16.65-.7 1.05-1.63 1.05-2.65v-43.05c0-2.2-1.8-3.98-4.04-3.98zm-80.92 30H-437v-26.03c0-2.2-1.8-3.98-4.03-3.98h-12.93c-2.23 0-4.04 1.77-4.04 3.97v43.05c0 1.02.4 1.95 1.06 2.66.04.05.07.1.12.15.03.03.07.05.1.08.7.68 1.66 1.1 2.7 1.1h43.05c2.2 0 3.98-1.8 3.98-4.04v-12.9c0-2.24-1.77-4.05-3.97-4.05z" clip-rule="evenodd"/><path fill="#F1F7FD" fill-rule="evenodd" d="M-467.5-600.58h183c11.06 0 20 8.95 20 20v123c0 11.04-8.94 20-20 20h-183c-11.03 0-20-8.96-20-20v-123c0-11.05 8.96-20 20-20z" clip-rule="evenodd"/><linearGradient id="i" x1="-286.638" x2="-286.638" y1="-566.838" y2="-448.578" gradientUnits="userSpaceOnUse"><stop offset="0" stop-color="#CAE1F5"/><stop offset="1" stop-color="#fff"/></linearGradient><path fill="url(#i)" fill-rule="evenodd" d="M-302.5-564.76l-6.3 127.18h24.3c11.06 0 20-8.96 20-20v-69.18l-38-38z" clip-rule="evenodd"/><path fill="#6CAEF1" fill-rule="evenodd" d="M-499.5-570.5h183c11.04 0 20 8.95 20 20v123c0 11.05-8.96 20-20 20h-183c-11.05 0-20-8.95-20-20v-123c0-11.04 8.95-20 20-20z" clip-rule="evenodd"/><linearGradient id="j" x1="-380.046" x2="-345.046" y1="-415.39" y2="-450.39" gradientUnits="userSpaceOnUse"><stop offset="0" stop-color="#6CAEF1"/><stop offset="1" stop-color="#4799EB"/></linearGradient><path fill="url(#j)" fill-rule="evenodd" d="M-296.5-427.5v-10.2l-64.7-64.7-73.45 61.9 33 33h85.14c11.04 0 20-8.95 20-20z" clip-rule="evenodd"/><path fill="#3084D9" fill-rule="evenodd" d="M-519.5-546.52h223v28h-223v-28z" clip-rule="evenodd"/><path fill="#fff" fill-rule="evenodd" d="M-359.76-501.22c-3.76-3.73-9.87-3.73-13.63 0l-47.32 47-21.9-21.74c-3.77-3.74-9.87-3.74-13.63 0-3.77 3.74-3.77 9.8 0 13.54l28.7 28.5c1.88 1.87 4.36 2.8 6.83 2.8 2.47 0 4.95-.93 6.83-2.8l54.14-53.76c3.76-3.74 3.76-9.8 0-13.54z" clip-rule="evenodd"/><linearGradient id="k" x1="-392.067" x2="-392.067" y1="-365.332" y2="-184.736" gradientUnits="userSpaceOnUse"><stop offset="0" stop-color="#4598EB"/><stop offset="1" stop-color="#6CAEF1"/></linearGradient><path fill="url(#k)" d="M-282.8-298.96c0-8.86-7.2-16.04-16.05-16.04h-186.43c-8.87 0-16.05 7.18-16.05 16.04l-18.73 157.93c0 8.85 7.18 16.03 16.04 16.03h223.9c8.87 0 16.05-7.18 16.05-16.03l-18.73-157.93z"/><path fill="#3183D6" d="M-290.02-59c.08 0 .15 0 .22 0 .23 0 .45-.03.68-.04-.3 0-.6.04-.9.04zM-287.63-59.2c-.2.04-.42.08-.64.1.2-.02.43-.06.64-.1zM-286.76-59.34c-.3.06-.58.1-.87.15.3-.04.6-.08.87-.14zM-288.27-59.1c-.28.03-.57.04-.85.06.28-.02.57-.03.85-.06z"/><linearGradient id="l" x1="-398.749" x2="-305.937" y1="189.437" y2="87.272" gradientUnits="userSpaceOnUse"><stop offset="0" stop-color="#6CAEF1"/><stop offset="1" stop-color="#4799EB"/></linearGradient><path fill="url(#l)" fill-rule="evenodd" d="M-300.75 39.6l-63.47 72.04-74.37-73.9-45.32 42.8V216l30.5 40H-284c11.05 0 20-8.95 20-20V76.36l-36.75-36.75z" clip-rule="evenodd"/><path fill="#9DCDFE" fill-rule="evenodd" d="M-427.6-251.94s-2.7 43.2 34.68 66.86l4.42 2.52s-12.92 2.64-13.88 2.52c-.52-.06-9.58.7-18.3-2.52-7.28-2.7-14.5-11.35-14.5-11.35s-15.5-20.23-15.82-50.15c0-1.02 1.92.1 1.94-.96 0-.34.62-1.56.64-1.9 11.04-7.36 18.3-7.57 18.3-7.57" clip-rule="evenodd"/><path fill="#fff" fill-rule="evenodd" d="M-432.95-270.06s10.34-10.4 22.08-11.36c11.73-.94 28.33-1.7 39.74.63 11.4 2.36 14.26 5 19.55 10.1 5.3 5.1 19.06 21.37 18.3 25.23-.63 1.76-1.32 2.25-3.16 1.9-1.85-.36-19.46-10.1-52.36-10.1s-50.95 7.05-59.92 11.36c0 0-1.55.8-1.9 1.25-.52.68-.5-3.52 0-5.68 1.33-5.58 15.2-21.15 17.67-23.33z" clip-rule="evenodd"/><path fill="#9DCDFE" fill-rule="evenodd" d="M-354.34-231.83s-8.4 29.52-32.13 45.23l-4.4 2.52s12.9.75 13.85.63c.55-.07 12.4.83 21.46-2.53 6.65-2.46 11.3-9.45 11.3-9.45s8.4-11.07 11-25.47" clip-rule="evenodd"/><path fill="#fff" d="M-343.44-196.56c-3.4 3.37-24.17 12.02-48.3 12.02-24.15 0-44.42-10.75-44.42-10.75.83 1.56 1.96 3.22 3.33 4.96 7.98 12.22 30.22 29.63 37.04 32.9 7.3 3.48 9.9 1.1 12.62-.64 21.65-12.15 34.4-31.02 37.5-35.45 1.07-1.4 1.83-2.47 2.24-3.03zM-385-236.44s-4.42-.2-4.42 3.78 0 13.25 0 13.25-.44 4.4 3.15 4.4 26.82.42 46.05 13.25c7.83-13.98 6.94-17.03 6.94-17.03s1.3-3.66-3.8-6.3c-3.88-2.04-22.67-11.13-47.93-11.36z"/><path fill="#F1F7FD" fill-rule="evenodd" d="M-305.64-102.5c6.63 0 12 5.37 12 12s-5.37 12-12 12-12-5.37-12-12 5.37-12 12-12z" clip-rule="evenodd"/><linearGradient id="m" x1="-390.571" x2="-390.571" y1="3.834" y2="399.37" gradientUnits="userSpaceOnUse"><stop offset="0" stop-color="#fff"/><stop offset="1" stop-color="#CFE4F9"/></linearGradient><path fill="url(#m)" d="M-305.26 38.2h-61.04c-4.43 0-8.03 3.56-8.03 7.93v60.14c0 4.37 3.6 7.92 8.03 7.92h61.04c4.43 0 8.03-3.56 8.03-7.93V46.13c0-4.37-3.6-7.92-8.03-7.92zm-109.58 107.47h-61.04c-4.44 0-8.03 3.55-8.03 7.92v60.1c0 4.38 3.58 7.92 8.02 7.92h61.04c4.43 0 8.03-3.54 8.03-7.9v-60.13c0-4.38-3.6-7.93-8.04-7.93zm109.58 0h-61.04c-4.43 0-8.03 3.55-8.03 7.92v60.1c0 4.38 3.6 7.92 8.03 7.92h61.04c4.43 0 8.03-3.54 8.03-7.9v-60.13c0-4.38-3.6-7.93-8.03-7.93z"/><linearGradient id="n" x1="-392.436" x2="-305.149" y1="546.036" y2="449.952" gradientUnits="userSpaceOnUse"><stop offset="0" stop-color="#6CAEF1"/><stop offset="1" stop-color="#4799EB"/></linearGradient><path fill="url(#n)" fill-rule="evenodd" d="M-367.57 568.63c44.4-8.58 80.6-40.07 95.82-81.7l-72.6-72.6-36.32 30.97-40.72 69.5 53.83 53.83z" clip-rule="evenodd"/><path fill="#D1E7FE" fill-rule="evenodd" d="M-440.44 36.37l35.14 35c2.56 2.55 2.56 6.67 0 9.2l-35.14 35c-2.55 2.56-6.7 2.56-9.25 0l-35.13-35c-2.56-2.53-2.56-6.65 0-9.2l35.14-35c2.57-2.54 6.7-2.54 9.26 0z" clip-rule="evenodd"/><linearGradient id="o" x1="-391.989" x2="-391.989" y1="370" y2="605.213" gradientUnits="userSpaceOnUse"><stop offset="0" stop-color="#fff"/><stop offset="1" stop-color="#CFE4F9"/></linearGradient><path fill="url(#o)" fill-rule="evenodd" d="M-327.2 431.5l-60.13-60.1c-1.3-1.3-2.98-1.93-4.66-1.93-1.67 0-3.36.63-4.64 1.92l-60.12 60.1c-.16.16-.3.33-.44.5-.06.06-.1.13-.15.2-.08.1-.16.2-.23.3-.06.1-.1.18-.16.27-.06.1-.12.2-.17.3-.06.08-.1.17-.14.26-.05.1-.1.2-.15.3-.02.1-.05.2-.08.27-.05.12-.1.23-.12.35-.03.1-.05.17-.07.26-.03.13-.06.25-.1.37 0 .1-.02.2-.04.3-.02.12-.04.22-.05.33-.02.2-.03.4-.03.6 0 0 0 .03 0 .05 0 0 0 .02 0 .04 0 .2 0 .4.03.6 0 .1.03.2.04.3 0 .1.02.22.04.32.02.12.06.23.1.35 0 .1.03.18.06.28.03.1.07.22.1.32.05.1.08.2.1.28.06.1.1.2.15.3.05.1.1.2.14.28.04.1.1.2.15.28s.1.2.17.28c.07.1.14.2.22.3.05.07.1.15.16.22.27.33.58.64.92.9.07.07.14.12.22.18.1.07.2.15.3.22.08.06.18.1.27.17.1.05.2.1.28.15.1.06.2.1.3.15.1.04.2.1.28.13.1.04.2.08.3.1.1.05.2.08.3.12.1.03.22.05.33.08.1.02.2.05.3.07.12.03.26.05.4.06.07 0 .14.03.22.04.22.02.44.03.67.03h29.43v68.7c0 2.84 2.28 5.13 5.1 5.13h51.18c2.82 0 5.1-2.3 5.1-5.12v-68.7h29.2c.04 0 .08 0 .13 0 1.72.03 3.45-.6 4.76-1.92 2.55-2.56 2.55-6.7 0-9.27z" clip-rule="evenodd"/><linearGradient id="p" x1="-391.989" x2="-391.989" y1="611.072" y2="959.687" gradientUnits="userSpaceOnUse"><stop offset="0" stop-color="#6CAEF1"/><stop offset="1" stop-color="#4799EB"/></linearGradient><path fill="url(#p)" d="M-282.3 664.48c-.08 0-.16 0-.25 0h-113.88L-418.87 630h-82.56c-10.25 0-18.55 8.32-18.55 18.57v218.85c0 10.17 8.17 18.42 18.3 18.56h219.13c10.25 0 18.56-8.3 18.56-18.57v-184.4c0-10.16-8.17-18.4-18.3-18.55z"/><linearGradient id="q" x1="-425.218" x2="-315.433" y1="893.74" y2="788.246" gradientUnits="userSpaceOnUse"><stop offset="0" stop-color="#6CAEF1"/><stop offset="1" stop-color="#4799EB"/></linearGradient><path fill="url(#q)" d="M-302.63 664.5l-.66-.03h-25.4v105.2l-12.23 43.83-3.97 18.93 10.03 16.7 38.25 36.87h14.07c10.25 0 18.56-8.3 18.56-18.57v-164.3l-38.63-38.63z"/><path fill="#fff" fill-rule="evenodd" d="M-302.63 675.47v-11h-26v10.98h-26v11h26v-10.98h26zm0 22v-11.02h-26v11h26zm-52 11h26v10.98h26v-11h-26v-11h-26v11zm0 11v11h26v-11h-26zm26 22h26v-11h-26v11zm-26 11h26v11h26v-11h-26v-11h-26v11zm0 22h26v-11h-26v11zM-307.7 830.2l-5.48-41.65h-.04c-.37-7.83-6.8-14.07-14.7-14.07-7.9 0-14.32 6.24-14.7 14.07h-.05l-6.07 37.74c-.58 1.82-.9 3.76-.93 5.76l-.02.14h.02c0 .1 0 .2 0 .3 0 11.5 9.42 20.82 21.06 20.82s21.06-9.33 21.06-20.83c0-.78-.05-1.55-.13-2.3zm-20.94 15.66c-7.37 0-13.34-6-13.34-13.38 0-7.4 5.97-13.37 13.34-13.37s13.34 6 13.34 13.38c0 7.4-5.97 13.38-13.34 13.38z" clip-rule="evenodd"/><linearGradient id="r" x1="-391.993" x2="-391.993" y1="930" y2="1211.248" gradientUnits="userSpaceOnUse"><stop offset="0" stop-color="#6CAEF1"/><stop offset="1" stop-color="#4799EB"/></linearGradient><path fill="url(#r)" fill-rule="evenodd" d="M-392 945c70.7 0 128 57.32 128 128 0 70.7-57.3 128-128 128s-128-57.3-128-128c0-70.68 57.3-128 128-128z" clip-rule="evenodd"/><path fill="#4799EB" fill-rule="evenodd" d="M-458.4 1140.9l59.93 59.94c2.14.1 4.3.16 6.48.16 70.7 0 128-57.3 128-128 0-1.95-.04-3.9-.13-5.83l-54.37-54.37-139.9 128.1z" clip-rule="evenodd"/><linearGradient id="s" x1="-391.993" x2="-391.993" y1="963.329" y2="1149.002" gradientUnits="userSpaceOnUse"><stop offset="0" stop-color="#fff"/><stop offset="1" stop-color="#D0E4F9"/></linearGradient><path fill="url(#s)" fill-rule="evenodd" d="M-392 978c52.47 0 95 42.53 95 95s-42.53 95.02-95 95.02c-52.46 0-95-42.54-95-95S-444.45 978-392 978z" clip-rule="evenodd"/><path fill="#D0E4F9" fill-rule="evenodd" d="M-301.68 1103.08l-38.6-38.58-70.34 28.33-11.3 24.76 48.63 48.6c33.67-6.65 60.94-31.1 71.62-63.12z" clip-rule="evenodd"/><linearGradient id="t" x1="-381.994" x2="-381.994" y1="1019.08" y2="1149.857" gradientUnits="userSpaceOnUse"><stop offset="0" stop-color="#6CAEF1"/><stop offset="1" stop-color="#4799EB"/></linearGradient><path fill="url(#t)" fill-rule="evenodd" d="M-337.93 1071.8c0-.14 0-.3 0-.44-.13-4.1-2.3-8.07-6.1-10.28l-63.66-36.56c-.04-.03-.1-.05-.13-.07-.2-.12-.42-.22-.64-.33-.15-.07-.3-.15-.45-.22-.2-.1-.4-.16-.62-.24-.18-.07-.35-.14-.53-.2-.18-.05-.36-.1-.53-.14-.22-.06-.44-.13-.66-.17-.15-.03-.3-.05-.44-.08-.26-.04-.52-.1-.77-.12-.14 0-.27-.02-.4-.03-.28-.02-.55-.04-.83-.04-.04 0-.08 0-.12 0-.1 0-.22 0-.32 0-.25.02-.5.03-.75.05-.18.02-.37.04-.55.07-.2.02-.4.05-.6.1-.2.03-.43.08-.65.13-.16.04-.32.08-.47.12-.23.07-.46.14-.7.22-.13.05-.28.1-.42.16-.2.1-.43.18-.64.28-.15.08-.3.15-.45.23-.18.1-.37.2-.56.3-.16.1-.32.2-.48.3-.17.1-.32.22-.48.33-.17.12-.34.25-.5.38-.15.1-.28.23-.42.35-.16.13-.32.27-.47.42-.15.13-.28.27-.4.4-.15.16-.3.3-.42.45-.14.17-.28.35-.42.53-.1.13-.2.26-.3.4-.15.22-.3.45-.44.7-.05.07-.1.14-.15.2 0 .04-.03.08-.04.1-.15.27-.3.54-.42.82-.03.1-.08.2-.13.3-.1.25-.2.52-.3.8-.05.1-.1.22-.14.34-.07.24-.14.48-.2.73-.04.14-.08.3-.12.45-.03.2-.06.42-.1.63-.03.2-.06.4-.08.6-.03.17-.03.36-.05.55 0 .22-.03.44-.03.66 0 .05 0 .1 0 .16v73.66c0 .04 0 .1 0 .13 0 .14 0 .27.02.4.28 6.53 5.64 11.75 12.22 11.75 1.33 0 2.6-.22 3.8-.6.92-.28 1.83-.65 2.7-1.14l63.16-36.83c3.9-2.2 6.1-6.16 6.23-10.27 0-.15 0-.3 0-.46z" clip-rule="evenodd"/><linearGradient id="u" x1="-391.993" x2="-391.993" y1="1298.501" y2="2184.043" gradientUnits="userSpaceOnUse"><stop offset="0" stop-color="#6CAEF1"/><stop offset="1" stop-color="#4799EB"/></linearGradient><path fill="url(#u)" fill-rule="evenodd" d="M-500 1260.2h216c11.05 0 20 8.96 20 20v216c0 11.06-8.95 20-20 20h-216c-11.04 0-20-8.94-20-20v-216c0-11.04 8.96-20 20-20z" clip-rule="evenodd"/><linearGradient id="v" x1="-327.993" x2="-327.993" y1="1388.209" y2="1516.209" gradientUnits="userSpaceOnUse"><stop offset="0" stop-color="#fff"/><stop offset="1" stop-color="#D0E4F9"/></linearGradient><path fill="url(#v)" fill-rule="evenodd" d="M-392 1516.2h110.74c9.75-1.33 17.27-9.67 17.27-19.78v-108.2h-128v128z" clip-rule="evenodd"/><linearGradient id="w" x1="-526.226" x2="-368.058" y1="1253.981" y2="1412.149" gradientUnits="userSpaceOnUse"><stop offset="0" stop-color="#6CAEF1"/><stop offset="1" stop-color="#4799EB"/></linearGradient><path fill="url(#w)" fill-rule="evenodd" d="M-392 1260.2h-110.73c-9.75 1.35-17.27 9.7-17.27 19.8v108.2h128v-128z" clip-rule="evenodd"/><path fill="#fff" fill-rule="evenodd" d="M-431.22 1318.63h-19.72v-19.72c0-1.27-1.04-2.3-2.32-2.3h-9.28c-1.28 0-2.32 1.03-2.32 2.3v19.73h-19.72c-1.28 0-2.32 1.04-2.32 2.32v9.28c0 1.28 1.04 2.32 2.32 2.32h19.72v19.72c0 1.28 1.04 2.32 2.32 2.32h9.28c1.28 0 2.32-1.05 2.32-2.33v-19.72h19.72c1.28 0 2.32-1.04 2.32-2.32v-9.28c0-1.28-1.04-2.32-2.32-2.32zM-352.77 1318.63h53.36c1.27 0 2.3 1.04 2.3 2.32v9.28c0 1.28-1.03 2.32-2.3 2.32h-53.37c-1.28 0-2.32-1.04-2.32-2.32v-9.28c0-1.28 1.05-2.32 2.33-2.32zM-448.06 1455.36l13.95-13.94c.9-.9.9-2.38 0-3.28l-6.57-6.57c-.9-.9-2.38-.9-3.3 0l-13.93 13.95-13.94-13.95c-.9-.9-2.38-.9-3.3 0l-6.55 6.57c-.9.9-.9 2.37 0 3.28l13.96 13.94-13.95 13.94c-.9.9-.9 2.38 0 3.28l6.57 6.57c.9.9 2.38.9 3.3 0l13.93-13.95 13.94 13.95c.9.9 2.38.9 3.28 0l6.57-6.57c.9-.9.9-2.37 0-3.28l-13.96-13.94z" clip-rule="evenodd"/><path fill="#499AEB" fill-rule="evenodd" d="M-299.4 1437.34h-53.37c-1.28 0-2.32 1.04-2.32 2.32v9.28c0 1.28 1.05 2.32 2.33 2.32h53.36c1.27 0 2.3-1.04 2.3-2.32v-9.28c0-1.28-1.02-2.32-2.3-2.32zm0 24h-53.37c-1.28 0-2.32 1.04-2.32 2.32v9.28c0 1.28 1.05 2.32 2.33 2.32h53.36c1.27 0 2.3-1.04 2.3-2.32v-9.28c0-1.28-1.02-2.32-2.3-2.32z" clip-rule="evenodd"/><linearGradient id="x" x1="-391.989" x2="-391.989" y1="1593.001" y2="1877.693" gradientUnits="userSpaceOnUse" gradientTransform="translate(-14.008)"><stop offset="0" stop-color="#6CAEF1"/><stop offset="1" stop-color="#4799EB"/></linearGradient><path fill="url(#x)" fill-rule="evenodd" d="M-292 1614c0-21.54-17.46-39-39-39s-39 17.46-39 39c0 17.72 11.82 32.67 28 37.42v91.52l-106.86-106.86c4.33-6.27 6.86-13.88 6.86-22.08 0-21.54-17.46-39-39-39s-39 17.46-39 39c0 17.35 11.34 32.05 27 37.1v103.8c-15.66 5.05-27 19.75-27 37.1 0 21.54 17.46 39 39 39s39-17.46 39-39c0-18.08-12.3-33.3-29-37.7v-102.6c1.7-.45 3.36-1 4.97-1.68l111.6 111.6c3.36 3.36 8.36 4.07 12.43 2.17v21.2c0 6.08 4.93 11 11 11 6.08 0 11-4.92 11-11v-133.58c16.18-4.75 28-19.7 28-37.42z" clip-rule="evenodd"/><linearGradient id="y" x1="-349.831" x2="-319.331" y1="1692.332" y2="1796.831" gradientUnits="userSpaceOnUse"><stop offset="0" stop-color="#fff"/><stop offset="1" stop-color="#D0E4F9"/></linearGradient><path fill="url(#y)" d="M-265.72 1781.72l-8.44-7.14c-1.05-.93-5-4.84-4.8-11.15-.02 0-.02 0-.02 0 .06-5.43 3.17-9 4.5-10.26l8.77-7.4c1.43-.85 1.93-2.7 1.1-4.15l-13.12-22.94c-.83-1.45-2.67-1.95-4.1-1.1l-10.36 3.77c-1.33.45-6.67 1.93-12-1.4 0 0 0 0 0 .02-4.7-2.77-6.24-7.3-6.68-9.1l-2-11.37c0-1.67-1.34-3.03-3-3.03h-26.27c-1.67 0-3 1.36-3 3.03l-1.93 10.93c-.27 1.36-1.63 6.62-6.95 9.64-5.26 3.13-10.46 1.7-11.77 1.25l-10.36-3.8c-1.43-.83-3.27-.34-4.1 1.1l-13.14 22.94c-.83 1.45-.34 3.3 1.1 4.14l8.78 7.42c1.33 1.27 4.43 4.83 4.5 10.27 0 0-.02 0-.02 0 .18 6.3-3.77 10.2-4.82 11.14l-8.45 7.12c-1.43.84-1.92 2.7-1.1 4.14l13.12 22.94c.83 1.45 2.67 1.95 4.1 1.1l10.78-3.92c1.77-.52 6.43-1.45 11.17 1.3 5.5 2.98 6.9 8.4 7.17 9.77l1.92 10.92c0 1.67 1.34 3.03 3 3.03h26.28c1.66 0 3-1.36 3-3.03l2-11.37c.44-1.82 2-6.44 6.86-9.2 4.8-2.88 9.58-1.93 11.37-1.4l10.76 3.95c1.44.83 3.28.34 4.1-1.1l13.15-22.94c.83-1.45.34-3.3-1.1-4.14z"/><path fill="#D0E4F9" d="M-277.74 1808.8l13.14-22.94c.83-1.45.33-3.3-1.1-4.14l-8.45-7.14c-.8-.72-3.36-3.25-4.38-7.28l-25.08-25.08-43.87 49.17s21.84 22.6 34.82 35.47l1.8-10.32c.45-1.82 2-6.44 6.86-9.2 4.82-2.88 9.6-1.93 11.38-1.4l10.77 3.95c1.44.83 3.28.34 4.1-1.1z"/><linearGradient id="z" x1="-328.997" x2="-328.997" y1="1734.334" y2="1798.405" gradientUnits="userSpaceOnUse"><stop offset="0" stop-color="#6CAEF1"/><stop offset="1" stop-color="#4799EB"/></linearGradient><path fill="url(#z)" fill-rule="evenodd" d="M-329 1730.36c18.33 0 33.2 14.93 33.2 33.35s-14.87 33.36-33.2 33.36c-18.32 0-33.18-14.93-33.18-33.35s14.86-33.34 33.18-33.34z" clip-rule="evenodd"/><linearGradient id="A" x1="-328.997" x2="-328.997" y1="1744.668" y2="1793.258" gradientUnits="userSpaceOnUse"><stop offset="0" stop-color="#fff"/><stop offset="1" stop-color="#D0E4F9"/></linearGradient><path fill="url(#A)" fill-rule="evenodd" d="M-329 1742.2c11.9 0 21.52 9.64 21.52 21.5s-9.63 21.5-21.52 21.5c-11.88 0-21.52-9.62-21.52-21.5s9.64-21.5 21.52-21.5z" clip-rule="evenodd"/><ellipse cx="-328.997" cy="1763.71" fill="#6CAEF1" fill-rule="evenodd" clip-rule="evenodd" rx="4.699" ry="4.724"/><linearGradient id="B" x1="127.997" x2="127.997" y1="-1903.832" y2="-1826.318" gradientUnits="userSpaceOnUse"><stop offset="0" stop-color="#6CAEF1"/><stop offset="1" stop-color="#4799EB"/></linearGradient><path fill="url(#B)" d="M222.85-1860.9c-.07 0-.14 0-.2 0h-98.5l-19.4-19.43h-71.4c-8.86 0-16.04 7.2-16.04 16.06v91c0 8.8 7.08 15.93 15.84 16.04h83.1l.02.02h106.38c8.86 0 16.04-7.2 16.04-16.06v-71.58c0-8.8-7.06-15.93-15.83-16.05z"/><path fill="#fff" fill-rule="evenodd" d="M32.14-1843.53h191.7v51.6H32.15v-51.6z" clip-rule="evenodd"/><linearGradient id="C" x1="127.997" x2="127.997" y1="-1817.306" y2="-1632.816" gradientUnits="userSpaceOnUse"><stop offset="0" stop-color="#6CAEF1"/><stop offset="1" stop-color="#4799EB"/></linearGradient><path fill="url(#C)" d="M239.24-1662.73c0 8.87-7.18 16.06-16.05 16.06H32.8c-8.86 0-16.04-7.2-16.04-16.06L.03-1804.66c0-8.87 7.18-16.06 16.04-16.06h223.85c8.87 0 16.05 7.2 16.05 16.06l-16.73 141.93z"/><path fill="#6CAEF1" d="M204.17-1479.93c-8.02-33.87-38.36-59.06-74.58-59.06-40.54 0-73.72 31.56-76.48 71.52-29.5 1.37-53 25.8-53 55.73 0 30.3 24.1 54.97 54.12 55.77h.5c.34 0 .67.02 1 .02.22 0 .44 0 .67 0h136.5c.24 0 .5 0 .74 0 34.37 0 62.23-27.95 62.23-62.43 0-30.87-22.35-56.5-51.7-61.53z"/><linearGradient id="D" x1="143.405" x2="202.517" y1="-1357.031" y2="-1422.1" gradientUnits="userSpaceOnUse"><stop offset="0" stop-color="#6CAEF1"/><stop offset="1" stop-color="#4799EB"/></linearGradient><path fill="url(#D)" fill-rule="evenodd" d="M242-1379.1l-78.16-78.14-35.94 30.66-20.14 33.8 36.8 36.8h48.34c.25 0 .5.02.75.02 19.52 0 36.93-9.02 48.34-23.13z" clip-rule="evenodd"/><path fill="#fff" fill-rule="evenodd" d="M224.78-1043v-178h-52.02v178h52.02z" clip-rule="evenodd"/><linearGradient id="E" x1="127.997" x2="127.997" y1="-1490.839" y2="-1331.12" gradientUnits="userSpaceOnUse"><stop offset="0" stop-color="#fff"/><stop offset="1" stop-color="#CFE4F9"/></linearGradient><path fill="url(#E)" fill-rule="evenodd" d="M172-1449.07l-40.84-40.83c-.87-.87-2.02-1.3-3.16-1.3-1.15 0-2.3.43-3.16 1.3L84-1449.07c-.1.1-.2.2-.3.33-.02.04-.05.1-.1.13-.04.06-.1.13-.15.2-.03.07-.07.12-.1.18-.04.07-.08.13-.12.2-.03.06-.06.12-.1.18-.02.07-.05.14-.1.22 0 .05-.03.1-.05.17-.03.08-.06.16-.08.24-.02.05-.03.1-.05.17-.02.08-.04.16-.06.24-.02.08-.03.15-.04.22 0 .07-.02.14-.03.22 0 .13-.02.27-.02.4 0 0 0 .02 0 .04 0 0 0 .02 0 .02 0 .14 0 .28.03.42 0 .07.02.13.03.2 0 .08.02.15.03.22 0 .08.03.16.05.24 0 .06.03.12.05.2.02.06.05.13.07.2.03.07.05.14.07.2.03.07.07.13.1.2.03.06.06.13.1.2.02.06.06.12.1.18.04.06.07.13.1.2.06.06.1.12.16.2.04.04.07.1.1.14.2.22.4.43.64.62.04.04.1.07.15.1.05.06.12.1.18.16.07.04.13.08.2.12.06.03.12.07.18.1.07.04.13.07.2.1s.13.06.2.1c.06.02.13.04.2.06.07.03.13.05.2.07.08.03.15.04.22.06.07 0 .14.03.2.04.1.02.2.03.28.04.05 0 .1.02.15.02.16.02.32.02.47.02h20v46.66c0 1.92 1.54 3.48 3.45 3.48h34.76c1.9 0 3.46-1.56 3.46-3.48v-46.66h19.82c.03 0 .06 0 .1 0 1.16.02 2.33-.4 3.22-1.3 1.74-1.73 1.74-4.55 0-6.3z" clip-rule="evenodd"/><linearGradient id="F" x1="106.182" x2="106.182" y1="-1251.999" y2="-956.982" gradientUnits="userSpaceOnUse"><stop offset="0" stop-color="#6CAEF1"/><stop offset="1" stop-color="#4799EB"/></linearGradient><path fill="url(#F)" d="M35.2-1243.2c-8.88 0-16.07 7.18-16.07 16.04v190.33c0 8.85 7.2 16.03 16.06 16.03l141.97 16.73c8.87 0 16.07-7.18 16.07-16.04v-223.8c0-8.84-7.2-16.03-16.07-16.03L35.2-1243.2z"/><linearGradient id="G" x1="16.502" x2="188.038" y1="-1083.01" y2="-1083.01" gradientUnits="userSpaceOnUse"><stop offset="0" stop-color="#6CAEF1"/><stop offset="1" stop-color="#4799EB"/></linearGradient><path fill="url(#G)" d="M159-1161.95l-66.18 11.2-13.15 57.7 41.17 41.16s31.92 31.64 46.96 46.77l8.94 1.06c8.87 0 16.07-7.18 16.07-16.04v-108.04l-33.8-33.8z"/><linearGradient id="H" x1="111.182" x2="111.182" y1="-1216.666" y2="-1031.956" gradientUnits="userSpaceOnUse"><stop offset="0" stop-color="#fff"/><stop offset="1" stop-color="#CFE4F9"/></linearGradient><path fill="url(#H)" d="M93.6-1206.48c2.5.4 10.13 1.37 17.93 6.22s24.7 17.82 24.7 17.82c-3.83-10.05-15-26.2-22.8-31.58-1.54-1.07-3.53-1.85-5.38-2.18-3.06-.55-6.26-.07-9.26.67-1.4.34-2.92.84-4.27 1.58-1.5.82-2.8 1.93-3.58 3.46-.9 1.8.12 3.6 2.64 4.02zm64.48 43.05c-7.08-6.58-18.24-5.38-18.24-5.38l-9.96-10.3c-11.76-11.6-30.35-17.22-50.75-16.74-20.4.48-20.27 18.18-20.27 18.18s-.12 1.9 0 4.46c.1 2.55 1.92 2.24 1.92 2.24 1.56-.72 17.15-2.5 29.63-2.87 12.5-.36 18.73 4.42 19.7 6.45-14.05 3-28.2 11.25-28.2 11.25-15.84 8-28.8 44-6.25 60.4 22.56 16.38 50.87 3.46 62.15-11.96 11.28-15.42 9.48-37.8 8.88-42.8 3-.13 16.68 6.93 16.68 6.93s1.8-13.28-5.28-19.86zm-30.66 40.73c-4.68 18.12-22.94 18.83-29.33 16.5-6.4-2.33-12.43-11.4-8.47-25.3 3.96-13.9 22.3-18.12 22.3-18.12l11.98-2.42s8.2 11.22 3.52 29.34zm-20.57 52.32c-6.43 0-11.64 5.2-11.64 11.6s5.22 11.6 11.65 11.6c6.42 0 11.63-5.2 11.63-11.6s-5.2-11.6-11.63-11.6z"/><path fill="#6CAEF1" fill-rule="evenodd" d="M132-944.97c-68.5 0-124.02 55.74-124.02 124.5 0 20.46 4.92 39.77 13.63 56.8L.7-697.84c-1.58 5.44-.14 7.43 0 7.57 2.1 2.1 3.64 1.15 7.56 0l58.3-24.46c19 11.88 41.42 18.75 65.45 18.75 68.48 0 124-55.74 124-124.5s-55.52-124.5-124-124.5zM132-314.97c-68.5 0-124.02 55.74-124.02 124.5 0 20.46 4.92 39.77 13.63 56.8L.7-67.85C-.9-62.4.54-60.4.68-60.27c2.1 2.1 3.64 1.15 7.56 0l58.3-24.46c19 11.88 41.42 18.75 65.45 18.75 68.48 0 124-55.74 124-124.5s-55.52-124.5-124-124.5z" clip-rule="evenodd"/><linearGradient id="I" x1="133.623" x2="221.444" y1="-781.561" y2="-869.381" gradientUnits="userSpaceOnUse"><stop offset="0" stop-color="#6CAEF1"/><stop offset="1" stop-color="#4799EB"/></linearGradient><path fill="url(#I)" fill-rule="evenodd" d="M254.96-804.33l-55.08-55.08-128.38 4.95v78.61l79.4 78.34c54.3-8.5 96.97-52.08 104.06-106.83z" clip-rule="evenodd"/><path fill="#fff" fill-rule="evenodd" d="M82.2-844H191.8c5.65 0 10.23-4.47 10.23-10s-4.57-9.97-10.22-9.97H82.2C76.57-863.97 72-859.5 72-854s4.58 10 10.23 10zm109.58 17H82.2C76.57-827 72-822.5 72-817s4.58 10 10.23 10H191.8c5.65 0 10.23-4.5 10.23-10s-4.57-10-10.22-10zm-50 37H82.2C76.57-790 72-785.52 72-780s4.58 9.98 10.23 9.98h59.57c5.65 0 10.23-4.48 10.23-10s-4.58-9.98-10.23-9.98z" clip-rule="evenodd"/><path fill="#6CAEF1" fill-rule="evenodd" d="M128-630c70.7 0 128.03 57.3 128.03 128S198.7-374 128-374-.04-431.3-.04-502 57.28-630 128-630z" clip-rule="evenodd"/><linearGradient id="J" x1="79.826" x2="230.068" y1="-420.192" y2="-570.434" gradientUnits="userSpaceOnUse"><stop offset="0" stop-color="#6CAEF1"/><stop offset="1" stop-color="#4799EB"/></linearGradient><path fill="url(#J)" d="M176.77-538.9l-40.1-40.1-36.25 42.1-25.65-25.65-22.97 35.32 10.44 10.44-37.08 33.16 114.7 109.1c65.16-6 116.2-60.76 116.2-127.46 0-3.5-.16-6.98-.44-10.4l-40.65-40.67-38.2 14.16z"/><path fill="#A9D3FE" d="M195.23-524.5c11.65 0 21.1-9.43 21.1-21.08s-9.45-21.1-21.1-21.1c-11.65 0-21.1 9.45-21.1 21.1s9.45 21.1 21.1 21.1zm36.6 14.56c-8.36-7.5-35.75-7.45-35.75-7.45h-3.17s-27.38-.03-35.73 7.46-1.54 22.48-1.54 22.48 9.2 16.93 28.7 23.17c3.16.82 6.36 1.55 9.63 1.62 2.9.06 5.76-.52 8.6-1.12.7-.15 1.4-.3 2.1-.5 19.5-6.23 28.7-23.16 28.7-23.16s6.83-15-1.53-22.48zM62.23-524.5c11.65 0 21.1-9.43 21.1-21.08s-9.45-21.1-21.1-21.1c-11.65 0-21.1 9.45-21.1 21.1s9.45 21.1 21.1 21.1zm36.6 14.56c-8.36-7.5-35.75-7.45-35.75-7.45H59.9s-27.38-.03-35.74 7.46-1.53 22.48-1.53 22.48 9.2 16.93 28.7 23.17c3.16.82 6.35 1.55 9.63 1.62 2.9.06 5.76-.52 8.58-1.12.7-.15 1.43-.3 2.13-.5 19.5-6.23 28.7-23.16 28.7-23.16s6.82-15-1.54-22.48z"/><path fill="#fff" d="M127.43-516.8c17.6 0 31.9-14.22 31.9-31.77s-14.3-31.78-31.9-31.78-31.9 14.22-31.9 31.78 14.3 31.78 31.9 31.78zm55.33 21.94c-12.63-11.3-54.04-11.22-54.04-11.22h-4.78s-41.4-.07-54.04 11.22C57.27-483.56 67.58-461 67.58-461s13.9 25.52 43.37 34.93c4.78 1.2 9.62 2.3 14.57 2.42 4.4.1 8.7-.8 12.97-1.7 1.07-.22 2.15-.43 3.2-.72 29.48-9.4 43.37-34.92 43.37-34.92s10.32-22.57-2.3-33.86z"/><path fill="#4B98E6" fill-rule="evenodd" d="M215.86 132h-15.58L190 72.47c0-4.2-3.4-7.62-7.63-7.62-4.2 0-7.62 3.4-7.62 7.63L164.47 132H148.9c-4.22 0-7.63 3.42-7.63 7.63 0 4.2 3.4 7.62 7.62 7.62h66.96c4.2 0 7.62-3.4 7.62-7.62 0-4.2-3.4-7.63-7.62-7.63z" clip-rule="evenodd"/><linearGradient id="K" x1="146.204" x2="241.841" y1="-138.513" y2="-234.15" gradientUnits="userSpaceOnUse"><stop offset="0" stop-color="#6CAEF1"/><stop offset="1" stop-color="#4799EB"/></linearGradient><path fill="url(#K)" fill-rule="evenodd" d="M255.92-185.73l-44.9-44.9-10.37 41.74-40.74-40.72-60 27.77L56-154.83l88.07 88.07c61.43-5.8 109.8-56.52 111.85-118.97z" clip-rule="evenodd"/><path fill="#4B98E6" fill-rule="evenodd" d="M126.02.32h111.63C247.78.32 256 8.54 256 18.67v76.58c0 10.14-8.2 18.35-18.35 18.35H126.02c-10.13 0-18.35-8.2-18.35-18.35V18.67c0-10.13 8.22-18.35 18.35-18.35z" clip-rule="evenodd"/><path fill="#fff" fill-rule="evenodd" d="M256 96.25V85.4H107.67v10.85c0 10.14 8.22 18.35 18.35 18.35h111.63c10.13 0 18.35-8.2 18.35-18.35z" clip-rule="evenodd"/><path fill="#6CAEF1" fill-rule="evenodd" d="M181.84 95.47c2.9 0 5.24 2.35 5.24 5.25s-2.35 5.24-5.25 5.24-5.24-2.35-5.24-5.24c0-2.9 2.34-5.25 5.24-5.25z" clip-rule="evenodd"/><path fill="#579DE5" fill-rule="evenodd" d="M140.77 235.92H120.5l-13.38-77.45c0-5.48-4.44-9.93-9.92-9.93s-9.92 4.45-9.92 9.93L73.9 235.92H53.65c-5.48 0-9.92 4.44-9.92 9.92s4.44 9.92 9.92 9.92h87.13c5.48 0 9.92-4.44 9.92-9.92s-4.45-9.92-9.93-9.92z" clip-rule="evenodd"/><g fill="#fff" fill-rule="evenodd" clip-rule="evenodd"><path d="M165.93-169.86c0 12.63-10.24 22.86-22.86 22.86H76.64c-12.62 0-22.86-10.23-22.86-22.86v-44.28c0-12.63 10.24-22.86 22.86-22.86h66.43c12.62 0 22.86 10.23 22.86 22.86v44.28zM207.28-231.88c-1.74 0-3.33.65-4.55 1.7L176.66-209v34.5l26.08 19.93c1.2 1.05 2.8 1.7 4.54 1.7 3.83 0 6.94-3.1 6.94-6.95v-65.1c0-3.85-3.1-6.96-6.94-6.96z"/></g><path fill="#5D96C9" fill-rule="evenodd" d="M182.4 66.3l-3.22 80.95h36.7c4.22 0 7.64-3.4 7.64-7.62 0-4.2-3.42-7.63-7.63-7.63h-15.6l-3-17.4h33.4l-48.3-48.3z" opacity=".5" clip-rule="evenodd"/><linearGradient id="L" x1="77.82" x2="150.693" y1="229.056" y2="229.056" gradientUnits="userSpaceOnUse"><stop offset="0" stop-color="#4182C3"/><stop offset="1" stop-color="#4799EB"/></linearGradient><path fill="url(#L)" fill-rule="evenodd" d="M140.77 255.76c5.48 0 9.92-4.44 9.92-9.92s-4.45-9.92-9.93-9.92H120.5l-5.8-33.57-36.8 10.5-.08.43 42.48 42.48h20.47z" clip-rule="evenodd"/><linearGradient id="M" x1="96.502" x2="96.502" y1="70.001" y2="189.005" gradientUnits="userSpaceOnUse"><stop offset="0" stop-color="#6CAEF1"/><stop offset="1" stop-color="#4799EB"/></linearGradient><path fill="url(#M)" fill-rule="evenodd" d="M23.88 62.3h145.24c13.2 0 23.88 10.68 23.88 23.86V188.4c0 13.2-10.7 23.88-23.88 23.88H23.88C10.68 212.28 0 201.58 0 188.4V86.16C0 72.98 10.7 62.3 23.88 62.3z" clip-rule="evenodd"/><path fill="#fff" fill-rule="evenodd" d="M193 189.4v-14.1H0v14.1c0 13.2 10.7 23.88 23.88 23.88h145.24c13.2 0 23.88-10.7 23.88-23.88z" clip-rule="evenodd"/><path fill="#479CE8" fill-rule="evenodd" d="M96.5 188.4c3.77 0 6.82 3.04 6.82 6.8 0 3.78-3.05 6.83-6.82 6.83s-6.82-3.05-6.82-6.82c0-3.76 3.05-6.8 6.82-6.8z" clip-rule="evenodd"/><linearGradient id="N" x1="303.502" x2="191.783" y1="1107.969" y2="1107.969" gradientUnits="userSpaceOnUse"><stop offset="0" stop-color="#6CAEF1"/><stop offset="1" stop-color="#4799EB"/></linearGradient><path fill="url(#N)" fill-rule="evenodd" d="M255.85 1193.82c0 4.02-3.26 7.27-7.28 7.27H139.44c-4.02 0-7.27-3.26-7.27-7.28v-171.7c0-4.02 3.25-7.28 7.27-7.28h109.13c4.02 0 7.28 3.26 7.28 7.28v171.7z" clip-rule="evenodd"/><linearGradient id="O" x1="127.995" x2="127.995" y1="304.814" y2="417.586" gradientUnits="userSpaceOnUse"><stop offset="0" stop-color="#6CAEF1"/><stop offset="1" stop-color="#4799EB"/></linearGradient><path fill="url(#O)" fill-rule="evenodd" d="M20.02 315.14h215.95c11.04 0 20 8.95 20 20V551c0 11.05-8.96 20-20 20H20.02c-11.04 0-20-8.95-20-20V335.14c0-11.04 8.96-20 20-20z" clip-rule="evenodd"/><path fill="#fff" fill-rule="evenodd" d="M255.96 374.1V551c0 11.05-8.95 20-20 20H20.03c-11.04 0-20-8.95-20-20V374.1" clip-rule="evenodd"/><circle cx="128.002" cy="758" r="128" fill="#6CAEF1" fill-rule="evenodd" clip-rule="evenodd"/><path fill="#C8E3FD" fill-rule="evenodd" d="M-.03 402.5v4h256.06v-4H-.03zm0 38h256.06v-4H-.03v4zm0 34h256.06v-4H-.03v4zm0 34h256.06v-4H-.03v4zm0 34h256.06v-4H-.03v4z" clip-rule="evenodd"/><path fill="#55A0ED" fill-rule="evenodd" d="M56.9 374v196.54h-9V374h9z" clip-rule="evenodd"/><linearGradient id="P" x1="118.544" x2="242.882" y1="823.543" y2="699.204" gradientUnits="userSpaceOnUse"><stop offset="0" stop-color="#6CAEF1"/><stop offset="1" stop-color="#4799EB"/></linearGradient><path fill="url(#P)" fill-rule="evenodd" d="M255.98 757.98c0-5.4-.34-10.7-.98-15.9L185.96 675 90.63 742.5 38.8 778.4l106.42 106.42c62.54-8.42 110.76-62 110.76-126.84z" clip-rule="evenodd"/><linearGradient id="Q" x1="172.336" x2="63.707" y1="758.002" y2="758.002" gradientUnits="userSpaceOnUse" gradientTransform="translate(-2)"><stop offset="0" stop-color="#fff"/><stop offset="1" stop-color="#CFE4F9"/></linearGradient><path fill="url(#Q)" fill-rule="evenodd" d="M181.6 795.32c-10.4-6.02-23-4.7-31.88 2.34l-65.7-38c-4.76-2.76-10.87-1.12-13.62 3.66-2.76 4.78-1.13 10.9 3.65 13.66l65.36 37.8c-2.13 11.56 3.03 23.7 13.76 29.9 13.6 7.87 31 3.2 38.85-10.43 7.87-13.63 3.2-31.06-10.4-38.93zm-98-38.97l65.54-38c8.85 7.03 21.43 8.35 31.8 2.33 13.58-7.87 18.23-25.3 10.4-38.93-7.84-13.63-25.2-18.3-38.77-10.43-10.7 6.2-15.85 18.35-13.7 29.9L73.63 739c-4.76 2.77-6.4 8.88-3.64 13.66 2.75 4.8 8.83 6.43 13.6 3.67z" clip-rule="evenodd"/><path fill="#fff" fill-rule="evenodd" d="M37.58 743.75c7.85-13.63 25.25-18.3 38.85-10.43 13.6 7.87 18.26 25.3 10.4 38.93C79 785.88 61.6 790.55 48 782.68c-13.62-7.87-18.28-25.3-10.42-38.93z" clip-rule="evenodd"/><linearGradient id="R" x1="85.002" x2="85.002" y1="938" y2="1215.576" gradientUnits="userSpaceOnUse"><stop offset="0" stop-color="#6CAEF1"/><stop offset="1" stop-color="#4799EB"/></linearGradient><path fill="url(#R)" fill-rule="evenodd" d="M170 1191c0 5.52-4.47 10-10 10H10c-5.52 0-10-4.48-10-10V955c0-5.52 4.48-10 10-10h150c5.53 0 10 4.48 10 10v236z" clip-rule="evenodd"/><linearGradient id="S" x1="85.002" x2="85.002" y1="969.168" y2="1170.17" gradientUnits="userSpaceOnUse"><stop offset="0" stop-color="#fff"/><stop offset="1" stop-color="#81B8F1"/></linearGradient><path fill="url(#S)" fill-rule="evenodd" d="M49.5 984.13H28.32c-3.44 0-6.23 2.46-6.23 5.5v18.73c0 3.04 2.78 5.5 6.22 5.5H49.5c3.44 0 6.23-2.46 6.23-5.5v-18.73c0-3.04-2.8-5.5-6.23-5.5zm46.1 0H74.4c-3.43 0-6.22 2.46-6.22 5.5v18.73c0 3.04 2.8 5.5 6.23 5.5h21.2c3.43 0 6.22-2.46 6.22-5.5v-18.73c0-3.04-2.8-5.5-6.23-5.5zm46.1 0h-21.2c-3.43 0-6.22 2.46-6.22 5.5v18.73c0 3.04 2.8 5.5 6.23 5.5h21.2c3.43 0 6.22-2.46 6.22-5.5v-18.73c0-3.04-2.8-5.5-6.23-5.5zm-92.2 51.76H28.32c-3.44 0-6.23 2.45-6.23 5.5v18.72c0 3.04 2.78 5.5 6.22 5.5H49.5c3.44 0 6.23-2.46 6.23-5.5v-18.72c0-3.05-2.8-5.5-6.23-5.5zm46.1 0H74.4c-3.43 0-6.22 2.45-6.22 5.5v18.72c0 3.04 2.8 5.5 6.23 5.5h21.2c3.43 0 6.22-2.46 6.22-5.5v-18.72c0-3.05-2.8-5.5-6.23-5.5zm46.1 0h-21.2c-3.43 0-6.22 2.45-6.22 5.5v18.72c0 3.04 2.8 5.5 6.23 5.5h21.2c3.43 0 6.22-2.46 6.22-5.5v-18.72c0-3.05-2.8-5.5-6.23-5.5zm-92.2 51.75H28.32c-3.44 0-6.23 2.47-6.23 5.5v18.73c0 3.04 2.78 5.5 6.22 5.5H49.5c3.44 0 6.23-2.46 6.23-5.5v-18.72c0-3.04-2.8-5.5-6.23-5.5zm46.1 0H74.4c-3.43 0-6.22 2.47-6.22 5.5v18.73c0 3.04 2.8 5.5 6.23 5.5h21.2c3.43 0 6.22-2.46 6.22-5.5v-18.72c0-3.04-2.8-5.5-6.23-5.5zm46.1 0h-21.2c-3.43 0-6.22 2.47-6.22 5.5v18.73c0 3.04 2.8 5.5 6.23 5.5h21.2c3.43 0 6.22-2.46 6.22-5.5v-18.72c0-3.04-2.8-5.5-6.23-5.5zm-92.2 51.76H28.32c-3.44 0-6.23 2.48-6.23 5.52v18.72c0 3.04 2.78 5.5 6.22 5.5H49.5c3.44 0 6.23-2.46 6.23-5.5v-18.72c0-3.04-2.8-5.5-6.23-5.5zm46.1 0H74.4c-3.43 0-6.22 2.48-6.22 5.52v18.72c0 3.04 2.8 5.5 6.23 5.5h21.2c3.43 0 6.22-2.46 6.22-5.5v-18.72c0-3.04-2.8-5.5-6.23-5.5zm46.1 0h-21.2c-3.43 0-6.22 2.48-6.22 5.52v18.72c0 3.04 2.8 5.5 6.23 5.5h21.2c3.43 0 6.22-2.46 6.22-5.5v-18.72c0-3.04-2.8-5.5-6.23-5.5z" clip-rule="evenodd"/><path fill="#1C75C6" fill-rule="evenodd" d="M229.42 1084.58l-87.74 53.65-7.32 22.2s31.15 30.6 40.9 40.66h73.3c4.03 0 7.3-3.26 7.3-7.28v-82.8l-26.44-26.44z" opacity=".3" clip-rule="evenodd"/><linearGradient id="T" x1="161.828" x2="189.304" y1="1056.699" y2="1150.838" gradientUnits="userSpaceOnUse"><stop offset="0" stop-color="#fff"/><stop offset="1" stop-color="#D0E4F9"/></linearGradient><path fill="url(#T)" d="M237.6 1137.22l-7.6-6.42c-.96-.84-4.5-4.37-4.34-10.05.05-4.9 2.85-8.1 4.04-9.24l7.9-6.67c1.3-.76 1.75-2.43 1-3.73l-11.8-20.67c-.76-1.3-2.4-1.75-3.7-1l-9.34 3.4c-1.2.42-6 1.75-10.8-1.24-4.26-2.5-5.64-6.58-6.03-8.2l-1.8-10.24c0-1.5-1.2-2.73-2.7-2.73h-23.67c-1.5 0-2.7 1.22-2.7 2.73l-1.74 9.84c-.24 1.23-1.47 5.97-6.26 8.68-4.72 2.83-9.42 1.53-10.6 1.13l-9.32-3.4c-1.3-.76-2.96-.3-3.7 1l-11.84 20.65c-.75 1.3-.3 2.97 1 3.73l7.9 6.68c1.2 1.14 4 4.36 4.04 9.25.16 5.7-3.4 9.22-4.35 10.05l-7.62 6.42c-1.3.76-1.74 2.43-1 3.73l11.82 20.67c.75 1.3 2.4 1.76 3.7 1l9.7-3.55c1.6-.46 5.8-1.3 10.06 1.17 4.96 2.7 6.22 7.55 6.46 8.8l1.73 9.85c0 1.5 1.2 2.73 2.7 2.73h23.68c1.5 0 2.7-1.23 2.7-2.73l1.8-10.24c.4-1.63 1.8-5.8 6.18-8.28 4.34-2.6 8.64-1.74 10.25-1.26l9.7 3.55c1.3.76 2.96.3 3.7-1l11.84-20.64c.74-1.3.3-2.98-1-3.74z"/><path fill="#D0E4F9" d="M226.77 1161.6l11.83-20.64c.75-1.3.3-2.98-1-3.73l-7.6-6.43c-.73-.65-3.03-2.93-3.94-6.57l-22.6-22.6-39.5 44.3s19.66 20.37 31.36 31.97l1.63-9.3c.4-1.63 1.8-5.8 6.17-8.28 4.33-2.6 8.64-1.74 10.25-1.26l9.7 3.55c1.3.76 2.95.3 3.7-1z"/><linearGradient id="U" x1="180.595" x2="180.595" y1="1094.538" y2="1152.256" gradientUnits="userSpaceOnUse"><stop offset="0" stop-color="#6CAEF1"/><stop offset="1" stop-color="#4799EB"/></linearGradient><path fill="url(#U)" fill-rule="evenodd" d="M180.6 1090.95c16.5 0 29.9 13.46 29.9 30.05s-13.4 30.05-29.9 30.05-29.9-13.45-29.9-30.05 13.4-30.05 29.9-30.05z" clip-rule="evenodd"/><linearGradient id="V" x1="180.595" x2="180.595" y1="1103.846" y2="1147.62" gradientUnits="userSpaceOnUse"><stop offset="0" stop-color="#fff"/><stop offset="1" stop-color="#D0E4F9"/></linearGradient><path fill="url(#V)" fill-rule="evenodd" d="M180.6 1101.64c10.7 0 19.38 8.67 19.38 19.36 0 10.7-8.68 19.36-19.38 19.36s-19.4-8.67-19.4-19.36c0-10.7 8.7-19.36 19.4-19.36z" clip-rule="evenodd"/><path fill="#6CAEF1" fill-rule="evenodd" d="M20.02 1260h216.06c11.05 0 20 8.95 20 20v216c0 11.05-8.95 20-20 20H20.02c-11.05 0-20-8.95-20-20v-216c0-11.05 8.95-20 20-20z" clip-rule="evenodd"/><linearGradient id="W" x1="21.318" x2="256.068" y1="1402.96" y2="1402.96" gradientUnits="userSpaceOnUse"><stop offset="0" stop-color="#6CAEF1"/><stop offset="1" stop-color="#4799EB"/></linearGradient><path fill="url(#W)" fill-rule="evenodd" d="M198.44 1291.07l-1.14-1.15-12.3 86.75-42.35-42.34-22.3 81.08-38.36-38.35-18 63.62-42.68 53.16L43.5 1516h192.56c11.05 0 20-8.95 20-20v-147.3l-57.62-57.63z" clip-rule="evenodd"/><path fill="#fff" fill-rule="evenodd" d="M194.04 1288.83h-22c-3.04 0-5.5 2.47-5.5 5.52v149.97c0 3.05 2.46 5.5 5.5 5.5h22c3.04 0 5.5-2.45 5.5-5.5v-149.97c0-3.05-2.46-5.52-5.5-5.52zm-55 44.1H117c-3.03 0-5.5 2.48-5.5 5.53v105.86c0 3.05 2.47 5.5 5.5 5.5h22c3.05 0 5.5-2.45 5.5-5.5v-105.86c0-3.05-2.45-5.52-5.5-5.52zM84 1377.06H62c-3.03 0-5.5 2.47-5.5 5.52v61.75c0 3.05 2.47 5.5 5.5 5.5h22c3.05 0 5.52-2.45 5.52-5.5v-61.75c0-3.05-2.47-5.52-5.5-5.52zM35 1470.17h186.05c2.76 0 5 2.23 5 5v10c0 2.76-2.24 5-5 5H35c-2.76 0-5-2.24-5-5v-10c0-2.77 2.24-5 5-5z" clip-rule="evenodd"/><path fill="#6CAEF1" fill-rule="evenodd" d="M20.05 1575H212.4c11.06 0 20.02 8.95 20.02 20v215.93c0 11.04-8.96 20-20 20H20.04c-11.05 0-20-8.96-20-20V1595c0-11.05 8.95-20 20-20z" clip-rule="evenodd"/><linearGradient id="X" x1="98.144" x2="204.269" y1="1813.142" y2="1707.017" gradientUnits="userSpaceOnUse"><stop offset="0" stop-color="#6CAEF1"/><stop offset="1" stop-color="#4799EB"/></linearGradient><path fill="url(#X)" fill-rule="evenodd" d="M245.63 1773.33l-131.27-131.26-46.05 36.9 40.58 40.5-69.66-2.8 63.24-.67-13 8.2-24.5 6.96-37.44 41L86.36 1831H236c11.04 0 20-8.95 20-20v-27.3l-10.38-10.37z" clip-rule="evenodd"/><linearGradient id="Y" x1="218.028" x2="218.028" y1="1643.001" y2="1907.121" gradientUnits="userSpaceOnUse"><stop offset="0" stop-color="#fff"/><stop offset="1" stop-color="#D0E4F9"/></linearGradient><path fill="url(#Y)" fill-rule="evenodd" d="M180.02 1575h56c11.06 0 20.02 8.95 20.02 20v216c0 11.05-8.96 20-20 20H180" clip-rule="evenodd"/><linearGradient id="Z" x1="90.004" x2="90.004" y1="1696.001" y2="1823.502" gradientUnits="userSpaceOnUse"><stop offset="0" stop-color="#fff"/><stop offset="1" stop-color="#D0E4F9"/></linearGradient><path fill="url(#Z)" fill-rule="evenodd" d="M90.34 1688.85c16.33 0 29.57-13.25 29.57-29.6 0-16.34-13.23-29.6-29.56-29.6s-29.56 13.26-29.56 29.6c0 16.35 13.23 29.6 29.56 29.6zm50.45 27.85c-12.4-10.1-34.73-15.28-50.33-15-15.64-.52-38.62 4.66-51.25 14.98-12.63 10.3-11.7 25-11.7 25s0 6.27 0 17.98 7.2 11 7.2 11H145.3s7.17.7 7.17-11 0-17.98 0-17.98.95-14.67-11.68-24.98z" clip-rule="evenodd"/><linearGradient id="aa" x1="218.028" x2="218.028" y1="1621.001" y2="1799.003" gradientUnits="userSpaceOnUse"><stop offset="0" stop-color="#6CAEF1"/><stop offset="1" stop-color="#4799EB"/></linearGradient><path fill="url(#aa)" fill-rule="evenodd" d="M237.7 1631.2h-39.36c-1.28 0-2.32 1.04-2.32 2.32v9.28c0 1.28 1.04 2.32 2.32 2.32h39.37c1.3 0 2.33-1.04 2.33-2.32v-9.28c0-1.28-1.03-2.32-2.32-2.32zm0 31h-39.36c-1.28 0-2.32 1.04-2.32 2.32v9.28c0 1.28 1.04 2.32 2.32 2.32h39.37c1.3 0 2.33-1.04 2.33-2.32v-9.28c0-1.28-1.03-2.32-2.32-2.32zm0 31h-39.36c-1.28 0-2.32 1.04-2.32 2.32v9.28c0 1.28 1.04 2.32 2.32 2.32h39.37c1.3 0 2.33-1.04 2.33-2.32v-9.28c0-1.28-1.03-2.32-2.32-2.32zm0 31h-39.36c-1.28 0-2.32 1.04-2.32 2.32v9.28c0 1.28 1.04 2.32 2.32 2.32h39.37c1.3 0 2.33-1.04 2.33-2.32v-9.28c0-1.28-1.03-2.32-2.32-2.32zm0 31h-39.36c-1.28 0-2.32 1.04-2.32 2.32v9.28c0 1.28 1.04 2.32 2.32 2.32h39.37c1.3 0 2.33-1.04 2.33-2.32v-9.28c0-1.28-1.03-2.32-2.32-2.32z" clip-rule="evenodd"/><path fill="#6CAEF1" fill-rule="evenodd" d="M67.45 1677.98" clip-rule="evenodd"/></g></svg>