<svg width="48" height="48" viewBox="0 0 48 48" fill="none" xmlns="http://www.w3.org/2000/svg">
<path fill-rule="evenodd" clip-rule="evenodd" d="M9.00115 18.5771C9.39167 18.9676 10.0248 18.9676 10.4154 18.5771L18.5766 10.4159C18.9671 10.0253 18.9671 9.39217 18.5766 9.00165L12.3187 2.74377C11.7802 2.20524 12.0216 1.29627 12.7737 1.17608C13.4988 1.0602 14.2425 1 15.0002 1C22.7322 1 29.0002 7.26801 29.0002 15C29.0002 16.6956 28.6988 18.3209 28.1466 19.825C28.0062 20.2073 28.0876 20.64 28.3755 20.9279L45.6156 38.168C47.6722 40.2246 47.6722 43.559 45.6156 45.6156C43.559 47.6721 40.2247 47.6721 38.1681 45.6156L20.9279 28.3754C20.6399 28.0874 20.2073 28.0061 19.825 28.1464C18.3209 28.6986 16.6958 29 15.0002 29C7.26826 29 1.00024 22.732 1.00024 15C1.00024 14.2427 1.06037 13.4995 1.17611 12.7748C1.29623 12.0227 2.20525 11.7812 2.7438 12.3197L9.00115 18.5771ZM41.6781 43.9357C42.9246 43.9357 43.9351 42.9253 43.9351 41.6788C43.9351 40.4323 42.9246 39.4218 41.6781 39.4218C40.4316 39.4218 39.4212 40.4323 39.4212 41.6788C39.4212 42.9253 40.4316 43.9357 41.6781 43.9357Z" fill="url(#paint0_linear_248_5497)"/>
<path fill-rule="evenodd" clip-rule="evenodd" d="M9.00115 18.5771C9.39167 18.9676 10.0248 18.9676 10.4154 18.5771L18.5766 10.4159C18.9671 10.0253 18.9671 9.39217 18.5766 9.00165L12.3187 2.74377C11.7802 2.20524 12.0216 1.29627 12.7737 1.17608C13.4988 1.0602 14.2425 1 15.0002 1C22.7322 1 29.0002 7.26801 29.0002 15C29.0002 16.6956 28.6988 18.3209 28.1466 19.825C28.0062 20.2073 28.0876 20.64 28.3755 20.9279L45.6156 38.168C47.6722 40.2246 47.6722 43.559 45.6156 45.6156C43.559 47.6721 40.2247 47.6721 38.1681 45.6156L20.9279 28.3754C20.6399 28.0874 20.2073 28.0061 19.825 28.1464C18.3209 28.6986 16.6958 29 15.0002 29C7.26826 29 1.00024 22.732 1.00024 15C1.00024 14.2427 1.06037 13.4995 1.17611 12.7748C1.29623 12.0227 2.20525 11.7812 2.7438 12.3197L9.00115 18.5771ZM41.6781 43.9357C42.9246 43.9357 43.9351 42.9253 43.9351 41.6788C43.9351 40.4323 42.9246 39.4218 41.6781 39.4218C40.4316 39.4218 39.4212 40.4323 39.4212 41.6788C39.4212 42.9253 40.4316 43.9357 41.6781 43.9357Z" fill="black" fill-opacity="0.14"/>
<path fill-rule="evenodd" clip-rule="evenodd" d="M22.8281 27.3594L27.3906 22.7969L43.9844 39.3906C45.2443 40.6505 45.2443 42.6932 43.9844 43.9531C42.7245 45.213 40.6818 45.213 39.4219 43.9531L22.8281 27.3594ZM41.6781 43.9358C42.9246 43.9358 43.935 42.9253 43.935 41.6788C43.935 40.4323 42.9246 39.4219 41.6781 39.4219C40.4316 39.4219 39.4211 40.4323 39.4211 41.6788C39.4211 42.9253 40.4316 43.9358 41.6781 43.9358Z" fill="black" fill-opacity="0.17"/>
<rect x="11.707" y="17.4854" width="11" height="5" transform="rotate(-45 11.707 17.4854)" fill="#707070"/>
<rect x="11" y="16.7783" width="2" height="7" transform="rotate(-45 11 16.7783)" fill="#A7AAAF"/>
<rect x="13.1213" y="14.657" width="2" height="7" transform="rotate(-45 13.1213 14.657)" fill="#A7AAAF"/>
<rect x="15.2427" y="12.5356" width="2" height="7" transform="rotate(-45 15.2427 12.5356)" fill="#A7AAAF"/>
<rect x="17.364" y="10.4143" width="2" height="7" transform="rotate(-45 17.364 10.4143)" fill="#A7AAAF"/>
<defs>
<linearGradient id="paint0_linear_248_5497" x1="51.5554" y1="7.45262" x2="41.1552" y2="48.9461" gradientUnits="userSpaceOnUse">
<stop stop-color="white"/>
<stop offset="1" stop-color="#CFD3DF"/>
</linearGradient>
</defs>
</svg>
