<svg width="48" height="48" viewBox="0 0 48 48" fill="none" xmlns="http://www.w3.org/2000/svg">
<g id="applications-system">
<g id="Union">
<mask id="path-1-inside-1_401_1001" fill="white">
<path fill-rule="evenodd" clip-rule="evenodd" d="M11.2508 43.25C11.0158 43.7229 11.189 44.297 11.6464 44.561L12.6173 45.1215C13.0746 45.3856 13.6584 45.2485 13.9504 44.8086L16.2457 41.3508C18.0879 42.1753 20.0854 42.7151 22.1821 42.9142L22.4414 47.0624C22.4743 47.5894 22.9114 48 23.4394 48H24.5605C25.0886 48 25.5257 47.5894 25.5586 47.0624L25.8179 42.9142C27.9615 42.7107 30.0014 42.151 31.8777 41.295L34.1876 44.775C34.4797 45.2149 35.0635 45.352 35.5208 45.0879L36.4917 44.5274C36.949 44.2634 37.1222 43.6893 36.8872 43.2164L35.0276 39.4741C36.7431 38.2494 38.2463 36.7465 39.4714 35.0314L43.1936 36.881C43.6665 37.116 44.2406 36.9428 44.5046 36.4855L45.0651 35.5146C45.3292 35.0572 45.1921 34.4734 44.7522 34.1814L41.2919 31.8845C42.1466 30.0132 42.7063 27.979 42.9119 25.8413L47.0689 25.5815C47.5959 25.5486 48.0065 25.1115 48.0065 24.5835V23.4624C48.0065 22.9343 47.5959 22.4973 47.0689 22.4643L42.9163 22.2048C42.7186 20.0949 42.1758 18.0853 41.3451 16.233L44.8438 13.9105C45.2838 13.6184 45.4208 13.0346 45.1568 12.5773L44.5963 11.6064C44.3322 11.1491 43.7581 10.9759 43.2852 11.2109L39.5435 13.0702C38.3342 11.3537 36.8478 9.84638 35.1493 8.61347L37.0128 4.86335C37.2478 4.39046 37.0746 3.81635 36.6173 3.55232L35.6464 2.99177C35.189 2.72774 34.6053 2.86479 34.3132 3.30475L32.0143 6.76796C30.1006 5.87641 28.0137 5.29427 25.8179 5.08584L25.5586 0.937621C25.5257 0.410586 25.0886 0 24.5605 0H23.4394C22.9114 0 22.4743 0.410587 22.4414 0.937622L22.1821 5.08584C20.0332 5.28982 17.9885 5.85173 16.1084 6.71131L13.8248 3.27115C13.5328 2.83119 12.949 2.69414 12.4917 2.95817L11.5208 3.51872C11.0635 3.78275 10.8903 4.35685 11.1253 4.82975L12.9647 8.53139C11.2525 9.75506 9.75197 11.2559 8.52871 12.9684L4.80696 11.119C4.33406 10.884 3.75996 11.0572 3.49593 11.5146L2.93538 12.4854C2.67135 12.9428 2.8084 13.5266 3.24836 13.8186L6.70819 16.1152C5.84725 18.0003 5.28549 20.0507 5.08363 22.2056L0.944091 22.4643C0.417056 22.4973 0.00646973 22.9343 0.00646973 23.4624V24.5835C0.00646973 25.1115 0.417056 25.5486 0.944091 25.5815L5.088 25.8405C5.29781 28.0232 5.87692 30.098 6.76209 32.0017L3.34003 34.2733C2.90007 34.5653 2.76302 35.1491 3.02705 35.6064L3.5876 36.5773C3.85163 37.0346 4.42573 37.2079 4.89863 36.9729L8.60153 35.1328C9.84061 36.8437 11.3578 38.3399 13.0868 39.5552L11.2508 43.25Z"/>
</mask>
<path fill-rule="evenodd" clip-rule="evenodd" d="M11.2508 43.25C11.0158 43.7229 11.189 44.297 11.6464 44.561L12.6173 45.1215C13.0746 45.3856 13.6584 45.2485 13.9504 44.8086L16.2457 41.3508C18.0879 42.1753 20.0854 42.7151 22.1821 42.9142L22.4414 47.0624C22.4743 47.5894 22.9114 48 23.4394 48H24.5605C25.0886 48 25.5257 47.5894 25.5586 47.0624L25.8179 42.9142C27.9615 42.7107 30.0014 42.151 31.8777 41.295L34.1876 44.775C34.4797 45.2149 35.0635 45.352 35.5208 45.0879L36.4917 44.5274C36.949 44.2634 37.1222 43.6893 36.8872 43.2164L35.0276 39.4741C36.7431 38.2494 38.2463 36.7465 39.4714 35.0314L43.1936 36.881C43.6665 37.116 44.2406 36.9428 44.5046 36.4855L45.0651 35.5146C45.3292 35.0572 45.1921 34.4734 44.7522 34.1814L41.2919 31.8845C42.1466 30.0132 42.7063 27.979 42.9119 25.8413L47.0689 25.5815C47.5959 25.5486 48.0065 25.1115 48.0065 24.5835V23.4624C48.0065 22.9343 47.5959 22.4973 47.0689 22.4643L42.9163 22.2048C42.7186 20.0949 42.1758 18.0853 41.3451 16.233L44.8438 13.9105C45.2838 13.6184 45.4208 13.0346 45.1568 12.5773L44.5963 11.6064C44.3322 11.1491 43.7581 10.9759 43.2852 11.2109L39.5435 13.0702C38.3342 11.3537 36.8478 9.84638 35.1493 8.61347L37.0128 4.86335C37.2478 4.39046 37.0746 3.81635 36.6173 3.55232L35.6464 2.99177C35.189 2.72774 34.6053 2.86479 34.3132 3.30475L32.0143 6.76796C30.1006 5.87641 28.0137 5.29427 25.8179 5.08584L25.5586 0.937621C25.5257 0.410586 25.0886 0 24.5605 0H23.4394C22.9114 0 22.4743 0.410587 22.4414 0.937622L22.1821 5.08584C20.0332 5.28982 17.9885 5.85173 16.1084 6.71131L13.8248 3.27115C13.5328 2.83119 12.949 2.69414 12.4917 2.95817L11.5208 3.51872C11.0635 3.78275 10.8903 4.35685 11.1253 4.82975L12.9647 8.53139C11.2525 9.75506 9.75197 11.2559 8.52871 12.9684L4.80696 11.119C4.33406 10.884 3.75996 11.0572 3.49593 11.5146L2.93538 12.4854C2.67135 12.9428 2.8084 13.5266 3.24836 13.8186L6.70819 16.1152C5.84725 18.0003 5.28549 20.0507 5.08363 22.2056L0.944091 22.4643C0.417056 22.4973 0.00646973 22.9343 0.00646973 23.4624V24.5835C0.00646973 25.1115 0.417056 25.5486 0.944091 25.5815L5.088 25.8405C5.29781 28.0232 5.87692 30.098 6.76209 32.0017L3.34003 34.2733C2.90007 34.5653 2.76302 35.1491 3.02705 35.6064L3.5876 36.5773C3.85163 37.0346 4.42573 37.2079 4.89863 36.9729L8.60153 35.1328C9.84061 36.8437 11.3578 38.3399 13.0868 39.5552L11.2508 43.25Z" fill="url(#paint0_linear_401_1001)"/>
<path fill-rule="evenodd" clip-rule="evenodd" d="M11.2508 43.25C11.0158 43.7229 11.189 44.297 11.6464 44.561L12.6173 45.1215C13.0746 45.3856 13.6584 45.2485 13.9504 44.8086L16.2457 41.3508C18.0879 42.1753 20.0854 42.7151 22.1821 42.9142L22.4414 47.0624C22.4743 47.5894 22.9114 48 23.4394 48H24.5605C25.0886 48 25.5257 47.5894 25.5586 47.0624L25.8179 42.9142C27.9615 42.7107 30.0014 42.151 31.8777 41.295L34.1876 44.775C34.4797 45.2149 35.0635 45.352 35.5208 45.0879L36.4917 44.5274C36.949 44.2634 37.1222 43.6893 36.8872 43.2164L35.0276 39.4741C36.7431 38.2494 38.2463 36.7465 39.4714 35.0314L43.1936 36.881C43.6665 37.116 44.2406 36.9428 44.5046 36.4855L45.0651 35.5146C45.3292 35.0572 45.1921 34.4734 44.7522 34.1814L41.2919 31.8845C42.1466 30.0132 42.7063 27.979 42.9119 25.8413L47.0689 25.5815C47.5959 25.5486 48.0065 25.1115 48.0065 24.5835V23.4624C48.0065 22.9343 47.5959 22.4973 47.0689 22.4643L42.9163 22.2048C42.7186 20.0949 42.1758 18.0853 41.3451 16.233L44.8438 13.9105C45.2838 13.6184 45.4208 13.0346 45.1568 12.5773L44.5963 11.6064C44.3322 11.1491 43.7581 10.9759 43.2852 11.2109L39.5435 13.0702C38.3342 11.3537 36.8478 9.84638 35.1493 8.61347L37.0128 4.86335C37.2478 4.39046 37.0746 3.81635 36.6173 3.55232L35.6464 2.99177C35.189 2.72774 34.6053 2.86479 34.3132 3.30475L32.0143 6.76796C30.1006 5.87641 28.0137 5.29427 25.8179 5.08584L25.5586 0.937621C25.5257 0.410586 25.0886 0 24.5605 0H23.4394C22.9114 0 22.4743 0.410587 22.4414 0.937622L22.1821 5.08584C20.0332 5.28982 17.9885 5.85173 16.1084 6.71131L13.8248 3.27115C13.5328 2.83119 12.949 2.69414 12.4917 2.95817L11.5208 3.51872C11.0635 3.78275 10.8903 4.35685 11.1253 4.82975L12.9647 8.53139C11.2525 9.75506 9.75197 11.2559 8.52871 12.9684L4.80696 11.119C4.33406 10.884 3.75996 11.0572 3.49593 11.5146L2.93538 12.4854C2.67135 12.9428 2.8084 13.5266 3.24836 13.8186L6.70819 16.1152C5.84725 18.0003 5.28549 20.0507 5.08363 22.2056L0.944091 22.4643C0.417056 22.4973 0.00646973 22.9343 0.00646973 23.4624V24.5835C0.00646973 25.1115 0.417056 25.5486 0.944091 25.5815L5.088 25.8405C5.29781 28.0232 5.87692 30.098 6.76209 32.0017L3.34003 34.2733C2.90007 34.5653 2.76302 35.1491 3.02705 35.6064L3.5876 36.5773C3.85163 37.0346 4.42573 37.2079 4.89863 36.9729L8.60153 35.1328C9.84061 36.8437 11.3578 38.3399 13.0868 39.5552L11.2508 43.25Z" fill="url(#paint1_angular_401_1001)" fill-opacity="0.7"/>
<path d="M11.6464 44.561L12.1464 43.695L12.1464 43.695L11.6464 44.561ZM11.2508 43.25L10.3553 42.805H10.3553L11.2508 43.25ZM12.6173 45.1215L13.1173 44.2555H13.1173L12.6173 45.1215ZM13.9504 44.8086L14.7836 45.3616H14.7836L13.9504 44.8086ZM16.2457 41.3508L16.6542 40.438L15.881 40.092L15.4125 40.7977L16.2457 41.3508ZM22.1821 42.9142L23.1802 42.8518L23.1269 41.9993L22.2766 41.9186L22.1821 42.9142ZM22.4414 47.0624L21.4433 47.1248L22.4414 47.0624ZM25.5586 47.0624L26.5566 47.1248L25.5586 47.0624ZM25.8179 42.9142L25.7234 41.9186L24.8731 41.9993L24.8198 42.8518L25.8179 42.9142ZM31.8777 41.295L32.7108 40.742L32.2389 40.0311L31.4626 40.3853L31.8777 41.295ZM34.1876 44.775L33.3545 45.328L34.1876 44.775ZM35.5208 45.0879L35.0208 44.2219H35.0208L35.5208 45.0879ZM36.4917 44.5274L35.9917 43.6614L35.9917 43.6614L36.4917 44.5274ZM36.8872 43.2164L37.7827 42.7714H37.7827L36.8872 43.2164ZM35.0276 39.4741L34.4466 38.6602L33.7527 39.1556L34.1321 39.9191L35.0276 39.4741ZM39.4714 35.0314L39.9164 34.1358L39.1531 33.7565L38.6577 34.4501L39.4714 35.0314ZM43.1936 36.881L43.6386 35.9855L43.1936 36.881ZM44.5046 36.4855L43.6386 35.9855L43.6386 35.9855L44.5046 36.4855ZM45.0651 35.5146L45.9312 36.0146L45.9312 36.0145L45.0651 35.5146ZM44.7522 34.1814L45.3052 33.3483L45.3052 33.3483L44.7522 34.1814ZM41.2919 31.8845L40.3823 31.4691L40.0277 32.2455L40.7389 32.7176L41.2919 31.8845ZM42.9119 25.8413L42.8495 24.8433L41.9982 24.8965L41.9165 25.7456L42.9119 25.8413ZM47.0689 25.5815L47.1312 26.5796L47.0689 25.5815ZM47.0689 22.4643L47.1312 21.4663L47.0689 22.4643ZM42.9163 22.2048L41.9207 22.2981L42.0005 23.1495L42.8539 23.2028L42.9163 22.2048ZM41.3451 16.233L40.792 15.3998L40.0857 15.8687L40.4327 16.6422L41.3451 16.233ZM44.8438 13.9105L44.2908 13.0773L44.8438 13.9105ZM45.1568 12.5773L46.0228 12.0773L46.0228 12.0773L45.1568 12.5773ZM44.5963 11.6064L43.7302 12.1064L43.7302 12.1064L44.5963 11.6064ZM43.2852 11.2109L42.8402 10.3154L43.2852 11.2109ZM39.5435 13.0702L38.726 13.6461L39.2201 14.3476L39.9885 13.9658L39.5435 13.0702ZM35.1493 8.61347L34.2537 8.16846L33.8774 8.9259L34.5618 9.42274L35.1493 8.61347ZM37.0128 4.86335L36.1173 4.41834V4.41835L37.0128 4.86335ZM36.6173 3.55232L36.1173 4.41835V4.41835L36.6173 3.55232ZM35.6464 2.99177L36.1464 2.12575V2.12575L35.6464 2.99177ZM34.3132 3.30475L35.1464 3.8578L35.1464 3.85779L34.3132 3.30475ZM32.0143 6.76796L31.592 7.67442L32.3717 8.03767L32.8475 7.321L32.0143 6.76796ZM25.8179 5.08584L24.8198 5.14822L24.8731 6.00065L25.7234 6.08136L25.8179 5.08584ZM25.5586 0.937621L26.5566 0.875243V0.875242L25.5586 0.937621ZM22.4414 0.937622L21.4433 0.875243V0.875243L22.4414 0.937622ZM22.1821 5.08584L22.2766 6.08136L23.1269 6.00065L23.1802 5.14822L22.1821 5.08584ZM16.1084 6.71131L15.2753 7.26435L15.7476 7.97585L16.5242 7.62076L16.1084 6.71131ZM13.8248 3.27115L12.9917 3.82419L12.9917 3.82419L13.8248 3.27115ZM12.4917 2.95817L11.9917 2.09214L11.9917 2.09214L12.4917 2.95817ZM11.5208 3.51872L12.0208 4.38474L12.0208 4.38474L11.5208 3.51872ZM11.1253 4.82975L10.2297 5.27475L10.2297 5.27475L11.1253 4.82975ZM12.9647 8.53139L13.5461 9.34497L14.2394 8.8495L13.8602 8.08639L12.9647 8.53139ZM8.52871 12.9684L8.0837 13.864L8.847 14.2433L9.34243 13.5497L8.52871 12.9684ZM4.80696 11.119L4.36195 12.0146H4.36195L4.80696 11.119ZM3.49593 11.5146L4.36195 12.0146L3.49593 11.5146ZM2.93538 12.4854L3.8014 12.9854L3.8014 12.9854L2.93538 12.4854ZM3.24836 13.8186L3.8014 12.9854H3.8014L3.24836 13.8186ZM6.70819 16.1152L7.61781 16.5307L7.97245 15.7542L7.26124 15.2821L6.70819 16.1152ZM5.08363 22.2056L5.146 23.2037L5.99951 23.1503L6.07927 22.2989L5.08363 22.2056ZM0.944091 22.4643L1.00647 23.4624H1.00647L0.944091 22.4643ZM0.944091 25.5815L0.881708 26.5796H0.881712L0.944091 25.5815ZM5.088 25.8405L6.08341 25.7448L6.00179 24.8957L5.15038 24.8425L5.088 25.8405ZM6.76209 32.0017L7.31514 32.8349L8.03127 32.3595L7.66886 31.5801L6.76209 32.0017ZM3.34003 34.2733L2.78698 33.4401H2.78698L3.34003 34.2733ZM3.02705 35.6064L2.16103 36.1064H2.16103L3.02705 35.6064ZM3.5876 36.5773L4.45363 36.0773H4.45363L3.5876 36.5773ZM4.89863 36.9729L5.34363 37.8684L5.34364 37.8684L4.89863 36.9729ZM8.60153 35.1328L9.41144 34.5462L8.91478 33.8605L8.15653 34.2373L8.60153 35.1328ZM13.0868 39.5552L13.9824 40.0002L14.3646 39.231L13.6619 38.7371L13.0868 39.5552ZM12.1464 43.695H12.1464L10.3553 42.805C9.88532 43.7507 10.2317 44.899 11.1464 45.427L12.1464 43.695ZM13.1173 44.2555L12.1464 43.695L11.1464 45.427L12.1173 45.9876L13.1173 44.2555ZM13.1173 44.2555H13.1173L12.1173 45.9876C13.0319 46.5156 14.1995 46.2415 14.7836 45.3616L13.1173 44.2555ZM15.4125 40.7977L13.1173 44.2555L14.7836 45.3616L17.0788 41.9038L15.4125 40.7977ZM22.2766 41.9186C20.2902 41.7301 18.3987 41.2188 16.6542 40.438L15.8371 42.2635C17.7771 43.1318 19.8805 43.7002 22.0876 43.9097L22.2766 41.9186ZM23.4394 47L23.1802 42.8518L21.1841 42.9765L21.4433 47.1248L23.4394 47ZM23.4394 47L21.4433 47.1248C21.5092 48.1788 22.3833 49 23.4394 49V47ZM24.5605 47H23.4394V49H24.5605V47ZM24.5605 47V49C25.6167 49 26.4908 48.1788 26.5566 47.1248L24.5605 47ZM24.8198 42.8518L24.5605 47L26.5566 47.1248L26.8159 42.9765L24.8198 42.8518ZM31.4626 40.3853C29.6859 41.1958 27.7542 41.7259 25.7234 41.9186L25.9124 43.9097C28.1688 43.6955 30.3169 43.1062 32.2927 42.2048L31.4626 40.3853ZM35.0208 44.2219L32.7108 40.742L31.0445 41.8481L33.3545 45.328L35.0208 44.2219ZM35.0208 44.2219L33.3545 45.328C33.9386 46.2079 35.1062 46.482 36.0208 45.954L35.0208 44.2219ZM35.9917 43.6614L35.0208 44.2219L36.0208 45.954L36.9917 45.3934L35.9917 43.6614ZM35.9917 43.6614H35.9917L36.9917 45.3934C37.9063 44.8654 38.2527 43.7171 37.7827 42.7714L35.9917 43.6614ZM34.1321 39.9191L35.9917 43.6614L37.7827 42.7714L35.9231 39.0291L34.1321 39.9191ZM38.6577 34.4501C37.4968 36.0754 36.0722 37.4997 34.4466 38.6602L35.6087 40.288C37.414 38.9991 38.9959 37.4176 40.2852 35.6126L38.6577 34.4501ZM43.6386 35.9855L39.9164 34.1358L39.0264 35.9269L42.7486 37.7765L43.6386 35.9855ZM43.6386 35.9855L43.6386 35.9855L42.7486 37.7765C43.6943 38.2465 44.8426 37.9001 45.3706 36.9854L43.6386 35.9855ZM44.1991 35.0146L43.6386 35.9855L45.3706 36.9855L45.9312 36.0146L44.1991 35.0146ZM44.1991 35.0145V35.0146L45.9312 36.0145C46.4592 35.0999 46.1851 33.9323 45.3052 33.3483L44.1991 35.0145ZM40.7389 32.7176L44.1991 35.0145L45.3052 33.3483L41.845 31.0513L40.7389 32.7176ZM41.9165 25.7456C41.7218 27.7708 41.1916 29.6971 40.3823 31.4691L42.2016 32.2999C43.1015 30.3293 43.6909 28.1873 43.9073 25.9371L41.9165 25.7456ZM47.0065 24.5835L42.8495 24.8433L42.9743 26.8394L47.1312 26.5796L47.0065 24.5835ZM47.0065 24.5835L47.1312 26.5796C48.1853 26.5137 49.0065 25.6396 49.0065 24.5835H47.0065ZM47.0065 23.4624V24.5835H49.0065V23.4624H47.0065ZM47.0065 23.4624H49.0065C49.0065 22.4062 48.1853 21.5322 47.1312 21.4663L47.0065 23.4624ZM42.8539 23.2028L47.0065 23.4624L47.1312 21.4663L42.9787 21.2067L42.8539 23.2028ZM40.4327 16.6422C41.2193 18.3962 41.7333 20.2992 41.9207 22.2981L43.9119 22.1115C43.7038 19.8906 43.1324 17.7744 42.2575 15.8238L40.4327 16.6422ZM44.2908 13.0773L40.792 15.3998L41.8981 17.0661L45.3969 14.7436L44.2908 13.0773ZM44.2908 13.0773V13.0773L45.3969 14.7436C46.2768 14.1595 46.5509 12.992 46.0228 12.0773L44.2908 13.0773ZM43.7302 12.1064L44.2908 13.0773L46.0228 12.0773L45.4623 11.1064L43.7302 12.1064ZM43.7302 12.1064V12.1064L45.4623 11.1064C44.9342 10.1918 43.786 9.8454 42.8402 10.3154L43.7302 12.1064ZM39.9885 13.9658L43.7302 12.1064L42.8402 10.3154L39.0985 12.1747L39.9885 13.9658ZM34.5618 9.42274C36.1714 10.5911 37.5801 12.0195 38.726 13.6461L40.361 12.4943C39.0884 10.6878 37.5242 9.10167 35.7367 7.80419L34.5618 9.42274ZM36.1173 4.41835L34.2537 8.16846L36.0448 9.05847L37.9083 5.30836L36.1173 4.41835ZM36.1173 4.41835V4.41834L37.9083 5.30836C38.3783 4.36257 38.0319 3.21436 37.1173 2.6863L36.1173 4.41835ZM35.1464 3.8578L36.1173 4.41835L37.1173 2.6863L36.1464 2.12575L35.1464 3.8578ZM35.1464 3.85779L35.1464 3.8578L36.1464 2.12575C35.2317 1.59769 34.0641 1.87179 33.4801 2.75171L35.1464 3.85779ZM32.8475 7.321L35.1464 3.8578L33.4801 2.7517L31.1812 6.21491L32.8475 7.321ZM25.7234 6.08136C27.8036 6.27882 29.7798 6.83016 31.592 7.67442L32.4366 5.8615C30.4214 4.92266 28.2238 4.30971 25.9124 4.09031L25.7234 6.08136ZM24.5605 1L24.8198 5.14822L26.8159 5.02346L26.5566 0.875243L24.5605 1ZM24.5605 1V1L26.5566 0.875242C26.4908 -0.178828 25.6167 -1 24.5605 -1V1ZM23.4394 1H24.5605V-1H23.4394V1ZM23.4394 1V1V-1C22.3833 -1 21.5092 -0.178826 21.4433 0.875243L23.4394 1ZM23.1802 5.14822L23.4394 1L21.4433 0.875243L21.1841 5.02346L23.1802 5.14822ZM16.5242 7.62076C18.3046 6.80679 20.2408 6.27461 22.2766 6.08136L22.0876 4.09031C19.8256 4.30503 17.6725 4.89667 15.6926 5.80185L16.5242 7.62076ZM12.9917 3.82419L15.2753 7.26435L16.9416 6.15826L14.658 2.7181L12.9917 3.82419ZM12.9917 3.8242L12.9917 3.82419L14.658 2.7181C14.0739 1.83818 12.9063 1.56408 11.9917 2.09214L12.9917 3.8242ZM12.0208 4.38474L12.9917 3.82419L11.9917 2.09214L11.0208 2.65269L12.0208 4.38474ZM12.0208 4.38475V4.38474L11.0208 2.65269C10.1062 3.18076 9.75976 4.32896 10.2297 5.27475L12.0208 4.38475ZM13.8602 8.08639L12.0208 4.38474L10.2297 5.27475L12.0692 8.9764L13.8602 8.08639ZM9.34243 13.5497C10.5016 11.9269 11.9236 10.5045 13.5461 9.34497L12.3832 7.71781C10.5813 9.00559 9.00234 10.585 7.71499 12.3872L9.34243 13.5497ZM4.36195 12.0146L8.0837 13.864L8.97371 12.0729L5.25196 10.2235L4.36195 12.0146ZM4.36195 12.0146H4.36195L5.25196 10.2235C4.30617 9.75351 3.15796 10.0999 2.6299 11.0146L4.36195 12.0146ZM3.8014 12.9854L4.36195 12.0146L2.6299 11.0146L2.06935 11.9854L3.8014 12.9854ZM3.8014 12.9854L3.8014 12.9854L2.06935 11.9854C1.54129 12.9001 1.8154 14.0677 2.69531 14.6517L3.8014 12.9854ZM7.26124 15.2821L3.8014 12.9854L2.69531 14.6517L6.15514 16.9484L7.26124 15.2821ZM6.07927 22.2989C6.27051 20.2573 6.80255 18.3157 7.61781 16.5307L5.79857 15.6998C4.89195 17.6849 4.30047 19.844 4.08798 22.1123L6.07927 22.2989ZM1.00647 23.4624L5.146 23.2037L5.02125 21.2075L0.881713 21.4663L1.00647 23.4624ZM1.00647 23.4624L1.00647 23.4624L0.881716 21.4663C-0.172357 21.5321 -0.99353 22.4062 -0.99353 23.4624H1.00647ZM1.00647 24.5835V23.4624H-0.99353V24.5835H1.00647ZM1.00647 24.5835L1.00647 24.5835H-0.99353C-0.99353 25.6396 -0.172358 26.5137 0.881708 26.5796L1.00647 24.5835ZM5.15038 24.8425L1.00647 24.5835L0.881712 26.5796L5.02562 26.8386L5.15038 24.8425ZM7.66886 31.5801C6.83064 29.7774 6.28218 27.8126 6.08341 25.7448L4.09259 25.9362C4.31345 28.2338 4.9232 30.4187 5.85532 32.4233L7.66886 31.5801ZM3.89308 35.1064L7.31514 32.8349L6.20904 31.1686L2.78698 33.4401L3.89308 35.1064ZM3.89308 35.1064H3.89308L2.78698 33.4401C1.90707 34.0242 1.63296 35.1918 2.16103 36.1064L3.89308 35.1064ZM4.45363 36.0773L3.89308 35.1064L2.16103 36.1064L2.72157 37.0773L4.45363 36.0773ZM4.45363 36.0773H4.45363L2.72157 37.0773C3.24964 37.992 4.39784 38.3384 5.34363 37.8684L4.45363 36.0773ZM8.15653 34.2373L4.45363 36.0773L5.34364 37.8684L9.04654 36.0283L8.15653 34.2373ZM13.6619 38.7371C12.0235 37.5855 10.5856 36.1675 9.41144 34.5462L7.79163 35.7194C9.09561 37.5198 10.6922 39.0943 12.5118 40.3733L13.6619 38.7371ZM12.1464 43.695L13.9824 40.0002L12.1913 39.1102L10.3553 42.805L12.1464 43.695Z" fill="black" fill-opacity="0.2" mask="url(#path-1-inside-1_401_1001)"/>
</g>
<g id="Ellipse 397">
<circle cx="24" cy="24" r="15" fill="url(#paint2_linear_401_1001)"/>
<circle cx="24" cy="24" r="15" fill="url(#paint3_angular_401_1001)" fill-opacity="0.7"/>
<circle cx="24" cy="24" r="15" fill="url(#paint4_linear_401_1001)" fill-opacity="0.5"/>
<circle cx="24" cy="24" r="15" fill="black" fill-opacity="0.2"/>
</g>
<g id="Ellipse 398">
<circle cx="24" cy="24.0001" r="13" transform="rotate(-29.1616 24 24.0001)" fill="url(#paint5_linear_401_1001)"/>
<circle cx="24" cy="24.0001" r="13" transform="rotate(-29.1616 24 24.0001)" fill="url(#paint6_angular_401_1001)" fill-opacity="0.7"/>
<circle cx="24" cy="24.0001" r="13" transform="rotate(-29.1616 24 24.0001)" fill="url(#paint7_linear_401_1001)" fill-opacity="0.2"/>
</g>
<g id="Ellipse 399">
<circle cx="24" cy="24" r="7" fill="url(#paint8_linear_401_1001)"/>
<circle cx="24" cy="24" r="7" fill="url(#paint9_angular_401_1001)" fill-opacity="0.7"/>
<circle cx="24" cy="24" r="7" fill="black" fill-opacity="0.4"/>
</g>
<g id="Ellipse 400">
<circle cx="24" cy="24" r="6" fill="url(#paint10_linear_401_1001)"/>
<circle cx="24" cy="24" r="6" fill="url(#paint11_angular_401_1001)" fill-opacity="0.7"/>
</g>
</g>
<defs>
<linearGradient id="paint0_linear_401_1001" x1="47.7039" y1="6.45248" x2="36.2449" y2="47.3404" gradientUnits="userSpaceOnUse">
<stop stop-color="white"/>
<stop offset="1" stop-color="#CFD3DF"/>
</linearGradient>
<radialGradient id="paint1_angular_401_1001" cx="0" cy="0" r="1" gradientUnits="userSpaceOnUse" gradientTransform="translate(23.9544 24) rotate(-128.404) scale(29.2944 28.7291)">
<stop stop-color="#EBEBEB"/>
<stop offset="0.103205" stop-color="#A7AAAF"/>
<stop offset="0.193043" stop-color="#F4F5F7"/>
<stop offset="0.328281" stop-color="#C2C9D5"/>
<stop offset="0.390407" stop-color="#E2E2E2"/>
<stop offset="0.56178" stop-color="#8C949F"/>
<stop offset="0.757443" stop-color="#D5D5D5"/>
<stop offset="0.858195" stop-color="#A5ABB4"/>
</radialGradient>
<linearGradient id="paint2_linear_401_1001" x1="40.5971" y1="13.0328" x2="34.0973" y2="38.9657" gradientUnits="userSpaceOnUse">
<stop stop-color="white"/>
<stop offset="1" stop-color="#CFD3DF"/>
</linearGradient>
<radialGradient id="paint3_angular_401_1001" cx="0" cy="0" r="1" gradientUnits="userSpaceOnUse" gradientTransform="translate(24 24) rotate(-131.553) scale(19.1727)">
<stop stop-color="#EBEBEB"/>
<stop offset="0.103205" stop-color="#A7AAAF"/>
<stop offset="0.193043" stop-color="#F4F5F7"/>
<stop offset="0.328281" stop-color="#C2C9D5"/>
<stop offset="0.390407" stop-color="#E2E2E2"/>
<stop offset="0.56178" stop-color="#8C949F"/>
<stop offset="0.757443" stop-color="#D5D5D5"/>
<stop offset="0.858195" stop-color="#A5ABB4"/>
</radialGradient>
<linearGradient id="paint4_linear_401_1001" x1="8" y1="3" x2="37" y2="41" gradientUnits="userSpaceOnUse">
<stop offset="0.0625"/>
<stop offset="1" stop-opacity="0"/>
</linearGradient>
<linearGradient id="paint5_linear_401_1001" x1="38.3842" y1="14.4952" x2="32.751" y2="36.9704" gradientUnits="userSpaceOnUse">
<stop stop-color="white"/>
<stop offset="1" stop-color="#CFD3DF"/>
</linearGradient>
<radialGradient id="paint6_angular_401_1001" cx="0" cy="0" r="1" gradientUnits="userSpaceOnUse" gradientTransform="translate(24 24.0001) rotate(-131.553) scale(16.6163)">
<stop stop-color="#EBEBEB"/>
<stop offset="0.103205" stop-color="#A7AAAF"/>
<stop offset="0.193043" stop-color="#F4F5F7"/>
<stop offset="0.328281" stop-color="#C2C9D5"/>
<stop offset="0.390407" stop-color="#E2E2E2"/>
<stop offset="0.56178" stop-color="#8C949F"/>
<stop offset="0.757443" stop-color="#D5D5D5"/>
<stop offset="0.858195" stop-color="#A5ABB4"/>
</radialGradient>
<linearGradient id="paint7_linear_401_1001" x1="24.9579" y1="57.1713" x2="23.9179" y2="15.9382" gradientUnits="userSpaceOnUse">
<stop/>
<stop offset="1" stop-opacity="0"/>
</linearGradient>
<linearGradient id="paint8_linear_401_1001" x1="31.7453" y1="18.882" x2="28.7121" y2="30.984" gradientUnits="userSpaceOnUse">
<stop stop-color="white"/>
<stop offset="1" stop-color="#CFD3DF"/>
</linearGradient>
<radialGradient id="paint9_angular_401_1001" cx="0" cy="0" r="1" gradientUnits="userSpaceOnUse" gradientTransform="translate(24 24) rotate(-131.553) scale(8.94726)">
<stop stop-color="#EBEBEB"/>
<stop offset="0.103205" stop-color="#A7AAAF"/>
<stop offset="0.193043" stop-color="#F4F5F7"/>
<stop offset="0.328281" stop-color="#C2C9D5"/>
<stop offset="0.390407" stop-color="#E2E2E2"/>
<stop offset="0.56178" stop-color="#8C949F"/>
<stop offset="0.757443" stop-color="#D5D5D5"/>
<stop offset="0.858195" stop-color="#A5ABB4"/>
</radialGradient>
<linearGradient id="paint10_linear_401_1001" x1="30.6388" y1="19.6131" x2="28.0389" y2="29.9863" gradientUnits="userSpaceOnUse">
<stop stop-color="white"/>
<stop offset="1" stop-color="#CFD3DF"/>
</linearGradient>
<radialGradient id="paint11_angular_401_1001" cx="0" cy="0" r="1" gradientUnits="userSpaceOnUse" gradientTransform="translate(24 24) rotate(-131.553) scale(7.66908)">
<stop stop-color="#EBEBEB"/>
<stop offset="0.103205" stop-color="#A7AAAF"/>
<stop offset="0.193043" stop-color="#F4F5F7"/>
<stop offset="0.328281" stop-color="#C2C9D5"/>
<stop offset="0.390407" stop-color="#E2E2E2"/>
<stop offset="0.56178" stop-color="#8C949F"/>
<stop offset="0.757443" stop-color="#D5D5D5"/>
<stop offset="0.858195" stop-color="#A5ABB4"/>
</radialGradient>
</defs>
</svg>
