<svg width="48" height="48" viewBox="0 0 48 48" fill="none" xmlns="http://www.w3.org/2000/svg">
<path fill-rule="evenodd" clip-rule="evenodd" d="M14.8333 2H33.1667C40.2543 2 46 7.74568 46 14.8333V33.1667C46 40.2543 40.2543 46 33.1667 46H14.8333C7.74568 46 2 40.2543 2 33.1667V14.8333C2 7.74568 7.74568 2 14.8333 2Z" fill="#969BAA"/>
<path d="M18 24C18 25.6569 16.6569 27 15 27C13.3431 27 12 25.6569 12 24C12 22.3431 13.3431 21 15 21C16.6569 21 18 22.3431 18 24Z" fill="white"/>
<path d="M27 24C27 25.6569 25.6569 27 24 27C22.3431 27 21 25.6569 21 24C21 22.3431 22.3431 21 24 21C25.6569 21 27 22.3431 27 24Z" fill="white"/>
<path d="M36 24C36 25.6569 34.6569 27 33 27C31.3431 27 30 25.6569 30 24C30 22.3431 31.3431 21 33 21C34.6569 21 36 22.3431 36 24Z" fill="white"/>
</svg>
