<svg width="48" height="48" viewBox="0 0 48 48" fill="none" xmlns="http://www.w3.org/2000/svg">
<rect x="1" y="4" width="46" height="40" rx="2" fill="url(#paint0_linear_532_4299)"/>
<rect x="1" y="4" width="46" height="40" rx="2" fill="black" fill-opacity="0.14"/>
<rect x="3" y="11" width="42" height="31" fill="url(#paint1_linear_532_4299)"/>
<path d="M28 7H32V9H28V7Z" fill="black" fill-opacity="0.2"/>
<path d="M34 7H38V9H34V7Z" fill="black" fill-opacity="0.2"/>
<path d="M44 7H40V9H44V7Z" fill="black" fill-opacity="0.2"/>
<path d="M27.2456 18.684L25.3662 18L20.291 31.944L22.1704 32.628L27.2456 18.684Z" fill="white"/>
<path d="M17 30.281L12.146 25.427L17 20.573L15.427 19L9 25.427L15.427 31.854L17 30.281Z" fill="white"/>
<path d="M31 30.281L35.854 25.427L31 20.573L32.573 19L39 25.427L32.573 31.854L31 30.281Z" fill="white"/>
<defs>
<linearGradient id="paint0_linear_532_4299" x1="73.0416" y1="6.14876" x2="28.1667" y2="65.9552" gradientUnits="userSpaceOnUse">
<stop stop-color="white"/>
<stop offset="1" stop-color="#CFD3DF"/>
</linearGradient>
<linearGradient id="paint1_linear_532_4299" x1="-13.2273" y1="1.48864" x2="16.5942" y2="62.9878" gradientUnits="userSpaceOnUse">
<stop offset="0.0202659" stop-color="#162229"/>
<stop offset="1" stop-color="#646464"/>
</linearGradient>
</defs>
</svg>
