<svg width="48" height="48" viewBox="0 0 48 48" fill="none" xmlns="http://www.w3.org/2000/svg">
<path fill-rule="evenodd" clip-rule="evenodd" d="M14.8333 2H33.1667C40.2543 2 46 7.74568 46 14.8333V33.1667C46 40.2543 40.2543 46 33.1667 46H14.8333C7.74568 46 2 40.2543 2 33.1667V14.8333C2 7.74568 7.74568 2 14.8333 2Z" fill="url(#paint0_linear_446_6291)"/>
<path fill-rule="evenodd" clip-rule="evenodd" d="M24.4514 15.6775C22.8836 15.6775 21.6127 14.4065 21.6127 12.8387C21.6127 11.2709 22.8836 10 24.4514 10C26.0192 10 27.2901 11.2709 27.2901 12.8387C27.2901 14.4065 26.0192 15.6775 24.4514 15.6775ZM23.4517 17.5741C21.259 17.1135 19.6127 15.1684 19.6127 12.8387C19.6127 10.1664 21.779 8 24.4514 8C27.1238 8 29.2901 10.1664 29.2901 12.8387C29.2901 15.1682 27.6441 17.1131 25.4517 17.5739V21.6518C27.6441 22.1126 29.2901 24.0576 29.2901 26.387C29.2901 26.942 29.1967 27.4751 29.0247 27.9716L33.3521 30.3991C34.0505 29.7133 35.0079 29.2902 36.0641 29.2902C38.202 29.2902 39.9351 31.0233 39.9351 33.1612C39.9351 35.2991 38.202 37.0322 36.0641 37.0322C33.9263 37.0322 32.1932 35.2991 32.1932 33.1612C32.1932 32.801 32.2424 32.4523 32.3344 32.1215L27.9918 29.6854C27.1085 30.6331 25.8492 31.2258 24.4514 31.2258C23.0497 31.2258 21.7872 30.6298 20.9035 29.6773L17.4655 31.7402C17.6033 32.1895 17.6775 32.6667 17.6775 33.1612C17.6775 35.8335 15.5111 37.9999 12.8387 37.9999C10.1664 37.9999 8 35.8335 8 33.1612C8 30.4888 10.1664 28.3224 12.8387 28.3224C14.2983 28.3224 15.6069 28.9687 16.4941 29.9906L19.8748 27.9622C19.7049 27.4684 19.6127 26.9385 19.6127 26.387C19.6127 24.0574 21.259 22.1123 23.4517 21.6517V17.5741ZM10 33.1612C10 34.729 11.2709 35.9999 12.8387 35.9999C14.4065 35.9999 15.6775 34.729 15.6775 33.1612C15.6775 31.5934 14.4065 30.3224 12.8387 30.3224C11.2709 30.3224 10 31.5934 10 33.1612ZM21.6127 26.387C21.6127 27.9548 22.8836 29.2258 24.4514 29.2258C26.0192 29.2258 27.2901 27.9548 27.2901 26.387C27.2901 24.8192 26.0192 23.5483 24.4514 23.5483C22.8836 23.5483 21.6127 24.8192 21.6127 26.387Z" fill="white"/>
<defs>
<linearGradient id="paint0_linear_446_6291" x1="37.5385" y1="46" x2="4.82767" y2="5.90607" gradientUnits="userSpaceOnUse">
<stop stop-color="#F587DC"/>
<stop offset="1" stop-color="#BC83F6"/>
</linearGradient>
</defs>
</svg>
