<svg width="48" height="48" viewBox="0 0 48 48" fill="none" xmlns="http://www.w3.org/2000/svg">
<path fill-rule="evenodd" clip-rule="evenodd" d="M12.3418 41.5754C12.1068 42.0483 12.28 42.6224 12.7373 42.8864L13.4917 43.322C13.949 43.586 14.5328 43.4489 14.8249 43.009L16.5599 40.3952C18.3564 41.2118 20.3107 41.7417 22.3646 41.9267L22.5605 45.0624C22.5935 45.5894 23.0305 46 23.5586 46H24.4297C24.9577 46 25.3948 45.5894 25.4277 45.0624L25.6237 41.9278C27.7211 41.7403 29.7149 41.193 31.5431 40.3481L33.2889 42.9782C33.581 43.4181 34.1648 43.5552 34.6221 43.2912L35.3765 42.8556C35.8338 42.5916 36.007 42.0175 35.772 41.5446L34.3668 38.7168C36.05 37.5289 37.5204 36.0596 38.7094 34.3773L41.5178 35.7729C41.9907 36.0079 42.5648 35.8347 42.8289 35.3773L43.2644 34.623C43.5284 34.1656 43.3914 33.5818 42.9514 33.2898L40.3415 31.5573C41.1865 29.7331 41.7351 27.7435 41.9254 25.6504L45.0619 25.4544C45.5889 25.4215 45.9995 24.9844 45.9995 24.4564V23.5853C45.9995 23.0572 45.5889 22.6202 45.0619 22.5872L41.9292 22.3914C41.7461 20.3239 41.2134 18.3569 40.3907 16.5497L43.0353 14.7942C43.4752 14.5022 43.6123 13.9184 43.3483 13.4611L42.9127 12.7067C42.6487 12.2494 42.0746 12.0762 41.6017 12.3112L38.7748 13.7159C37.6006 12.0321 36.146 10.5585 34.4786 9.36271L35.8872 6.52787C36.1222 6.05498 35.949 5.48087 35.4917 5.21684L34.7373 4.78129C34.28 4.51726 33.6962 4.65431 33.4042 5.09427L31.6678 7.71014C29.8057 6.83215 27.7689 6.26402 25.6237 6.07223L25.4277 2.93762C25.3948 2.41059 24.9578 2 24.4297 2H23.5586C23.0305 2 22.5935 2.41059 22.5605 2.93762L22.3646 6.0733C20.2629 6.26258 18.2655 6.81309 16.4347 7.66227L14.7096 5.06348C14.4176 4.62353 13.8338 4.48647 13.3765 4.7505L12.6221 5.18605C12.1648 5.45008 11.9916 6.02419 12.2266 6.49708L13.6168 9.29484C11.939 10.4817 10.4732 11.9486 9.28745 13.6273L6.47032 12.2274C5.99742 11.9924 5.42332 12.1656 5.15929 12.6229L4.72374 13.3773C4.45971 13.8347 4.59676 14.4184 5.03672 14.7105L7.65569 16.449C6.80667 18.2836 6.25747 20.2854 6.07095 22.3913L2.93713 22.5872C2.41009 22.6202 1.99951 23.0572 1.99951 23.5853V24.4564C1.99951 24.9844 2.4101 25.4215 2.93713 25.4544L6.07471 25.6505C6.26848 27.782 6.83384 29.8062 7.70548 31.6577L5.12059 33.3735C4.68063 33.6656 4.54358 34.2494 4.80761 34.7067L5.24316 35.4611C5.50719 35.9184 6.08129 36.0916 6.55419 35.8566L9.35349 34.4656C10.554 36.1427 12.0354 37.6051 13.729 38.7839L12.3418 41.5754Z" fill="url(#paint0_linear_248_5418)"/>
<path fill-rule="evenodd" clip-rule="evenodd" d="M12.3418 41.5754C12.1068 42.0483 12.28 42.6224 12.7373 42.8864L13.4917 43.322C13.949 43.586 14.5328 43.4489 14.8249 43.009L16.5599 40.3952C18.3564 41.2118 20.3107 41.7417 22.3646 41.9267L22.5605 45.0624C22.5935 45.5894 23.0305 46 23.5586 46H24.4297C24.9577 46 25.3948 45.5894 25.4277 45.0624L25.6237 41.9278C27.7211 41.7403 29.7149 41.193 31.5431 40.3481L33.2889 42.9782C33.581 43.4181 34.1648 43.5552 34.6221 43.2912L35.3765 42.8556C35.8338 42.5916 36.007 42.0175 35.772 41.5446L34.3668 38.7168C36.05 37.5289 37.5204 36.0596 38.7094 34.3773L41.5178 35.7729C41.9907 36.0079 42.5648 35.8347 42.8289 35.3773L43.2644 34.623C43.5284 34.1656 43.3914 33.5818 42.9514 33.2898L40.3415 31.5573C41.1865 29.7331 41.7351 27.7435 41.9254 25.6504L45.0619 25.4544C45.5889 25.4215 45.9995 24.9844 45.9995 24.4564V23.5853C45.9995 23.0572 45.5889 22.6202 45.0619 22.5872L41.9292 22.3914C41.7461 20.3239 41.2134 18.3569 40.3907 16.5497L43.0353 14.7942C43.4752 14.5022 43.6123 13.9184 43.3483 13.4611L42.9127 12.7067C42.6487 12.2494 42.0746 12.0762 41.6017 12.3112L38.7748 13.7159C37.6006 12.0321 36.146 10.5585 34.4786 9.36271L35.8872 6.52787C36.1222 6.05498 35.949 5.48087 35.4917 5.21684L34.7373 4.78129C34.28 4.51726 33.6962 4.65431 33.4042 5.09427L31.6678 7.71014C29.8057 6.83215 27.7689 6.26402 25.6237 6.07223L25.4277 2.93762C25.3948 2.41059 24.9578 2 24.4297 2H23.5586C23.0305 2 22.5935 2.41059 22.5605 2.93762L22.3646 6.0733C20.2629 6.26258 18.2655 6.81309 16.4347 7.66227L14.7096 5.06348C14.4176 4.62353 13.8338 4.48647 13.3765 4.7505L12.6221 5.18605C12.1648 5.45008 11.9916 6.02419 12.2266 6.49708L13.6168 9.29484C11.939 10.4817 10.4732 11.9486 9.28745 13.6273L6.47032 12.2274C5.99742 11.9924 5.42332 12.1656 5.15929 12.6229L4.72374 13.3773C4.45971 13.8347 4.59676 14.4184 5.03672 14.7105L7.65569 16.449C6.80667 18.2836 6.25747 20.2854 6.07095 22.3913L2.93713 22.5872C2.41009 22.6202 1.99951 23.0572 1.99951 23.5853V24.4564C1.99951 24.9844 2.4101 25.4215 2.93713 25.4544L6.07471 25.6505C6.26848 27.782 6.83384 29.8062 7.70548 31.6577L5.12059 33.3735C4.68063 33.6656 4.54358 34.2494 4.80761 34.7067L5.24316 35.4611C5.50719 35.9184 6.08129 36.0916 6.55419 35.8566L9.35349 34.4656C10.554 36.1427 12.0354 37.6051 13.729 38.7839L12.3418 41.5754Z" fill="black" fill-opacity="0.14"/>
<circle cx="24" cy="24" r="14" fill="url(#paint1_linear_248_5418)" fill-opacity="0.5"/>
<circle cx="24" cy="24" r="14" fill="black" fill-opacity="0.2"/>
<circle cx="24" cy="24.0001" r="13" transform="rotate(-29.1616 24 24.0001)" fill="url(#paint2_linear_248_5418)"/>
<circle cx="24" cy="24.0001" r="13" transform="rotate(-29.1616 24 24.0001)" fill="black" fill-opacity="0.14"/>
<circle cx="24" cy="24" r="8" fill="url(#paint3_linear_248_5418)" fill-opacity="0.5"/>
<circle cx="24" cy="24" r="8" fill="black" fill-opacity="0.2"/>
<circle cx="24" cy="24" r="5" fill="url(#paint4_linear_248_5418)"/>
<circle cx="24" cy="24" r="5" fill="black" fill-opacity="0.14"/>
<defs>
<linearGradient id="paint0_linear_248_5418" x1="70.9089" y1="4.36364" x2="20.0502" y2="63.3038" gradientUnits="userSpaceOnUse">
<stop stop-color="white"/>
<stop offset="1" stop-color="#CFD3DF"/>
</linearGradient>
<linearGradient id="paint1_linear_248_5418" x1="3.46667" y1="-4" x2="38" y2="46.8667" gradientUnits="userSpaceOnUse">
<stop offset="0.0625"/>
<stop offset="1" stop-opacity="0"/>
</linearGradient>
<linearGradient id="paint2_linear_248_5418" x1="49.4091" y1="13.3637" x2="21.8607" y2="45.2897" gradientUnits="userSpaceOnUse">
<stop stop-color="white"/>
<stop offset="1" stop-color="#CFD3DF"/>
</linearGradient>
<linearGradient id="paint3_linear_248_5418" x1="12.2667" y1="8" x2="32" y2="37.0667" gradientUnits="userSpaceOnUse">
<stop offset="0.0625"/>
<stop offset="1" stop-opacity="0"/>
</linearGradient>
<linearGradient id="paint4_linear_248_5418" x1="33.7727" y1="19.9091" x2="23.1772" y2="32.1883" gradientUnits="userSpaceOnUse">
<stop stop-color="white"/>
<stop offset="1" stop-color="#CFD3DF"/>
</linearGradient>
</defs>
</svg>
