<svg xmlns="http://www.w3.org/2000/svg" width="48" height="48" viewBox="0 0 48 48">
    <defs>
        <linearGradient id="a" x1="0%" x2="101.44%" y1="0%" y2="100.446%">
            <stop offset="0%" stop-color="#CA0000"/>
            <stop offset="99.954%" stop-color="#7A47C2"/>
        </linearGradient>
    </defs>
    <g fill="none" fill-rule="evenodd">
        <path fill="url(#a)" d="M16 0h16c8.837 0 16 7.163 16 16v16c0 8.837-7.163 16-16 16H16C7.163 48 0 40.837 0 32V16C0 7.163 7.163 0 16 0z"/>
        <path fill="#FFF" d="M24 15.692v19.3a4 4 0 0 1-2.39 3.662l-4.087 1.798A2.512 2.512 0 0 1 14 38.153v-1.239a4 4 0 0 1 2.39-3.661l3.818-1.68A3 3 0 0 0 22 28.827V9.157a1 1 0 0 1 1.646-.764l8.994 7.61a6 6 0 0 1 2.103 5.078l-.66 7.922A1.087 1.087 0 0 1 33 30v-3.91a6 6 0 0 0-2.124-4.58L24 15.692z"/>
    </g>
</svg>
