<svg xmlns="http://www.w3.org/2000/svg" width="48" height="48" viewBox="0 0 48 48">
    <defs>
        <linearGradient id="a" x1="0%" y1="0%" y2="100%">
            <stop offset="0%" stop-color="#4B4B4B"/>
            <stop offset="100%" stop-color="#515151"/>
        </linearGradient>
    </defs>
    <g fill="none" fill-rule="evenodd">
        <path fill="url(#a)" d="M16 0h16c8.837 0 16 7.163 16 16v16c0 8.837-7.163 16-16 16H16C7.163 48 0 40.837 0 32V16C0 7.163 7.163 0 16 0z"/>
        <path fill="#FFF" d="M22.833 34.436a10.45 10.45 0 0 1-5.387-2.232l-2.52 2.52-1.65-1.65 2.52-2.52a10.45 10.45 0 0 1-2.232-5.387H10v-2.334h3.564a10.45 10.45 0 0 1 2.232-5.387l-2.52-2.52 1.65-1.65 2.52 2.52a10.45 10.45 0 0 1 5.387-2.232V10h2.334v3.564a10.45 10.45 0 0 1 5.387 2.232l2.52-2.52 1.65 1.65-2.52 2.52a10.45 10.45 0 0 1 2.232 5.387H38v2.334h-3.564a10.45 10.45 0 0 1-2.232 5.387l2.52 2.52-1.65 1.65-2.52-2.52a10.45 10.45 0 0 1-5.387 2.232V38h-2.334v-3.564zm6.942-4.661A8.141 8.141 0 0 0 32.167 24a8.141 8.141 0 0 0-2.392-5.775 8.167 8.167 0 1 0 0 11.55zM24 26.333a2.333 2.333 0 1 0 0-4.666 2.333 2.333 0 0 0 0 4.666zm0 2.334a4.667 4.667 0 1 1 0-9.334 4.667 4.667 0 0 1 0 9.334z"/>
    </g>
</svg>
