<svg width="48" height="48" viewBox="0 0 48 48" fill="none" xmlns="http://www.w3.org/2000/svg">
<g clip-path="url(#clip0_2818_21962)">
<rect x="2" y="2" width="44" height="44" rx="12" fill="url(#paint0_linear_2818_21962)"/>
<rect x="-2.31699" y="32.5346" width="15.7036" height="1" transform="rotate(-30 -2.31699 32.5346)" stroke="white"/>
<rect x="36.683" y="25.3695" width="19.3733" height="1" transform="rotate(-30 36.683 25.3695)" fill="#41AAF8" stroke="white"/>
<rect x="-20" y="53.5" width="37.6937" height="4" transform="rotate(-30 -20 53.5)" fill="#D9D9D9"/>
<path d="M15.4708 19.4722C16.2677 18.472 17.2913 17.5961 18.5744 16.8553C19.6666 16.2247 20.7379 15.8057 21.7912 15.5744L21.7975 15.573L21.8039 15.5715C22.8729 15.3303 23.8727 15.2763 24.8156 15.3869L24.8251 15.3879C25.7822 15.4961 26.6494 15.762 27.4445 16.1779C27.7068 16.3151 27.9579 16.4693 28.1983 16.6413L32.3676 14.2341C31.5334 13.3669 30.5814 12.6493 29.5159 12.0919C28.1973 11.4021 26.7812 10.9763 25.2855 10.8067C23.7926 10.6323 22.2792 10.7277 20.7574 11.0705C19.2102 11.4111 17.7105 12.0117 16.261 12.8485C14.5383 13.8432 13.0702 15.0754 11.8895 16.5561C10.7041 18.0308 9.86187 19.6846 9.38056 21.5034C8.89024 23.3338 8.8101 25.2409 9.10933 27.1989L9.11017 27.2044L9.11104 27.2099C9.42564 29.2046 10.1721 31.1737 11.2897 33.1094C12.7507 35.6399 14.5777 37.6517 16.8103 39.0262L16.8155 39.0294L16.8208 39.0326C19.0291 40.3762 21.4291 41.0447 23.9752 41.013L23.9812 41.0129L23.9873 41.0128C26.5411 40.9674 29.0264 40.2039 31.4211 38.8214C33.5698 37.5808 35.32 36.0267 36.5929 34.1305L36.5977 34.1233C37.8688 32.2139 38.5662 30.1061 38.6457 27.8369C38.7271 25.5109 38.0832 23.2512 36.8388 21.0958L34.7824 17.5341L24.8686 23.2578L27.1819 27.2646L33.1347 23.8278C33.8304 25.1733 34.1119 26.4276 34.0702 27.6185C34.0219 28.9969 33.6091 30.2851 32.7877 31.5203C31.9584 32.7542 30.758 33.8618 29.1077 34.8146C27.2702 35.8755 25.5274 36.372 23.857 36.4028C22.1882 36.4225 20.6371 35.9956 19.1584 35.0973C17.7096 34.2039 16.3906 32.8202 15.2406 30.8284C14.3597 29.3027 13.8442 27.878 13.6333 26.5463C13.4239 25.1713 13.4906 23.9151 13.8026 22.7519L13.8047 22.7438C14.1188 21.5555 14.666 20.4725 15.4641 19.4806L15.4708 19.4722Z" fill="white"/>
<mask id="path-6-inside-1_2818_21962" fill="white">
<path fill-rule="evenodd" clip-rule="evenodd" d="M6.80767 56.4331C2.75292 54.2324 0 49.9376 0 44.9998C0 37.8201 5.8203 31.9998 13 31.9998C17.5213 31.9998 21.5036 34.308 23.8327 37.8103L51.2169 22L67.1402 49.58L18.9233 77.4181L6.80767 56.4331Z"/>
</mask>
<path fill-rule="evenodd" clip-rule="evenodd" d="M6.80767 56.4331C2.75292 54.2324 0 49.9376 0 44.9998C0 37.8201 5.8203 31.9998 13 31.9998C17.5213 31.9998 21.5036 34.308 23.8327 37.8103L51.2169 22L67.1402 49.58L18.9233 77.4181L6.80767 56.4331Z" fill="url(#paint1_linear_2818_21962)"/>
<path d="M6.80767 56.4331L8.53972 55.4331L8.25761 54.9445L7.76171 54.6753L6.80767 56.4331ZM23.8327 37.8103L22.1673 38.9178L23.2069 40.481L24.8327 39.5423L23.8327 37.8103ZM51.2169 22L52.9489 21L51.9489 19.2679L50.2169 20.2679L51.2169 22ZM67.1402 49.58L68.1402 51.3121L69.8723 50.3121L68.8723 48.58L67.1402 49.58ZM18.9233 77.4181L17.1913 78.4181L18.1913 80.1501L19.9233 79.1501L18.9233 77.4181ZM7.76171 54.6753C4.32564 52.8104 2 49.1752 2 44.9998H-2C-2 50.7 1.1802 55.6544 5.85363 58.1909L7.76171 54.6753ZM2 44.9998C2 38.9247 6.92487 33.9998 13 33.9998V29.9998C4.71573 29.9998 -2 36.7156 -2 44.9998H2ZM13 33.9998C16.8238 33.9998 20.1932 35.9493 22.1673 38.9178L25.498 36.7028C22.814 32.6667 18.2189 29.9998 13 29.9998V33.9998ZM24.8327 39.5423L52.2169 23.7321L50.2169 20.2679L22.8327 36.0782L24.8327 39.5423ZM49.4848 23L65.4082 50.58L68.8723 48.58L52.9489 21L49.4848 23ZM66.1402 47.848L17.9233 75.686L19.9233 79.1501L68.1402 51.3121L66.1402 47.848ZM20.6554 76.4181L8.53972 55.4331L5.07562 57.4331L17.1913 78.4181L20.6554 76.4181Z" fill="white" mask="url(#path-6-inside-1_2818_21962)"/>
<mask id="path-8-inside-2_2818_21962" fill="white">
<path fill-rule="evenodd" clip-rule="evenodd" d="M24.1374 47.2833L-21.7539 73.7787L-5.83057 101.359L70.9816 57.0112L55.0583 29.4312L34.0414 41.5652C32.975 40.5929 31.5567 39.9999 29.9998 39.9999C26.6861 39.9999 23.9998 42.6862 23.9998 45.9999C23.9998 46.4404 24.0473 46.8698 24.1374 47.2833Z"/>
</mask>
<path d="M-21.7539 73.7787L-22.7539 72.0466L-24.486 73.0466L-23.486 74.7787L-21.7539 73.7787ZM24.1374 47.2833L25.1374 49.0154L26.4026 48.2849L26.0916 46.8575L24.1374 47.2833ZM-5.83057 101.359L-7.56262 102.359L-6.56262 104.091L-4.83057 103.091L-5.83057 101.359ZM70.9816 57.0112L71.9816 58.7432L73.7136 57.7432L72.7136 56.0112L70.9816 57.0112ZM55.0583 29.4312L56.7903 28.4312L55.7903 26.6991L54.0583 27.6991L55.0583 29.4312ZM34.0414 41.5652L32.6938 43.0431L33.7746 44.0287L35.0414 43.2973L34.0414 41.5652ZM-20.7539 75.5107L25.1374 49.0154L23.1374 45.5513L-22.7539 72.0466L-20.7539 75.5107ZM-4.09852 100.359L-20.0219 72.7787L-23.486 74.7787L-7.56262 102.359L-4.09852 100.359ZM69.9816 55.2791L-6.83057 99.6267L-4.83057 103.091L71.9816 58.7432L69.9816 55.2791ZM53.3262 30.4312L69.2495 58.0112L72.7136 56.0112L56.7903 28.4312L53.3262 30.4312ZM35.0414 43.2973L56.0583 31.1632L54.0583 27.6991L33.0414 39.8332L35.0414 43.2973ZM29.9998 41.9999C31.0389 41.9999 31.9814 42.3935 32.6938 43.0431L35.389 40.0874C33.9687 38.7923 32.0745 37.9999 29.9998 37.9999V41.9999ZM25.9998 45.9999C25.9998 43.7908 27.7907 41.9999 29.9998 41.9999V37.9999C25.5816 37.9999 21.9998 41.5817 21.9998 45.9999H25.9998ZM26.0916 46.8575C26.0317 46.583 25.9998 46.2964 25.9998 45.9999H21.9998C21.9998 46.5845 22.0629 47.1566 22.1833 47.7091L26.0916 46.8575Z" fill="white" mask="url(#path-8-inside-2_2818_21962)"/>
<g clip-path="url(#clip1_2818_21962)">
<path d="M37.5 7C35.5702 7 34 8.57015 34 10.5C34 12.4298 35.5702 14 37.5 14C39.4298 14 41 12.4298 41 10.5C41 8.57015 39.4298 7 37.5 7ZM37.5 13.3323C35.9385 13.3323 34.6677 12.0615 34.6677 10.5C34.6677 8.93846 35.9385 7.66769 37.5 7.66769C39.0615 7.66769 40.3323 8.93846 40.3323 10.5C40.3323 12.0615 39.0615 13.3323 37.5 13.3323Z" fill="white"/>
<path d="M38.256 9.3619C37.9965 9.3619 37.8587 9.38666 37.8005 9.40066C37.8059 9.33928 37.8156 9.19605 37.8156 9.01297V8.66943H37.1856V9.01297C37.1856 9.19605 37.1953 9.33928 37.2007 9.40066C37.1425 9.38666 37.0036 9.3619 36.7451 9.3619H35.7339V9.9919H36.001C36.3337 9.9919 36.548 9.94882 36.771 9.76897L36.8291 9.83682C36.4554 9.98543 36.1033 10.3893 36.1033 10.9073C36.1033 11.6557 36.6913 12.1996 37.5011 12.1996C38.311 12.1996 38.899 11.6557 38.899 10.9073C38.899 10.3893 38.5468 9.98436 38.1731 9.83682L38.2313 9.76897C38.4553 9.94882 38.6685 9.9919 39.0013 9.9919H39.2683V9.3619H38.2571H38.256ZM38.2679 10.8631C38.2679 11.295 37.9523 11.5976 37.5 11.5976C37.0477 11.5976 36.7322 11.296 36.7322 10.8631C36.7322 10.4302 37.0413 10.1211 37.5 10.1211C37.9599 10.1211 38.2679 10.4194 38.2679 10.8631Z" fill="white"/>
</g>
</g>
<defs>
<linearGradient id="paint0_linear_2818_21962" x1="35" y1="35.6875" x2="15.3469" y2="4.99129" gradientUnits="userSpaceOnUse">
<stop offset="0.0046461" stop-color="#79C0FB"/>
<stop offset="1" stop-color="#6796FF"/>
</linearGradient>
<linearGradient id="paint1_linear_2818_21962" x1="50.5" y1="60.5" x2="11.7706" y2="-22.7252" gradientUnits="userSpaceOnUse">
<stop offset="0.0046461" stop-color="#79C0FB"/>
<stop offset="1" stop-color="#6796FF"/>
</linearGradient>
<clipPath id="clip0_2818_21962">
<rect x="2" y="2" width="44" height="44" rx="12" fill="white"/>
</clipPath>
<clipPath id="clip1_2818_21962">
<rect width="7" height="7" fill="white" transform="translate(34 7)"/>
</clipPath>
</defs>
</svg>
