<svg width="48" height="48" viewBox="0 0 48 48" fill="none" xmlns="http://www.w3.org/2000/svg">
<path d="M7 7H41V45C41 46.1046 40.1046 47 39 47H9C7.89543 47 7 46.1046 7 45V7Z" fill="url(#paint0_linear_1717_17261)"/>
<path d="M8 8H40L36.8 10L40 12H8L11.2 10L8 8Z" fill="#FF0000" fill-opacity="0.21"/>
<path d="M19 0L16 2.57143V12H19V0Z" fill="url(#paint1_linear_1717_17261)"/>
<path d="M29 0L32 2.57143V12H29V0Z" fill="url(#paint2_linear_1717_17261)"/>
<path d="M19 0H29L32 3H19V0Z" fill="url(#paint3_linear_1717_17261)"/>
<rect opacity="0.4" x="8" y="12" width="32" height="1" fill="white"/>
<path d="M15.5755 31.5233C15.5755 31.3895 15.5479 31.2713 15.4928 31.1689C15.4377 31.0666 15.3602 30.9747 15.2605 30.8933C15.1555 30.8172 15.0308 30.7489 14.8864 30.6885C14.7446 30.6255 14.5858 30.5691 14.4099 30.5192C14.1395 30.4431 13.8901 30.3499 13.6617 30.2396C13.436 30.1268 13.243 30.0007 13.0829 29.8616C12.9227 29.7199 12.7967 29.5597 12.7049 29.3812C12.6156 29.2001 12.571 28.9966 12.571 28.7709C12.571 28.5267 12.6235 28.3075 12.7285 28.1132C12.8335 27.9164 12.9752 27.7484 13.1538 27.6092C13.3323 27.4727 13.5397 27.369 13.7759 27.2981C14.0148 27.2246 14.2655 27.1879 14.528 27.1879C14.8063 27.1879 15.0649 27.2312 15.3038 27.3178C15.5453 27.4018 15.7553 27.52 15.9338 27.6722C16.1123 27.8271 16.2528 28.0122 16.3552 28.2274C16.4602 28.4401 16.5127 28.6763 16.5127 28.9362H15.5755C15.5624 28.7919 15.5309 28.6606 15.481 28.5425C15.4337 28.4217 15.3668 28.318 15.2801 28.2314C15.1909 28.1474 15.0819 28.0817 14.9533 28.0345C14.8273 27.9846 14.6816 27.9597 14.5162 27.9597C14.3718 27.9597 14.238 27.9794 14.1146 28.0187C13.9938 28.0555 13.8888 28.108 13.7996 28.1763C13.7103 28.2471 13.6407 28.3325 13.5909 28.4322C13.541 28.532 13.516 28.6435 13.516 28.7669C13.5187 28.8982 13.5528 29.0137 13.6184 29.1134C13.684 29.2106 13.772 29.2959 13.8822 29.3694C13.9951 29.4429 14.1238 29.5072 14.2681 29.5623C14.4152 29.6175 14.5687 29.6687 14.7289 29.7159C14.931 29.7737 15.1279 29.8459 15.3195 29.9325C15.5138 30.0165 15.6923 30.1189 15.8551 30.2396C16.0572 30.3919 16.2186 30.5743 16.3394 30.787C16.4628 30.997 16.5245 31.2398 16.5245 31.5155C16.5245 31.7701 16.4707 31.9946 16.363 32.1888C16.258 32.3831 16.1163 32.5445 15.9378 32.6732C15.7566 32.8071 15.5466 32.9081 15.3077 32.9764C15.0688 33.042 14.8168 33.0748 14.5517 33.0748C14.2708 33.0748 13.9938 33.0315 13.7208 32.9449C13.4478 32.8556 13.2102 32.727 13.0081 32.559C12.8217 32.4015 12.6734 32.2164 12.5631 32.0037C12.4555 31.7911 12.4003 31.547 12.3977 31.2713H13.3428C13.3559 31.4472 13.3927 31.6008 13.453 31.732C13.516 31.8607 13.6014 31.967 13.709 32.051C13.814 32.1376 13.9374 32.2019 14.0791 32.244C14.2235 32.286 14.381 32.307 14.5517 32.307C14.696 32.307 14.8299 32.2899 14.9533 32.2558C15.0793 32.2216 15.1883 32.1704 15.2801 32.1022C15.3694 32.0366 15.4403 31.9552 15.4928 31.8581C15.5479 31.7609 15.5755 31.6494 15.5755 31.5233ZM19.3439 27.6998V28.7394H20.9466V29.4442H19.3439V31.48C19.3439 31.6375 19.3623 31.7701 19.399 31.8777C19.4384 31.9827 19.4922 32.0654 19.5605 32.1258C19.6287 32.1888 19.7101 32.2335 19.8046 32.2597C19.8991 32.286 20.0028 32.2991 20.1157 32.2991C20.1971 32.2991 20.2811 32.2951 20.3677 32.2873C20.4544 32.2794 20.5384 32.2689 20.6197 32.2558C20.6985 32.2453 20.772 32.2335 20.8403 32.2203C20.9111 32.2046 20.9702 32.1914 21.0175 32.1809L21.1198 32.8307C21.0516 32.8727 20.9689 32.9094 20.8718 32.9409C20.7772 32.9698 20.6749 32.9947 20.5646 33.0158C20.4544 33.0368 20.3388 33.0525 20.2181 33.063C20.1 33.0761 19.9818 33.0827 19.8637 33.0827C19.6484 33.0827 19.4502 33.0538 19.2691 32.9961C19.0906 32.9357 18.937 32.8425 18.8084 32.7165C18.6797 32.5931 18.5787 32.4343 18.5052 32.24C18.4343 32.0458 18.3988 31.8121 18.3988 31.5391V29.4442H17.3672V28.7394H18.3988V27.6998H19.3439ZM22.124 30.8303C22.124 30.5205 22.1686 30.2344 22.2578 29.9719C22.3471 29.7067 22.477 29.477 22.6477 29.2828C22.8157 29.0885 23.0218 28.9362 23.2659 28.826C23.51 28.7157 23.7883 28.6606 24.1007 28.6606C24.4131 28.6606 24.6914 28.7157 24.9355 28.826C25.1823 28.9362 25.391 29.0885 25.5616 29.2828C25.7296 29.477 25.8583 29.7067 25.9475 29.9719C26.0368 30.2344 26.0814 30.5205 26.0814 30.8303V30.913C26.0814 31.2254 26.0368 31.5128 25.9475 31.7754C25.8583 32.0379 25.7296 32.2663 25.5616 32.4605C25.3936 32.6548 25.1862 32.8071 24.9395 32.9173C24.6953 33.0276 24.4184 33.0827 24.1086 33.0827C23.7962 33.0827 23.5166 33.0276 23.2698 32.9173C23.0231 32.8071 22.8157 32.6548 22.6477 32.4605C22.477 32.2663 22.3471 32.0379 22.2578 31.7754C22.1686 31.5128 22.124 31.2254 22.124 30.913V30.8303ZM23.0651 30.913C23.0651 31.1046 23.0848 31.2858 23.1241 31.4564C23.1662 31.627 23.2305 31.7767 23.3171 31.9053C23.4011 32.0339 23.5087 32.1363 23.64 32.2124C23.7713 32.286 23.9275 32.3227 24.1086 32.3227C24.2845 32.3227 24.438 32.286 24.5693 32.2124C24.7006 32.1363 24.8082 32.0339 24.8922 31.9053C24.9762 31.7767 25.0379 31.627 25.0773 31.4564C25.1193 31.2858 25.1403 31.1046 25.1403 30.913V30.8303C25.1403 30.6439 25.1193 30.4654 25.0773 30.2948C25.0353 30.1241 24.9736 29.9745 24.8922 29.8459C24.8056 29.7172 24.6966 29.6148 24.5654 29.5387C24.4367 29.4626 24.2818 29.4245 24.1007 29.4245C23.9222 29.4245 23.7673 29.4626 23.6361 29.5387C23.5074 29.6148 23.4011 29.7172 23.3171 29.8459C23.2305 29.9745 23.1662 30.1241 23.1241 30.2948C23.0848 30.4654 23.0651 30.6439 23.0651 30.8303V30.913ZM30.0861 28.6606C30.2384 28.6606 30.3854 28.6711 30.5271 28.6921C30.6715 28.7131 30.7844 28.738 30.8658 28.7669L30.7319 29.6962C30.5875 29.6647 30.4444 29.6411 30.3027 29.6253C30.1635 29.6096 30.0244 29.6017 29.8853 29.6017C29.7278 29.6017 29.586 29.6175 29.46 29.649C29.334 29.6805 29.2224 29.729 29.1253 29.7947C29.0203 29.8577 28.931 29.9377 28.8575 30.0349C28.784 30.132 28.7223 30.2436 28.6724 30.3696V33H27.7313V28.7394H28.6134L28.6528 29.33L28.6567 29.4285C28.83 29.1896 29.0373 29.0019 29.2789 28.8654C29.523 28.7289 29.7921 28.6606 30.0861 28.6606ZM33.9727 33.0788C33.6576 33.0788 33.3689 33.0263 33.1064 32.9212C32.8465 32.8162 32.6233 32.6705 32.4369 32.4842C32.2505 32.3004 32.1062 32.0838 32.0038 31.8344C31.904 31.5824 31.8541 31.3107 31.8541 31.0193V30.8579C31.8541 30.5245 31.9066 30.2226 32.0117 29.9522C32.1167 29.6818 32.261 29.4508 32.4448 29.2591C32.6286 29.0675 32.8412 28.9205 33.0827 28.8181C33.3269 28.7131 33.5868 28.6606 33.8624 28.6606C34.1695 28.6606 34.4412 28.7131 34.6775 28.8181C34.9138 28.9205 35.112 29.0636 35.2721 29.2473C35.4322 29.4337 35.553 29.6555 35.6344 29.9128C35.7158 30.1701 35.7565 30.451 35.7565 30.7555V31.1611H32.8031V31.1808C32.832 31.3671 32.8766 31.5233 32.937 31.6494C32.9974 31.7754 33.0801 31.8882 33.1851 31.988C33.2901 32.093 33.4135 32.1744 33.5553 32.2321C33.6996 32.2899 33.8571 32.3188 34.0278 32.3188C34.2614 32.3188 34.4793 32.2741 34.6815 32.1849C34.8836 32.093 35.0503 31.9631 35.1815 31.795L35.6856 32.2833C35.5438 32.4881 35.3259 32.6719 35.0319 32.8346C34.7405 32.9974 34.3874 33.0788 33.9727 33.0788ZM33.8585 29.4245C33.7246 29.4245 33.5999 29.4495 33.4844 29.4993C33.3715 29.5466 33.2704 29.6148 33.1812 29.7041C33.0919 29.796 33.0171 29.9062 32.9567 30.0349C32.8963 30.1635 32.8517 30.3092 32.8228 30.472H34.8271V30.409C34.8271 30.2856 34.8048 30.1635 34.7602 30.0427C34.7156 29.9194 34.6526 29.8117 34.5712 29.7199C34.4924 29.6306 34.3927 29.5597 34.2719 29.5072C34.1538 29.4521 34.016 29.4245 33.8585 29.4245Z" fill="url(#paint4_linear_1717_17261)"/>
<defs>
<linearGradient id="paint0_linear_1717_17261" x1="-12.6562" y1="-47.359" x2="51.5629" y2="32.5409" gradientUnits="userSpaceOnUse">
<stop stop-color="#FF73A5"/>
<stop offset="1" stop-color="#FFD2CF"/>
</linearGradient>
<linearGradient id="paint1_linear_1717_17261" x1="29.25" y1="-2.57143" x2="27.5499" y2="22.1689" gradientUnits="userSpaceOnUse">
<stop stop-color="#FD9271"/>
<stop offset="1" stop-color="#FF0053"/>
</linearGradient>
<linearGradient id="paint2_linear_1717_17261" x1="29.25" y1="-2.57143" x2="27.5499" y2="22.1689" gradientUnits="userSpaceOnUse">
<stop stop-color="#FD9271"/>
<stop offset="1" stop-color="#FF0053"/>
</linearGradient>
<linearGradient id="paint3_linear_1717_17261" x1="36" y1="2" x2="27.9519" y2="-8.92895" gradientUnits="userSpaceOnUse">
<stop stop-color="#FD9271"/>
<stop offset="1" stop-color="#FF0053"/>
</linearGradient>
<linearGradient id="paint4_linear_1717_17261" x1="44.6923" y1="32" x2="13.8295" y2="11.8507" gradientUnits="userSpaceOnUse">
<stop stop-color="#FD9271"/>
<stop offset="1" stop-color="#FF0053"/>
</linearGradient>
</defs>
</svg>
