<svg width="48" height="48" viewBox="0 0 48 48" fill="none" xmlns="http://www.w3.org/2000/svg">
<path fill-rule="evenodd" clip-rule="evenodd" d="M24 46C11.8497 46 2 36.1503 2 24C2 11.8497 11.8497 2 24 2C36.1503 2 46 11.8497 46 24C46 36.1503 36.1503 46 24 46Z" fill="url(#paint0_linear_248_5414)"/>
<path d="M19.5556 16.8046V18.5057H16V16.8046C16 13.0465 19.406 10 23.3333 10H24C27.9274 10 32 13.2244 32 16.9825V17.6552C32 20.5004 30.564 22.5975 28.1444 24.2513C26.6592 25.2665 25.7778 26.7535 25.7778 28.5V31.0517H22.2222V28.5C22.2222 25.6547 23.6582 23.1365 26.0778 21.4828C27.563 20.4676 28.4444 19.4017 28.4444 17.6552V16.8046C28.4444 14.9256 25.9637 13.3675 24 13.3675H23.3333C21.3697 13.3675 19.5556 14.9256 19.5556 16.8046Z" fill="white"/>
<path d="M22.2214 37V33.1724H25.7769V37H22.2214Z" fill="white"/>
<defs>
<linearGradient id="paint0_linear_248_5414" x1="35" y1="35.6875" x2="15.3469" y2="4.99129" gradientUnits="userSpaceOnUse">
<stop offset="0.0046461" stop-color="#79C0FB"/>
<stop offset="1" stop-color="#6796FF"/>
</linearGradient>
</defs>
</svg>
