<svg width="48" height="48" viewBox="0 0 48 48" fill="none" xmlns="http://www.w3.org/2000/svg">
<rect x="1" y="7" width="46" height="36" rx="2" fill="url(#paint0_linear_1717_17091)"/>
<rect x="4" y="10" width="40" height="30" fill="url(#paint1_linear_1717_17091)"/>
<circle cx="14" cy="18" r="4" fill="url(#paint2_linear_1717_17091)"/>
<path opacity="0.8" fill-rule="evenodd" clip-rule="evenodd" d="M24.0189 21C24.2743 17.6438 27.0784 15 30.5 15C33.2429 15 35.589 16.6989 36.5433 19.1019C36.8516 19.0352 37.1717 19 37.5 19C39.9853 19 42 21.0147 42 23.5C42 25.9853 39.9853 28 37.5 28C37.331 28 37.1642 27.9907 37 27.9725V28H30.5H23.5H23V27.9646C21.3039 27.7219 20 26.2632 20 24.5C20 22.7368 21.3039 21.2781 23 21.0354V21H23.5H24.0189Z" fill="url(#paint3_linear_1717_17091)"/>
<path d="M4 32.8871V28.1008C4.22957 28.0313 4.47309 27.9939 4.72534 27.9939C4.77048 27.9939 4.81533 27.9951 4.85988 27.9975V27.9939L4.87867 27.9939C5.10826 26.2831 6.57376 24.9639 8.34739 24.9639C9.77118 24.9639 10.9964 25.814 11.5431 27.0344C11.6921 27.0116 11.8447 26.9998 12.0001 26.9998C13.6569 26.9998 15.0001 28.343 15.0001 29.9998C15.0001 31.306 14.1652 32.4173 13.0001 32.8291V32.9998L12.0646 32.9991C12.0431 32.9996 12.0216 32.9998 12.0001 32.9998C11.977 32.9998 11.954 32.9996 11.9311 32.999L4.85988 32.9939V32.9904C4.81533 32.9927 4.77048 32.9939 4.72534 32.9939C4.47309 32.9939 4.22957 32.9566 4 32.8871Z" fill="url(#paint4_linear_1717_17091)"/>
<path d="M12.8261 29.5601C13.6155 28.3528 15.3845 28.3528 16.1739 29.5601L23 40H6L12.8261 29.5601Z" fill="url(#paint5_linear_1717_17091)"/>
<path d="M12.8261 29.5601C13.6155 28.3528 15.3845 28.3528 16.1739 29.5601L23 40H6L12.8261 29.5601Z" fill="white" fill-opacity="0.12"/>
<path d="M28.2769 20.914C29.051 19.6039 30.9465 19.6038 31.7206 20.9138L43 40H17L28.2769 20.914Z" fill="url(#paint6_linear_1717_17091)"/>
<defs>
<linearGradient id="paint0_linear_1717_17091" x1="53.7955" y1="3.0625" x2="1.66263" y2="56.2379" gradientUnits="userSpaceOnUse">
<stop offset="0.0202659" stop-color="white"/>
<stop offset="1" stop-color="#D8EAFF"/>
</linearGradient>
<linearGradient id="paint1_linear_1717_17091" x1="32" y1="30" x2="21.9752" y2="-1.35257" gradientUnits="userSpaceOnUse">
<stop stop-color="#9FE2FF"/>
<stop offset="1" stop-color="#2C80FF"/>
</linearGradient>
<linearGradient id="paint2_linear_1717_17091" x1="11.75" y1="11.4681" x2="19.3667" y2="20.56" gradientUnits="userSpaceOnUse">
<stop stop-color="#FFDA57"/>
<stop offset="1" stop-color="#FFFCA8"/>
</linearGradient>
<linearGradient id="paint3_linear_1717_17091" x1="40.5" y1="21" x2="40.5" y2="33" gradientUnits="userSpaceOnUse">
<stop stop-color="white"/>
<stop offset="1" stop-color="#C9F2FF"/>
</linearGradient>
<linearGradient id="paint4_linear_1717_17091" x1="20.4047" y1="28.9818" x2="20.4047" y2="41.0358" gradientUnits="userSpaceOnUse">
<stop stop-color="white"/>
<stop offset="1" stop-color="#C9F2FF"/>
</linearGradient>
<linearGradient id="paint5_linear_1717_17091" x1="32.2969" y1="53.2955" x2="32.2969" y2="20.2045" gradientUnits="userSpaceOnUse">
<stop stop-color="#278B61"/>
<stop stop-color="#26946C"/>
<stop offset="1" stop-color="#83DE8C"/>
</linearGradient>
<linearGradient id="paint6_linear_1717_17091" x1="57.2188" y1="62.5" x2="57.2188" y2="6.5" gradientUnits="userSpaceOnUse">
<stop stop-color="#278B61"/>
<stop stop-color="#26946C"/>
<stop offset="1" stop-color="#83DE8C"/>
</linearGradient>
</defs>
</svg>
