<svg width="16" height="16" viewBox="0 0 16 16" fill="none" xmlns="http://www.w3.org/2000/svg">
<path fill-rule="evenodd" clip-rule="evenodd" d="M12 1H3C2.44772 1 2 1.44772 2 2V11.2676C2.29417 11.0974 2.63571 11 3 11H12C12.3643 11 12.7058 11.0974 13 11.2676V2C13 1.44772 12.5523 1 12 1ZM2 14V13C2 12.4477 2.44772 12 3 12H12C12.5523 12 13 12.4477 13 13V14C13 14.5523 12.5523 15 12 15H3C2.44772 15 2 14.5523 2 14ZM1 2V13V14C1 15.1046 1.89543 16 3 16H12C13.1046 16 14 15.1046 14 14V13V2C14 0.895431 13.1046 0 12 0H3C1.89543 0 1 0.895431 1 2ZM5 13H4V14H5V13ZM6 13H7V14H6V13ZM11 13H8V14H11V13Z" fill="white" fill-opacity="0.9"/>
</svg>
