<svg width="48" height="48" viewBox="0 0 48 48" fill="none" xmlns="http://www.w3.org/2000/svg">
<path fill-rule="evenodd" clip-rule="evenodd" d="M22.8571 20.2969V8.44578C22.8571 6.72134 24.8935 5.80526 26.1839 6.9492L34.3262 14.1675C35.2188 14.9588 35.2247 16.3505 34.3389 17.1493L26.823 23.9271L34.3565 30.7972C35.2346 31.598 35.2248 32.9833 34.3356 33.7716L26.1839 40.9982C24.8935 42.1421 22.8571 41.226 22.8571 39.5016V27.5573L16.4395 33.4341C15.7593 34.0571 14.7011 34.0036 14.0871 33.3152C13.4844 32.6395 13.5368 31.6048 14.2046 30.9934L21.9224 23.9271L14.2046 16.8608C13.5368 16.2493 13.4844 15.2147 14.0871 14.539C14.7011 13.8506 15.7593 13.7971 16.4395 14.42L22.8571 20.2969ZM26.1396 36.6137L31.0468 32.2628L26.1363 27.792L26.1396 36.6137ZM26.1429 20.0555L31.0287 15.668L26.1363 11.3036L26.1429 20.0555Z" fill="url(#paint0_linear_676_11899)"/>
<defs>
<linearGradient id="paint0_linear_676_11899" x1="30.25" y1="34.5847" x2="10.7138" y2="17.0162" gradientUnits="userSpaceOnUse">
<stop offset="0.0046461" stop-color="#79C0FB"/>
<stop offset="1" stop-color="#6796FF"/>
</linearGradient>
</defs>
</svg>
