<svg xmlns="http://www.w3.org/2000/svg" width="24" height="24" viewBox="0 0 24 24">
    <defs>
        <linearGradient id="a" x1="50%" x2="50%" y1="0%" y2="100%">
            <stop offset="0%" stop-color="#FFF" stop-opacity=".9"/>
            <stop offset="30%" stop-color="#FFF" stop-opacity=".875"/>
            <stop offset="100%" stop-color="#FFF" stop-opacity=".85"/>
        </linearGradient>
    </defs>
    <path fill="url(#a)" fill-rule="evenodd" d="M12 12h4v4h-4v-4zm-6 0h4v4H6v-4zm-6 0h4v4H0v-4zm12-6h4v4h-4V6zM6 6h4v4H6V6zM0 6h4v4H0V6zm12-6h4v4h-4V0zM6 0h4v4H6V0zM0 0h4v4H0V0z" transform="translate(4 4)"/>
</svg>
