<?xml version="1.0" encoding="UTF-8"?>
<svg width="24px" height="24px" viewBox="0 0 24 24" version="1.1" xmlns="http://www.w3.org/2000/svg" xmlns:xlink="http://www.w3.org/1999/xlink">
    <title>780D560C-B5AD-4928-A548-F86D4CACAC0D</title>
    <g id="UI" stroke="none" stroke-width="1" fill="none" fill-rule="evenodd">
        <g id="Icons" transform="translate(-1086.000000, -3482.000000)">
            <g id="Group" transform="translate(600.000000, 3050.000000)">
                <g id="ic/battery/error" transform="translate(486.000000, 432.000000)">
                    <g id="ic/battery/middle" transform="translate(9.000000, 12.000000) rotate(-90.000000) translate(-9.000000, -12.000000) translate(-2.000000, 7.000000)" fill="#FFFFFF" fill-opacity="0.9">
                        <g id="Group-10">
                            <path d="M11,10 L11,9 L18,9 C18.5522847,9 19,8.55228475 19,8 L19,2 C19,1.44771525 18.5522847,1 18,1 L2,1 C1.44771525,1 1,1.44771525 1,2 L1,4 L0,4 L0,2 C0,0.8954305 0.8954305,0 2,0 L18,0 C19.1045695,0 20,0.8954305 20,2 L20,8 C20,9.1045695 19.1045695,10 18,10 L11,10 Z M21,3 C21.5522847,3 22,3.44771525 22,4 L22,6 C22,6.55228475 21.5522847,7 21,7 L21,3 Z" id="Shape"></path>
                        </g>
                    </g>
                    <path d="M15.3609265,13.4569526 L20.1084781,21.4912707 C20.3894416,21.9667473 20.2317575,22.5799631 19.7562809,22.8609265 C19.6022043,22.9519718 19.4265176,23 19.2475516,23 L9.75244839,23 C9.20016364,23 8.75244839,22.5522847 8.75244839,22 C8.75244839,21.821034 8.8004766,21.6453473 8.89152187,21.4912707 L13.6390735,13.4569526 C13.9200369,12.981476 14.5332527,12.8237919 15.0087293,13.1047554 C15.1539545,13.1905702 15.2751117,13.3117274 15.3609265,13.4569526 Z" id="Triangle" fill="#D0021B"></path>
                    <path d="M14,16 L15,16 L15,20 L14,20 L14,16 Z M14,21 L15,21 L15,22 L14,22 L14,21 Z" id="Shape" fill="#FFFFFF"></path>
                </g>
            </g>
        </g>
    </g>
</svg>