<?xml version="1.0" encoding="UTF-8"?>
<svg width="24px" height="24px" viewBox="0 0 24 24" version="1.1" xmlns="http://www.w3.org/2000/svg" xmlns:xlink="http://www.w3.org/1999/xlink">
    <title>6414ECDF-3498-45D8-80E4-EDA1F123E9D4</title>
    <g id="UI" stroke="none" stroke-width="1" fill="none" fill-rule="evenodd">
        <g id="Icons" transform="translate(-924.000000, -3536.000000)" fill="#FFFFFF">
            <g id="Group" transform="translate(600.000000, 3050.000000)">
                <g id="ic/battery/75/charge" transform="translate(324.000000, 486.000000)">
                    <g id="Group-10" transform="translate(12.000000, 12.000000) rotate(-90.000000) translate(-12.000000, -12.000000) translate(1.000000, 4.000000)">
                        <path d="M18,0 C19.1045695,-2.02906125e-16 20,0.8954305 20,2 L20,8 C20,9.1045695 19.1045695,10 18,10 L2,10 C0.8954305,10 1.3527075e-16,9.1045695 0,8 L0,2 C-1.3527075e-16,0.8954305 0.8954305,2.02906125e-16 2,0 L18,0 Z M18,1 L2,1 C1.44771525,1 1,1.44771525 1,2 L1,2 L1,8 C1,8.55228475 1.44771525,9 2,9 L2,9 L18,9 C18.5522847,9 19,8.55228475 19,8 L19,8 L19,2 C19,1.44771525 18.5522847,1 18,1 L18,1 Z M21,3 C21.5522847,3 22,3.44771525 22,4 L22,6 C22,6.51283584 21.6139598,6.93550716 21.1166211,6.99327227 L21,7 L21,3 Z" id="Combined-Shape" fill-opacity="0.9"></path>
                        <rect id="Rectangle-18" x="2" y="2" width="12" height="6"></rect>
                        <path d="M11,14 L13,14 L13,15 L11,15 L11,16 L7.5,16 C6.29052104,16 5.28164422,15.1411202 5.05000906,14 L0,14 L0,13 L5.05000906,13 C5.28164422,11.8588798 6.29052104,11 7.5,11 L11,11 L11,12 L13,12 L13,13 L11,13 L11,14 Z M7.5,12 C6.67157288,12 6,12.6715729 6,13.5 C6,14.3284271 6.67157288,15 7.5,15 L10,15 L10,12 L7.5,12 Z" id="Shape"></path>
                    </g>
                </g>
            </g>
        </g>
    </g>
</svg>