<?xml version="1.0" encoding="UTF-8"?>
<svg width="24px" height="24px" viewBox="0 0 24 24" version="1.1" xmlns="http://www.w3.org/2000/svg" xmlns:xlink="http://www.w3.org/1999/xlink">
    <title>626C2DF2-5522-46D1-8535-02E489C7A2B1</title>
    <g id="UI" stroke="none" stroke-width="1" fill="none" fill-rule="evenodd">
        <g id="Icons" transform="translate(-1032.000000, -3482.000000)">
            <g id="Group" transform="translate(600.000000, 3050.000000)">
                <g id="ic/battery/full" transform="translate(432.000000, 432.000000)">
                    <g transform="translate(12.000000, 12.000000) rotate(-90.000000) translate(-12.000000, -12.000000) translate(1.000000, 7.000000)" id="Group-10">
                        <path d="M18,0 C19.1045695,-2.02906125e-16 20,0.8954305 20,2 L20,8 C20,9.1045695 19.1045695,10 18,10 L2,10 C0.8954305,10 1.3527075e-16,9.1045695 0,8 L0,2 C-1.3527075e-16,0.8954305 0.8954305,2.02906125e-16 2,0 L18,0 Z M18,1 L2,1 C1.44771525,1 1,1.44771525 1,2 L1,2 L1,8 C1,8.55228475 1.44771525,9 2,9 L2,9 L18,9 C18.5522847,9 19,8.55228475 19,8 L19,8 L19,2 C19,1.44771525 18.5522847,1 18,1 L18,1 Z M21,3 C21.5522847,3 22,3.44771525 22,4 L22,6 C22,6.51283584 21.6139598,6.93550716 21.1166211,6.99327227 L21,7 L21,3 Z" id="Combined-Shape" fill-opacity="0.9" fill="#FFFFFF"></path>
                        <rect id="Rectangle-18" fill="#7ED321" x="2" y="2" width="16" height="6"></rect>
                    </g>
                </g>
            </g>
        </g>
    </g>
</svg>