<svg width="24" height="24" xmlns="http://www.w3.org/2000/svg">
    <g fill="#FFF" fill-rule="evenodd">
        <path d="M4 5a2 2 0 0 1 2-2h6a2 2 0 0 1 2 2v16a2 2 0 0 1-2 2H6a2 2 0 0 1-2-2V5zm1 0v16a1 1 0 0 0 1 1h6a1 1 0 0 0 1-1V5a1 1 0 0 0-1-1H6a1 1 0 0 0-1 1zm2-3a1 1 0 0 1 1-1h2a1 1 0 0 1 .993.883L11 2H7z" fill-opacity=".9"/>
        <path d="M6 21v-6h6v6zM18 12v-2h1v2h1v3.5a2.5 2.5 0 0 1-2 2.45V23h-1v-5.05a2.5 2.5 0 0 1-2-2.45V12h1v-2h1v2h1zm-2 3.5a1.5 1.5 0 0 0 3 0V13h-3v2.5z"/>
    </g>
</svg>
