<svg width="24" height="24" viewBox="0 0 24 24" fill="none" xmlns="http://www.w3.org/2000/svg">
<g id="Property 1=0">
<g id="ic/battery/middle">
<g id="Group 10">
<path id="Combined Shape" fill-rule="evenodd" clip-rule="evenodd" d="M9 23C7.89543 23 7 22.1046 7 21L7 5C7 3.89543 7.89543 3 9 3H15C16.1046 3 17 3.89543 17 5V21C17 22.1046 16.1046 23 15 23H9ZM9 22C8.44772 22 8 21.5523 8 21L8 5C8 4.44772 8.44772 4 9 4H15C15.5523 4 16 4.44772 16 5V21C16 21.5523 15.5523 22 15 22H9ZM11 1C10.4477 1 10 1.44772 10 2H14C14 1.44772 13.5523 1 13 1H11Z" fill="white" fill-opacity="0.9"/>
</g>
</g>
</g>
</svg>
