<svg width="24" height="24" viewBox="0 0 24 24" fill="none" xmlns="http://www.w3.org/2000/svg">
<path fill-rule="evenodd" clip-rule="evenodd" d="M6 23C4.89543 23 4 22.1046 4 21L4 5C4 3.89543 4.89543 3 6 3H12C13.1046 3 14 3.89543 14 5L14 21C14 22.1046 13.1046 23 12 23H6ZM6 22C5.44772 22 5 21.5523 5 21L5 5C5 4.44772 5.44772 4 6 4H12C12.5523 4 13 4.44772 13 5L13 21C13 21.5523 12.5523 22 12 22H6ZM8 1C7.44772 1 7 1.44772 7 2H11C11 1.44772 10.5523 1 10 1H8Z" fill="#575D6D"/>
<path d="M6 21V5H12V21H6Z" fill="url(#paint0_linear_1253_2520)"/>
<path fill-rule="evenodd" clip-rule="evenodd" d="M18 12V10H19V12H20V15.5C20 16.7095 19.1411 17.7184 18 17.95V23H17V17.95C15.8589 17.7184 15 16.7095 15 15.5V12H16V10H17V12H18ZM16 15.5C16 16.3284 16.6716 17 17.5 17C18.3284 17 19 16.3284 19 15.5V13H16V15.5Z" fill="#575D6D"/>
<defs>
<linearGradient id="paint0_linear_1253_2520" x1="-1.59375" y1="-28.2308" x2="29.2892" y2="-18.8211" gradientUnits="userSpaceOnUse">
<stop stop-color="#188392"/>
<stop offset="1" stop-color="#ADFF87"/>
</linearGradient>
</defs>
</svg>
