<svg width="24" height="24" viewBox="0 0 24 24" fill="none" xmlns="http://www.w3.org/2000/svg">
<g id="Property 1=25">
<g id="ic/battery/low/charge">
<g id="Group 10">
<path id="Combined Shape" fill-rule="evenodd" clip-rule="evenodd" d="M6 23C4.89543 23 4 22.1046 4 21L4 5C4 3.89543 4.89543 3 6 3H12C13.1046 3 14 3.89543 14 5L14 21C14 22.1046 13.1046 23 12 23H6ZM6 22C5.44772 22 5 21.5523 5 21L5 5C5 4.44772 5.44772 4 6 4H12C12.5523 4 13 4.44772 13 5L13 21C13 21.5523 12.5523 22 12 22H6ZM8 1C7.44772 1 7 1.44772 7 2H11C11 1.44772 10.5523 1 10 1H8Z" fill="#575D6D" fill-opacity="0.9"/>
<rect id="Rectangle 18" x="6" y="21" width="4" height="6" transform="rotate(-90 6 21)" fill="#F57F17"/>
<path id="Shape" fill-rule="evenodd" clip-rule="evenodd" d="M18 12V10H19V12H20V15.5C20 16.7095 19.1411 17.7184 18 17.95V23H17V17.95C15.8589 17.7184 15 16.7095 15 15.5V12H16V10H17V12H18ZM16 15.5C16 16.3284 16.6716 17 17.5 17C18.3284 17 19 16.3284 19 15.5V13H16V15.5Z" fill="#575D6D"/>
</g>
</g>
</g>
</svg>
