<svg width="72" height="72" viewBox="0 0 72 72" fill="none" xmlns="http://www.w3.org/2000/svg">
<g id="Property 1=out focus">
<g id="ic/keyboard/out focus">
<path id="Combined Shape" opacity="0.2" fill-rule="evenodd" clip-rule="evenodd" d="M12 18C8.68629 18 6 20.6863 6 24V48C6 51.3137 8.68629 54 12 54H60C63.3137 54 66 51.3137 66 48V24C66 20.6863 63.3137 18 60 18H12ZM15 27C15 28.6569 16.3431 30 18 30C19.6569 30 21 28.6569 21 27C21 25.3431 19.6569 24 18 24C16.3431 24 15 25.3431 15 27ZM15 36C15 37.6569 16.3431 39 18 39C19.6569 39 21 37.6569 21 36C21 34.3431 19.6569 33 18 33C16.3431 33 15 34.3431 15 36ZM15 45C15 46.6569 16.3431 48 18 48C19.6569 48 21 46.6569 21 45C21 43.3431 19.6569 42 18 42C16.3431 42 15 43.3431 15 45ZM24 27C24 28.6569 25.3431 30 27 30C28.6569 30 30 28.6569 30 27C30 25.3431 28.6569 24 27 24C25.3431 24 24 25.3431 24 27ZM24 36C24 37.6569 25.3431 39 27 39C28.6569 39 30 37.6569 30 36C30 34.3431 28.6569 33 27 33C25.3431 33 24 34.3431 24 36ZM33 27C33 28.6569 34.3431 30 36 30C37.6569 30 39 28.6569 39 27C39 25.3431 37.6569 24 36 24C34.3431 24 33 25.3431 33 27ZM33 36C33 37.6569 34.3431 39 36 39C37.6569 39 39 37.6569 39 36C39 34.3431 37.6569 33 36 33C34.3431 33 33 34.3431 33 36ZM42 27C42 28.6569 43.3431 30 45 30C46.6569 30 48 28.6569 48 27C48 25.3431 46.6569 24 45 24C43.3431 24 42 25.3431 42 27ZM42 36C42 37.6569 43.3431 39 45 39C46.6569 39 48 37.6569 48 36C48 34.3431 46.6569 33 45 33C43.3431 33 42 34.3431 42 36ZM51 27C51 28.6569 52.3431 30 54 30C55.6569 30 57 28.6569 57 27C57 25.3431 55.6569 24 54 24C52.3431 24 51 25.3431 51 27ZM51 36C51 37.6569 52.3431 39 54 39C55.6569 39 57 37.6569 57 36C57 34.3431 55.6569 33 54 33C52.3431 33 51 34.3431 51 36ZM51 45C51 46.6569 52.3431 48 54 48C55.6569 48 57 46.6569 57 45C57 43.3431 55.6569 42 54 42C52.3431 42 51 43.3431 51 45ZM48 45C48 43.3431 46.6569 42 45 42H27C25.3431 42 24 43.3431 24 45C24 46.6569 25.3431 48 27 48H45C46.6569 48 48 46.6569 48 45Z" fill="white"/>
</g>
</g>
</svg>
