<svg width="72" height="72" viewBox="0 0 72 72" fill="none" xmlns="http://www.w3.org/2000/svg">
<g id="Property 1=korean">
<path id="&#237;&#149;&#156;" fill-rule="evenodd" clip-rule="evenodd" d="M40.0801 19.2962V23.2322H14.4961V19.2962H24.8161V14.3042H29.7601V19.2962H40.0801ZM21.5041 33.4562C21.5041 36.1922 23.8561 37.8242 27.2641 37.8242C30.7201 37.8242 33.0721 36.1922 33.0721 33.4562C33.0721 30.7202 30.7201 29.0882 27.2641 29.0882C23.8561 29.0882 21.5041 30.7202 21.5041 33.4562ZM27.2641 41.6642C33.5041 41.6642 37.7761 38.4002 37.7761 33.4562C37.7761 28.5602 33.5041 25.2482 27.2641 25.2482C21.0721 25.2482 16.7521 28.5602 16.7521 33.4562C16.7521 38.4002 21.0721 41.6642 27.2641 41.6642ZM25.8241 44.3522V52.8482H50.0161V56.8802H20.8321V44.3522H25.8241ZM54.4321 28.1762H48.2881V14.3522H43.3441V46.8482H48.2881V32.2562H54.4321V28.1762Z" fill="white"/>
</g>
</svg>
