<svg width="72" height="72" viewBox="0 0 72 72" fill="none" xmlns="http://www.w3.org/2000/svg">
<g id="Property 1=base apply">
<g id="ic/update/base apply">
<path id="Shape" fill-rule="evenodd" clip-rule="evenodd" d="M47.5437 8.30139L47.4353 8.25644C43.9111 6.80224 40.0492 6 36 6C19.4315 6 6 19.4315 6 36C6 46.0455 10.9374 54.9379 18.5179 60.3827L20.8985 58.3851C13.7196 53.5325 9 45.3174 9 36C9 21.0883 21.0883 9 36 9V17.9877L47.5437 8.30139ZM24.4563 63.6986L24.5647 63.7436C28.0889 65.1978 31.9508 66 36 66C52.5685 66 66 52.5685 66 36C66 25.9545 61.0626 17.0621 53.4821 11.6174L51.1015 13.6149C58.2804 18.4675 63 26.6826 63 36C63 50.9117 50.9117 63 36 63V54.0123L24.4563 63.6986Z" fill="#575D6D"/>
<path id="Check" fill-rule="evenodd" clip-rule="evenodd" d="M48 24L50.6367 26.6367L31.3184 45.9844L21 35.6367L23.6367 33L31.3184 40.6523L48 24Z" fill="#575D6D"/>
</g>
</g>
</svg>
