<svg width="72" height="72" viewBox="0 0 72 72" fill="none" xmlns="http://www.w3.org/2000/svg">
<g id="Property 1=base">
<g id="ic/update/base">
<path id="Shape" fill-rule="evenodd" clip-rule="evenodd" d="M47.5437 8.30139L47.4353 8.25644C43.9111 6.80224 40.0492 6 36 6C19.4315 6 6 19.4315 6 36C6 46.0455 10.9374 54.9379 18.5179 60.3827L20.8985 58.3851C13.7196 53.5325 9 45.3174 9 36C9 21.0883 21.0883 9 36 9V17.9877L47.5437 8.30139ZM24.4563 63.6986L24.5647 63.7436C28.0889 65.1978 31.9508 66 36 66C52.5685 66 66 52.5685 66 36C66 25.9545 61.0626 17.0621 53.4821 11.6174L51.1015 13.6149C58.2804 18.4675 63 26.6826 63 36C63 50.9117 50.9117 63 36 63V54.0123L24.4563 63.6986Z" fill="#575D6D"/>
<path id="Shape_2" fill-rule="evenodd" clip-rule="evenodd" d="M49.6066 47.4853L42.4798 40.3585C44.0594 38.3264 45 35.7731 45 33C45 26.3726 39.6274 21 33 21C26.3726 21 21 26.3726 21 33C21 39.6274 26.3726 45 33 45C35.7731 45 38.3264 44.0594 40.3585 42.4798L47.4853 49.6066L49.6066 47.4853ZM42 33C42 37.9706 37.9706 42 33 42C28.0294 42 24 37.9706 24 33C24 28.0294 28.0294 24 33 24C37.9706 24 42 28.0294 42 33Z" fill="#575D6D"/>
</g>
</g>
</svg>
