<svg xmlns="http://www.w3.org/2000/svg" width="48" height="48" viewBox="0 0 48 48">
    <g fill="none" fill-rule="evenodd">
        <path fill="#3986E1" d="M0 0h48v48H0z"/>
        <path fill="#FFF" fill-rule="nonzero" d="M10 20H8v-2a8 8 0 0 1 8-8h2v2h-2a6 6 0 0 0-6 6v2zm0 8v2a6 6 0 0 0 6 6h2v2h-2a8 8 0 0 1-8-8v-2h2zm20 8h2a6 6 0 0 0 6-6v-2h2v2a8 8 0 0 1-8 8h-2v-2zm8-16v-2a6 6 0 0 0-6-6h-2v-2h2a8 8 0 0 1 8 8v2h-2zM24 31a7 7 0 1 1 0-14 7 7 0 0 1 0 14zm0-2a5 5 0 1 0 0-10 5 5 0 0 0 0 10z"/>
    </g>
</svg>
