<svg xmlns="http://www.w3.org/2000/svg" width="255" height="255" viewBox="0 0 255 255">
  <g fill="none" fill-rule="evenodd">
    <path fill="#5BA4EE" d="M127.105617,0 C197.31161,0 254.211234,56.8996238 254.211234,127.105617 C254.211234,197.31161 197.31161,254.211234 127.105617,254.211234 C56.8996238,254.211234 0,197.31161 0,127.105617 C0,56.8996238 56.8996238,0 127.105617,0 Z"/>
    <path fill="#FFF" d="M253.808183,116.907313 C254.075184,120.271533 254.211234,123.672667 254.211234,127.105617 C254.211234,127.147719 254.211213,127.189816 254.211172,127.231909 L127.512098,200.381654 L125.226383,196.42268 C120.176923,187.676758 108.993555,184.680184 100.247633,189.729644 C91.5017109,194.779105 88.5051366,205.962472 93.5545972,214.708395 L95.8403115,218.667368 L63.6378431,237.259472 C60.6511648,235.535108 57.7411759,233.692753 54.9142592,231.738782 L83.6793666,215.131231 C79.0779451,202.808621 83.9061917,188.607118 95.6762046,181.811698 C107.446217,175.016278 122.159203,177.935645 130.530185,188.081898 L253.808183,116.907313 Z M243.106181,75.0642258 C245.583686,80.5789654 247.679508,86.3024394 249.360028,92.2010279 C238.289013,78.1901577 218.326973,74.0488262 202.404376,83.241742 C184.912532,93.3406631 178.919383,115.707398 189.018304,133.199242 L191.304018,137.158216 L127.682298,173.890233 C124.237546,171.905253 120.498338,170.499627 116.625701,169.716501 L179.010119,133.69884 C169.44598,112.546072 177.304293,87.1760197 197.832948,75.3237954 C212.326975,66.9556649 229.498701,67.4266501 243.106185,75.0642279 Z M43.252881,222.635574 C40.8628615,220.536093 38.5523047,218.348331 36.3263018,216.07738 L74.7267084,193.906895 C73.4685986,197.652257 72.8163028,201.593315 72.812968,205.569044 L43.252881,222.635574 Z M27.0977034,205.569621 C25.205725,203.161391 23.3988656,200.683113 21.6816549,198.139316 L76.4377997,166.525841 C56.832635,127.824638 70.705874,80.0984421 108.734063,58.1428571 C138.429087,40.998427 174.368335,44.4662531 199.984249,64.1070715 C197.702207,65.0404547 195.45628,66.1387029 193.261519,67.4058489 C192.463307,67.8666966 191.681059,68.3445753 190.914968,68.838761 C168.44906,53.6401952 138.374087,51.5874435 113.305491,66.0608037 C78.3218022,86.258646 66.3355052,130.992116 86.5333474,165.975805 L88.8190617,169.934778 L27.0977034,205.569621 Z"/>
  </g>
</svg>
