<svg xmlns="http://www.w3.org/2000/svg" width="48" height="48" viewBox="0 0 48 48">
    <g fill="none" fill-rule="evenodd">
        <path fill="#3986E1" d="M0 0h48v48H0z"/>
        <path fill="#FFF" fill-rule="nonzero" d="M28.096 27.819A10.64 10.64 0 0 0 34.636 18c0-5.874-4.762-10.636-10.636-10.636S13.364 12.126 13.364 18a10.64 10.64 0 0 0 6.577 9.834c.021.018 2.869 1.664 8.543 4.939a1.182 1.182 0 0 1-1.182 2.047c-5.529-3.196-8.309-4.807-8.34-4.832C14.283 28.019 11 23.393 11 18c0-7.18 5.82-13 13-13s13 5.82 13 13c0 4.792-2.593 8.98-6.453 11.234l-2.45-1.415zm-7.8 4.954l8.188 4.727a1.182 1.182 0 0 1-1.182 2.047l-8.188-4.727a1.182 1.182 0 1 1 1.182-2.047zm.365 5.304l6.043 3.488a3.545 3.545 0 0 1-6.043-3.489z"/>
    </g>
</svg>
