<svg xmlns="http://www.w3.org/2000/svg" width="48" height="48" viewBox="0 0 48 48">
    <g fill="none" fill-rule="evenodd">
        <path fill="#3986E1" d="M0 0h48v48H0z"/>
        <g fill="#FFF">
            <path fill-rule="nonzero" d="M17 30.5v-13h-6A1.5 1.5 0 0 0 9.5 19v10a1.5 1.5 0 0 0 1.5 1.5h6zM11 15h6v18h-6a4 4 0 0 1-4-4V19a4 4 0 0 1 4-4z"/>
            <path fill-rule="nonzero" d="M9 22.5h8V25H9zM34.5 17.5v5H38a2.5 2.5 0 1 0 0-5h-3.5zM32 15h6a5 5 0 0 1 0 10h-6V15z"/>
            <path d="M32 15h2.5v18H32z"/>
            <path fill-rule="nonzero" d="M21.5 17.5v5H25a2.5 2.5 0 1 0 0-5h-3.5zM19 15h6a5 5 0 0 1 0 10h-6V15z"/>
            <path fill-rule="nonzero" d="M21.5 25v8h6v-5.5A2.5 2.5 0 0 0 25 25h-3.5zM19 22.5h6a5 5 0 0 1 5 5V33H19V22.5z"/>
        </g>
    </g>
</svg>
