<svg xmlns="http://www.w3.org/2000/svg" width="48" height="48" viewBox="0 0 48 48">
    <g fill="none" fill-rule="evenodd">
        <path fill="#3986E1" d="M0 0h48v48H0z"/>
        <path fill="#FFF" d="M36 15v-3h-3v3h3zm0 2h-3v3h3v-3zm2-7v12H26V10h12zm-7 5v-3h-3v3h3zm0 2h-3v3h3v-3zm-21-2h12v2H10v-2zm16 16h2v2h-2v-2zm4 0h8v2h-8v-2zM10 19h9v2h-9v-2zm16 16h2v2h-2v-2zm4 0h8v2h-8v-2zM10 11h12v2H10v-2zm16 16h2v2h-2v-2zm4 0h8v2h-8v-2zm-10 5h-4v-4a4 4 0 1 0 4 4zm-4 6a6 6 0 1 1 0-12 6 6 0 0 1 0 12z"/>
    </g>
</svg>
