<svg xmlns="http://www.w3.org/2000/svg" xmlns:xlink="http://www.w3.org/1999/xlink" width="48" height="48" viewBox="0 0 48 48">
    <defs>
        <path id="a" d="M16 0h16c8.837 0 16 7.163 16 16v16c0 8.837-7.163 16-16 16H16C7.163 48 0 40.837 0 32V16C0 7.163 7.163 0 16 0z"/>
    </defs>
    <g fill="none" fill-rule="evenodd">
        <path fill="#3986E1" d="M0 0h48v48H0z"/>
        <g>
            <mask id="b" fill="#fff">
                <use xlink:href="#a"/>
            </mask>
            <path fill="#3986E1" d="M0 0h48v48H0z" mask="url(#b)"/>
            <g fill="#FFF" mask="url(#b)">
                <path d="M46.5 21.134a6 6 0 1 0-12 0v2H19.826a7.018 7.018 0 0 0-1.427-2H32.5a8 8 0 1 1 16 0h14.101a7.018 7.018 0 0 0-1.427 2H46.5v-2zm-28.1 4h30.1v2h-32v-1a3 3 0 0 0-6 0v1h-11v-2h9.1a5.002 5.002 0 0 1 9.8 0zm19.175-13.565a9.94 9.94 0 0 0-1.915.812 11.974 11.974 0 0 0-9.16-4.247c-6.29 0-11.45 4.84-11.959 11h-2.006c.513-7.265 6.57-13 13.965-13 4.506 0 8.514 2.128 11.075 5.435z"/>
            </g>
        </g>
        <g fill="#FFF">
            <path d="M23 42.134h2v-12h-2z"/>
            <path d="M19.136 36.341L24 31.477l4.864 4.864 1.207-1.207L24 29.063l-6.071 6.071z"/>
        </g>
    </g>
</svg>
