<svg xmlns="http://www.w3.org/2000/svg" width="48" height="48" viewBox="0 0 48 48">
    <g fill="none" fill-rule="evenodd">
        <path fill="#3986E1" d="M0 0h48v48H0z"/>
        <path fill="#FFF" fill-rule="nonzero" d="M11.167 11c-.645 0-1.167.485-1.167 1.083v23.834c0 .598.522 1.083 1.167 1.083h25.666c.645 0 1.167-.485 1.167-1.083V12.083c0-.598-.522-1.083-1.167-1.083H11.167zm.262-2H36.57C38.465 9 40 10.44 40 12.214v23.572C40 37.56 38.465 39 36.571 39H11.43C9.535 39 8 37.56 8 35.786V12.214C8 10.44 9.535 9 11.429 9zM10 17h28v2H10v-2zm24-2a1 1 0 1 1 0-2 1 1 0 0 1 0 2zm-3 0a1 1 0 1 1 0-2 1 1 0 0 1 0 2zm-3 0a1 1 0 1 1 0-2 1 1 0 0 1 0 2z"/>
    </g>
</svg>
