<svg xmlns="http://www.w3.org/2000/svg" width="48" height="48" viewBox="0 0 48 48">
    <g fill="none" fill-rule="evenodd">
        <path fill="#3986E1" d="M0 0h48v48H0z"/>
        <path fill="#FFF" fill-rule="nonzero" d="M35 12a3 3 0 0 0-3-3H16a3 3 0 0 0-3 3v20c.836-.628 1.874-1 3-1h16c1.126 0 2.164.372 3 1V12zM11 36V12a5 5 0 0 1 5-5h16a5 5 0 0 1 5 5v24a5 5 0 0 1-5 5H16a5 5 0 0 1-5-5zm5-3a3 3 0 0 0 0 6h16a3 3 0 0 0 0-6H16z"/>
        <circle cx="32" cy="36" r="1" fill="#10FFCA"/>
    </g>
</svg>
