<svg xmlns="http://www.w3.org/2000/svg" width="48" height="48" viewBox="0 0 48 48">
    <g fill="none" fill-rule="evenodd">
        <path fill="#3986E1" d="M0 0h48v48H0z"/>
        <path fill="#FFF" fill-rule="nonzero" d="M34 29a2 2 0 1 0 0-4 2 2 0 0 0 0 4zm0 2a4 4 0 1 1 0-8 4 4 0 0 1 0 8zm-6 7a1 1 0 0 1-2 0c0-3.972 2.84-6 8-6s8 2.028 8 6a1 1 0 0 1-2 0c0-2.695-1.827-4-6-4s-6 1.305-6 4z"/>
        <path fill="#FFF" d="M23 10h2v28h-2zM11 17h2v19h-2z"/>
        <path fill="#FFF" d="M23 10h13v2H23zM11 17h10v2H11zM7 36h6v2H7zM19 36h6v2h-6z"/>
        <path fill="#FFF" d="M34 10h2v11h-2zM19 17h2v19h-2z"/>
    </g>
</svg>
