<svg xmlns="http://www.w3.org/2000/svg" width="48" height="48" viewBox="0 0 48 48">
    <g fill="none" fill-rule="evenodd">
        <path fill="#3986E1" d="M0 0h48v48H0z"/>
        <path fill="#FFF" fill-rule="nonzero" d="M38.46 28c.352-1.273.54-2.615.54-4 0-8.284-6.716-15-15-15a14.966 14.966 0 0 0-11.382 5.23l1.2 1.688A12.976 12.976 0 0 1 24 11c7.18 0 13 5.82 13 13h-5.719l5.539 7.792A14.917 14.917 0 0 0 38.46 28zM11 24h5.719l-5.539-7.792A14.917 14.917 0 0 0 9 24c0 8.284 6.716 15 15 15 4.553 0 8.631-2.028 11.382-5.23l-1.2-1.688A12.976 12.976 0 0 1 24 37c-7.18 0-13-5.82-13-13z"/>
    </g>
</svg>
