<svg xmlns="http://www.w3.org/2000/svg" width="48" height="48" viewBox="0 0 48 48">
    <g fill="none" fill-rule="evenodd">
        <path fill="#3986E1" d="M0 0h48v48H0z"/>
        <path fill="#FFF" d="M22.667 32h2.666v3h-2.666v-3zm-2-11.333H18v-1.334A5.333 5.333 0 0 1 23.333 14h1.334A5.333 5.333 0 0 1 30 19.333v1.133a6.905 6.905 0 0 1-2.892 5.619 4.239 4.239 0 0 0-1.775 3.45V30h-2.666v-.466a6.905 6.905 0 0 1 2.891-5.619 4.239 4.239 0 0 0 1.775-3.45v-1.132a2.667 2.667 0 0 0-2.666-2.666h-1.334a2.667 2.667 0 0 0-2.666 2.666v1.334z"/>
        <path fill="#FFF" fill-rule="nonzero" d="M24 39c8.284 0 15-6.716 15-15 0-8.284-6.716-15-15-15-8.284 0-15 6.716-15 15 0 8.284 6.716 15 15 15zm0 2c-9.389 0-17-7.611-17-17S14.611 7 24 7s17 7.611 17 17-7.611 17-17 17z"/>
    </g>
</svg>
