<svg xmlns="http://www.w3.org/2000/svg" width="48" height="48" viewBox="0 0 48 48">
    <g fill="none" fill-rule="evenodd">
        <path fill="#3986E1" d="M0 0h48v48H0z"/>
        <path fill="#FFF" d="M12 20h3a1 1 0 0 1 1 1v14a1 1 0 0 1-1 1h-3a1 1 0 0 1-1-1V21a1 1 0 0 1 1-1zm7-8h3a1 1 0 0 1 1 1v22a1 1 0 0 1-1 1h-3a1 1 0 0 1-1-1V13a1 1 0 0 1 1-1zm7 10h3a1 1 0 0 1 1 1v12a1 1 0 0 1-1 1h-3a1 1 0 0 1-1-1V23a1 1 0 0 1 1-1zm7 7h3a1 1 0 0 1 1 1v5a1 1 0 0 1-1 1h-3a1 1 0 0 1-1-1v-5a1 1 0 0 1 1-1z"/>
    </g>
</svg>
