<svg xmlns="http://www.w3.org/2000/svg" width="48" height="48" viewBox="0 0 48 48">
    <g fill="none" fill-rule="evenodd">
        <path fill="#3986E1" d="M0 0h48v48H0z"/>
        <path fill="#FFF" fill-rule="nonzero" d="M24 22a3 3 0 1 0 0-6 3 3 0 0 0 0 6zm0 2a5 5 0 1 1 0-10 5 5 0 0 1 0 10zm13-2a3 3 0 1 0 0-6 3 3 0 0 0 0 6zm0 2a5 5 0 1 1 0-10 5 5 0 0 1 0 10zm-26-2a3 3 0 1 0 0-6 3 3 0 0 0 0 6zm0 2a5 5 0 1 1 0-10 5 5 0 0 1 0 10zm5 9.429a1 1 0 1 1-2 0C14 28.504 17.506 26 24 26s10 2.504 10 7.429a1 1 0 1 1-2 0C32 29.78 29.506 28 24 28s-8 1.781-8 5.429zm16.855-6.999C34.06 26.144 35.445 26 37 26c6.494 0 10 2.504 10 7.429a1 1 0 1 1-2 0C45 29.78 42.506 28 37 28c-.918 0-1.753.05-2.506.15-.45-.648-1-1.221-1.64-1.72zm-17.71 0a7.897 7.897 0 0 0-1.639 1.72c-.753-.1-1.588-.15-2.506-.15-5.506 0-8 1.781-8 5.429a1 1 0 1 1-2 0C1 28.504 4.506 26 11 26c1.556 0 2.94.144 4.145.43z"/>
    </g>
</svg>
