<svg xmlns="http://www.w3.org/2000/svg" width="256" height="256"><g fill="#383E4A"><path d="M0-315h256v256H0zM0 315h256v256H0zM0 630h256v256H0zM0 945h256v256H0zM0 1260h256v256H0zM0 1575h256v256H0zM0 1890h256v256H0zM0 2205h256v256H0zM0 2520h256v256H0zM0 2835h256v256H0zM520-630h256v256H520zM520-315h256v256H520zM520 0h256v256H520zM520 315h256v256H520zM520 630h256v256H520zM520 945h256v256H520zM520 1260h256v256H520zM520 1575h256v256H520zM520 1890h256v256H520zM520 2205h256v256H520zM520 2520h256v256H520zM520 2835h256v256H520z"/></g><g><linearGradient id="a" x1="802.667" x2="713.294" y1="128" y2="128" gradientUnits="userSpaceOnUse"><stop offset="0" stop-color="#6CAEF1"/><stop offset="1" stop-color="#4799EB"/></linearGradient><path fill="url(#a)" d="M764.4 33.17c0 .08 0 .15 0 .22v98.44l-.55 19.4v71.37c0 8.87-7.2 16.05-16.07 16.05h-71.03c-8.8 0-15.93-7.07-16.05-15.83v-83.08h-.02V33.38c0-8.87 7.2-16.05 16.06-16.05h71.6c8.8 0 15.94 7.07 16.06 15.82z"/><linearGradient id="b" x1="127.862" x2="127.862" y1="1208.666" y2="1135.63" gradientUnits="userSpaceOnUse"><stop offset="0" stop-color="#4799EB"/><stop offset="1" stop-color="#3183D6"/></linearGradient><path fill="url(#b)" d="M255.77 1121.38l-8.94 59-.72 3.76c-1.77 8.78-5.8 15-12.66 16.47-.28.07-.57.1-.86.16-.22.03-.43.07-.65.1-.28.03-.57.03-.86.05-.3.03-.58.05-.9.05H25.7c-8.9 0-13.9-6.72-15.95-16.8l-.72-3.77-9.08-60.2"/><path fill="#6CAEF1" fill-rule="evenodd" d="M128-629.17c70.7 0 128 57.3 128 128s-57.3 128-128 128-128-57.3-128-128 57.3-128 128-128zM128 1575c70.7 0 128 57.3 128 128s-57.3 128-128 128S0 1773.7 0 1703s57.32-128 128-128z" clip-rule="evenodd"/><linearGradient id="c" x1="191.237" x2="122.237" y1="-569.119" y2="-426.619" gradientUnits="userSpaceOnUse"><stop offset="0" stop-color="#4598EB"/><stop offset="1" stop-color="#6CAEF1"/></linearGradient><path fill="url(#c)" fill-rule="evenodd" d="M255.72-492.8l-47.1-47.1L118-568.66l-50.98 25 36.06 114.58 52.85 52.86c54.6-12.16 96.08-59.2 99.8-116.55z" clip-rule="evenodd"/><path fill="#9DCDFE" fill-rule="evenodd" d="M78.84-545.74s-3.72 59.74 47.98 92.48l6.1 3.5s-17.86 3.64-19.18 3.48c-.72-.1-13.26.96-25.3-3.5-10.08-3.72-20.07-15.7-20.07-15.7s-21.44-27.96-21.88-69.35c-.03-1.4 2.64.13 2.68-1.3 0-.48.85-2.16.87-2.63 15.28-10.18 25.3-10.47 25.3-10.47" clip-rule="evenodd"/><path fill="#fff" fill-rule="evenodd" d="M71.45-570.8s14.3-14.4 30.54-15.7c16.22-1.32 39.18-2.38 54.95.87 15.78 3.24 19.73 6.9 27.05 13.95 7.3 7.04 26.36 29.55 25.3 34.9-.86 2.43-1.82 3.1-4.37 2.62-2.55-.5-26.9-13.96-72.4-13.96s-70.5 9.75-82.9 15.7c0 0-2.14 1.14-2.6 1.75-.73.94-.7-4.88 0-7.86 1.82-7.72 21-29.25 24.42-32.27z" clip-rule="evenodd"/><path fill="#9DCDFE" fill-rule="evenodd" d="M180.18-517.93s-11.6 40.83-44.44 62.56l-6.1 3.5s17.85 1.02 19.17.86c.78-.1 17.17 1.13 29.7-3.5 9.2-3.4 15.64-13.08 15.64-13.08s11.6-15.3 15.2-35.23" clip-rule="evenodd"/><path fill="#fff" d="M195.26-469.13c-4.72 4.65-33.43 16.6-66.82 16.6-33.4 0-61.43-14.86-61.43-14.86 1.16 2.15 2.72 4.46 4.6 6.86 11.06 16.9 41.82 40.98 51.25 45.5 10.07 4.82 13.68 1.52 17.45-.88 29.93-16.8 47.58-42.9 51.85-49.03 1.5-1.95 2.54-3.4 3.1-4.18zM137.76-524.3s-6.1-.3-6.1 5.23c0 5.52 0 18.32 0 18.32s-.6 6.1 4.36 6.1c4.97 0 37.1.58 63.7 18.33 10.82-19.33 9.58-23.56 9.58-23.56s1.8-5.05-5.23-8.72c-5.4-2.8-31.37-15.38-66.3-15.7z"/><linearGradient id="d" x1="128" x2="128" y1="-261" y2="-63.794" gradientUnits="userSpaceOnUse"><stop offset="0" stop-color="#6CAEF1"/><stop offset="1" stop-color="#4799EB"/></linearGradient><path fill="url(#d)" fill-rule="evenodd" d="M20-305h216c11.05 0 20 8.95 20 20v206c0 11.04-8.95 20-20 20H20C8.95-59 0-67.95 0-79v-206c0-11.05 8.95-20 20-20z" clip-rule="evenodd"/><path fill="#6CAEF1" fill-rule="evenodd" d="M20 1259.54h216c11.05 0 20 8.95 20 20v216c0 11.05-8.95 20-20 20H20c-11.04 0-20-8.95-20-20v-216c0-11.05 8.96-20 20-20z" clip-rule="evenodd"/><path fill="#fff" d="M0-295v34h256v-34c0-11.05-8.95-20-20-20H20c-11.05 0-20 8.95-20 20z"/><path fill="#6CAEF1" fill-rule="evenodd" d="M235.22-297.5c-5.25 0-9.5 4.25-9.5 9.5s4.25 9.5 9.5 9.5 9.5-4.25 9.5-9.5-4.26-9.5-9.5-9.5zm-29 0c-5.25 0-9.5 4.25-9.5 9.5s4.25 9.5 9.5 9.5 9.5-4.25 9.5-9.5-4.26-9.5-9.5-9.5zm-29 0c-5.25 0-9.5 4.25-9.5 9.5s4.25 9.5 9.5 9.5 9.5-4.25 9.5-9.5-4.26-9.5-9.5-9.5z" clip-rule="evenodd"/><path fill="#C7E0F9" fill-rule="evenodd" d="M35.07-205.66H140.3c2.75 0 5-2.24 5-5V-217c0-2.75-2.25-5-5-5H35.06c-2.76 0-5 2.25-5 5v6.34c0 2.76 2.24 5 5 5zm134.74 0h51.13c2.76 0 5-2.24 5-5V-217c0-2.75-2.23-5-5-5H169.8c-2.75 0-5 2.25-5 5v6.34c0 2.76 2.25 5 5 5zM220.94-174H115.7c-2.75 0-5 2.25-5 5v6.34c0 2.76 2.25 5 5 5h105.23c2.76 0 5-2.24 5-5V-169c0-2.75-2.24-5-5-5zM35.07-157.65H86.2c2.75 0 5-2.24 5-5V-169c0-2.75-2.25-5-5-5H35.06c-2.76 0-5 2.25-5 5v6.34c0 2.76 2.24 5 5 5zM140.3-123H35.06c-2.76 0-5 2.25-5 5v6.34c0 2.76 2.24 5 5 5H140.3c2.75 0 5-2.24 5-5V-118c0-2.75-2.25-5-5-5zm80.63 0H169.8c-2.75 0-5 2.25-5 5v6.34c0 2.76 2.25 5 5 5h51.13c2.76 0 5-2.24 5-5V-118c0-2.75-2.24-5-5-5z" clip-rule="evenodd"/><path fill="#6CAEF1" d="M221.9 79.77c0-5.16 0-43.97 0-43.97s.38-6.14-7.08-9.33c-7.47-3.2-87.25-24.93-87.25-24.93S122.8.12 116.73.12c-.1 0-.2 0-.32 0-.1 0-.2 0-.3 0-6.08 0-10.85 1.42-10.85 1.42S25.47 23.27 18 26.47c-7.46 3.2-7.08 9.33-7.08 9.33s0 38.8 0 43.97c0 5.15-2.06 46.17 15.2 89.9 17.23 43.7 65.5 75.16 78.23 82.9 4.86 2.94 8.9 3.72 12.06 3.57 3.17.15 7.2-.63 12.07-3.58 12.74-7.74 61-39.18 78.24-82.9s15.2-84.74 15.2-89.9z"/><linearGradient id="e" x1="272" x2="64.538" y1="128.019" y2="128.019" gradientUnits="userSpaceOnUse"><stop offset="0" stop-color="#6CAEF1"/><stop offset="1" stop-color="#4799EB"/></linearGradient><path fill="url(#e)" d="M116.73 256.02c3.16.15 7.2-.63 12.06-3.58 12.73-7.74 61-39.18 78.23-82.9s15.2-84.74 15.2-89.9c0-5.15 0-43.96 0-43.96s.37-6.14-7.1-9.33C207.7 23.15 127.9 1.4 127.9 1.4S123.12 0 117.05 0c-.1 0-.22 0-.33 0-.1 0-.2 0-.32 0l.33 256.02z"/><linearGradient id="f" x1="163.556" x2="163.556" y1="237.711" y2="126.774" gradientUnits="userSpaceOnUse"><stop offset="0" stop-color="#6CAEF1"/><stop offset="1" stop-color="#4799EB"/></linearGradient><path fill="url(#f)" d="M125.83 74.26l-9.42 64.66.02 4.9 65.24 65.26c10.2-11.44 19.44-24.67 25.2-39.28 1.4-3.58 2.68-7.13 3.84-10.66l-84.87-84.88z"/><linearGradient id="g" x1="116.409" x2="116.409" y1="71.702" y2="170.004" gradientUnits="userSpaceOnUse"><stop offset="0" stop-color="#fff"/><stop offset="1" stop-color="#CFE4F9"/></linearGradient><path fill="url(#g)" d="M137.55 92.84c0-11.67-9.47-21.14-21.14-21.14s-21.13 9.47-21.13 21.14c0 8.14 4.6 15.2 11.34 18.73v27.35c0 2.76 2.25 5 5 5h8.7c2.77 0 5-2.24 5-5V112c7.23-3.36 12.25-10.66 12.25-19.16z"/><path fill="#F67474" fill-rule="evenodd" d="M195.85 151.74c28.8 0 52.15 23.35 52.15 52.15s-23.35 52.14-52.15 52.14c-28.8 0-52.15-23.35-52.15-52.15s23.35-52.16 52.15-52.16z" clip-rule="evenodd"/><circle cx="128" cy="443" r="128" fill="#6CAEF1"/><linearGradient id="h" x1="159" x2="159" y1="512.837" y2="344.325" gradientUnits="userSpaceOnUse"><stop offset="0" stop-color="#6CAEF1"/><stop offset="1" stop-color="#4799EB"/></linearGradient><path fill="url(#h)" d="M256 443c0-.44 0-.87-.02-1.3L191.65 377H98.4L62 414.67l.93 92.9 59.6 63.3c1.82.08 3.64.13 5.47.13 70.7 0 128-57.3 128-128z"/><path fill="#fff" fill-rule="evenodd" d="M109.03 377H65.98c-1.04 0-2 .42-2.7 1.1-.03.02-.07.04-.1.07-.05.05-.08.1-.13.15-.64.7-1.05 1.64-1.05 2.66v43.05c0 2.2 1.8 3.98 4.04 3.98h12.92c2.24 0 4.04-1.77 4.04-3.97V398h26.03c2.2 0 3.98-1.82 3.98-4.05v-12.9c0-2.24-1.77-4.05-3.97-4.05zm83.92 1.33c-.04-.05-.08-.1-.13-.16-.03-.03-.06-.05-.1-.08-.7-.68-1.65-1.1-2.7-1.1h-43.05c-2.2 0-3.98 1.8-3.98 4.04v12.9c0 2.24 1.77 4.05 3.97 4.05H173v26.03c0 2.2 1.8 3.98 4.04 3.98h12.92c2.23 0 4.04-1.77 4.04-3.97V381c0-1.04-.4-1.97-1.05-2.67zm-3 79.66h-12.9c-2.25 0-4.05 1.77-4.05 3.97V488h-26.03c-2.2 0-3.98 1.82-3.98 4.05v12.9c0 2.24 1.77 4.05 3.97 4.05h43.05c1.05 0 2-.42 2.7-1.1.04-.02.07-.04.1-.07.05-.05.1-.1.13-.16.65-.7 1.05-1.63 1.05-2.66v-43.03c0-2.2-1.8-3.98-4.04-3.98zm-80.92 30H83v-26.03c0-2.2-1.8-3.98-4.04-3.98H66.04c-2.23 0-4.04 1.77-4.04 3.97V505c0 1.04.4 1.97 1.06 2.68.04.05.07.1.12.15.03.03.07.05.1.08.7.68 1.66 1.1 2.7 1.1h43.05c2.2 0 3.98-1.8 3.98-4.04v-12.92c0-2.23-1.77-4.03-3.97-4.03z" clip-rule="evenodd"/><path fill="#F1F7FD" fill-rule="evenodd" d="M52.5 659.42h183c11.05 0 20 8.95 20 20v123c0 11.04-8.95 20-20 20h-183c-11.04 0-20-8.96-20-20v-123c0-11.05 8.96-20 20-20z" clip-rule="evenodd"/><linearGradient id="i" x1="233.359" x2="233.359" y1="693.162" y2="811.421" gradientUnits="userSpaceOnUse"><stop offset="0" stop-color="#CAE1F5"/><stop offset="1" stop-color="#fff"/></linearGradient><path fill="url(#i)" fill-rule="evenodd" d="M217.5 695.24l-6.3 127.18h24.3c11.05 0 20-8.96 20-20v-69.18l-38-38z" clip-rule="evenodd"/><path fill="#6CAEF1" fill-rule="evenodd" d="M20.5 689.5h183c11.04 0 20 8.95 20 20v123c0 11.05-8.96 20-20 20h-183c-11.06 0-20-8.95-20-20v-123c0-11.04 8.95-20 20-20z" clip-rule="evenodd"/><linearGradient id="j" x1="139.951" x2="174.951" y1="844.609" y2="809.609" gradientUnits="userSpaceOnUse"><stop offset="0" stop-color="#6CAEF1"/><stop offset="1" stop-color="#4799EB"/></linearGradient><path fill="url(#j)" fill-rule="evenodd" d="M223.5 832.5v-10.2l-64.7-64.7-73.46 61.9 33 33h85.15c11.04 0 20-8.95 20-20z" clip-rule="evenodd"/><path fill="#3084D9" fill-rule="evenodd" d="M.5 713.48h223v28H.5v-28z" clip-rule="evenodd"/><path fill="#fff" fill-rule="evenodd" d="M160.24 758.78c-3.77-3.73-9.87-3.73-13.63 0l-47.32 47-21.9-21.74c-3.77-3.74-9.87-3.74-13.63 0-3.77 3.74-3.77 9.8 0 13.54l28.7 28.5c1.88 1.87 4.35 2.8 6.83 2.8 2.47 0 4.94-.93 6.83-2.8l54.14-53.76c3.76-3.74 3.76-9.8 0-13.54z" clip-rule="evenodd"/><linearGradient id="k" x1="127.931" x2="127.931" y1="894.667" y2="1075.263" gradientUnits="userSpaceOnUse"><stop offset="0" stop-color="#4598EB"/><stop offset="1" stop-color="#6CAEF1"/></linearGradient><path fill="url(#k)" d="M237.2 961.04c0-8.86-7.2-16.04-16.05-16.04H34.7c-8.85 0-16.03 7.18-16.03 16.04L-.07 1118.97c0 8.85 7.2 16.03 16.05 16.03h223.9c8.86 0 16.05-7.18 16.05-16.03L237.2 961.04z"/><path fill="#3183D6" d="M229.98 1201c.08 0 .15 0 .22 0 .23 0 .45-.03.67-.04-.3 0-.58.04-.9.04zM232.37 1200.8c-.2.04-.42.08-.65.1.22-.02.44-.06.65-.1zM233.24 1200.66c-.3.06-.58.1-.87.14.3-.04.58-.08.87-.14zM231.72 1200.9c-.28.03-.56.04-.85.06.3-.02.58-.03.85-.06z"/><linearGradient id="l" x1="121.249" x2="214.06" y1="1449.406" y2="1347.241" gradientUnits="userSpaceOnUse"><stop offset="0" stop-color="#6CAEF1"/><stop offset="1" stop-color="#4799EB"/></linearGradient><path fill="url(#l)" fill-rule="evenodd" d="M219.25 1299.56l-63.47 72.05-74.37-73.9-45.32 42.82v135.45l30.5 40H236c11.05 0 20-8.95 20-20v-159.65l-36.75-36.76z" clip-rule="evenodd"/><path fill="#9DCDFE" fill-rule="evenodd" d="M92.4 1008.06s-2.7 43.2 34.68 66.86l4.4 2.52c.02 0-12.9 2.64-13.86 2.52-.52-.06-9.6.7-18.3-2.52-7.28-2.7-14.5-11.35-14.5-11.35s-15.5-20.23-15.82-50.15c0-1.02 1.92.1 1.94-.96 0-.34.62-1.56.63-1.9 11.05-7.36 18.3-7.57 18.3-7.57" clip-rule="evenodd"/><path fill="#fff" fill-rule="evenodd" d="M87.05 989.93s10.34-10.4 22.08-11.35c11.73-.95 28.33-1.72 39.73.63 11.4 2.36 14.27 5 19.56 10.1 5.3 5.1 19.06 21.37 18.3 25.23-.63 1.76-1.32 2.25-3.17 1.9-1.84-.36-19.46-10.1-52.35-10.1s-50.96 7.05-59.92 11.36c0 0-1.55.8-1.9 1.25-.52.68-.5-3.53 0-5.68 1.33-5.58 15.2-21.15 17.67-23.34z" clip-rule="evenodd"/><path fill="#9DCDFE" fill-rule="evenodd" d="M165.66 1028.17s-8.4 29.52-32.13 45.22l-4.42 2.52s12.92.74 13.88.63c.55-.07 12.4.83 21.46-2.53 6.64-2.46 11.3-9.45 11.3-9.45s8.4-11.07 11-25.47" clip-rule="evenodd"/><path fill="#fff" d="M176.56 1063.44c-3.4 3.37-24.17 12.02-48.3 12.02-24.15 0-44.42-10.75-44.42-10.75.82 1.56 1.96 3.22 3.33 4.96 7.98 12.22 30.22 29.63 37.04 32.9 7.3 3.48 9.9 1.1 12.62-.64 21.64-12.15 34.4-31.02 37.5-35.45 1.07-1.4 1.83-2.47 2.24-3.03zM135 1023.55s-4.42-.2-4.42 3.8 0 13.24 0 13.24-.44 4.4 3.15 4.4 26.82.42 46.04 13.25c7.84-13.98 6.94-17.03 6.94-17.03s1.32-3.66-3.77-6.3c-3.9-2.04-22.68-11.13-47.94-11.37z"/><path fill="#F1F7FD" fill-rule="evenodd" d="M214.36 1157.5c6.62 0 12 5.37 12 12s-5.38 12-12 12c-6.63 0-12-5.37-12-12s5.37-12 12-12z" clip-rule="evenodd"/><linearGradient id="m" x1="129.427" x2="129.427" y1="1263.333" y2="1658.87" gradientUnits="userSpaceOnUse"><stop offset="0" stop-color="#fff"/><stop offset="1" stop-color="#CFE4F9"/></linearGradient><path fill="url(#m)" d="M214.74 1297.7H153.7c-4.44 0-8.03 3.56-8.03 7.93v60.14c0 4.37 3.6 7.92 8.03 7.92h61.04c4.43 0 8.03-3.56 8.03-7.93v-60.14c0-4.37-3.6-7.92-8.03-7.92zm-109.6 107.47H44.13c-4.44 0-8.03 3.55-8.03 7.9v60.14c0 4.38 3.58 7.92 8.02 7.92h61.04c4.43 0 8.03-3.54 8.03-7.9v-60.13c0-4.38-3.6-7.93-8.05-7.93zm109.6 0H153.7c-4.44 0-8.03 3.55-8.03 7.9v60.14c0 4.38 3.6 7.92 8.03 7.92h61.04c4.43 0 8.03-3.54 8.03-7.9v-60.13c0-4.38-3.6-7.93-8.03-7.93z"/><linearGradient id="n" x1="127.561" x2="214.849" y1="1806.035" y2="1709.951" gradientUnits="userSpaceOnUse"><stop offset="0" stop-color="#6CAEF1"/><stop offset="1" stop-color="#4799EB"/></linearGradient><path fill="url(#n)" fill-rule="evenodd" d="M152.43 1828.63c44.38-8.58 80.6-40.07 95.82-81.7l-72.6-72.6-36.32 30.97-40.73 69.5 53.83 53.83z" clip-rule="evenodd"/><path fill="#D1E7FE" fill-rule="evenodd" d="M79.56 1295.87l35.14 35c2.56 2.54 2.56 6.67 0 9.2l-35.14 35c-2.56 2.56-6.7 2.56-9.25 0l-35.13-35c-2.56-2.53-2.56-6.66 0-9.2l35.14-35c2.56-2.54 6.7-2.54 9.26 0z" clip-rule="evenodd"/><linearGradient id="o" x1="128.008" x2="128.008" y1="1630" y2="1865.213" gradientUnits="userSpaceOnUse"><stop offset="0" stop-color="#fff"/><stop offset="1" stop-color="#CFE4F9"/></linearGradient><path fill="url(#o)" fill-rule="evenodd" d="M192.8 1691.5l-60.14-60.1c-1.28-1.3-2.97-1.94-4.65-1.93-1.67 0-3.36.63-4.65 1.92l-60.12 60.1c-.15.16-.3.32-.43.5-.06.06-.1.13-.15.2-.08.1-.16.2-.24.3-.04.1-.1.18-.14.27-.06.1-.12.2-.17.3-.06.08-.1.17-.14.26-.05.1-.1.2-.15.3-.02.1-.05.2-.08.27-.05.12-.1.23-.13.35-.03.1-.05.17-.07.26-.03.13-.07.25-.1.37 0 .1-.02.2-.04.3-.02.12-.04.22-.05.33-.02.2-.03.4-.03.6 0 0 0 .03 0 .05 0 0 0 .02 0 .04 0 .2 0 .4.03.6 0 .1.03.2.04.3 0 .1.02.22.04.32.02.12.06.23.08.35.03.1.05.18.08.28.03.1.07.22.1.32.04.1.07.2.1.28.05.1.1.2.15.3.04.1.1.2.14.28.04.1.1.2.15.28s.1.2.17.28c.06.1.14.2.22.3.05.07.1.15.16.22.27.33.58.64.92.9.07.07.14.12.22.18.1.07.2.15.3.2.08.08.18.13.27.2.1.04.2.1.28.14.1.06.2.1.3.15.1.04.2.1.28.13.1.04.2.07.3.1.1.05.2.08.3.1.1.05.22.07.33.1.1.02.18.05.28.07.14.03.28.04.4.06.1 0 .16.03.23.03.24.03.46.04.68.04h29.45v68.7c0 2.84 2.28 5.13 5.1 5.13h51.18c2.82 0 5.1-2.3 5.1-5.12v-68.7h29.2c.04 0 .08 0 .13 0 1.72.03 3.45-.6 4.76-1.92 2.55-2.56 2.55-6.7 0-9.27z" clip-rule="evenodd"/><linearGradient id="p" x1="128.008" x2="128.008" y1="1871.071" y2="2219.687" gradientUnits="userSpaceOnUse"><stop offset="0" stop-color="#6CAEF1"/><stop offset="1" stop-color="#4799EB"/></linearGradient><path fill="url(#p)" d="M237.7 1924.48c-.08 0-.17 0-.25 0H123.57L101.13 1890H18.57C8.32 1890 0 1898.33 0 1908.58v218.85c0 10.17 8.2 18.42 18.32 18.56h219.12c10.26 0 18.56-8.3 18.56-18.57v-184.4c0-10.16-8.17-18.4-18.3-18.55z"/><linearGradient id="q" x1="94.779" x2="204.565" y1="2153.739" y2="2048.245" gradientUnits="userSpaceOnUse"><stop offset="0" stop-color="#6CAEF1"/><stop offset="1" stop-color="#4799EB"/></linearGradient><path fill="url(#q)" d="M217.36 1924.5l-.66-.03h-25.4v105.2l-12.23 43.83-3.98 18.93 10.02 16.7 38.26 36.87h14.07c10.25 0 18.55-8.3 18.55-18.57v-164.3l-38.64-38.63z"/><path fill="#fff" fill-rule="evenodd" d="M217.37 1935.47v-11h-26v10.98h-26v11h26v-10.98h26zm0 22v-11.02h-26v11h26zm-52 11h26v10.98h26v-11h-26v-11h-26v11zm0 11v11h26v-11h-26zm26 22h26v-11h-26v11zm-26 11h26v11h26v-11h-26v-11h-26v11zm0 22h26v-11h-26v11zM212.3 2090.2l-5.48-41.65h-.04c-.38-7.84-6.8-14.07-14.7-14.07-7.9 0-14.32 6.24-14.7 14.07h-.05l-6.07 37.74c-.58 1.8-.9 3.75-.93 5.76l-.02.14h.02c0 .1 0 .2 0 .3 0 11.5 9.42 20.8 21.05 20.8s21.07-9.3 21.07-20.8c0-.78-.05-1.55-.13-2.3zm-20.94 15.66c-7.37 0-13.34-6-13.34-13.38 0-7.4 5.97-13.37 13.34-13.37 7.36 0 13.34 6 13.34 13.38 0 7.4-5.97 13.38-13.34 13.38z" clip-rule="evenodd"/><linearGradient id="r" x1="128.004" x2="128.004" y1="2190" y2="2471.247" gradientUnits="userSpaceOnUse"><stop offset="0" stop-color="#6CAEF1"/><stop offset="1" stop-color="#4799EB"/></linearGradient><path fill="url(#r)" fill-rule="evenodd" d="M128 2205c70.7 0 128 57.32 128 128 0 70.7-57.3 128-128 128S0 2403.7 0 2333s57.3-128 128-128z" clip-rule="evenodd"/><path fill="#4799EB" fill-rule="evenodd" d="M61.58 2400.9l59.94 59.94c2.15.1 4.3.16 6.48.16 70.7 0 128-57.3 128-128 0-1.95-.04-3.9-.13-5.83l-54.38-54.37-139.92 128.1z" clip-rule="evenodd"/><linearGradient id="s" x1="128.004" x2="128.004" y1="2223.328" y2="2409.001" gradientUnits="userSpaceOnUse"><stop offset="0" stop-color="#fff"/><stop offset="1" stop-color="#D0E4F9"/></linearGradient><path fill="url(#s)" fill-rule="evenodd" d="M128 2238c52.47 0 95 42.53 95 95s-42.53 95.02-95 95.02c-52.46 0-95-42.54-95-95s42.54-95.03 95-95.03z" clip-rule="evenodd"/><path fill="#D0E4F9" fill-rule="evenodd" d="M218.3 2363.08l-38.57-38.58-70.35 28.32-11.3 24.76 48.63 48.62c33.67-6.65 60.94-31.1 71.6-63.12z" clip-rule="evenodd"/><linearGradient id="t" x1="138.004" x2="138.004" y1="2279.079" y2="2409.856" gradientUnits="userSpaceOnUse"><stop offset="0" stop-color="#6CAEF1"/><stop offset="1" stop-color="#4799EB"/></linearGradient><path fill="url(#t)" fill-rule="evenodd" d="M182.07 2331.8c0-.15 0-.3 0-.44-.13-4.1-2.3-8.07-6.12-10.28l-63.65-36.56c-.04-.03-.1-.05-.13-.07-.2-.12-.42-.22-.64-.33-.15-.07-.3-.15-.46-.22-.2-.1-.4-.16-.6-.24-.2-.07-.37-.14-.55-.2-.17-.05-.35-.1-.52-.14-.22-.06-.44-.12-.66-.17-.15-.03-.3-.05-.44-.08-.26-.04-.52-.1-.78-.12-.13 0-.26-.02-.4-.03-.27-.02-.54-.04-.82-.04-.04 0-.08 0-.12 0-.1 0-.22 0-.33 0-.25.02-.5.03-.74.05-.18.02-.37.04-.56.07-.2.02-.4.05-.58.1-.23.03-.44.08-.66.13-.16.04-.32.08-.48.12-.23.07-.45.14-.68.22-.15.05-.3.1-.44.16-.22.1-.43.18-.64.28-.15.08-.3.15-.45.23-.2.1-.37.2-.56.3-.16.1-.33.2-.5.3-.15.1-.3.22-.47.33-.16.12-.33.25-.5.38-.14.1-.28.23-.4.35-.17.13-.33.27-.5.42-.12.13-.26.27-.4.4-.12.15-.26.3-.4.45-.13.17-.27.35-.4.53-.1.13-.2.26-.3.4-.16.22-.3.45-.45.7-.05.06-.1.13-.15.2-.02.04-.03.08-.05.1-.14.27-.28.54-.4.82-.05.1-.1.2-.15.28-.1.27-.2.54-.3.8-.05.13-.1.24-.14.36-.08.24-.14.48-.2.73-.04.14-.1.3-.12.45-.03.2-.06.4-.1.62-.03.2-.07.4-.1.6 0 .18-.02.37-.03.55 0 .23-.03.45-.03.67 0 .05 0 .1 0 .15v73.67c0 .04 0 .1 0 .13 0 .14 0 .27.02.4.28 6.53 5.63 11.75 12.22 11.75 1.33 0 2.6-.22 3.8-.6.92-.28 1.83-.65 2.7-1.14l63.15-36.83c3.9-2.2 6.1-6.16 6.23-10.27 0-.16 0-.3 0-.46z" clip-rule="evenodd"/><linearGradient id="u" x1="128.004" x2="128.004" y1="2558.5" y2="3444.043" gradientUnits="userSpaceOnUse"><stop offset="0" stop-color="#6CAEF1"/><stop offset="1" stop-color="#4799EB"/></linearGradient><path fill="url(#u)" fill-rule="evenodd" d="M20 2520.2h216c11.05 0 20 8.96 20 20v216c0 11.06-8.95 20-20 20H20c-11.04 0-20-8.94-20-20v-216c0-11.04 8.96-20 20-20z" clip-rule="evenodd"/><linearGradient id="v" x1="192.005" x2="192.005" y1="2648.209" y2="2776.209" gradientUnits="userSpaceOnUse"><stop offset="0" stop-color="#fff"/><stop offset="1" stop-color="#D0E4F9"/></linearGradient><path fill="url(#v)" fill-rule="evenodd" d="M128 2776.2h110.74c9.75-1.33 17.26-9.67 17.26-19.78v-108.2H128v128z" clip-rule="evenodd"/><linearGradient id="w" x1="-6.229" x2="151.94" y1="2513.981" y2="2672.149" gradientUnits="userSpaceOnUse"><stop offset="0" stop-color="#6CAEF1"/><stop offset="1" stop-color="#4799EB"/></linearGradient><path fill="url(#w)" fill-rule="evenodd" d="M128 2520.2H17.26C7.52 2521.56 0 2529.9 0 2540v108.2h128v-128z" clip-rule="evenodd"/><path fill="#fff" fill-rule="evenodd" d="M88.78 2578.63H69.06v-19.72c0-1.27-1.04-2.3-2.32-2.3h-9.28c-1.28 0-2.32 1.03-2.32 2.3v19.73H35.42c-1.28 0-2.32 1.04-2.32 2.32v9.28c0 1.28 1.04 2.32 2.32 2.32h19.72v19.72c0 1.28 1.04 2.32 2.32 2.32h9.28c1.28 0 2.32-1.05 2.32-2.33v-19.72h19.72c1.28 0 2.32-1.04 2.32-2.32v-9.28c0-1.28-1.04-2.32-2.32-2.32zM167.23 2578.63h53.36c1.27 0 2.3 1.04 2.3 2.32v9.28c0 1.28-1.03 2.32-2.3 2.32h-53.37c-1.28 0-2.32-1.04-2.32-2.32v-9.28c0-1.28 1.05-2.32 2.33-2.32zM71.94 2715.36l13.94-13.95c.9-.9.9-2.36 0-3.27l-6.56-6.56c-.9-.9-2.37-.9-3.28 0l-13.94 13.95-13.95-13.95c-.9-.9-2.37-.9-3.28 0l-6.56 6.56c-.9.9-.9 2.38 0 3.28l13.95 13.96-13.94 13.94c-.9.9-.9 2.38 0 3.28l6.57 6.57c.9.9 2.38.9 3.28 0l13.95-13.95 13.94 13.95c.9.9 2.38.9 3.28 0l6.56-6.57c.9-.9.9-2.37 0-3.28l-13.94-13.94z" clip-rule="evenodd"/><path fill="#499AEB" fill-rule="evenodd" d="M220.6 2697.34h-53.37c-1.28 0-2.32 1.04-2.32 2.32v9.28c0 1.28 1.05 2.32 2.33 2.32h53.36c1.27 0 2.3-1.04 2.3-2.32v-9.28c0-1.28-1.03-2.32-2.3-2.32zm0 24h-53.37c-1.28 0-2.32 1.04-2.32 2.32v9.28c0 1.28 1.05 2.32 2.33 2.32h53.36c1.27 0 2.3-1.04 2.3-2.32v-9.28c0-1.28-1.03-2.32-2.3-2.32z" clip-rule="evenodd"/><linearGradient id="x" x1="128.008" x2="128.008" y1="2853" y2="3137.693" gradientUnits="userSpaceOnUse" gradientTransform="translate(-14.008)"><stop offset="0" stop-color="#6CAEF1"/><stop offset="1" stop-color="#4799EB"/></linearGradient><path fill="url(#x)" fill-rule="evenodd" d="M228 2874c0-21.54-17.46-39-39-39s-39 17.46-39 39c0 17.72 11.82 32.67 28 37.42v91.52L71.14 2896.08C75.46 2889.8 78 2882.2 78 2874c0-21.54-17.46-39-39-39s-39 17.46-39 39c0 17.35 11.33 32.05 27 37.1v103.8c-15.67 5.05-27 19.75-27 37.1 0 21.54 17.46 39 39 39s39-17.46 39-39c0-18.08-12.3-33.28-29-37.7v-102.6c1.7-.45 3.36-1 4.96-1.68l111.6 111.6c3.36 3.36 8.36 4.08 12.44 2.17v21.2c0 6.08 4.92 11 11 11s11-4.92 11-11v-133.58c16.18-4.75 28-19.7 28-37.42z" clip-rule="evenodd"/><linearGradient id="y" x1="170.167" x2="200.667" y1="2952.331" y2="3056.83" gradientUnits="userSpaceOnUse"><stop offset="0" stop-color="#fff"/><stop offset="1" stop-color="#D0E4F9"/></linearGradient><path fill="url(#y)" d="M254.27 3041.72l-8.44-7.14c-1.05-.93-5-4.84-4.8-11.15.05-5.43 3.15-9 4.48-10.26l8.8-7.4c1.43-.85 1.93-2.7 1.1-4.15l-13.12-22.94c-.83-1.45-2.67-1.95-4.1-1.1l-10.37 3.77c-1.3.45-6.66 1.93-11.98-1.4 0 0 0 0 0 .02-4.72-2.77-6.25-7.3-6.68-9.1l-2-11.37c0-1.67-1.34-3.03-3-3.03h-26.28c-1.66 0-3 1.36-3 3.03l-1.92 10.93c-.27 1.36-1.64 6.62-6.95 9.64-5.26 3.13-10.47 1.7-11.77 1.25l-10.36-3.8c-1.44-.83-3.28-.34-4.1 1.1l-13.15 22.94c-.83 1.45-.33 3.3 1.1 4.14l8.78 7.42c1.32 1.27 4.43 4.83 4.48 10.27.18 6.3-3.77 10.2-4.82 11.14l-8.45 7.12c-1.43.84-1.92 2.7-1.1 4.14l13.12 22.94c.83 1.45 2.67 1.95 4.1 1.12l10.78-3.94c1.76-.52 6.43-1.45 11.16 1.3 5.5 2.98 6.9 8.4 7.18 9.77l1.9 10.92c0 1.67 1.36 3.03 3.02 3.03h26.28c1.66 0 3-1.36 3-3.03l2-11.37c.44-1.82 2-6.45 6.85-9.2 4.8-2.88 9.58-1.93 11.36-1.4l10.77 3.95c1.44.83 3.28.34 4.1-1.1l13.15-22.94c.83-1.45.33-3.3-1.1-4.14z"/><path fill="#D0E4F9" d="M242.26 3068.8l13.13-22.94c.82-1.45.33-3.3-1.1-4.14l-8.45-7.14c-.82-.72-3.37-3.25-4.4-7.3l-25.07-25.07-43.85 49.2s21.83 22.6 34.82 35.47l1.8-10.32c.44-1.82 2-6.45 6.86-9.2 4.82-2.9 9.6-1.93 11.38-1.4l10.77 3.95c1.44.83 3.28.34 4.1-1.1z"/><linearGradient id="z" x1="191" x2="191" y1="2994.334" y2="3058.404" gradientUnits="userSpaceOnUse"><stop offset="0" stop-color="#6CAEF1"/><stop offset="1" stop-color="#4799EB"/></linearGradient><path fill="url(#z)" fill-rule="evenodd" d="M191 2990.36c18.33 0 33.18 14.93 33.18 33.35s-14.85 33.36-33.18 33.36-33.18-14.93-33.18-33.35 14.85-33.34 33.18-33.34z" clip-rule="evenodd"/><linearGradient id="A" x1="191" x2="191" y1="3004.667" y2="3053.258" gradientUnits="userSpaceOnUse"><stop offset="0" stop-color="#fff"/><stop offset="1" stop-color="#D0E4F9"/></linearGradient><path fill="url(#A)" fill-rule="evenodd" d="M191 3002.22c11.88 0 21.52 9.62 21.52 21.5s-9.63 21.5-21.52 21.5c-11.9 0-21.52-9.64-21.52-21.5s9.64-21.5 21.52-21.5z" clip-rule="evenodd"/><ellipse cx="191" cy="3023.71" fill="#6CAEF1" fill-rule="evenodd" clip-rule="evenodd" rx="4.699" ry="4.724"/><linearGradient id="B" x1="647.995" x2="647.995" y1="-643.832" y2="-566.318" gradientUnits="userSpaceOnUse"><stop offset="0" stop-color="#6CAEF1"/><stop offset="1" stop-color="#4799EB"/></linearGradient><path fill="url(#B)" d="M742.85-600.9c-.07 0-.14 0-.2 0h-98.5l-19.4-19.43h-71.4c-8.86 0-16.04 7.2-16.04 16.06v90.99c0 8.8 7.08 15.94 15.84 16.05h189.5c8.86 0 16.04-7.18 16.04-16.05v-71.57c0-8.8-7.07-15.93-15.83-16.05z"/><path fill="#fff" fill-rule="evenodd" d="M552.14-583.53h191.7v51.6h-191.7v-51.6z" clip-rule="evenodd"/><linearGradient id="C" x1="647.995" x2="647.995" y1="-557.307" y2="-372.816" gradientUnits="userSpaceOnUse"><stop offset="0" stop-color="#6CAEF1"/><stop offset="1" stop-color="#4799EB"/></linearGradient><path fill="url(#C)" d="M759.24-402.73c0 8.87-7.2 16.06-16.05 16.06H552.8c-8.86 0-16.05-7.2-16.05-16.06l-16.73-141.93c0-8.87 7.2-16.06 16.05-16.06h223.85c8.86 0 16.05 7.2 16.05 16.06l-16.73 141.93z"/><path fill="#6CAEF1" d="M724.17-219.93C716.15-253.8 685.8-279 649.6-279c-40.54 0-73.72 31.56-76.48 71.52-29.5 1.37-53 25.8-53 55.73 0 30.3 24.1 54.97 54.1 55.77h.53c.33 0 .65.02.98.02.23 0 .45 0 .67-.02h136.5c.24 0 .5.02.74.02 34.36 0 62.22-27.95 62.22-62.43 0-30.87-22.34-56.5-51.7-61.53z"/><linearGradient id="D" x1="663.402" x2="722.515" y1="-97.031" y2="-162.101" gradientUnits="userSpaceOnUse"><stop offset="0" stop-color="#6CAEF1"/><stop offset="1" stop-color="#4799EB"/></linearGradient><path fill="url(#D)" fill-rule="evenodd" d="M762-119.1l-78.16-78.14-35.94 30.66-20.14 33.8 36.8 36.8h48.34c.25 0 .5.02.75.02 19.52 0 36.93-9.02 48.34-23.13z" clip-rule="evenodd"/><path fill="#fff" fill-rule="evenodd" d="M744.78 217V39h-52.03v178h52.03z" clip-rule="evenodd"/><linearGradient id="E" x1="647.995" x2="647.995" y1="-230.839" y2="-71.12" gradientUnits="userSpaceOnUse"><stop offset="0" stop-color="#fff"/><stop offset="1" stop-color="#CFE4F9"/></linearGradient><path fill="url(#E)" fill-rule="evenodd" d="M691.98-189.07l-40.83-40.83c-.87-.87-2-1.3-3.16-1.3-1.15 0-2.3.43-3.17 1.3L604-189.07c-.1.1-.2.2-.3.33-.02.04-.06.1-.1.13-.04.06-.1.13-.15.2-.04.07-.07.12-.1.18-.04.07-.1.13-.12.2-.03.06-.06.12-.1.18-.02.07-.06.14-.1.22 0 .06-.03.12-.05.17-.03.08-.06.16-.08.24-.02.05-.03.1-.05.17-.02.08-.04.16-.06.24-.02.08-.03.15-.04.22 0 .07-.03.15-.03.22-.02.13-.02.27-.02.4 0 0 0 .03 0 .04 0 0 0 0 0 .02 0 .14 0 .28.03.42 0 .07.02.13.03.2 0 .08.02.15.03.22 0 .08.03.16.05.24 0 .06.03.12.04.2.02.06.05.13.07.2.02.07.05.14.07.2.03.07.06.13.1.2.03.06.05.13.1.2.02.06.06.12.1.18.04.06.07.13.1.2.06.06.1.12.16.2.04.04.07.1.1.14.2.22.4.43.63.62.05.04.1.07.15.1.07.06.13.1.2.16.06.04.13.08.2.12.05.03.1.07.18.1.06.04.13.07.2.1.06.03.12.06.2.1.06 0 .13.04.2.06.06.03.13.05.2.07.07.02.15.04.22.06.07 0 .13.02.2.04.1.02.2.03.28.04.05 0 .1.02.15.02.16.02.3.02.46.02h20v46.66c0 1.92 1.55 3.48 3.46 3.48h34.75c1.9 0 3.46-1.56 3.46-3.48v-46.66h19.83c.03 0 .06 0 .1 0 1.15.02 2.33-.4 3.22-1.3 1.74-1.73 1.74-4.55 0-6.3z" clip-rule="evenodd"/><linearGradient id="F" x1="626.18" x2="626.18" y1="8" y2="303.017" gradientUnits="userSpaceOnUse"><stop offset="0" stop-color="#6CAEF1"/><stop offset="1" stop-color="#4799EB"/></linearGradient><path fill="url(#F)" d="M555.2 16.8c-8.88 0-16.08 7.18-16.08 16.04v190.33c0 8.85 7.2 16.04 16.07 16.04l141.97 16.73c8.87 0 16.06-7.18 16.06-16.04V16.1c0-8.85-7.2-16.03-16.06-16.03L555.2 16.8z"/><linearGradient id="G" x1="536.5" x2="708.036" y1="176.989" y2="176.989" gradientUnits="userSpaceOnUse"><stop offset="0" stop-color="#6CAEF1"/><stop offset="1" stop-color="#4799EB"/></linearGradient><path fill="url(#G)" d="M679 98.05l-66.18 11.2-13.15 57.7 41.17 41.16s31.92 31.64 46.96 46.77l8.94 1.06c8.87 0 16.07-7.18 16.07-16.04V131.84L679 98.05z"/><linearGradient id="H" x1="631.18" x2="631.18" y1="43.334" y2="228.044" gradientUnits="userSpaceOnUse"><stop offset="0" stop-color="#fff"/><stop offset="1" stop-color="#CFE4F9"/></linearGradient><path fill="url(#H)" d="M613.6 53.52c2.5.4 10.12 1.37 17.92 6.2s24.72 17.83 24.72 17.83c-3.84-10.04-15-26.2-22.8-31.57-1.55-1.07-3.54-1.85-5.4-2.18-3.06-.55-6.26-.07-9.25.67-1.4.34-2.92.84-4.28 1.58-1.5.82-2.8 1.93-3.57 3.46-.9 1.8.12 3.6 2.64 4.02zm64.47 43.05C671 90 659.84 91.2 659.84 91.2l-9.96-10.3c-11.76-11.6-30.35-17.22-50.75-16.74-20.4.48-20.28 18.18-20.28 18.18s-.1 1.9 0 4.45c.12 2.55 1.92 2.24 1.92 2.24 1.56-.72 17.16-2.52 29.64-2.87 12.48-.36 18.72 4.42 19.68 6.45-14.03 3-28.2 11.25-28.2 11.25-15.83 8-28.78 44-6.23 60.4 22.56 16.38 50.87 3.46 62.15-11.97 11.28-15.42 9.48-37.8 8.88-42.8 3-.13 16.67 6.92 16.67 6.92s1.8-13.27-5.28-19.85zm-30.65 40.72c-4.68 18.1-22.95 18.83-29.33 16.5-6.4-2.33-12.43-11.4-8.47-25.3 3.96-13.9 22.3-18.12 22.3-18.12l11.98-2.42s8.2 11.22 3.52 29.33zm-20.58 52.32c-6.42 0-11.63 5.2-11.63 11.6s5.22 11.6 11.64 11.6c6.43 0 11.64-5.2 11.64-11.6s-5.2-11.6-11.64-11.6z"/><path fill="#6CAEF1" fill-rule="evenodd" d="M652 315.03c-68.5 0-124.03 55.74-124.03 124.5 0 20.46 4.92 39.76 13.64 56.8l-20.92 65.83c-1.6 5.44-.14 7.43 0 7.57 2.1 2.1 3.63 1.15 7.56 0l58.28-24.46c19 11.88 41.44 18.75 65.47 18.75 68.48 0 124-55.74 124-124.5s-55.52-124.5-124-124.5zM652 945.03c-68.5 0-124.03 55.74-124.03 124.5 0 20.45 4.92 39.76 13.64 56.8l-20.92 65.83c-1.6 5.44-.14 7.43 0 7.57 2.1 2.1 3.63 1.15 7.56 0l58.28-24.46c19 11.88 41.44 18.75 65.47 18.75 68.48 0 124-55.74 124-124.5s-55.52-124.5-124-124.5z" clip-rule="evenodd"/><linearGradient id="I" x1="653.621" x2="741.441" y1="478.439" y2="390.618" gradientUnits="userSpaceOnUse"><stop offset="0" stop-color="#6CAEF1"/><stop offset="1" stop-color="#4799EB"/></linearGradient><path fill="url(#I)" fill-rule="evenodd" d="M774.95 455.67l-55.08-55.08-128.38 4.95v78.63l79.4 78.33c54.3-8.5 96.96-52.08 104.05-106.83z" clip-rule="evenodd"/><path fill="#fff" fill-rule="evenodd" d="M602.2 416H711.8c5.65 0 10.23-4.47 10.23-10s-4.57-9.98-10.22-9.98H602.2c-5.64 0-10.22 4.48-10.22 10s4.58 9.98 10.23 9.98zm109.58 17H602.2c-5.64 0-10.22 4.5-10.22 10s4.58 10 10.23 10H711.8c5.65 0 10.23-4.48 10.23-10s-4.57-10-10.22-10zm-50 37H602.2c-5.64 0-10.22 4.47-10.22 10s4.58 9.98 10.23 9.98h59.57c5.65 0 10.23-4.48 10.23-10S667.4 470 661.76 470z" clip-rule="evenodd"/><path fill="#6CAEF1" fill-rule="evenodd" d="M648 630c70.7 0 128.03 57.3 128.03 128S718.7 886 648 886s-128.04-57.3-128.04-128S577.28 630 648 630z" clip-rule="evenodd"/><linearGradient id="J" x1="599.823" x2="750.065" y1="839.808" y2="689.566" gradientUnits="userSpaceOnUse"><stop offset="0" stop-color="#6CAEF1"/><stop offset="1" stop-color="#4799EB"/></linearGradient><path fill="url(#J)" d="M696.76 721.1L656.68 681l-36.26 42.1-25.65-25.65-22.97 35.32 10.44 10.44-37.08 33.16 114.7 109.1c65.16-6 116.2-60.76 116.2-127.46 0-3.5-.16-6.98-.44-10.4l-40.66-40.67-38.2 14.16z"/><path fill="#A9D3FE" d="M715.23 735.5c11.65 0 21.1-9.43 21.1-21.08s-9.45-21.1-21.1-21.1c-11.65 0-21.1 9.45-21.1 21.1s9.45 21.1 21.1 21.1zm36.6 14.56c-8.36-7.5-35.75-7.44-35.75-7.44h-3.17s-27.38-.05-35.74 7.44-1.53 22.48-1.53 22.48 9.2 16.93 28.7 23.17c3.15.82 6.35 1.55 9.63 1.62 2.9.06 5.75-.52 8.58-1.12.7-.15 1.43-.3 2.13-.5 19.5-6.23 28.7-23.16 28.7-23.16s6.8-15-1.54-22.48zM582.23 735.5c11.65 0 21.1-9.43 21.1-21.08s-9.45-21.1-21.1-21.1c-11.65 0-21.1 9.45-21.1 21.1s9.45 21.1 21.1 21.1zm36.6 14.56c-8.36-7.5-35.75-7.44-35.75-7.44h-3.17s-27.38-.05-35.74 7.44-1.53 22.48-1.53 22.48 9.2 16.93 28.7 23.17c3.15.82 6.35 1.55 9.63 1.62 2.9.06 5.75-.52 8.58-1.12.7-.15 1.43-.3 2.13-.5 19.5-6.23 28.7-23.16 28.7-23.16s6.8-15-1.54-22.48z"/><path fill="#fff" d="M647.43 743.2c17.6 0 31.9-14.22 31.9-31.77s-14.3-31.78-31.9-31.78-31.9 14.22-31.9 31.78 14.3 31.78 31.9 31.78zm55.33 21.94c-12.64-11.3-54.04-11.22-54.04-11.22h-4.8s-41.4-.07-54.02 11.22c-12.64 11.3-2.32 33.87-2.32 33.87s13.9 25.52 43.37 34.93c4.78 1.2 9.6 2.3 14.57 2.42 4.4.1 8.7-.8 12.97-1.7 1.06-.22 2.14-.43 3.2-.72 29.48-9.4 43.37-34.92 43.37-34.92s10.32-22.57-2.32-33.86z"/><path fill="#4B98E6" fill-rule="evenodd" d="M735.86 1392h-15.6L710 1332.47c0-4.2-3.42-7.62-7.63-7.62-4.2 0-7.62 3.4-7.62 7.62L684.47 1392H668.9c-4.22 0-7.64 3.4-7.64 7.63 0 4.2 3.42 7.62 7.63 7.62h66.96c4.2 0 7.62-3.4 7.62-7.62 0-4.22-3.4-7.63-7.62-7.63z" clip-rule="evenodd"/><linearGradient id="K" x1="666.202" x2="761.839" y1="1121.487" y2="1025.85" gradientUnits="userSpaceOnUse"><stop offset="0" stop-color="#6CAEF1"/><stop offset="1" stop-color="#4799EB"/></linearGradient><path fill="url(#K)" fill-rule="evenodd" d="M775.92 1074.27l-44.9-44.9-10.37 41.74-40.74-40.72-60 27.77-43.9 47.02 88.06 88.07c61.44-5.8 109.8-56.52 111.86-118.97z" clip-rule="evenodd"/><path fill="#4B98E6" fill-rule="evenodd" d="M646.02 1260.32h111.63c10.13 0 18.35 8.22 18.35 18.35v76.58c0 10.14-8.22 18.35-18.35 18.35H646.02c-10.14 0-18.35-8.2-18.35-18.35v-76.58c0-10.13 8.2-18.35 18.35-18.35z" clip-rule="evenodd"/><path fill="#fff" fill-rule="evenodd" d="M776 1356.25v-10.84H627.67v10.85c0 10.14 8.2 18.35 18.35 18.35h111.63c10.13 0 18.35-8.2 18.35-18.35z" clip-rule="evenodd"/><path fill="#6CAEF1" fill-rule="evenodd" d="M701.83 1355.47c2.9 0 5.25 2.35 5.25 5.24 0 2.9-2.35 5.26-5.25 5.26s-5.24-2.35-5.24-5.25c0-2.88 2.34-5.23 5.23-5.23z" clip-rule="evenodd"/><path fill="#579DE5" fill-rule="evenodd" d="M660.77 1495.92H640.5l-13.38-77.46c0-5.47-4.44-9.92-9.92-9.92s-9.92 4.44-9.92 9.92l-13.37 77.46h-20.27c-5.47 0-9.92 4.44-9.92 9.92s4.45 9.92 9.93 9.92h87.14c5.48 0 9.92-4.44 9.92-9.92s-4.45-9.92-9.93-9.92z" clip-rule="evenodd"/><g fill="#fff" fill-rule="evenodd" clip-rule="evenodd"><path d="M685.92 1090.14c0 12.63-10.23 22.86-22.85 22.86h-66.43c-12.63 0-22.86-10.23-22.86-22.86v-44.28c0-12.63 10.23-22.86 22.86-22.86h66.43c12.62 0 22.85 10.23 22.85 22.86v44.28zM727.27 1028.13c-1.73 0-3.32.64-4.54 1.7L696.66 1051v34.5l26.07 19.93c1.22 1.05 2.8 1.7 4.54 1.7 3.84 0 6.95-3.1 6.95-6.95v-65.1c0-3.85-3.1-6.95-6.95-6.95z"/></g><path fill="#054977" fill-rule="evenodd" d="M702.4 1326.3l-3.22 80.95h36.7c4.22 0 7.63-3.4 7.63-7.62 0-4.2-3.4-7.63-7.6-7.63h-15.6l-3-17.4h33.4l-48.3-48.3z" opacity=".6" clip-rule="evenodd"/><linearGradient id="L" x1="597.817" x2="670.69" y1="1489.056" y2="1489.056" gradientUnits="userSpaceOnUse"><stop offset="0" stop-color="#4182C3"/><stop offset="1" stop-color="#4799EB"/></linearGradient><path fill="url(#L)" fill-rule="evenodd" d="M660.77 1515.76c5.48 0 9.92-4.44 9.92-9.92s-4.45-9.92-9.93-9.92H640.5l-5.8-33.57-36.8 10.48-.08.45 42.48 42.48h20.47z" clip-rule="evenodd"/><linearGradient id="M" x1="616.5" x2="616.5" y1="1330" y2="1449.004" gradientUnits="userSpaceOnUse"><stop offset="0" stop-color="#6CAEF1"/><stop offset="1" stop-color="#4799EB"/></linearGradient><path fill="url(#M)" fill-rule="evenodd" d="M543.88 1322.3h145.24c13.2 0 23.88 10.68 23.88 23.86v102.24c0 13.2-10.7 23.88-23.88 23.88H543.88c-13.2 0-23.88-10.7-23.88-23.88v-102.24c0-13.18 10.7-23.87 23.88-23.87z" clip-rule="evenodd"/><path fill="#fff" fill-rule="evenodd" d="M713 1449.4v-14.1H520v14.1c0 13.2 10.7 23.88 23.88 23.88h145.24c13.2 0 23.88-10.7 23.88-23.88z" clip-rule="evenodd"/><path fill="#479CE8" fill-rule="evenodd" d="M616.5 1448.4c3.77 0 6.82 3.04 6.82 6.8 0 3.78-3.05 6.83-6.82 6.83s-6.82-3.05-6.82-6.82c0-3.76 3.05-6.8 6.82-6.8z" clip-rule="evenodd"/><linearGradient id="N" x1="823.5" x2="711.78" y1="2367.969" y2="2367.969" gradientUnits="userSpaceOnUse"><stop offset="0" stop-color="#6CAEF1"/><stop offset="1" stop-color="#4799EB"/></linearGradient><path fill="url(#N)" fill-rule="evenodd" d="M775.85 2453.82c0 4.02-3.26 7.27-7.28 7.27H659.44c-4.02 0-7.28-3.26-7.28-7.28v-171.7c0-4.02 3.26-7.28 7.28-7.28h109.13c4.02 0 7.28 3.26 7.28 7.28v171.7z" clip-rule="evenodd"/><linearGradient id="O" x1="648" x2="648" y1="1564.667" y2="1677.501" gradientUnits="userSpaceOnUse"><stop offset="0" stop-color="#6CAEF1"/><stop offset="1" stop-color="#4799EB"/></linearGradient><path fill="url(#O)" fill-rule="evenodd" d="M539.97 1575h216.06c11.05 0 20 8.95 20 20v216c0 11.05-8.95 20-20 20H539.97c-11.05 0-20-8.95-20-20v-216c0-11.05 8.95-20 20-20z" clip-rule="evenodd"/><path fill="#fff" fill-rule="evenodd" d="M776.04 1634v177c0 11.05-8.96 20-20 20H539.96c-11.05 0-20-8.95-20-20v-177" clip-rule="evenodd"/><circle cx="648" cy="2018" r="128" fill="#6CAEF1" fill-rule="evenodd" clip-rule="evenodd"/><path fill="#C8E3FD" fill-rule="evenodd" d="M519.96 1662.5v4h256.07v-4H519.96zm0 38h256.07v-4H519.96v4zm0 34h256.07v-4H519.96v4zm0 34h256.07v-4H519.96v4zm0 34h256.07v-4H519.96v4z" clip-rule="evenodd"/><path fill="#55A0ED" fill-rule="evenodd" d="M576.9 1634v196.54h-9V1634h9z" clip-rule="evenodd"/><linearGradient id="P" x1="636.562" x2="760.9" y1="2083.561" y2="1959.223" gradientUnits="userSpaceOnUse"><stop offset="0" stop-color="#6CAEF1"/><stop offset="1" stop-color="#4799EB"/></linearGradient><path fill="url(#P)" fill-rule="evenodd" d="M774 2018c0-5.4-.34-10.7-.98-15.9l-67.3-67.3-97.07 67.7-51.83 35.92 106.42 106.42c62.54-8.42 110.76-62 110.76-126.84z" clip-rule="evenodd"/><linearGradient id="Q" x1="692.333" x2="583.705" y1="2018.002" y2="2018.002" gradientUnits="userSpaceOnUse" gradientTransform="translate(-2)"><stop offset="0" stop-color="#fff"/><stop offset="1" stop-color="#CFE4F9"/></linearGradient><path fill="url(#Q)" fill-rule="evenodd" d="M701.6 2055.32c-10.4-6.02-23-4.7-31.88 2.34l-65.7-38c-4.77-2.76-10.87-1.12-13.63 3.66-2.76 4.78-1.13 10.9 3.64 13.66l65.37 37.8c-2.13 11.55 3.03 23.7 13.76 29.9 13.6 7.87 31 3.2 38.85-10.43 7.86-13.63 3.2-31.06-10.4-38.93zm-98-38.97l65.54-38c8.85 7.03 21.43 8.35 31.8 2.33 13.58-7.87 18.23-25.3 10.4-38.93-7.85-13.63-25.2-18.3-38.77-10.43-10.7 6.2-15.85 18.35-13.72 29.9l-65.22 37.8c-4.76 2.77-6.4 8.88-3.64 13.66 2.74 4.8 8.83 6.43 13.6 3.67z" clip-rule="evenodd"/><path fill="#fff" fill-rule="evenodd" d="M557.57 2003.75c7.86-13.63 25.25-18.3 38.86-10.43 13.6 7.87 18.26 25.3 10.4 38.93-7.85 13.63-25.24 18.3-38.85 10.43-13.6-7.87-18.26-25.3-10.4-38.93z" clip-rule="evenodd"/><linearGradient id="R" x1="605" x2="605" y1="2242" y2="2519.576" gradientUnits="userSpaceOnUse"><stop offset="0" stop-color="#6CAEF1"/><stop offset="1" stop-color="#4799EB"/></linearGradient><path fill="url(#R)" fill-rule="evenodd" d="M690 2451c0 5.52-4.48 10-10 10H530c-5.52 0-10-4.48-10-10v-236c0-5.52 4.48-10 10-10h150c5.52 0 10 4.48 10 10v236z" clip-rule="evenodd"/><linearGradient id="S" x1="605" x2="605" y1="2290.5" y2="2491.502" gradientUnits="userSpaceOnUse"><stop offset="0" stop-color="#fff"/><stop offset="1" stop-color="#D0E4F9"/></linearGradient><path fill="url(#S)" fill-rule="evenodd" d="M569.5 2244.13h-21.18c-3.44 0-6.23 2.46-6.23 5.5v18.73c0 3.04 2.78 5.5 6.22 5.5h21.17c3.43 0 6.22-2.46 6.22-5.5v-18.73c0-3.04-2.8-5.5-6.23-5.5zm46.1 0h-21.2c-3.43 0-6.22 2.46-6.22 5.5v18.73c0 3.04 2.8 5.5 6.23 5.5h21.2c3.43 0 6.22-2.46 6.22-5.5v-18.73c0-3.04-2.8-5.5-6.23-5.5zm46.08 0H640.5c-3.43 0-6.22 2.46-6.22 5.5v18.73c0 3.04 2.8 5.5 6.23 5.5h21.18c3.44 0 6.23-2.46 6.23-5.5v-18.73c0-3.04-2.78-5.5-6.22-5.5zm-92.18 51.76h-21.18c-3.44 0-6.23 2.45-6.23 5.5v18.72c0 3.04 2.78 5.5 6.22 5.5h21.17c3.43 0 6.22-2.46 6.22-5.5v-18.72c0-3.05-2.8-5.5-6.23-5.5zm46.1 0h-21.2c-3.43 0-6.22 2.45-6.22 5.5v18.72c0 3.04 2.8 5.5 6.23 5.5h21.2c3.43 0 6.22-2.46 6.22-5.5v-18.72c0-3.05-2.8-5.5-6.23-5.5zm46.08 0H640.5c-3.43 0-6.22 2.45-6.22 5.5v18.72c0 3.04 2.8 5.5 6.23 5.5h21.18c3.44 0 6.23-2.46 6.23-5.5v-18.72c0-3.05-2.78-5.5-6.22-5.5zm-92.18 51.75h-21.18c-3.44 0-6.23 2.46-6.23 5.5v18.73c0 3.04 2.78 5.5 6.22 5.5h21.17c3.43 0 6.22-2.46 6.22-5.5v-18.72c0-3.05-2.8-5.5-6.23-5.5zm46.1 0h-21.2c-3.43 0-6.22 2.46-6.22 5.5v18.73c0 3.04 2.8 5.5 6.23 5.5h21.2c3.43 0 6.22-2.46 6.22-5.5v-18.72c0-3.05-2.8-5.5-6.23-5.5zm46.08 0H640.5c-3.43 0-6.22 2.46-6.22 5.5v18.73c0 3.04 2.8 5.5 6.23 5.5h21.18c3.44 0 6.23-2.46 6.23-5.5v-18.72c0-3.05-2.78-5.5-6.22-5.5zm-92.18 51.76h-21.18c-3.44 0-6.23 2.48-6.23 5.52v18.72c0 3.04 2.78 5.5 6.22 5.5h21.17c3.43 0 6.22-2.46 6.22-5.5v-18.72c0-3.04-2.8-5.5-6.23-5.5zm46.1 0h-21.2c-3.43 0-6.22 2.48-6.22 5.52v18.72c0 3.04 2.8 5.5 6.23 5.5h21.2c3.43 0 6.22-2.46 6.22-5.5v-18.72c0-3.04-2.8-5.5-6.23-5.5zm46.08 0H640.5c-3.43 0-6.22 2.48-6.22 5.52v18.72c0 3.04 2.8 5.5 6.23 5.5h21.18c3.44 0 6.23-2.46 6.23-5.5v-18.72c0-3.04-2.78-5.5-6.22-5.5z" clip-rule="evenodd"/><path fill="#3589E0" fill-rule="evenodd" d="M749.42 2344.58l-87.74 53.65-7.32 22.2s31.15 30.6 40.9 40.66h73.3c4.03 0 7.28-3.26 7.28-7.28v-82.8l-26.42-26.44z" clip-rule="evenodd"/><linearGradient id="T" x1="681.825" x2="709.301" y1="2316.698" y2="2410.838" gradientUnits="userSpaceOnUse"><stop offset="0" stop-color="#fff"/><stop offset="1" stop-color="#D0E4F9"/></linearGradient><path fill="url(#T)" d="M757.6 2397.22l-7.6-6.42c-.96-.84-4.5-4.37-4.34-10.05.05-4.9 2.84-8.1 4.03-9.24l7.9-6.67c1.3-.76 1.75-2.42 1-3.73l-11.8-20.67c-.76-1.3-2.42-1.75-3.7-1l-9.35 3.4c-1.2.42-6 1.75-10.8-1.24-4.25-2.5-5.63-6.58-6.02-8.2l-1.8-10.24c0-1.5-1.2-2.73-2.7-2.73h-23.67c-1.5 0-2.7 1.22-2.7 2.73l-1.74 9.85c-.24 1.23-1.47 5.97-6.26 8.7-4.73 2.8-9.42 1.5-10.6 1.1l-9.33-3.4c-1.3-.76-2.95-.3-3.7 1l-11.83 20.65c-.75 1.3-.3 2.98 1 3.73l7.9 6.68c1.2 1.15 3.98 4.36 4.04 9.26.15 5.67-3.4 9.2-4.35 10.04l-7.62 6.42c-1.3.75-1.75 2.42-1 3.72l11.82 20.67c.74 1.3 2.4 1.76 3.7 1l9.7-3.54c1.6-.47 5.8-1.3 10.06 1.16 4.96 2.7 6.22 7.55 6.46 8.8l1.73 9.85c0 1.5 1.2 2.73 2.7 2.73h23.68c1.5 0 2.7-1.23 2.7-2.73l1.8-10.24c.4-1.63 1.8-5.8 6.18-8.28 4.34-2.6 8.64-1.74 10.25-1.26l9.7 3.55c1.3.76 2.95.32 3.7-1l11.83-20.64c.75-1.3.3-2.98-1-3.74z"/><path fill="#D0E4F9" d="M746.77 2421.6l11.83-20.64c.75-1.3.3-2.98-1-3.73l-7.6-6.43c-.73-.65-3.03-2.93-3.95-6.57l-22.6-22.6-39.5 44.3s19.67 20.37 31.37 31.97l1.63-9.3c.4-1.63 1.8-5.8 6.17-8.28 4.33-2.6 8.63-1.74 10.24-1.26l9.7 3.55c1.3.76 2.96.3 3.7-1z"/><linearGradient id="U" x1="700.592" x2="700.592" y1="2354.537" y2="2412.256" gradientUnits="userSpaceOnUse"><stop offset="0" stop-color="#6CAEF1"/><stop offset="1" stop-color="#4799EB"/></linearGradient><path fill="url(#U)" fill-rule="evenodd" d="M700.6 2350.95c16.5 0 29.9 13.46 29.9 30.05s-13.4 30.05-29.9 30.05c-16.52 0-29.9-13.46-29.9-30.05s13.38-30.05 29.9-30.05z" clip-rule="evenodd"/><linearGradient id="V" x1="700.592" x2="700.592" y1="2363.846" y2="2407.62" gradientUnits="userSpaceOnUse"><stop offset="0" stop-color="#fff"/><stop offset="1" stop-color="#D0E4F9"/></linearGradient><path fill="url(#V)" fill-rule="evenodd" d="M700.6 2361.64c10.7 0 19.38 8.67 19.38 19.36 0 10.7-8.68 19.36-19.4 19.36-10.7 0-19.37-8.67-19.37-19.36 0-10.7 8.68-19.36 19.4-19.36z" clip-rule="evenodd"/><path fill="#6CAEF1" fill-rule="evenodd" d="M540.02 2520h216.06c11.05 0 20 8.95 20 20v216c0 11.05-8.95 20-20 20H540.02c-11.05 0-20-8.95-20-20v-216c0-11.05 8.95-20 20-20z" clip-rule="evenodd"/><linearGradient id="W" x1="541.316" x2="776.065" y1="2662.96" y2="2662.96" gradientUnits="userSpaceOnUse"><stop offset="0" stop-color="#6CAEF1"/><stop offset="1" stop-color="#4799EB"/></linearGradient><path fill="url(#W)" fill-rule="evenodd" d="M718.44 2551.07l-1.15-1.15-12.3 86.75-42.35-42.34-22.3 81.08-38.37-38.35-18 63.62-42.67 53.16L563.5 2776h192.58c11.05 0 20-8.96 20-20v-147.3l-57.62-57.63z" clip-rule="evenodd"/><path fill="#fff" fill-rule="evenodd" d="M714.04 2548.83h-22c-3.04 0-5.5 2.47-5.5 5.52v149.97c0 3.05 2.46 5.5 5.5 5.5h22c3.04 0 5.5-2.45 5.5-5.5v-149.97c0-3.05-2.46-5.52-5.5-5.52zm-55 44.1H637c-3.04 0-5.5 2.48-5.5 5.53v105.86c0 3.04 2.46 5.5 5.5 5.5h22c3.05 0 5.5-2.45 5.5-5.5v-105.86c0-3.05-2.45-5.52-5.5-5.52zM604 2637.06h-22c-3.03 0-5.5 2.47-5.5 5.52v61.75c0 3.05 2.47 5.5 5.5 5.5h22c3.05 0 5.5-2.45 5.5-5.5v-61.75c0-3.05-2.45-5.52-5.5-5.52zM555 2730.17h186.05c2.76 0 5 2.23 5 5v10c0 2.76-2.24 5-5 5H555c-2.77 0-5-2.24-5-5v-10c0-2.77 2.24-5 5-5z" clip-rule="evenodd"/><path fill="#6CAEF1" fill-rule="evenodd" d="M539.97 2835h216.06c11.05 0 20 8.95 20 20v216c0 11.05-8.95 20-20 20H539.97c-11.05 0-20-8.95-20-20v-216c0-11.05 8.95-20 20-20z" clip-rule="evenodd"/><linearGradient id="X" x1="618.142" x2="724.267" y1="3073.142" y2="2967.017" gradientUnits="userSpaceOnUse"><stop offset="0" stop-color="#6CAEF1"/><stop offset="1" stop-color="#4799EB"/></linearGradient><path fill="url(#X)" fill-rule="evenodd" d="M765.62 3033.33l-131.26-131.26-46.05 36.9 40.58 40.5-69.66-2.8 63.24-.67-13 8.2-24.5 6.96-37.45 41 58.86 58.84H756c11.03 0 20-8.95 20-20v-27.3l-10.38-10.37z" clip-rule="evenodd"/><linearGradient id="Y" x1="738.025" x2="738.025" y1="2903" y2="3167.12" gradientUnits="userSpaceOnUse"><stop offset="0" stop-color="#fff"/><stop offset="1" stop-color="#D0E4F9"/></linearGradient><path fill="url(#Y)" fill-rule="evenodd" d="M700 2835h56.03c11.05 0 20 8.95 20 20v216c0 11.05-8.95 20-20 20H700" clip-rule="evenodd"/><linearGradient id="Z" x1="610.001" x2="610.001" y1="2956" y2="3083.501" gradientUnits="userSpaceOnUse"><stop offset="0" stop-color="#fff"/><stop offset="1" stop-color="#D0E4F9"/></linearGradient><path fill="url(#Z)" fill-rule="evenodd" d="M610.34 2948.85c16.33 0 29.56-13.25 29.56-29.6 0-16.34-13.23-29.6-29.56-29.6s-29.56 13.26-29.56 29.6c0 16.35 13.23 29.6 29.56 29.6zm50.45 27.85c-12.4-10.1-34.74-15.28-50.33-15-15.64-.52-38.62 4.66-51.25 14.98-12.63 10.3-11.7 25-11.7 25s0 6.26 0 17.98 7.2 11 7.2 11h110.55s7.2.7 7.2-11 0-17.98 0-17.98.94-14.67-11.68-24.98z" clip-rule="evenodd"/><linearGradient id="aa" x1="738.025" x2="738.025" y1="2881" y2="3059.003" gradientUnits="userSpaceOnUse"><stop offset="0" stop-color="#6CAEF1"/><stop offset="1" stop-color="#4799EB"/></linearGradient><path fill="url(#aa)" fill-rule="evenodd" d="M757.7 2891.2h-39.36c-1.28 0-2.32 1.04-2.32 2.32v9.28c0 1.28 1.04 2.32 2.32 2.32h39.37c1.3 0 2.33-1.04 2.33-2.32v-9.28c0-1.28-1.04-2.32-2.32-2.32zm0 31h-39.36c-1.28 0-2.32 1.04-2.32 2.32v9.28c0 1.28 1.04 2.32 2.32 2.32h39.37c1.3 0 2.33-1.04 2.33-2.32v-9.28c0-1.28-1.04-2.32-2.32-2.32zm0 31h-39.36c-1.28 0-2.32 1.04-2.32 2.32v9.28c0 1.28 1.04 2.32 2.32 2.32h39.37c1.3 0 2.33-1.04 2.33-2.32v-9.28c0-1.28-1.04-2.32-2.32-2.32zm0 31h-39.36c-1.28 0-2.32 1.04-2.32 2.32v9.28c0 1.28 1.04 2.32 2.32 2.32h39.37c1.3 0 2.33-1.04 2.33-2.32v-9.28c0-1.28-1.04-2.32-2.32-2.32zm0 31h-39.36c-1.28 0-2.32 1.04-2.32 2.32v9.28c0 1.28 1.04 2.32 2.32 2.32h39.37c1.3 0 2.33-1.04 2.33-2.32v-9.28c0-1.28-1.04-2.32-2.32-2.32z" clip-rule="evenodd"/><path fill="#6CAEF1" fill-rule="evenodd" d="M587.45 2937.98" clip-rule="evenodd"/></g></svg>