<svg xmlns="http://www.w3.org/2000/svg" width="48" height="48" viewBox="0 0 48 48">
    <g fill="none" fill-rule="evenodd">
        <path fill="#3986E1" d="M0 0h48v48H0z"/>
        <path fill="#FFF" fill-rule="nonzero" d="M11 16a1 1 0 0 0-1 1v14a1 1 0 0 0 1 1h26a1 1 0 0 0 1-1V17a1 1 0 0 0-1-1H11zm0-2h26a3 3 0 0 1 3 3v14a3 3 0 0 1-3 3H11a3 3 0 0 1-3-3V17a3 3 0 0 1 3-3z"/>
        <path fill="#FFF" d="M13.375 18h8.25c.76 0 1.375.448 1.375 1v10c0 .552-.616 1-1.375 1h-8.25c-.76 0-1.375-.448-1.375-1V19c0-.552.616-1 1.375-1z"/>
    </g>
</svg>
