<svg xmlns="http://www.w3.org/2000/svg" width="48" height="48" viewBox="0 0 48 48">
    <g fill="none" fill-rule="evenodd">
        <path fill="#209DDF" d="M14 0h34v34c0 7.732-6.268 14-14 14H0V14C0 6.268 6.268 0 14 0z"/>
        <path fill="#FFF" d="M23.741 29.569a2.056 2.056 0 1 1-.012 4.112 2.056 2.056 0 0 1 .012-4.112zm-1.293-15.466V11h2.897v3.103h7.034L32.393 17H15.62v-2.897h6.827zm-4.551 20.69H33v2.897H15v-6.828h2.897v3.931zm5.712-17.218a5.67 5.67 0 1 1-.006 11.34 5.67 5.67 0 0 1 .006-11.34zm.003 2.839a2.838 2.838 0 1 1 .013 5.677 2.838 2.838 0 0 1-.013-5.677z"/>
    </g>
</svg>
