<svg xmlns="http://www.w3.org/2000/svg" width="48" height="48" viewBox="0 0 48 48">
    <g fill="none" fill-rule="evenodd">
        <path fill="#FFF" d="M8 0h32a8 8 0 0 1 8 8v32a8 8 0 0 1-8 8H8a8 8 0 0 1-8-8V8a8 8 0 0 1 8-8z"/>
        <path fill="#3986E1" d="M0 0h48v48H0z"/>
        <path fill="#FFF" fill-rule="nonzero" d="M16 16v2h6v-2h4v2h6v-2h5v25H11V16h5zm-3 2v21h22V18H13z"/>
        <path fill="#FFF" fill-rule="nonzero" d="M20 20h8v-7a4 4 0 1 0-8 0v7zm-2-7a6 6 0 1 1 12 0v7H18v-7z"/>
    </g>
</svg>
