<svg xmlns="http://www.w3.org/2000/svg" width="48" height="48" viewBox="0 0 48 48">
    <g fill="none" fill-rule="evenodd">
        <path fill="#3986E1" d="M0 0h48v48H0z"/>
        <path fill="#FFF" fill-rule="nonzero" d="M23 9v2h2V9h12a3 3 0 0 1 3 3v24a3 3 0 0 1-3 3H11a3 3 0 0 1-3-3V12a3 3 0 0 1 3-3h12zm-12 2a1 1 0 0 0-1 1v24a1 1 0 0 0 1 1h26a1 1 0 0 0 1-1V12a1 1 0 0 0-1-1H11z"/>
        <path fill="#FFF" d="M33.071 31.657l1.864-1.864L36.142 31l-4.07 4.071L28 31l1.207-1.207 1.864 1.864V25h2zM13 31h6a1 1 0 0 1 1 1v2a1 1 0 0 1-1 1h-6a1 1 0 0 1-1-1v-2a1 1 0 0 1 1-1z"/>
        <path fill="#FFF" fill-opacity=".5" d="M20 9h8v10h-8z"/>
    </g>
</svg>
